<?xml version="1.0" encoding="UTF-8"?>
<svg xmlns="http://www.w3.org/2000/svg" version="1.1" viewBox="0 0 75 22.7">
  <defs>
    <style>
      .cls-1 {
        fill: #f9f6f7;
      }
    </style>
  </defs>
  <!-- Generator: Adobe Illustrator 28.7.1, SVG Export Plug-In . SVG Version: 1.2.0 Build 142)  -->
  <g>
    <g id="Layer_2">
      <g id="Layer_2-2">
        <g id="Layer_2-2-2" data-name="Layer_2-2">
          <g id="Layer_2-2-2">
            <g id="Layer_1-2">
              <path class="cls-1" d="M7.1,2.7h0c0,1-.2,1.9-.6,2.8-.4.9-.9,1.6-1.7,2.1-.7.5-1.5.8-2.3.8h-.6c-.4,0-.6,0-.8,0-.5,0-.9,0-1.1,0v-.2c.2,0,.4,0,.5,0,.1,0,.2-.1.3-.3,0-.1.1-.4.2-.6L2.2,1.4c0-.3,0-.5,0-.6,0-.2,0-.3-.2-.3,0,0-.3-.1-.5-.1V.1c.3,0,.6,0,1,0h.8c.4,0,.7,0,.9,0,.9,0,1.6.2,2,.7s.7,1.1.7,1.9h0ZM2.4,8.2h0c.8,0,1.5-.2,2-.8.6-.5,1-1.3,1.3-2.1.3-.9.4-1.8.4-2.9s-.2-1.2-.5-1.6c-.3-.3-.8-.5-1.6-.5s-.3,0-.5,0c0,0-.2.2-.3.3s-.1.4-.2.6l-1.3,5.9c0,.3,0,.5,0,.6s0,.2.1.3c0,0,.2.1.5.1h0ZM12.8,5h0c-.2,1.1-.6,1.9-.9,2.5-.2.3-.5.6-.9.8-.3.2-.7.3-1.1.3-.7,0-1.2-.2-1.5-.6-.1-.2-.2-.4-.3-.6s0-.4,0-.6c0-.4,0-.9.2-1.7l.6-2.5c0-.3,0-.4,0-.6,0-.2,0-.3-.1-.4s-.3,0-.5-.1v-.2c.3,0,.7,0,1.3,0s.9,0,1.2,0v.2c-.3,0-.5,0-.6,0-.1,0-.2.1-.3.3s-.1.4-.2.6l-.6,2.7c-.1.7-.2,1.2-.2,1.6s0,.8.3,1c.2.2.5.4.9.4.7,0,1.2-.3,1.6-.8.4-.5.7-1.3.9-2.2l.6-2.5c0-.2,0-.4,0-.5s0-.4-.2-.4c-.1,0-.3-.1-.5-.1v-.2c.3,0,.6,0,1,0s.7,0,.9,0v.2c-.3,0-.6.1-.7.3-.1.2-.3.4-.4.9l-.5,2.4h0ZM19.3,7h0s.2,0,.2,0h0c-.1.6-.3,1-.5,1.2-.2.2-.4.4-.7.4s-.5-.1-.6-.3c-.1-.2-.2-.5-.2-.8v-.7s0-.3,0-.3c0-.3,0-.6-.1-.7s-.2-.3-.4-.4c-.2-.1-.5-.2-.9-.2h-.2l-.5,2.1c0,.2,0,.4,0,.6s0,.2.1.3c0,0,.3,0,.5.1v.2c-.4,0-.7,0-1.2,0s-1,0-1.3,0v-.2c.3,0,.4,0,.6,0,.1,0,.2-.1.3-.3s.1-.3.2-.6l1-4.7c0-.2,0-.4,0-.5,0-.1,0-.3-.1-.4,0,0-.2-.1-.5-.1v-.2c.3,0,.7,0,1.2,0s.6,0,.7,0h.7c.6,0,1.1.1,1.4.4.3.2.5.6.5,1s-.2,1.1-.6,1.5c-.4.4-1,.7-1.8.8h.2c.4.1.7.3.9.5.2.2.3.6.2,1.1v.6s0,.3,0,.3c0,.2,0,.4,0,.5s.1.2.2.2.2,0,.3-.2c0-.2.2-.4.3-.8v-.2s0,0,0,0ZM16,4.9h.2c.6,0,1.1,0,1.5-.2.4-.2.6-.4.8-.7.2-.3.2-.7.2-1.3s0-.7-.3-.9-.5-.3-.9-.3-.3,0-.5,0c-.1,0-.2.2-.3.3,0,.1-.1.4-.2.6l-.5,2.3s0,0,0,0ZM24.4,1.2h0s.6,6.3.6,6.3c0,.3,0,.4.2.6s.2.2.3.2v.2c-.3,0-.7,0-1.1,0s-.9,0-1.1,0v-.2c.3,0,.6,0,.7-.2s.2-.3.2-.6v-1.7h-2.6l-.6,1c-.3.4-.4.7-.4.9s.2.5.6.5v.2c-.2,0-.5,0-.9,0s-.7,0-.8,0v-.2c.3,0,.6-.4,1.1-1.1l3.9-5.9h.2ZM23.9,5.5h0l-.3-3-2,3h2.3ZM31.9,0h0c.1,0,.2,0,.3.2,0,0,.1.2.1.4,0,.3-.1.6-.4.9-.2.1-.4.2-.6.3-.2,0-.4,0-.7,0s-.5,0-.8,0l-1.3,5.3c0,.2,0,.4,0,.6s0,.3.2.4.3.1.6.1v.2c-.4,0-.9,0-1.5,0s-1.1,0-1.4,0v-.2c.3,0,.5,0,.7-.1s.3-.2.4-.3c0-.2.2-.4.2-.7l1.3-5.5c-.6,0-1-.1-1.2-.1-.4,0-.7,0-.9.2,0,0,0,.2.1.3s0,.2,0,.4c0,.2,0,.3-.1.5s-.2.2-.4.2-.2,0-.3-.1c0-.1-.1-.3-.1-.4,0-.4.2-.7.5-.9.3-.2.6-.3,1.1-.3s.9,0,1.5.2c.2,0,.5,0,.7.1.3,0,.5,0,.7,0s.4,0,.6,0,.3-.1.5-.2c-.2-.2-.2-.4-.2-.7s0-.3.1-.4c0-.1.2-.2.4-.2h0ZM32.8,7.2h0c0,.3,0,.5,0,.6,0,.2,0,.3.1.3s.3,0,.5.1v.2c-.4,0-.8,0-1.3,0s-.9,0-1.2,0v-.2c.3,0,.4,0,.5,0,.1,0,.2-.1.3-.3,0-.1.1-.4.2-.6l1-4.7c0-.3,0-.4,0-.6,0-.2,0-.3-.2-.4s-.3,0-.5-.1v-.2c.3,0,.7,0,1.3,0s.9,0,1.2,0v.2c-.3,0-.5,0-.6,0-.1,0-.2.1-.3.3s-.1.4-.2.6l-1,4.7h0ZM37.3,8.6c-.7,0-1.3-.2-1.7-.7s-.7-1.2-.7-2.1.2-1.4.5-2.1c.3-.7.8-1.3,1.4-1.8s1.2-.7,2-.7,1.3.2,1.7.7.7,1.2.7,2.1-.2,1.4-.5,2.1c-.3.7-.8,1.3-1.4,1.8-.6.5-1.3.7-2,.7ZM38.6,1.4h0c-.5,0-1,.2-1.4.7-.4.4-.7,1-1,1.7-.2.7-.3,1.4-.3,2.2s.1,1.5.4,1.9c.3.4.6.6,1.1.6s1-.2,1.4-.7c.4-.4.7-1,1-1.7s.3-1.4.3-2.2-.1-1.5-.4-1.9-.6-.6-1-.6h0ZM48.8.8h0c.2,0,.3,0,.4.1s.1.3.1.4,0,.4-.2.6c0,.2-.2.3-.4.3s-.2,0-.3-.1c0,0,0-.2,0-.3s0-.2,0-.4c0-.1.1-.3.2-.4h0c-.2,0-.3,0-.4.2s-.2.3-.3.4c-.3.5-.6,1.3-.9,2.4-.3,1.1-.6,2.6-1,4.5h-.2l-2.2-6.4c-.7,3.7-1.2,5.8-1.7,6.5-.2.2-.3.4-.5.5-.2.1-.3.2-.6.2-.4,0-.6-.2-.6-.6s0-.4.2-.6c0-.2.2-.3.4-.3s.2,0,.3.1,0,.2,0,.3,0,.3,0,.4-.1.2-.2.4h0c.3,0,.6-.2.8-.6.5-.8,1-3,1.6-6.4,0-.2,0-.4-.1-.4,0,0-.3-.1-.6-.1v-.2c.3,0,.5,0,.9,0s.6,0,.8,0l1.8,5.5c.6-2.8,1.2-4.6,1.6-5.3.3-.5.7-.8,1-.8h0ZM18.4,14.9h0c0-.2,0-.3,0-.5s0-.4-.2-.4c-.1,0-.3-.1-.6-.1v-.2c.3,0,.6,0,1,0s.7,0,.9,0v.2c-.3,0-.4,0-.6.1-.1,0-.2.2-.3.3,0,.1-.1.4-.2.7l-.8,3.5c-.2,1.1-.6,1.9-1,2.5-.2.3-.5.6-.9.8s-.7.3-1.1.3c-.7,0-1.2-.2-1.5-.6-.1-.2-.2-.3-.3-.5,0-.2,0-.4,0-.7,0-.4,0-1,.2-1.7l.8-3.7c0-.3,0-.5,0-.6,0-.2,0-.3-.1-.4,0,0-.3,0-.5-.1v-.2c.3,0,.7,0,1.3,0s.9,0,1.2,0v.2c-.3,0-.5,0-.6,0-.1,0-.2.1-.3.3,0,.1-.1.3-.2.6l-.9,3.9c-.1.7-.2,1.2-.2,1.6s0,.8.3,1c.2.2.5.4.9.4.7,0,1.2-.3,1.6-.8.4-.5.7-1.3.9-2.2l.8-3.7h0ZM25.5,14.9h0c.3-.6.7-.8,1-.8s.4,0,.4.2.1.3.1.4,0,.4-.1.6c0,.2-.2.3-.4.3s-.2,0-.3-.1c0,0,0-.2,0-.3s0-.2,0-.4c0-.1.1-.3.2-.4h0c-.2,0-.3,0-.4.2s-.2.3-.4.4c-.3.5-.6,1.3-.9,2.4-.3,1.1-.7,2.6-1,4.5h-.2l-2.2-6.4c-.7,3.7-1.2,5.8-1.7,6.5-.1.2-.3.4-.5.5-.1.1-.3.2-.6.2-.4,0-.6-.2-.6-.6s0-.4.1-.6.2-.3.4-.3.2,0,.3.1,0,.2,0,.3,0,.3,0,.4-.1.2-.2.4h0c.3,0,.6-.2.8-.6.4-.8,1-3,1.6-6.3,0-.2,0-.4-.1-.4,0,0-.3-.1-.6-.1v-.2c.3,0,.5,0,.9,0s.6,0,.8,0l1.8,5.5c.6-2.8,1.2-4.6,1.6-5.3h0ZM33,17.3h0c0,.9-.2,1.7-.5,2.4-.4.7-.9,1.2-1.5,1.6s-1.4.6-2.3.6h-.6c-.4,0-.6,0-.8,0-.5,0-.9,0-1.1,0v-.2c.2,0,.4,0,.5,0,.1,0,.2-.1.3-.3,0-.1.1-.4.2-.6l1-4.7c0-.2,0-.4,0-.6s0-.3-.1-.3-.3-.1-.5-.1v-.2c.3,0,.6,0,1,0h.8c.4,0,.7,0,.9,0,.9,0,1.6.2,2,.7s.7,1.1.7,1.9h0ZM28.5,21.6h0c1.2,0,2.1-.4,2.6-1.2.6-.8.9-2,.9-3.4s-.2-1.2-.5-1.6c-.3-.3-.8-.5-1.6-.5s-.3,0-.5,0c-.1,0-.2.2-.3.3s-.1.4-.2.6l-1,4.7c0,.3,0,.5,0,.6,0,.2,0,.2.1.3,0,0,.2,0,.5,0h0ZM38.9,18.5h0c-.2,1.1-.6,1.9-1,2.5-.2.3-.5.6-.9.8s-.7.3-1.1.3c-.7,0-1.2-.2-1.5-.6-.1-.2-.2-.4-.3-.6s0-.4,0-.6c0-.4,0-1,.2-1.7l.6-2.5c0-.3,0-.4,0-.6,0-.2,0-.3-.2-.3s-.3,0-.5-.1v-.2c.3,0,.7,0,1.3,0s.9,0,1.2,0v.2c-.3,0-.5,0-.6,0-.1,0-.2.1-.3.3s-.1.3-.2.7l-.6,2.7c-.1.7-.2,1.2-.2,1.6s0,.8.3,1c.2.2.5.4.9.4.7,0,1.2-.3,1.6-.8.4-.5.7-1.3.9-2.2l.6-2.5c0-.2,0-.4,0-.5s0-.4-.2-.4c-.1,0-.3-.2-.5-.2v-.2c.3,0,.6,0,1,0s.7,0,.9,0v.2c-.3,0-.6.1-.7.3s-.3.4-.4.9l-.5,2.4h0ZM45.1,19.4h0c0,0,0,.2-.1.4s-.1.4-.2.7c0,.3-.2.7-.2,1.4-.5,0-1.2,0-2.3,0s-2.1,0-2.7,0v-.2c.3,0,.4,0,.6,0s.2-.1.3-.3.1-.4.2-.6l1-4.7c0-.3,0-.5,0-.6,0-.2,0-.3-.2-.3s-.3,0-.5-.1v-.2c.3,0,.7,0,1.3,0s.9,0,1.2,0v.2c-.3,0-.5,0-.6,0-.1,0-.2.1-.3.3s-.1.3-.2.7l-1,4.7c0,.3,0,.5,0,.6,0,.2,0,.3.1.4,0,0,.3,0,.5,0h.6c.5,0,.9-.2,1.3-.5.4-.3.6-.9.9-1.7h.2,0ZM50.6,20.9h0c0,.3,0,.5.2.6s.2.2.3.2v.2c-.3,0-.7,0-1.1,0s-.9,0-1.2,0v-.2c.4,0,.6,0,.7-.2s.2-.3.2-.6v-.2l-.2-1.5h-2.5l-.7,1c-.3.4-.4.7-.4.9s.2.5.6.5v.2c-.2,0-.5,0-.9,0s-.7,0-.8,0v-.2c.3,0,.6-.5,1.1-1.1l3.9-5.9h.2l.6,6.2h0ZM49.5,18.9h0l-.3-3-2,3h2.3ZM57.5,13.5h0c.1,0,.2,0,.3.2,0,.1.1.2.1.4,0,.3-.1.6-.4.9-.2.1-.4.2-.6.3-.2,0-.5,0-.7,0s-.5,0-.8,0l-1.3,5.3c0,.2,0,.4,0,.6s0,.3.2.4c.1,0,.3.1.6.1v.2c-.4,0-.9,0-1.5,0s-1.1,0-1.4,0v-.2c.3,0,.5,0,.7-.1s.3-.2.3-.3c0-.2.2-.4.2-.7l1.3-5.5c-.6,0-1-.1-1.2-.1-.4,0-.7,0-.9.2,0,0,0,.2.1.3s0,.2,0,.4c0,.2,0,.3-.1.5s-.2.2-.3.2-.2,0-.3-.2c0-.1-.1-.3-.1-.4,0-.4.2-.7.5-.9.3-.2.6-.3,1.1-.3s.9,0,1.5.2c.2,0,.5,0,.7.1.3,0,.5,0,.7,0s.4,0,.6,0,.3-.1.5-.2c-.2-.2-.2-.4-.2-.7s0-.3.1-.4c0-.1.2-.2.3-.2h0ZM58.4,20.6h0c0,.3,0,.5,0,.6,0,.2,0,.3.1.3s.3,0,.5.1v.2c-.4,0-.8,0-1.3,0s-.9,0-1.2,0v-.2c.3,0,.4,0,.5,0,.1,0,.2-.1.3-.3,0-.1.1-.4.2-.6l1-4.7c0-.3,0-.4,0-.6,0-.2,0-.3-.2-.3s-.3,0-.5-.1v-.2c.3,0,.7,0,1.3,0s.9,0,1.2,0v.2c-.3,0-.5,0-.6,0-.1,0-.2.1-.3.3,0,.1-.1.3-.2.7l-1,4.7h0ZM62.8,22c-.7,0-1.3-.2-1.7-.7s-.7-1.2-.7-2.1.2-1.4.5-2.2c.3-.7.8-1.3,1.4-1.8.6-.5,1.2-.7,2-.7s1.3.2,1.7.7.7,1.2.7,2.1-.2,1.4-.5,2.2c-.3.7-.8,1.3-1.4,1.8-.6.5-1.3.7-2,.7ZM64.2,14.8h0c-.5,0-1,.2-1.4.7-.4.4-.7,1-1,1.7-.2.7-.3,1.4-.3,2.2s.1,1.5.4,1.9c.3.4.6.6,1.1.6s1-.2,1.4-.7c.4-.4.7-1,1-1.7.2-.7.3-1.4.3-2.2s-.1-1.5-.4-1.9-.6-.6-1-.6h0ZM73.4,14.9h0c.3-.6.7-.8,1-.8s.4,0,.4.2.1.3.1.4,0,.4-.2.6c0,.2-.2.3-.4.3s-.2,0-.3-.1c0,0,0-.2,0-.3s0-.2,0-.4.1-.3.2-.4h0c-.2,0-.3,0-.4.2-.1.1-.2.3-.3.4-.3.5-.6,1.3-.9,2.4s-.7,2.6-1,4.5h-.2l-2.2-6.4c-.7,3.7-1.2,5.8-1.7,6.5-.2.2-.3.4-.5.5-.2.1-.3.2-.6.2-.4,0-.6-.2-.6-.6s0-.4.2-.6c0-.2.2-.3.4-.3s.2,0,.3.1,0,.2,0,.3,0,.3,0,.4-.1.2-.2.4h0c.3,0,.6-.2.8-.6.4-.8,1-3,1.6-6.3,0-.2,0-.4-.1-.4,0,0-.3-.1-.6-.1v-.2c.3,0,.6,0,.9,0s.6,0,.8,0l1.8,5.5c.6-2.8,1.2-4.6,1.6-5.3h0Z"/>
            </g>
          </g>
        </g>
      </g>
    </g>
  </g>
</svg>