<svg width="581" height="231" viewBox="0 0 581 231" fill="none" xmlns="http://www.w3.org/2000/svg">
<mask id="path-1-outside-1_1029_326" maskUnits="userSpaceOnUse" x="0" y="0" width="581" height="231" fill="black">
<rect fill="white" width="581" height="231"/>
<path d="M49.3413 25.8189C49.3413 34.8113 47.9802 43.372 45.258 51.5011C42.5358 59.5583 38.7818 66.0688 33.9959 71.0325C29.254 75.9244 23.9632 78.3703 18.1236 78.3703L14.3037 78.2624C11.845 78.1185 10.0448 78.0466 8.90322 78.0466C5.34677 78.0466 2.71236 78.1545 1 78.3703L1.19758 76.2121C2.69041 76.0683 3.81003 75.7805 4.55645 75.3489C5.34677 74.9172 5.96146 74.0899 6.40053 72.867C6.88351 71.5721 7.34453 69.5938 7.78359 66.932L16.4113 13.4095C16.8064 10.6758 17.004 8.91328 17.004 8.12195C17.004 6.68317 16.6747 5.67603 16.0161 5.10052C15.4014 4.525 14.2598 4.20128 12.5914 4.12934L12.789 1.97118C14.2818 2.18699 16.4113 2.2949 19.1774 2.2949L24.7755 2.18699C27.7612 2.04311 29.7589 1.97118 30.7688 1.97118C36.9596 1.97118 41.5918 3.98547 44.6653 8.01404C47.7826 12.0426 49.3413 17.9776 49.3413 25.8189ZM17.3333 76.428C22.7778 76.428 27.4319 74.018 31.2957 69.1981C35.1595 64.3063 38.0793 57.7958 40.0551 49.6667C42.0309 41.5376 43.0188 32.6891 43.0188 23.1212C43.0188 16.5748 41.8991 11.7549 39.6599 8.66149C37.4207 5.49618 33.8423 3.91352 28.9247 3.91352C27.5636 3.91352 26.4879 4.16531 25.6976 4.66888C24.9511 5.17245 24.3364 6.07169 23.8535 7.36659C23.3705 8.66149 22.9314 10.6038 22.5363 13.1936L13.9086 67.1478C13.5134 69.7376 13.3158 71.5001 13.3158 72.4354C13.3158 73.8022 13.6012 74.8093 14.172 75.4568C14.7867 76.1042 15.8405 76.428 17.3333 76.428ZM88.5024 46.969C86.9217 56.8965 84.7703 64.5221 82.0481 69.8455C80.4236 72.9389 78.4258 75.3848 76.0548 77.1833C73.7278 78.9818 71.2251 79.881 68.5468 79.881C63.6292 79.881 60.2484 77.9387 58.4043 74.054C57.614 72.3994 57.0212 70.7088 56.6261 68.9823C56.2309 67.2557 56.0333 65.2774 56.0333 63.0473C56.0333 59.4504 56.6041 54.1988 57.7457 47.2927L61.4997 24.2003C61.851 21.7544 62.0266 20.0278 62.0266 19.0207C62.0266 17.438 61.6973 16.3949 61.0387 15.8914C60.424 15.3878 59.2824 15.0641 57.614 14.9202L58.0092 12.762C59.7654 12.9778 62.5974 13.0857 66.5051 13.0857C69.8859 13.0857 72.6301 12.9778 74.7376 12.762L74.3425 14.9202C72.7179 15.0641 71.5105 15.3518 70.7202 15.7834C69.9737 16.2151 69.359 17.0424 68.8761 18.2653C68.437 19.4883 67.9979 21.4666 67.5589 24.2003L63.4755 49.1271C62.5096 55.2419 62.0266 60.0978 62.0266 63.6948C62.0266 67.6514 62.6194 70.7088 63.8048 72.867C64.9903 75.0252 66.9881 76.1042 69.7981 76.1042C74.4083 76.1042 78.0306 73.6583 80.665 68.7665C83.3434 63.8746 85.385 57.0044 86.79 48.156L90.5441 25.2794C90.8514 23.4809 91.0051 21.8623 91.0051 20.4235C91.0051 18.4812 90.6099 17.1143 89.8196 16.323C89.0732 15.5317 87.8438 15.0641 86.1314 14.9202L86.4607 12.762C88.0414 12.9778 90.2587 13.0857 93.1126 13.0857C95.7909 13.0857 97.8545 12.9778 99.3035 12.762L98.9741 14.9202C96.9983 15.0641 95.5055 15.8554 94.4957 17.2942C93.4858 18.7329 92.6516 21.3947 91.993 25.2794L88.5024 46.969ZM132.999 65.3134H134.513L134.25 66.7162C133.46 71.1764 132.406 74.4856 131.089 76.6438C129.815 78.8019 128.169 79.881 126.149 79.881C124.129 79.881 122.659 78.9099 121.737 76.9675C120.858 74.9532 120.463 72.4713 120.551 69.5218L120.815 62.7236C120.858 62.0761 120.88 61.105 120.88 59.8101C120.88 56.9325 120.595 54.6664 120.024 53.0118C119.497 51.2853 118.531 49.9904 117.126 49.1271C115.721 48.1919 113.702 47.6524 111.067 47.5085H109.816L106.655 66.932C106.303 69.2341 106.128 70.9606 106.128 72.1116C106.128 73.4785 106.435 74.4856 107.05 75.1331C107.708 75.7086 108.872 76.0683 110.54 76.2121L110.277 78.3703C108.257 78.1545 105.535 78.0466 102.11 78.0466C98.2464 78.0466 95.3925 78.1545 93.5484 78.3703L93.8118 76.2121C95.3925 76.0683 96.578 75.7805 97.3683 75.3489C98.1586 74.9172 98.7733 74.0899 99.2124 72.867C99.6954 71.644 100.156 69.6657 100.595 66.932L107.577 24.2003C107.884 21.8983 108.038 20.3156 108.038 19.4523C108.038 17.9416 107.708 16.8625 107.05 16.2151C106.435 15.4957 105.315 15.0641 103.691 14.9202L104.02 12.762C105.776 12.9778 108.477 13.0857 112.121 13.0857C114.228 13.0857 115.809 13.0498 116.863 12.9778L121.737 12.8699C126.039 12.8699 129.289 14.0569 131.484 16.4309C133.723 18.7329 134.843 21.8983 134.843 25.9268C134.843 31.3223 133.35 35.8544 130.364 39.5233C127.379 43.1202 123.295 45.5302 118.114 46.7532L119.497 47.0769C122.263 47.9401 124.217 49.4149 125.359 51.5011C126.544 53.5154 127.049 56.7886 126.874 61.3208L126.676 67.0399C126.632 67.6874 126.61 68.5507 126.61 69.6297C126.61 71.644 126.764 73.1907 127.071 74.2698C127.379 75.3489 127.905 75.8884 128.652 75.8884C129.442 75.8884 130.145 75.169 130.759 73.7303C131.374 72.2195 132.011 69.9175 132.669 66.8241L132.999 65.3134ZM110.211 45.3503H111.331C115.546 45.3503 118.861 44.6669 121.276 43.3001C123.734 41.9332 125.491 39.811 126.544 36.9335C127.642 33.984 128.191 30.0993 128.191 25.2794C128.191 21.7544 127.532 19.1646 126.215 17.51C124.898 15.7834 122.768 14.9202 119.827 14.9202C118.509 14.9202 117.478 15.2079 116.731 15.7834C115.985 16.287 115.37 17.1863 114.887 18.4812C114.448 19.7761 114.031 21.6824 113.636 24.2003L110.211 45.3503ZM171.557 69.306C171.733 71.68 172.128 73.4065 172.743 74.4856C173.357 75.5647 174.038 76.1402 174.784 76.2121L174.455 78.3703C172.699 78.1545 170.306 78.0466 167.276 78.0466C163.72 78.0466 161.085 78.1545 159.373 78.3703L159.702 76.2121C161.766 76.0683 163.237 75.5287 164.115 74.5935C164.993 73.6583 165.432 71.8958 165.432 69.306C165.432 68.3708 165.41 67.6514 165.366 67.1478L164.378 53.7672H147.65L143.171 62.9394C141.459 66.4644 140.603 69.342 140.603 71.5721C140.603 74.2338 141.92 75.7805 144.555 76.2121V78.3703C143.237 78.1545 141.24 78.0466 138.561 78.0466C135.883 78.0466 133.973 78.1545 132.831 78.3703V76.2121C134.763 75.3489 137.156 72.0037 140.01 66.1767L166.486 12.0067H167.474L171.557 69.306ZM164.247 51.609L162.205 24.2003L148.704 51.609H164.247ZM219.174 1C220.139 1 220.864 1.50357 221.347 2.51072C221.874 3.44592 222.137 4.63291 222.137 6.07169C222.137 8.94925 221.127 11.611 219.108 14.0569C217.834 15.2799 216.495 16.1791 215.09 16.7546C213.685 17.2582 211.995 17.51 210.019 17.51C208.351 17.51 206.484 17.3301 204.421 16.9704L195.793 65.8529C195.398 68.0111 195.2 69.8096 195.2 71.2484C195.2 73.0468 195.618 74.3058 196.452 75.0251C197.286 75.7445 198.713 76.1402 200.733 76.2121L200.469 78.3703C198.186 78.1545 194.915 78.0466 190.656 78.0466C186.353 78.0466 183.148 78.1545 181.041 78.3703L181.304 76.2121C183.192 76.0683 184.641 75.7086 185.651 75.1331C186.661 74.5576 187.451 73.5864 188.022 72.2195C188.636 70.8527 189.185 68.7305 189.668 65.8529L198.559 15.5676C194.696 14.7044 191.929 14.2727 190.261 14.2727C187.451 14.2727 185.387 14.8842 184.07 16.1072C184.421 16.8985 184.707 17.8697 184.926 19.0207C185.146 20.1717 185.256 21.2868 185.256 22.3659C185.256 24.0205 184.97 25.4952 184.399 26.7901C183.829 28.0131 183.016 28.6245 181.963 28.6245C181.041 28.6245 180.316 28.1569 179.789 27.2217C179.306 26.2146 179.065 24.8837 179.065 23.2291C179.065 19.5602 180.206 16.7546 182.489 14.8123C184.377 13.1577 186.858 12.3304 189.932 12.3304C192.434 12.3304 195.925 12.8339 200.403 13.8411C202.028 14.2008 203.696 14.5605 205.409 14.9202C207.165 15.2079 208.79 15.3518 210.282 15.3518C211.907 15.3518 213.268 15.172 214.366 14.8123C215.463 14.4526 216.539 13.8411 217.593 12.9778C216.495 11.1794 215.946 9.16506 215.946 6.93496C215.946 5.3523 216.21 3.98546 216.737 2.83444C217.307 1.61148 218.12 1 219.174 1ZM225.32 66.932C224.925 69.6657 224.727 71.4282 224.727 72.2195C224.727 73.7303 225.035 74.7374 225.649 75.241C226.308 75.7445 227.494 76.0683 229.206 76.2121L228.942 78.3703C226.923 78.1545 224.135 78.0466 220.578 78.0466C216.934 78.0466 214.146 78.1545 212.214 78.3703L212.543 76.2121C214.08 76.0683 215.222 75.7805 215.968 75.3489C216.758 74.9172 217.373 74.0899 217.812 72.867C218.295 71.5721 218.756 69.5938 219.195 66.932L226.11 24.2003C226.462 21.7544 226.637 20.0278 226.637 19.0207C226.637 17.438 226.308 16.3949 225.649 15.8914C225.035 15.3878 223.893 15.0641 222.225 14.9202L222.554 12.762C224.354 12.9778 227.142 13.0857 230.918 13.0857C234.431 13.0857 237.241 12.9778 239.348 12.762L239.019 14.9202C237.394 15.0641 236.187 15.3518 235.397 15.7834C234.65 16.2151 234.036 17.0424 233.553 18.2653C233.114 19.4883 232.675 21.4666 232.235 24.2003L225.32 66.932ZM255.612 79.881C250.694 79.881 246.764 77.6869 243.823 73.2986C240.881 68.9103 239.41 62.4358 239.41 53.8751C239.41 47.3287 240.53 40.7463 242.769 34.1279C245.008 27.5095 248.126 22.0421 252.121 17.7258C256.117 13.4095 260.617 11.2513 265.622 11.2513C270.54 11.2513 274.47 13.4454 277.411 17.8337C280.353 22.222 281.824 28.6965 281.824 37.2572C281.824 43.8037 280.704 50.3861 278.465 57.0044C276.226 63.6228 273.109 69.0902 269.113 73.4065C265.117 77.7229 260.617 79.881 255.612 79.881ZM265.03 13.1936C261.561 13.1936 258.4 15.2439 255.546 19.3444C252.692 23.4449 250.453 28.7684 248.828 35.3149C247.247 41.7894 246.457 48.4797 246.457 55.3858C246.457 63.1552 247.313 68.8744 249.026 72.5433C250.782 76.1402 253.175 77.9387 256.204 77.9387C259.673 77.9387 262.834 75.8884 265.688 71.7879C268.542 67.6874 270.76 62.3999 272.34 55.9254C273.965 49.3789 274.777 42.6526 274.777 35.7465C274.777 27.9771 273.899 22.2939 272.143 18.697C270.43 15.0281 268.059 13.1936 265.03 13.1936ZM334.75 7.79822C336.155 7.79822 337.165 8.3018 337.78 9.30894C338.395 10.3161 338.702 11.647 338.702 13.3016C338.702 15.2439 338.351 17.0424 337.648 18.697C336.946 20.2796 336.002 21.071 334.816 21.071C333.938 21.071 333.301 20.6753 332.906 19.884C332.511 19.0207 332.314 18.0136 332.314 16.8625C332.314 15.7115 332.511 14.5245 332.906 13.3016C333.301 12.0067 333.806 10.9276 334.421 10.0643H334.223C333.082 10.1362 332.072 10.6398 331.194 11.575C330.36 12.5102 329.569 13.8411 328.823 15.5676C326.891 20.0998 324.827 27.5095 322.632 37.7968C320.481 48.084 318.132 61.7884 315.585 78.9099H314.136L299.12 19.7761C294.422 53.4435 290.558 73.3706 287.529 79.5573C286.475 81.7155 285.421 83.3701 284.367 84.5211C283.357 85.744 282.062 86.3555 280.482 86.3555C277.847 86.3555 276.53 84.4851 276.53 80.7443C276.53 78.8019 276.881 77.0394 277.584 75.4568C278.286 73.8741 279.23 73.0828 280.416 73.0828C281.294 73.0828 281.931 73.5144 282.326 74.3777C282.721 75.169 282.918 76.1402 282.918 77.2912C282.918 78.4422 282.721 79.6292 282.326 80.8522C281.931 82.0752 281.426 83.1542 280.811 84.0895H280.943C283.05 84.0175 284.894 82.1471 286.475 78.4782C289.636 70.7808 293.368 51.3213 297.671 20.0998C297.759 18.0855 297.452 16.7546 296.749 16.1072C296.09 15.4597 294.707 15.0641 292.6 14.9202L292.929 12.762C294.334 12.9778 296.288 13.0857 298.791 13.0857C300.81 13.0857 302.589 12.9778 304.125 12.762L316.639 63.5869C320.854 37.6888 324.52 21.3947 327.637 14.7044C329.745 10.1003 332.116 7.79822 334.75 7.79822ZM192.912 158.226C193.219 156.427 193.373 154.845 193.373 153.478C193.373 151.464 193 150.061 192.253 149.269C191.507 148.478 190.255 148.011 188.499 147.867L188.828 145.709C190.365 145.924 192.583 146.032 195.48 146.032C198.071 146.032 200.134 145.924 201.671 145.709L201.342 147.867C199.805 148.011 198.598 148.406 197.72 149.054C196.885 149.629 196.205 150.636 195.678 152.075C195.195 153.442 194.756 155.492 194.361 158.226L189.224 190.706C187.643 200.634 185.492 208.259 182.769 213.583C181.145 216.676 179.147 219.122 176.776 220.921C174.449 222.719 171.946 223.618 169.268 223.618C164.57 223.618 161.189 221.676 159.126 217.791C158.335 216.281 157.742 214.662 157.347 212.935C156.996 211.137 156.82 209.087 156.82 206.785C156.82 202.9 157.369 197.648 158.467 191.03L163.933 157.147C164.285 154.701 164.46 152.974 164.46 151.967C164.46 150.385 164.131 149.341 163.472 148.838C162.858 148.334 161.716 148.011 160.048 147.867L160.443 145.709C162.199 145.924 165.031 146.032 168.939 146.032C172.32 146.032 175.064 145.924 177.171 145.709L176.776 147.867C175.152 148.011 173.944 148.298 173.154 148.73C172.407 149.162 171.793 149.989 171.31 151.212C170.871 152.435 170.432 154.413 169.992 157.147L164.197 192.864C163.231 198.979 162.748 203.835 162.748 207.432C162.748 211.389 163.341 214.446 164.526 216.604C165.755 218.762 167.753 219.842 170.519 219.842C175.13 219.842 178.752 217.396 181.386 212.504C184.065 207.612 186.106 200.742 187.511 191.893L192.912 158.226ZM248.695 151.536C250.1 151.536 251.11 152.039 251.724 153.046C252.339 154.053 252.646 155.384 252.646 157.039C252.646 158.981 252.295 160.78 251.593 162.434C250.89 164.017 249.946 164.808 248.761 164.808C247.883 164.808 247.246 164.413 246.851 163.621C246.456 162.758 246.258 161.751 246.258 160.6C246.258 159.449 246.456 158.262 246.851 157.039C247.246 155.744 247.751 154.665 248.366 153.802H248.168C247.026 153.874 246.016 154.377 245.138 155.312C244.304 156.248 243.514 157.578 242.767 159.305C240.836 163.837 238.772 171.247 236.577 181.534C234.425 191.821 232.076 205.526 229.53 222.647H228.081L213.064 163.513C208.366 197.181 204.503 217.108 201.473 223.295C200.419 225.453 199.366 227.107 198.312 228.258C197.302 229.481 196.007 230.093 194.426 230.093C191.792 230.093 190.474 228.222 190.474 224.482C190.474 222.539 190.826 220.777 191.528 219.194C192.231 217.611 193.175 216.82 194.36 216.82C195.238 216.82 195.875 217.252 196.27 218.115C196.665 218.906 196.863 219.878 196.863 221.029C196.863 222.18 196.665 223.367 196.27 224.59C195.875 225.812 195.37 226.892 194.755 227.827H194.887C196.995 227.755 198.839 225.884 200.419 222.216C203.581 214.518 207.313 195.059 211.616 163.837C211.703 161.823 211.396 160.492 210.694 159.844C210.035 159.197 208.652 158.801 206.544 158.657L206.874 156.499C208.279 156.715 210.233 156.823 212.735 156.823C214.755 156.823 216.533 156.715 218.07 156.499L230.583 207.324C234.798 181.426 238.465 165.132 241.582 158.442C243.689 153.838 246.06 151.536 248.695 151.536ZM292.549 180.347C292.549 188.26 291.342 195.382 288.927 201.713C286.512 208.044 283.066 213.043 278.587 216.712C274.153 220.309 268.972 222.108 263.044 222.108L259.224 222C256.765 221.856 254.965 221.784 253.824 221.784C250.267 221.784 247.633 221.892 245.92 222.108L246.118 219.949C247.611 219.806 248.73 219.518 249.477 219.086C250.267 218.655 250.882 217.827 251.321 216.604C251.804 215.309 252.265 213.331 252.704 210.669L259.619 167.938C260.015 165.636 260.212 163.873 260.212 162.65C260.212 161.211 259.883 160.204 259.224 159.629C258.61 159.053 257.468 158.729 255.799 158.657L255.997 156.499C257.49 156.715 259.619 156.823 262.385 156.823L267.984 156.715C270.969 156.571 272.967 156.499 273.977 156.499C280.168 156.499 284.8 158.514 287.873 162.542C290.991 166.571 292.549 172.506 292.549 180.347ZM262.254 220.165C270.377 220.165 276.392 216.353 280.299 208.727C284.251 201.101 286.227 190.742 286.227 177.649C286.227 171.103 285.107 166.283 282.868 163.19C280.629 160.024 277.05 158.442 272.133 158.442C270.772 158.442 269.696 158.693 268.906 159.197C268.159 159.701 267.545 160.6 267.062 161.895C266.579 163.19 266.14 165.132 265.744 167.722L258.829 210.885C258.434 213.619 258.236 215.417 258.236 216.281C258.236 217.647 258.522 218.655 259.092 219.302C259.707 219.878 260.761 220.165 262.254 220.165ZM333.227 190.706C331.646 200.634 329.495 208.259 326.773 213.583C325.148 216.676 323.15 219.122 320.779 220.921C318.452 222.719 315.95 223.618 313.271 223.618C308.354 223.618 304.973 221.676 303.129 217.791C302.338 216.137 301.746 214.446 301.35 212.72C300.955 210.993 300.758 209.015 300.758 206.785C300.758 203.188 301.329 197.936 302.47 191.03L306.224 167.938C306.575 165.492 306.751 163.765 306.751 162.758C306.751 161.175 306.422 160.132 305.763 159.629C305.148 159.125 304.007 158.801 302.338 158.657L302.734 156.499C304.49 156.715 307.322 156.823 311.23 156.823C314.61 156.823 317.355 156.715 319.462 156.499L319.067 158.657C317.442 158.801 316.235 159.089 315.445 159.521C314.698 159.952 314.083 160.78 313.601 162.003C313.161 163.226 312.722 165.204 312.283 167.938L308.2 192.864C307.234 198.979 306.751 203.835 306.751 207.432C306.751 211.389 307.344 214.446 308.529 216.604C309.715 218.762 311.713 219.842 314.523 219.842C319.133 219.842 322.755 217.396 325.389 212.504C328.068 207.612 330.109 200.742 331.514 191.893L335.268 169.017C335.576 167.218 335.73 165.6 335.73 164.161C335.73 162.218 335.334 160.852 334.544 160.06C333.798 159.269 332.568 158.801 330.856 158.657L331.185 156.499C332.766 156.715 334.983 156.823 337.837 156.823C340.515 156.823 342.579 156.715 344.028 156.499L343.699 158.657C341.723 158.801 340.23 159.593 339.22 161.031C338.21 162.47 337.376 165.132 336.717 169.017L333.227 190.706ZM375.747 199.447C375.659 199.95 375.396 201.209 374.957 203.224C374.518 205.238 374.167 207.288 373.903 209.374C373.42 212.036 372.871 216.281 372.257 222.108C369.183 221.892 363.958 221.784 356.582 221.784C348.459 221.784 342.312 221.892 338.141 222.108L338.47 219.949C340.051 219.806 341.237 219.518 342.027 219.086C342.817 218.655 343.432 217.827 343.871 216.604C344.354 215.381 344.815 213.403 345.254 210.669L352.301 167.938C352.696 165.204 352.894 163.441 352.894 162.65C352.894 161.139 352.564 160.132 351.906 159.629C351.291 159.125 350.15 158.801 348.481 158.657L348.81 156.499C350.611 156.715 353.399 156.823 357.175 156.823C360.687 156.823 363.497 156.715 365.605 156.499L365.275 158.657C363.651 158.801 362.444 159.089 361.653 159.521C360.863 159.952 360.226 160.78 359.743 162.003C359.304 163.226 358.865 165.204 358.426 167.938L351.379 210.669C350.984 213.403 350.786 215.13 350.786 215.849C350.786 217.432 351.094 218.475 351.708 218.978C352.367 219.41 353.552 219.626 355.265 219.626H359.414C362.751 219.626 365.649 218.079 368.107 214.986C370.566 211.82 372.608 206.641 374.232 199.447H375.747ZM412.744 213.043C412.92 215.417 413.315 217.144 413.93 218.223C414.544 219.302 415.225 219.878 415.971 219.949L415.642 222.108C413.886 221.892 411.493 221.784 408.463 221.784C404.907 221.784 402.272 221.892 400.56 222.108L400.889 219.949C402.953 219.806 404.424 219.266 405.302 218.331C406.18 217.396 406.619 215.633 406.619 213.043C406.619 212.108 406.597 211.389 406.553 210.885L405.565 197.505H388.837L384.358 206.677C382.646 210.202 381.79 213.079 381.79 215.309C381.79 217.971 383.107 219.518 385.742 219.949V222.108C384.424 221.892 382.427 221.784 379.748 221.784C377.07 221.784 375.16 221.892 374.018 222.108V219.949C375.95 219.086 378.343 215.741 381.197 209.914L407.673 155.744H408.661L412.744 213.043ZM405.434 195.346L403.392 167.938L389.891 195.346H405.434ZM460.361 144.737C461.326 144.737 462.051 145.241 462.534 146.248C463.061 147.183 463.324 148.37 463.324 149.809C463.324 152.687 462.314 155.348 460.295 157.794C459.021 159.017 457.682 159.916 456.277 160.492C454.872 160.996 453.182 161.247 451.206 161.247C449.538 161.247 447.671 161.067 445.608 160.708L436.98 209.59C436.585 211.748 436.387 213.547 436.387 214.986C436.387 216.784 436.805 218.043 437.639 218.762C438.473 219.482 439.9 219.878 441.92 219.949L441.656 222.108C439.373 221.892 436.102 221.784 431.843 221.784C427.54 221.784 424.335 221.892 422.228 222.108L422.491 219.949C424.379 219.806 425.828 219.446 426.838 218.87C427.848 218.295 428.638 217.324 429.209 215.957C429.823 214.59 430.372 212.468 430.855 209.59L439.746 159.305C435.883 158.442 433.116 158.01 431.448 158.01C428.638 158.01 426.574 158.622 425.257 159.844C425.608 160.636 425.894 161.607 426.113 162.758C426.333 163.909 426.443 165.024 426.443 166.103C426.443 167.758 426.157 169.233 425.586 170.527C425.016 171.75 424.203 172.362 423.15 172.362C422.228 172.362 421.503 171.894 420.976 170.959C420.493 169.952 420.252 168.621 420.252 166.966C420.252 163.298 421.393 160.492 423.676 158.55C425.564 156.895 428.045 156.068 431.119 156.068C433.621 156.068 437.112 156.571 441.59 157.578C443.215 157.938 444.883 158.298 446.596 158.657C448.352 158.945 449.977 159.089 451.469 159.089C453.094 159.089 454.455 158.909 455.553 158.55C456.65 158.19 457.726 157.578 458.78 156.715C457.682 154.917 457.133 152.902 457.133 150.672C457.133 149.09 457.397 147.723 457.924 146.572C458.494 145.349 459.307 144.737 460.361 144.737ZM466.507 210.669C466.112 213.403 465.914 215.166 465.914 215.957C465.914 217.468 466.222 218.475 466.836 218.978C467.495 219.482 468.681 219.806 470.393 219.949L470.129 222.108C468.11 221.892 465.322 221.784 461.765 221.784C458.121 221.784 455.333 221.892 453.401 222.108L453.73 219.949C455.267 219.806 456.409 219.518 457.155 219.086C457.945 218.655 458.56 217.827 458.999 216.604C459.482 215.309 459.943 213.331 460.382 210.669L467.297 167.938C467.649 165.492 467.824 163.765 467.824 162.758C467.824 161.175 467.495 160.132 466.836 159.629C466.222 159.125 465.08 158.801 463.412 158.657L463.741 156.499C465.541 156.715 468.329 156.823 472.105 156.823C475.618 156.823 478.428 156.715 480.535 156.499L480.206 158.657C478.581 158.801 477.374 159.089 476.584 159.521C475.837 159.952 475.223 160.78 474.74 162.003C474.301 163.226 473.862 165.204 473.422 167.938L466.507 210.669ZM496.799 223.618C491.881 223.618 487.951 221.424 485.01 217.036C482.068 212.648 480.597 206.173 480.597 197.612C480.597 191.066 481.717 184.484 483.956 177.865C486.195 171.247 489.313 165.779 493.308 161.463C497.304 157.147 501.804 154.989 506.809 154.989C511.727 154.989 515.657 157.183 518.598 161.571C521.54 165.959 523.011 172.434 523.011 180.995C523.011 187.541 521.891 194.123 519.652 200.742C517.413 207.36 514.296 212.828 510.3 217.144C506.304 221.46 501.804 223.618 496.799 223.618ZM506.217 156.931C502.748 156.931 499.587 158.981 496.733 163.082C493.879 167.182 491.64 172.506 490.015 179.052C488.434 185.527 487.644 192.217 487.644 199.123C487.644 206.893 488.5 212.612 490.213 216.281C491.969 219.878 494.362 221.676 497.391 221.676C500.86 221.676 504.021 219.626 506.875 215.525C509.729 211.425 511.947 206.137 513.527 199.663C515.152 193.116 515.964 186.39 515.964 179.484C515.964 171.714 515.086 166.031 513.33 162.434C511.617 158.765 509.246 156.931 506.217 156.931ZM575.937 151.536C577.342 151.536 578.352 152.039 578.967 153.046C579.582 154.053 579.889 155.384 579.889 157.039C579.889 158.981 579.538 160.78 578.835 162.434C578.133 164.017 577.189 164.808 576.003 164.808C575.125 164.808 574.488 164.413 574.093 163.621C573.698 162.758 573.501 161.751 573.501 160.6C573.501 159.449 573.698 158.262 574.093 157.039C574.488 155.744 574.993 154.665 575.608 153.802H575.41C574.269 153.874 573.259 154.377 572.381 155.312C571.547 156.248 570.756 157.578 570.01 159.305C568.078 163.837 566.014 171.247 563.819 181.534C561.668 191.821 559.319 205.526 556.772 222.647H555.323L540.307 163.513C535.609 197.181 531.745 217.108 528.716 223.295C527.662 225.453 526.608 227.107 525.554 228.258C524.544 229.481 523.249 230.093 521.669 230.093C519.034 230.093 517.717 228.222 517.717 224.482C517.717 222.539 518.068 220.777 518.771 219.194C519.473 217.611 520.417 216.82 521.603 216.82C522.481 216.82 523.118 217.252 523.513 218.115C523.908 218.906 524.105 219.878 524.105 221.029C524.105 222.18 523.908 223.367 523.513 224.59C523.118 225.812 522.613 226.892 521.998 227.827H522.13C524.237 227.755 526.081 225.884 527.662 222.216C530.823 214.518 534.555 195.059 538.858 163.837C538.946 161.823 538.639 160.492 537.936 159.844C537.277 159.197 535.894 158.801 533.787 158.657L534.116 156.499C535.521 156.715 537.475 156.823 539.978 156.823C541.997 156.823 543.776 156.715 545.312 156.499L557.826 207.324C562.041 181.426 565.707 165.132 568.824 158.442C570.932 153.838 573.303 151.536 575.937 151.536Z"/>
</mask>
<path d="M49.3413 25.8189C49.3413 34.8113 47.9802 43.372 45.258 51.5011C42.5358 59.5583 38.7818 66.0688 33.9959 71.0325C29.254 75.9244 23.9632 78.3703 18.1236 78.3703L14.3037 78.2624C11.845 78.1185 10.0448 78.0466 8.90322 78.0466C5.34677 78.0466 2.71236 78.1545 1 78.3703L1.19758 76.2121C2.69041 76.0683 3.81003 75.7805 4.55645 75.3489C5.34677 74.9172 5.96146 74.0899 6.40053 72.867C6.88351 71.5721 7.34453 69.5938 7.78359 66.932L16.4113 13.4095C16.8064 10.6758 17.004 8.91328 17.004 8.12195C17.004 6.68317 16.6747 5.67603 16.0161 5.10052C15.4014 4.525 14.2598 4.20128 12.5914 4.12934L12.789 1.97118C14.2818 2.18699 16.4113 2.2949 19.1774 2.2949L24.7755 2.18699C27.7612 2.04311 29.7589 1.97118 30.7688 1.97118C36.9596 1.97118 41.5918 3.98547 44.6653 8.01404C47.7826 12.0426 49.3413 17.9776 49.3413 25.8189ZM17.3333 76.428C22.7778 76.428 27.4319 74.018 31.2957 69.1981C35.1595 64.3063 38.0793 57.7958 40.0551 49.6667C42.0309 41.5376 43.0188 32.6891 43.0188 23.1212C43.0188 16.5748 41.8991 11.7549 39.6599 8.66149C37.4207 5.49618 33.8423 3.91352 28.9247 3.91352C27.5636 3.91352 26.4879 4.16531 25.6976 4.66888C24.9511 5.17245 24.3364 6.07169 23.8535 7.36659C23.3705 8.66149 22.9314 10.6038 22.5363 13.1936L13.9086 67.1478C13.5134 69.7376 13.3158 71.5001 13.3158 72.4354C13.3158 73.8022 13.6012 74.8093 14.172 75.4568C14.7867 76.1042 15.8405 76.428 17.3333 76.428ZM88.5024 46.969C86.9217 56.8965 84.7703 64.5221 82.0481 69.8455C80.4236 72.9389 78.4258 75.3848 76.0548 77.1833C73.7278 78.9818 71.2251 79.881 68.5468 79.881C63.6292 79.881 60.2484 77.9387 58.4043 74.054C57.614 72.3994 57.0212 70.7088 56.6261 68.9823C56.2309 67.2557 56.0333 65.2774 56.0333 63.0473C56.0333 59.4504 56.6041 54.1988 57.7457 47.2927L61.4997 24.2003C61.851 21.7544 62.0266 20.0278 62.0266 19.0207C62.0266 17.438 61.6973 16.3949 61.0387 15.8914C60.424 15.3878 59.2824 15.0641 57.614 14.9202L58.0092 12.762C59.7654 12.9778 62.5974 13.0857 66.5051 13.0857C69.8859 13.0857 72.6301 12.9778 74.7376 12.762L74.3425 14.9202C72.7179 15.0641 71.5105 15.3518 70.7202 15.7834C69.9737 16.2151 69.359 17.0424 68.8761 18.2653C68.437 19.4883 67.9979 21.4666 67.5589 24.2003L63.4755 49.1271C62.5096 55.2419 62.0266 60.0978 62.0266 63.6948C62.0266 67.6514 62.6194 70.7088 63.8048 72.867C64.9903 75.0252 66.9881 76.1042 69.7981 76.1042C74.4083 76.1042 78.0306 73.6583 80.665 68.7665C83.3434 63.8746 85.385 57.0044 86.79 48.156L90.5441 25.2794C90.8514 23.4809 91.0051 21.8623 91.0051 20.4235C91.0051 18.4812 90.6099 17.1143 89.8196 16.323C89.0732 15.5317 87.8438 15.0641 86.1314 14.9202L86.4607 12.762C88.0414 12.9778 90.2587 13.0857 93.1126 13.0857C95.7909 13.0857 97.8545 12.9778 99.3035 12.762L98.9741 14.9202C96.9983 15.0641 95.5055 15.8554 94.4957 17.2942C93.4858 18.7329 92.6516 21.3947 91.993 25.2794L88.5024 46.969ZM132.999 65.3134H134.513L134.25 66.7162C133.46 71.1764 132.406 74.4856 131.089 76.6438C129.815 78.8019 128.169 79.881 126.149 79.881C124.129 79.881 122.659 78.9099 121.737 76.9675C120.858 74.9532 120.463 72.4713 120.551 69.5218L120.815 62.7236C120.858 62.0761 120.88 61.105 120.88 59.8101C120.88 56.9325 120.595 54.6664 120.024 53.0118C119.497 51.2853 118.531 49.9904 117.126 49.1271C115.721 48.1919 113.702 47.6524 111.067 47.5085H109.816L106.655 66.932C106.303 69.2341 106.128 70.9606 106.128 72.1116C106.128 73.4785 106.435 74.4856 107.05 75.1331C107.708 75.7086 108.872 76.0683 110.54 76.2121L110.277 78.3703C108.257 78.1545 105.535 78.0466 102.11 78.0466C98.2464 78.0466 95.3925 78.1545 93.5484 78.3703L93.8118 76.2121C95.3925 76.0683 96.578 75.7805 97.3683 75.3489C98.1586 74.9172 98.7733 74.0899 99.2124 72.867C99.6954 71.644 100.156 69.6657 100.595 66.932L107.577 24.2003C107.884 21.8983 108.038 20.3156 108.038 19.4523C108.038 17.9416 107.708 16.8625 107.05 16.2151C106.435 15.4957 105.315 15.0641 103.691 14.9202L104.02 12.762C105.776 12.9778 108.477 13.0857 112.121 13.0857C114.228 13.0857 115.809 13.0498 116.863 12.9778L121.737 12.8699C126.039 12.8699 129.289 14.0569 131.484 16.4309C133.723 18.7329 134.843 21.8983 134.843 25.9268C134.843 31.3223 133.35 35.8544 130.364 39.5233C127.379 43.1202 123.295 45.5302 118.114 46.7532L119.497 47.0769C122.263 47.9401 124.217 49.4149 125.359 51.5011C126.544 53.5154 127.049 56.7886 126.874 61.3208L126.676 67.0399C126.632 67.6874 126.61 68.5507 126.61 69.6297C126.61 71.644 126.764 73.1907 127.071 74.2698C127.379 75.3489 127.905 75.8884 128.652 75.8884C129.442 75.8884 130.145 75.169 130.759 73.7303C131.374 72.2195 132.011 69.9175 132.669 66.8241L132.999 65.3134ZM110.211 45.3503H111.331C115.546 45.3503 118.861 44.6669 121.276 43.3001C123.734 41.9332 125.491 39.811 126.544 36.9335C127.642 33.984 128.191 30.0993 128.191 25.2794C128.191 21.7544 127.532 19.1646 126.215 17.51C124.898 15.7834 122.768 14.9202 119.827 14.9202C118.509 14.9202 117.478 15.2079 116.731 15.7834C115.985 16.287 115.37 17.1863 114.887 18.4812C114.448 19.7761 114.031 21.6824 113.636 24.2003L110.211 45.3503ZM171.557 69.306C171.733 71.68 172.128 73.4065 172.743 74.4856C173.357 75.5647 174.038 76.1402 174.784 76.2121L174.455 78.3703C172.699 78.1545 170.306 78.0466 167.276 78.0466C163.72 78.0466 161.085 78.1545 159.373 78.3703L159.702 76.2121C161.766 76.0683 163.237 75.5287 164.115 74.5935C164.993 73.6583 165.432 71.8958 165.432 69.306C165.432 68.3708 165.41 67.6514 165.366 67.1478L164.378 53.7672H147.65L143.171 62.9394C141.459 66.4644 140.603 69.342 140.603 71.5721C140.603 74.2338 141.92 75.7805 144.555 76.2121V78.3703C143.237 78.1545 141.24 78.0466 138.561 78.0466C135.883 78.0466 133.973 78.1545 132.831 78.3703V76.2121C134.763 75.3489 137.156 72.0037 140.01 66.1767L166.486 12.0067H167.474L171.557 69.306ZM164.247 51.609L162.205 24.2003L148.704 51.609H164.247ZM219.174 1C220.139 1 220.864 1.50357 221.347 2.51072C221.874 3.44592 222.137 4.63291 222.137 6.07169C222.137 8.94925 221.127 11.611 219.108 14.0569C217.834 15.2799 216.495 16.1791 215.09 16.7546C213.685 17.2582 211.995 17.51 210.019 17.51C208.351 17.51 206.484 17.3301 204.421 16.9704L195.793 65.8529C195.398 68.0111 195.2 69.8096 195.2 71.2484C195.2 73.0468 195.618 74.3058 196.452 75.0251C197.286 75.7445 198.713 76.1402 200.733 76.2121L200.469 78.3703C198.186 78.1545 194.915 78.0466 190.656 78.0466C186.353 78.0466 183.148 78.1545 181.041 78.3703L181.304 76.2121C183.192 76.0683 184.641 75.7086 185.651 75.1331C186.661 74.5576 187.451 73.5864 188.022 72.2195C188.636 70.8527 189.185 68.7305 189.668 65.8529L198.559 15.5676C194.696 14.7044 191.929 14.2727 190.261 14.2727C187.451 14.2727 185.387 14.8842 184.07 16.1072C184.421 16.8985 184.707 17.8697 184.926 19.0207C185.146 20.1717 185.256 21.2868 185.256 22.3659C185.256 24.0205 184.97 25.4952 184.399 26.7901C183.829 28.0131 183.016 28.6245 181.963 28.6245C181.041 28.6245 180.316 28.1569 179.789 27.2217C179.306 26.2146 179.065 24.8837 179.065 23.2291C179.065 19.5602 180.206 16.7546 182.489 14.8123C184.377 13.1577 186.858 12.3304 189.932 12.3304C192.434 12.3304 195.925 12.8339 200.403 13.8411C202.028 14.2008 203.696 14.5605 205.409 14.9202C207.165 15.2079 208.79 15.3518 210.282 15.3518C211.907 15.3518 213.268 15.172 214.366 14.8123C215.463 14.4526 216.539 13.8411 217.593 12.9778C216.495 11.1794 215.946 9.16506 215.946 6.93496C215.946 5.3523 216.21 3.98546 216.737 2.83444C217.307 1.61148 218.12 1 219.174 1ZM225.32 66.932C224.925 69.6657 224.727 71.4282 224.727 72.2195C224.727 73.7303 225.035 74.7374 225.649 75.241C226.308 75.7445 227.494 76.0683 229.206 76.2121L228.942 78.3703C226.923 78.1545 224.135 78.0466 220.578 78.0466C216.934 78.0466 214.146 78.1545 212.214 78.3703L212.543 76.2121C214.08 76.0683 215.222 75.7805 215.968 75.3489C216.758 74.9172 217.373 74.0899 217.812 72.867C218.295 71.5721 218.756 69.5938 219.195 66.932L226.11 24.2003C226.462 21.7544 226.637 20.0278 226.637 19.0207C226.637 17.438 226.308 16.3949 225.649 15.8914C225.035 15.3878 223.893 15.0641 222.225 14.9202L222.554 12.762C224.354 12.9778 227.142 13.0857 230.918 13.0857C234.431 13.0857 237.241 12.9778 239.348 12.762L239.019 14.9202C237.394 15.0641 236.187 15.3518 235.397 15.7834C234.65 16.2151 234.036 17.0424 233.553 18.2653C233.114 19.4883 232.675 21.4666 232.235 24.2003L225.32 66.932ZM255.612 79.881C250.694 79.881 246.764 77.6869 243.823 73.2986C240.881 68.9103 239.41 62.4358 239.41 53.8751C239.41 47.3287 240.53 40.7463 242.769 34.1279C245.008 27.5095 248.126 22.0421 252.121 17.7258C256.117 13.4095 260.617 11.2513 265.622 11.2513C270.54 11.2513 274.47 13.4454 277.411 17.8337C280.353 22.222 281.824 28.6965 281.824 37.2572C281.824 43.8037 280.704 50.3861 278.465 57.0044C276.226 63.6228 273.109 69.0902 269.113 73.4065C265.117 77.7229 260.617 79.881 255.612 79.881ZM265.03 13.1936C261.561 13.1936 258.4 15.2439 255.546 19.3444C252.692 23.4449 250.453 28.7684 248.828 35.3149C247.247 41.7894 246.457 48.4797 246.457 55.3858C246.457 63.1552 247.313 68.8744 249.026 72.5433C250.782 76.1402 253.175 77.9387 256.204 77.9387C259.673 77.9387 262.834 75.8884 265.688 71.7879C268.542 67.6874 270.76 62.3999 272.34 55.9254C273.965 49.3789 274.777 42.6526 274.777 35.7465C274.777 27.9771 273.899 22.2939 272.143 18.697C270.43 15.0281 268.059 13.1936 265.03 13.1936ZM334.75 7.79822C336.155 7.79822 337.165 8.3018 337.78 9.30894C338.395 10.3161 338.702 11.647 338.702 13.3016C338.702 15.2439 338.351 17.0424 337.648 18.697C336.946 20.2796 336.002 21.071 334.816 21.071C333.938 21.071 333.301 20.6753 332.906 19.884C332.511 19.0207 332.314 18.0136 332.314 16.8625C332.314 15.7115 332.511 14.5245 332.906 13.3016C333.301 12.0067 333.806 10.9276 334.421 10.0643H334.223C333.082 10.1362 332.072 10.6398 331.194 11.575C330.36 12.5102 329.569 13.8411 328.823 15.5676C326.891 20.0998 324.827 27.5095 322.632 37.7968C320.481 48.084 318.132 61.7884 315.585 78.9099H314.136L299.12 19.7761C294.422 53.4435 290.558 73.3706 287.529 79.5573C286.475 81.7155 285.421 83.3701 284.367 84.5211C283.357 85.744 282.062 86.3555 280.482 86.3555C277.847 86.3555 276.53 84.4851 276.53 80.7443C276.53 78.8019 276.881 77.0394 277.584 75.4568C278.286 73.8741 279.23 73.0828 280.416 73.0828C281.294 73.0828 281.931 73.5144 282.326 74.3777C282.721 75.169 282.918 76.1402 282.918 77.2912C282.918 78.4422 282.721 79.6292 282.326 80.8522C281.931 82.0752 281.426 83.1542 280.811 84.0895H280.943C283.05 84.0175 284.894 82.1471 286.475 78.4782C289.636 70.7808 293.368 51.3213 297.671 20.0998C297.759 18.0855 297.452 16.7546 296.749 16.1072C296.09 15.4597 294.707 15.0641 292.6 14.9202L292.929 12.762C294.334 12.9778 296.288 13.0857 298.791 13.0857C300.81 13.0857 302.589 12.9778 304.125 12.762L316.639 63.5869C320.854 37.6888 324.52 21.3947 327.637 14.7044C329.745 10.1003 332.116 7.79822 334.75 7.79822ZM192.912 158.226C193.219 156.427 193.373 154.845 193.373 153.478C193.373 151.464 193 150.061 192.253 149.269C191.507 148.478 190.255 148.011 188.499 147.867L188.828 145.709C190.365 145.924 192.583 146.032 195.48 146.032C198.071 146.032 200.134 145.924 201.671 145.709L201.342 147.867C199.805 148.011 198.598 148.406 197.72 149.054C196.885 149.629 196.205 150.636 195.678 152.075C195.195 153.442 194.756 155.492 194.361 158.226L189.224 190.706C187.643 200.634 185.492 208.259 182.769 213.583C181.145 216.676 179.147 219.122 176.776 220.921C174.449 222.719 171.946 223.618 169.268 223.618C164.57 223.618 161.189 221.676 159.126 217.791C158.335 216.281 157.742 214.662 157.347 212.935C156.996 211.137 156.82 209.087 156.82 206.785C156.82 202.9 157.369 197.648 158.467 191.03L163.933 157.147C164.285 154.701 164.46 152.974 164.46 151.967C164.46 150.385 164.131 149.341 163.472 148.838C162.858 148.334 161.716 148.011 160.048 147.867L160.443 145.709C162.199 145.924 165.031 146.032 168.939 146.032C172.32 146.032 175.064 145.924 177.171 145.709L176.776 147.867C175.152 148.011 173.944 148.298 173.154 148.73C172.407 149.162 171.793 149.989 171.31 151.212C170.871 152.435 170.432 154.413 169.992 157.147L164.197 192.864C163.231 198.979 162.748 203.835 162.748 207.432C162.748 211.389 163.341 214.446 164.526 216.604C165.755 218.762 167.753 219.842 170.519 219.842C175.13 219.842 178.752 217.396 181.386 212.504C184.065 207.612 186.106 200.742 187.511 191.893L192.912 158.226ZM248.695 151.536C250.1 151.536 251.11 152.039 251.724 153.046C252.339 154.053 252.646 155.384 252.646 157.039C252.646 158.981 252.295 160.78 251.593 162.434C250.89 164.017 249.946 164.808 248.761 164.808C247.883 164.808 247.246 164.413 246.851 163.621C246.456 162.758 246.258 161.751 246.258 160.6C246.258 159.449 246.456 158.262 246.851 157.039C247.246 155.744 247.751 154.665 248.366 153.802H248.168C247.026 153.874 246.016 154.377 245.138 155.312C244.304 156.248 243.514 157.578 242.767 159.305C240.836 163.837 238.772 171.247 236.577 181.534C234.425 191.821 232.076 205.526 229.53 222.647H228.081L213.064 163.513C208.366 197.181 204.503 217.108 201.473 223.295C200.419 225.453 199.366 227.107 198.312 228.258C197.302 229.481 196.007 230.093 194.426 230.093C191.792 230.093 190.474 228.222 190.474 224.482C190.474 222.539 190.826 220.777 191.528 219.194C192.231 217.611 193.175 216.82 194.36 216.82C195.238 216.82 195.875 217.252 196.27 218.115C196.665 218.906 196.863 219.878 196.863 221.029C196.863 222.18 196.665 223.367 196.27 224.59C195.875 225.812 195.37 226.892 194.755 227.827H194.887C196.995 227.755 198.839 225.884 200.419 222.216C203.581 214.518 207.313 195.059 211.616 163.837C211.703 161.823 211.396 160.492 210.694 159.844C210.035 159.197 208.652 158.801 206.544 158.657L206.874 156.499C208.279 156.715 210.233 156.823 212.735 156.823C214.755 156.823 216.533 156.715 218.07 156.499L230.583 207.324C234.798 181.426 238.465 165.132 241.582 158.442C243.689 153.838 246.06 151.536 248.695 151.536ZM292.549 180.347C292.549 188.26 291.342 195.382 288.927 201.713C286.512 208.044 283.066 213.043 278.587 216.712C274.153 220.309 268.972 222.108 263.044 222.108L259.224 222C256.765 221.856 254.965 221.784 253.824 221.784C250.267 221.784 247.633 221.892 245.92 222.108L246.118 219.949C247.611 219.806 248.73 219.518 249.477 219.086C250.267 218.655 250.882 217.827 251.321 216.604C251.804 215.309 252.265 213.331 252.704 210.669L259.619 167.938C260.015 165.636 260.212 163.873 260.212 162.65C260.212 161.211 259.883 160.204 259.224 159.629C258.61 159.053 257.468 158.729 255.799 158.657L255.997 156.499C257.49 156.715 259.619 156.823 262.385 156.823L267.984 156.715C270.969 156.571 272.967 156.499 273.977 156.499C280.168 156.499 284.8 158.514 287.873 162.542C290.991 166.571 292.549 172.506 292.549 180.347ZM262.254 220.165C270.377 220.165 276.392 216.353 280.299 208.727C284.251 201.101 286.227 190.742 286.227 177.649C286.227 171.103 285.107 166.283 282.868 163.19C280.629 160.024 277.05 158.442 272.133 158.442C270.772 158.442 269.696 158.693 268.906 159.197C268.159 159.701 267.545 160.6 267.062 161.895C266.579 163.19 266.14 165.132 265.744 167.722L258.829 210.885C258.434 213.619 258.236 215.417 258.236 216.281C258.236 217.647 258.522 218.655 259.092 219.302C259.707 219.878 260.761 220.165 262.254 220.165ZM333.227 190.706C331.646 200.634 329.495 208.259 326.773 213.583C325.148 216.676 323.15 219.122 320.779 220.921C318.452 222.719 315.95 223.618 313.271 223.618C308.354 223.618 304.973 221.676 303.129 217.791C302.338 216.137 301.746 214.446 301.35 212.72C300.955 210.993 300.758 209.015 300.758 206.785C300.758 203.188 301.329 197.936 302.47 191.03L306.224 167.938C306.575 165.492 306.751 163.765 306.751 162.758C306.751 161.175 306.422 160.132 305.763 159.629C305.148 159.125 304.007 158.801 302.338 158.657L302.734 156.499C304.49 156.715 307.322 156.823 311.23 156.823C314.61 156.823 317.355 156.715 319.462 156.499L319.067 158.657C317.442 158.801 316.235 159.089 315.445 159.521C314.698 159.952 314.083 160.78 313.601 162.003C313.161 163.226 312.722 165.204 312.283 167.938L308.2 192.864C307.234 198.979 306.751 203.835 306.751 207.432C306.751 211.389 307.344 214.446 308.529 216.604C309.715 218.762 311.713 219.842 314.523 219.842C319.133 219.842 322.755 217.396 325.389 212.504C328.068 207.612 330.109 200.742 331.514 191.893L335.268 169.017C335.576 167.218 335.73 165.6 335.73 164.161C335.73 162.218 335.334 160.852 334.544 160.06C333.798 159.269 332.568 158.801 330.856 158.657L331.185 156.499C332.766 156.715 334.983 156.823 337.837 156.823C340.515 156.823 342.579 156.715 344.028 156.499L343.699 158.657C341.723 158.801 340.23 159.593 339.22 161.031C338.21 162.47 337.376 165.132 336.717 169.017L333.227 190.706ZM375.747 199.447C375.659 199.95 375.396 201.209 374.957 203.224C374.518 205.238 374.167 207.288 373.903 209.374C373.42 212.036 372.871 216.281 372.257 222.108C369.183 221.892 363.958 221.784 356.582 221.784C348.459 221.784 342.312 221.892 338.141 222.108L338.47 219.949C340.051 219.806 341.237 219.518 342.027 219.086C342.817 218.655 343.432 217.827 343.871 216.604C344.354 215.381 344.815 213.403 345.254 210.669L352.301 167.938C352.696 165.204 352.894 163.441 352.894 162.65C352.894 161.139 352.564 160.132 351.906 159.629C351.291 159.125 350.15 158.801 348.481 158.657L348.81 156.499C350.611 156.715 353.399 156.823 357.175 156.823C360.687 156.823 363.497 156.715 365.605 156.499L365.275 158.657C363.651 158.801 362.444 159.089 361.653 159.521C360.863 159.952 360.226 160.78 359.743 162.003C359.304 163.226 358.865 165.204 358.426 167.938L351.379 210.669C350.984 213.403 350.786 215.13 350.786 215.849C350.786 217.432 351.094 218.475 351.708 218.978C352.367 219.41 353.552 219.626 355.265 219.626H359.414C362.751 219.626 365.649 218.079 368.107 214.986C370.566 211.82 372.608 206.641 374.232 199.447H375.747ZM412.744 213.043C412.92 215.417 413.315 217.144 413.93 218.223C414.544 219.302 415.225 219.878 415.971 219.949L415.642 222.108C413.886 221.892 411.493 221.784 408.463 221.784C404.907 221.784 402.272 221.892 400.56 222.108L400.889 219.949C402.953 219.806 404.424 219.266 405.302 218.331C406.18 217.396 406.619 215.633 406.619 213.043C406.619 212.108 406.597 211.389 406.553 210.885L405.565 197.505H388.837L384.358 206.677C382.646 210.202 381.79 213.079 381.79 215.309C381.79 217.971 383.107 219.518 385.742 219.949V222.108C384.424 221.892 382.427 221.784 379.748 221.784C377.07 221.784 375.16 221.892 374.018 222.108V219.949C375.95 219.086 378.343 215.741 381.197 209.914L407.673 155.744H408.661L412.744 213.043ZM405.434 195.346L403.392 167.938L389.891 195.346H405.434ZM460.361 144.737C461.326 144.737 462.051 145.241 462.534 146.248C463.061 147.183 463.324 148.37 463.324 149.809C463.324 152.687 462.314 155.348 460.295 157.794C459.021 159.017 457.682 159.916 456.277 160.492C454.872 160.996 453.182 161.247 451.206 161.247C449.538 161.247 447.671 161.067 445.608 160.708L436.98 209.59C436.585 211.748 436.387 213.547 436.387 214.986C436.387 216.784 436.805 218.043 437.639 218.762C438.473 219.482 439.9 219.878 441.92 219.949L441.656 222.108C439.373 221.892 436.102 221.784 431.843 221.784C427.54 221.784 424.335 221.892 422.228 222.108L422.491 219.949C424.379 219.806 425.828 219.446 426.838 218.87C427.848 218.295 428.638 217.324 429.209 215.957C429.823 214.59 430.372 212.468 430.855 209.59L439.746 159.305C435.883 158.442 433.116 158.01 431.448 158.01C428.638 158.01 426.574 158.622 425.257 159.844C425.608 160.636 425.894 161.607 426.113 162.758C426.333 163.909 426.443 165.024 426.443 166.103C426.443 167.758 426.157 169.233 425.586 170.527C425.016 171.75 424.203 172.362 423.15 172.362C422.228 172.362 421.503 171.894 420.976 170.959C420.493 169.952 420.252 168.621 420.252 166.966C420.252 163.298 421.393 160.492 423.676 158.55C425.564 156.895 428.045 156.068 431.119 156.068C433.621 156.068 437.112 156.571 441.59 157.578C443.215 157.938 444.883 158.298 446.596 158.657C448.352 158.945 449.977 159.089 451.469 159.089C453.094 159.089 454.455 158.909 455.553 158.55C456.65 158.19 457.726 157.578 458.78 156.715C457.682 154.917 457.133 152.902 457.133 150.672C457.133 149.09 457.397 147.723 457.924 146.572C458.494 145.349 459.307 144.737 460.361 144.737ZM466.507 210.669C466.112 213.403 465.914 215.166 465.914 215.957C465.914 217.468 466.222 218.475 466.836 218.978C467.495 219.482 468.681 219.806 470.393 219.949L470.129 222.108C468.11 221.892 465.322 221.784 461.765 221.784C458.121 221.784 455.333 221.892 453.401 222.108L453.73 219.949C455.267 219.806 456.409 219.518 457.155 219.086C457.945 218.655 458.56 217.827 458.999 216.604C459.482 215.309 459.943 213.331 460.382 210.669L467.297 167.938C467.649 165.492 467.824 163.765 467.824 162.758C467.824 161.175 467.495 160.132 466.836 159.629C466.222 159.125 465.08 158.801 463.412 158.657L463.741 156.499C465.541 156.715 468.329 156.823 472.105 156.823C475.618 156.823 478.428 156.715 480.535 156.499L480.206 158.657C478.581 158.801 477.374 159.089 476.584 159.521C475.837 159.952 475.223 160.78 474.74 162.003C474.301 163.226 473.862 165.204 473.422 167.938L466.507 210.669ZM496.799 223.618C491.881 223.618 487.951 221.424 485.01 217.036C482.068 212.648 480.597 206.173 480.597 197.612C480.597 191.066 481.717 184.484 483.956 177.865C486.195 171.247 489.313 165.779 493.308 161.463C497.304 157.147 501.804 154.989 506.809 154.989C511.727 154.989 515.657 157.183 518.598 161.571C521.54 165.959 523.011 172.434 523.011 180.995C523.011 187.541 521.891 194.123 519.652 200.742C517.413 207.36 514.296 212.828 510.3 217.144C506.304 221.46 501.804 223.618 496.799 223.618ZM506.217 156.931C502.748 156.931 499.587 158.981 496.733 163.082C493.879 167.182 491.64 172.506 490.015 179.052C488.434 185.527 487.644 192.217 487.644 199.123C487.644 206.893 488.5 212.612 490.213 216.281C491.969 219.878 494.362 221.676 497.391 221.676C500.86 221.676 504.021 219.626 506.875 215.525C509.729 211.425 511.947 206.137 513.527 199.663C515.152 193.116 515.964 186.39 515.964 179.484C515.964 171.714 515.086 166.031 513.33 162.434C511.617 158.765 509.246 156.931 506.217 156.931ZM575.937 151.536C577.342 151.536 578.352 152.039 578.967 153.046C579.582 154.053 579.889 155.384 579.889 157.039C579.889 158.981 579.538 160.78 578.835 162.434C578.133 164.017 577.189 164.808 576.003 164.808C575.125 164.808 574.488 164.413 574.093 163.621C573.698 162.758 573.501 161.751 573.501 160.6C573.501 159.449 573.698 158.262 574.093 157.039C574.488 155.744 574.993 154.665 575.608 153.802H575.41C574.269 153.874 573.259 154.377 572.381 155.312C571.547 156.248 570.756 157.578 570.01 159.305C568.078 163.837 566.014 171.247 563.819 181.534C561.668 191.821 559.319 205.526 556.772 222.647H555.323L540.307 163.513C535.609 197.181 531.745 217.108 528.716 223.295C527.662 225.453 526.608 227.107 525.554 228.258C524.544 229.481 523.249 230.093 521.669 230.093C519.034 230.093 517.717 228.222 517.717 224.482C517.717 222.539 518.068 220.777 518.771 219.194C519.473 217.611 520.417 216.82 521.603 216.82C522.481 216.82 523.118 217.252 523.513 218.115C523.908 218.906 524.105 219.878 524.105 221.029C524.105 222.18 523.908 223.367 523.513 224.59C523.118 225.812 522.613 226.892 521.998 227.827H522.13C524.237 227.755 526.081 225.884 527.662 222.216C530.823 214.518 534.555 195.059 538.858 163.837C538.946 161.823 538.639 160.492 537.936 159.844C537.277 159.197 535.894 158.801 533.787 158.657L534.116 156.499C535.521 156.715 537.475 156.823 539.978 156.823C541.997 156.823 543.776 156.715 545.312 156.499L557.826 207.324C562.041 181.426 565.707 165.132 568.824 158.442C570.932 153.838 573.303 151.536 575.937 151.536Z" fill="#F9F6F7"/>
<path d="M49.3413 25.8189C49.3413 34.8113 47.9802 43.372 45.258 51.5011C42.5358 59.5583 38.7818 66.0688 33.9959 71.0325C29.254 75.9244 23.9632 78.3703 18.1236 78.3703L14.3037 78.2624C11.845 78.1185 10.0448 78.0466 8.90322 78.0466C5.34677 78.0466 2.71236 78.1545 1 78.3703L1.19758 76.2121C2.69041 76.0683 3.81003 75.7805 4.55645 75.3489C5.34677 74.9172 5.96146 74.0899 6.40053 72.867C6.88351 71.5721 7.34453 69.5938 7.78359 66.932L16.4113 13.4095C16.8064 10.6758 17.004 8.91328 17.004 8.12195C17.004 6.68317 16.6747 5.67603 16.0161 5.10052C15.4014 4.525 14.2598 4.20128 12.5914 4.12934L12.789 1.97118C14.2818 2.18699 16.4113 2.2949 19.1774 2.2949L24.7755 2.18699C27.7612 2.04311 29.7589 1.97118 30.7688 1.97118C36.9596 1.97118 41.5918 3.98547 44.6653 8.01404C47.7826 12.0426 49.3413 17.9776 49.3413 25.8189ZM17.3333 76.428C22.7778 76.428 27.4319 74.018 31.2957 69.1981C35.1595 64.3063 38.0793 57.7958 40.0551 49.6667C42.0309 41.5376 43.0188 32.6891 43.0188 23.1212C43.0188 16.5748 41.8991 11.7549 39.6599 8.66149C37.4207 5.49618 33.8423 3.91352 28.9247 3.91352C27.5636 3.91352 26.4879 4.16531 25.6976 4.66888C24.9511 5.17245 24.3364 6.07169 23.8535 7.36659C23.3705 8.66149 22.9314 10.6038 22.5363 13.1936L13.9086 67.1478C13.5134 69.7376 13.3158 71.5001 13.3158 72.4354C13.3158 73.8022 13.6012 74.8093 14.172 75.4568C14.7867 76.1042 15.8405 76.428 17.3333 76.428ZM88.5024 46.969C86.9217 56.8965 84.7703 64.5221 82.0481 69.8455C80.4236 72.9389 78.4258 75.3848 76.0548 77.1833C73.7278 78.9818 71.2251 79.881 68.5468 79.881C63.6292 79.881 60.2484 77.9387 58.4043 74.054C57.614 72.3994 57.0212 70.7088 56.6261 68.9823C56.2309 67.2557 56.0333 65.2774 56.0333 63.0473C56.0333 59.4504 56.6041 54.1988 57.7457 47.2927L61.4997 24.2003C61.851 21.7544 62.0266 20.0278 62.0266 19.0207C62.0266 17.438 61.6973 16.3949 61.0387 15.8914C60.424 15.3878 59.2824 15.0641 57.614 14.9202L58.0092 12.762C59.7654 12.9778 62.5974 13.0857 66.5051 13.0857C69.8859 13.0857 72.6301 12.9778 74.7376 12.762L74.3425 14.9202C72.7179 15.0641 71.5105 15.3518 70.7202 15.7834C69.9737 16.2151 69.359 17.0424 68.8761 18.2653C68.437 19.4883 67.9979 21.4666 67.5589 24.2003L63.4755 49.1271C62.5096 55.2419 62.0266 60.0978 62.0266 63.6948C62.0266 67.6514 62.6194 70.7088 63.8048 72.867C64.9903 75.0252 66.9881 76.1042 69.7981 76.1042C74.4083 76.1042 78.0306 73.6583 80.665 68.7665C83.3434 63.8746 85.385 57.0044 86.79 48.156L90.5441 25.2794C90.8514 23.4809 91.0051 21.8623 91.0051 20.4235C91.0051 18.4812 90.6099 17.1143 89.8196 16.323C89.0732 15.5317 87.8438 15.0641 86.1314 14.9202L86.4607 12.762C88.0414 12.9778 90.2587 13.0857 93.1126 13.0857C95.7909 13.0857 97.8545 12.9778 99.3035 12.762L98.9741 14.9202C96.9983 15.0641 95.5055 15.8554 94.4957 17.2942C93.4858 18.7329 92.6516 21.3947 91.993 25.2794L88.5024 46.969ZM132.999 65.3134H134.513L134.25 66.7162C133.46 71.1764 132.406 74.4856 131.089 76.6438C129.815 78.8019 128.169 79.881 126.149 79.881C124.129 79.881 122.659 78.9099 121.737 76.9675C120.858 74.9532 120.463 72.4713 120.551 69.5218L120.815 62.7236C120.858 62.0761 120.88 61.105 120.88 59.8101C120.88 56.9325 120.595 54.6664 120.024 53.0118C119.497 51.2853 118.531 49.9904 117.126 49.1271C115.721 48.1919 113.702 47.6524 111.067 47.5085H109.816L106.655 66.932C106.303 69.2341 106.128 70.9606 106.128 72.1116C106.128 73.4785 106.435 74.4856 107.05 75.1331C107.708 75.7086 108.872 76.0683 110.54 76.2121L110.277 78.3703C108.257 78.1545 105.535 78.0466 102.11 78.0466C98.2464 78.0466 95.3925 78.1545 93.5484 78.3703L93.8118 76.2121C95.3925 76.0683 96.578 75.7805 97.3683 75.3489C98.1586 74.9172 98.7733 74.0899 99.2124 72.867C99.6954 71.644 100.156 69.6657 100.595 66.932L107.577 24.2003C107.884 21.8983 108.038 20.3156 108.038 19.4523C108.038 17.9416 107.708 16.8625 107.05 16.2151C106.435 15.4957 105.315 15.0641 103.691 14.9202L104.02 12.762C105.776 12.9778 108.477 13.0857 112.121 13.0857C114.228 13.0857 115.809 13.0498 116.863 12.9778L121.737 12.8699C126.039 12.8699 129.289 14.0569 131.484 16.4309C133.723 18.7329 134.843 21.8983 134.843 25.9268C134.843 31.3223 133.35 35.8544 130.364 39.5233C127.379 43.1202 123.295 45.5302 118.114 46.7532L119.497 47.0769C122.263 47.9401 124.217 49.4149 125.359 51.5011C126.544 53.5154 127.049 56.7886 126.874 61.3208L126.676 67.0399C126.632 67.6874 126.61 68.5507 126.61 69.6297C126.61 71.644 126.764 73.1907 127.071 74.2698C127.379 75.3489 127.905 75.8884 128.652 75.8884C129.442 75.8884 130.145 75.169 130.759 73.7303C131.374 72.2195 132.011 69.9175 132.669 66.8241L132.999 65.3134ZM110.211 45.3503H111.331C115.546 45.3503 118.861 44.6669 121.276 43.3001C123.734 41.9332 125.491 39.811 126.544 36.9335C127.642 33.984 128.191 30.0993 128.191 25.2794C128.191 21.7544 127.532 19.1646 126.215 17.51C124.898 15.7834 122.768 14.9202 119.827 14.9202C118.509 14.9202 117.478 15.2079 116.731 15.7834C115.985 16.287 115.37 17.1863 114.887 18.4812C114.448 19.7761 114.031 21.6824 113.636 24.2003L110.211 45.3503ZM171.557 69.306C171.733 71.68 172.128 73.4065 172.743 74.4856C173.357 75.5647 174.038 76.1402 174.784 76.2121L174.455 78.3703C172.699 78.1545 170.306 78.0466 167.276 78.0466C163.72 78.0466 161.085 78.1545 159.373 78.3703L159.702 76.2121C161.766 76.0683 163.237 75.5287 164.115 74.5935C164.993 73.6583 165.432 71.8958 165.432 69.306C165.432 68.3708 165.41 67.6514 165.366 67.1478L164.378 53.7672H147.65L143.171 62.9394C141.459 66.4644 140.603 69.342 140.603 71.5721C140.603 74.2338 141.92 75.7805 144.555 76.2121V78.3703C143.237 78.1545 141.24 78.0466 138.561 78.0466C135.883 78.0466 133.973 78.1545 132.831 78.3703V76.2121C134.763 75.3489 137.156 72.0037 140.01 66.1767L166.486 12.0067H167.474L171.557 69.306ZM164.247 51.609L162.205 24.2003L148.704 51.609H164.247ZM219.174 1C220.139 1 220.864 1.50357 221.347 2.51072C221.874 3.44592 222.137 4.63291 222.137 6.07169C222.137 8.94925 221.127 11.611 219.108 14.0569C217.834 15.2799 216.495 16.1791 215.09 16.7546C213.685 17.2582 211.995 17.51 210.019 17.51C208.351 17.51 206.484 17.3301 204.421 16.9704L195.793 65.8529C195.398 68.0111 195.2 69.8096 195.2 71.2484C195.2 73.0468 195.618 74.3058 196.452 75.0251C197.286 75.7445 198.713 76.1402 200.733 76.2121L200.469 78.3703C198.186 78.1545 194.915 78.0466 190.656 78.0466C186.353 78.0466 183.148 78.1545 181.041 78.3703L181.304 76.2121C183.192 76.0683 184.641 75.7086 185.651 75.1331C186.661 74.5576 187.451 73.5864 188.022 72.2195C188.636 70.8527 189.185 68.7305 189.668 65.8529L198.559 15.5676C194.696 14.7044 191.929 14.2727 190.261 14.2727C187.451 14.2727 185.387 14.8842 184.07 16.1072C184.421 16.8985 184.707 17.8697 184.926 19.0207C185.146 20.1717 185.256 21.2868 185.256 22.3659C185.256 24.0205 184.97 25.4952 184.399 26.7901C183.829 28.0131 183.016 28.6245 181.963 28.6245C181.041 28.6245 180.316 28.1569 179.789 27.2217C179.306 26.2146 179.065 24.8837 179.065 23.2291C179.065 19.5602 180.206 16.7546 182.489 14.8123C184.377 13.1577 186.858 12.3304 189.932 12.3304C192.434 12.3304 195.925 12.8339 200.403 13.8411C202.028 14.2008 203.696 14.5605 205.409 14.9202C207.165 15.2079 208.79 15.3518 210.282 15.3518C211.907 15.3518 213.268 15.172 214.366 14.8123C215.463 14.4526 216.539 13.8411 217.593 12.9778C216.495 11.1794 215.946 9.16506 215.946 6.93496C215.946 5.3523 216.21 3.98546 216.737 2.83444C217.307 1.61148 218.12 1 219.174 1ZM225.32 66.932C224.925 69.6657 224.727 71.4282 224.727 72.2195C224.727 73.7303 225.035 74.7374 225.649 75.241C226.308 75.7445 227.494 76.0683 229.206 76.2121L228.942 78.3703C226.923 78.1545 224.135 78.0466 220.578 78.0466C216.934 78.0466 214.146 78.1545 212.214 78.3703L212.543 76.2121C214.08 76.0683 215.222 75.7805 215.968 75.3489C216.758 74.9172 217.373 74.0899 217.812 72.867C218.295 71.5721 218.756 69.5938 219.195 66.932L226.11 24.2003C226.462 21.7544 226.637 20.0278 226.637 19.0207C226.637 17.438 226.308 16.3949 225.649 15.8914C225.035 15.3878 223.893 15.0641 222.225 14.9202L222.554 12.762C224.354 12.9778 227.142 13.0857 230.918 13.0857C234.431 13.0857 237.241 12.9778 239.348 12.762L239.019 14.9202C237.394 15.0641 236.187 15.3518 235.397 15.7834C234.65 16.2151 234.036 17.0424 233.553 18.2653C233.114 19.4883 232.675 21.4666 232.235 24.2003L225.32 66.932ZM255.612 79.881C250.694 79.881 246.764 77.6869 243.823 73.2986C240.881 68.9103 239.41 62.4358 239.41 53.8751C239.41 47.3287 240.53 40.7463 242.769 34.1279C245.008 27.5095 248.126 22.0421 252.121 17.7258C256.117 13.4095 260.617 11.2513 265.622 11.2513C270.54 11.2513 274.47 13.4454 277.411 17.8337C280.353 22.222 281.824 28.6965 281.824 37.2572C281.824 43.8037 280.704 50.3861 278.465 57.0044C276.226 63.6228 273.109 69.0902 269.113 73.4065C265.117 77.7229 260.617 79.881 255.612 79.881ZM265.03 13.1936C261.561 13.1936 258.4 15.2439 255.546 19.3444C252.692 23.4449 250.453 28.7684 248.828 35.3149C247.247 41.7894 246.457 48.4797 246.457 55.3858C246.457 63.1552 247.313 68.8744 249.026 72.5433C250.782 76.1402 253.175 77.9387 256.204 77.9387C259.673 77.9387 262.834 75.8884 265.688 71.7879C268.542 67.6874 270.76 62.3999 272.34 55.9254C273.965 49.3789 274.777 42.6526 274.777 35.7465C274.777 27.9771 273.899 22.2939 272.143 18.697C270.43 15.0281 268.059 13.1936 265.03 13.1936ZM334.75 7.79822C336.155 7.79822 337.165 8.3018 337.78 9.30894C338.395 10.3161 338.702 11.647 338.702 13.3016C338.702 15.2439 338.351 17.0424 337.648 18.697C336.946 20.2796 336.002 21.071 334.816 21.071C333.938 21.071 333.301 20.6753 332.906 19.884C332.511 19.0207 332.314 18.0136 332.314 16.8625C332.314 15.7115 332.511 14.5245 332.906 13.3016C333.301 12.0067 333.806 10.9276 334.421 10.0643H334.223C333.082 10.1362 332.072 10.6398 331.194 11.575C330.36 12.5102 329.569 13.8411 328.823 15.5676C326.891 20.0998 324.827 27.5095 322.632 37.7968C320.481 48.084 318.132 61.7884 315.585 78.9099H314.136L299.12 19.7761C294.422 53.4435 290.558 73.3706 287.529 79.5573C286.475 81.7155 285.421 83.3701 284.367 84.5211C283.357 85.744 282.062 86.3555 280.482 86.3555C277.847 86.3555 276.53 84.4851 276.53 80.7443C276.53 78.8019 276.881 77.0394 277.584 75.4568C278.286 73.8741 279.23 73.0828 280.416 73.0828C281.294 73.0828 281.931 73.5144 282.326 74.3777C282.721 75.169 282.918 76.1402 282.918 77.2912C282.918 78.4422 282.721 79.6292 282.326 80.8522C281.931 82.0752 281.426 83.1542 280.811 84.0895H280.943C283.05 84.0175 284.894 82.1471 286.475 78.4782C289.636 70.7808 293.368 51.3213 297.671 20.0998C297.759 18.0855 297.452 16.7546 296.749 16.1072C296.09 15.4597 294.707 15.0641 292.6 14.9202L292.929 12.762C294.334 12.9778 296.288 13.0857 298.791 13.0857C300.81 13.0857 302.589 12.9778 304.125 12.762L316.639 63.5869C320.854 37.6888 324.52 21.3947 327.637 14.7044C329.745 10.1003 332.116 7.79822 334.75 7.79822ZM192.912 158.226C193.219 156.427 193.373 154.845 193.373 153.478C193.373 151.464 193 150.061 192.253 149.269C191.507 148.478 190.255 148.011 188.499 147.867L188.828 145.709C190.365 145.924 192.583 146.032 195.48 146.032C198.071 146.032 200.134 145.924 201.671 145.709L201.342 147.867C199.805 148.011 198.598 148.406 197.72 149.054C196.885 149.629 196.205 150.636 195.678 152.075C195.195 153.442 194.756 155.492 194.361 158.226L189.224 190.706C187.643 200.634 185.492 208.259 182.769 213.583C181.145 216.676 179.147 219.122 176.776 220.921C174.449 222.719 171.946 223.618 169.268 223.618C164.57 223.618 161.189 221.676 159.126 217.791C158.335 216.281 157.742 214.662 157.347 212.935C156.996 211.137 156.82 209.087 156.82 206.785C156.82 202.9 157.369 197.648 158.467 191.03L163.933 157.147C164.285 154.701 164.46 152.974 164.46 151.967C164.46 150.385 164.131 149.341 163.472 148.838C162.858 148.334 161.716 148.011 160.048 147.867L160.443 145.709C162.199 145.924 165.031 146.032 168.939 146.032C172.32 146.032 175.064 145.924 177.171 145.709L176.776 147.867C175.152 148.011 173.944 148.298 173.154 148.73C172.407 149.162 171.793 149.989 171.31 151.212C170.871 152.435 170.432 154.413 169.992 157.147L164.197 192.864C163.231 198.979 162.748 203.835 162.748 207.432C162.748 211.389 163.341 214.446 164.526 216.604C165.755 218.762 167.753 219.842 170.519 219.842C175.13 219.842 178.752 217.396 181.386 212.504C184.065 207.612 186.106 200.742 187.511 191.893L192.912 158.226ZM248.695 151.536C250.1 151.536 251.11 152.039 251.724 153.046C252.339 154.053 252.646 155.384 252.646 157.039C252.646 158.981 252.295 160.78 251.593 162.434C250.89 164.017 249.946 164.808 248.761 164.808C247.883 164.808 247.246 164.413 246.851 163.621C246.456 162.758 246.258 161.751 246.258 160.6C246.258 159.449 246.456 158.262 246.851 157.039C247.246 155.744 247.751 154.665 248.366 153.802H248.168C247.026 153.874 246.016 154.377 245.138 155.312C244.304 156.248 243.514 157.578 242.767 159.305C240.836 163.837 238.772 171.247 236.577 181.534C234.425 191.821 232.076 205.526 229.53 222.647H228.081L213.064 163.513C208.366 197.181 204.503 217.108 201.473 223.295C200.419 225.453 199.366 227.107 198.312 228.258C197.302 229.481 196.007 230.093 194.426 230.093C191.792 230.093 190.474 228.222 190.474 224.482C190.474 222.539 190.826 220.777 191.528 219.194C192.231 217.611 193.175 216.82 194.36 216.82C195.238 216.82 195.875 217.252 196.27 218.115C196.665 218.906 196.863 219.878 196.863 221.029C196.863 222.18 196.665 223.367 196.27 224.59C195.875 225.812 195.37 226.892 194.755 227.827H194.887C196.995 227.755 198.839 225.884 200.419 222.216C203.581 214.518 207.313 195.059 211.616 163.837C211.703 161.823 211.396 160.492 210.694 159.844C210.035 159.197 208.652 158.801 206.544 158.657L206.874 156.499C208.279 156.715 210.233 156.823 212.735 156.823C214.755 156.823 216.533 156.715 218.07 156.499L230.583 207.324C234.798 181.426 238.465 165.132 241.582 158.442C243.689 153.838 246.06 151.536 248.695 151.536ZM292.549 180.347C292.549 188.26 291.342 195.382 288.927 201.713C286.512 208.044 283.066 213.043 278.587 216.712C274.153 220.309 268.972 222.108 263.044 222.108L259.224 222C256.765 221.856 254.965 221.784 253.824 221.784C250.267 221.784 247.633 221.892 245.92 222.108L246.118 219.949C247.611 219.806 248.73 219.518 249.477 219.086C250.267 218.655 250.882 217.827 251.321 216.604C251.804 215.309 252.265 213.331 252.704 210.669L259.619 167.938C260.015 165.636 260.212 163.873 260.212 162.65C260.212 161.211 259.883 160.204 259.224 159.629C258.61 159.053 257.468 158.729 255.799 158.657L255.997 156.499C257.49 156.715 259.619 156.823 262.385 156.823L267.984 156.715C270.969 156.571 272.967 156.499 273.977 156.499C280.168 156.499 284.8 158.514 287.873 162.542C290.991 166.571 292.549 172.506 292.549 180.347ZM262.254 220.165C270.377 220.165 276.392 216.353 280.299 208.727C284.251 201.101 286.227 190.742 286.227 177.649C286.227 171.103 285.107 166.283 282.868 163.19C280.629 160.024 277.05 158.442 272.133 158.442C270.772 158.442 269.696 158.693 268.906 159.197C268.159 159.701 267.545 160.6 267.062 161.895C266.579 163.19 266.14 165.132 265.744 167.722L258.829 210.885C258.434 213.619 258.236 215.417 258.236 216.281C258.236 217.647 258.522 218.655 259.092 219.302C259.707 219.878 260.761 220.165 262.254 220.165ZM333.227 190.706C331.646 200.634 329.495 208.259 326.773 213.583C325.148 216.676 323.15 219.122 320.779 220.921C318.452 222.719 315.95 223.618 313.271 223.618C308.354 223.618 304.973 221.676 303.129 217.791C302.338 216.137 301.746 214.446 301.35 212.72C300.955 210.993 300.758 209.015 300.758 206.785C300.758 203.188 301.329 197.936 302.47 191.03L306.224 167.938C306.575 165.492 306.751 163.765 306.751 162.758C306.751 161.175 306.422 160.132 305.763 159.629C305.148 159.125 304.007 158.801 302.338 158.657L302.734 156.499C304.49 156.715 307.322 156.823 311.23 156.823C314.61 156.823 317.355 156.715 319.462 156.499L319.067 158.657C317.442 158.801 316.235 159.089 315.445 159.521C314.698 159.952 314.083 160.78 313.601 162.003C313.161 163.226 312.722 165.204 312.283 167.938L308.2 192.864C307.234 198.979 306.751 203.835 306.751 207.432C306.751 211.389 307.344 214.446 308.529 216.604C309.715 218.762 311.713 219.842 314.523 219.842C319.133 219.842 322.755 217.396 325.389 212.504C328.068 207.612 330.109 200.742 331.514 191.893L335.268 169.017C335.576 167.218 335.73 165.6 335.73 164.161C335.73 162.218 335.334 160.852 334.544 160.06C333.798 159.269 332.568 158.801 330.856 158.657L331.185 156.499C332.766 156.715 334.983 156.823 337.837 156.823C340.515 156.823 342.579 156.715 344.028 156.499L343.699 158.657C341.723 158.801 340.23 159.593 339.22 161.031C338.21 162.47 337.376 165.132 336.717 169.017L333.227 190.706ZM375.747 199.447C375.659 199.95 375.396 201.209 374.957 203.224C374.518 205.238 374.167 207.288 373.903 209.374C373.42 212.036 372.871 216.281 372.257 222.108C369.183 221.892 363.958 221.784 356.582 221.784C348.459 221.784 342.312 221.892 338.141 222.108L338.47 219.949C340.051 219.806 341.237 219.518 342.027 219.086C342.817 218.655 343.432 217.827 343.871 216.604C344.354 215.381 344.815 213.403 345.254 210.669L352.301 167.938C352.696 165.204 352.894 163.441 352.894 162.65C352.894 161.139 352.564 160.132 351.906 159.629C351.291 159.125 350.15 158.801 348.481 158.657L348.81 156.499C350.611 156.715 353.399 156.823 357.175 156.823C360.687 156.823 363.497 156.715 365.605 156.499L365.275 158.657C363.651 158.801 362.444 159.089 361.653 159.521C360.863 159.952 360.226 160.78 359.743 162.003C359.304 163.226 358.865 165.204 358.426 167.938L351.379 210.669C350.984 213.403 350.786 215.13 350.786 215.849C350.786 217.432 351.094 218.475 351.708 218.978C352.367 219.41 353.552 219.626 355.265 219.626H359.414C362.751 219.626 365.649 218.079 368.107 214.986C370.566 211.82 372.608 206.641 374.232 199.447H375.747ZM412.744 213.043C412.92 215.417 413.315 217.144 413.93 218.223C414.544 219.302 415.225 219.878 415.971 219.949L415.642 222.108C413.886 221.892 411.493 221.784 408.463 221.784C404.907 221.784 402.272 221.892 400.56 222.108L400.889 219.949C402.953 219.806 404.424 219.266 405.302 218.331C406.18 217.396 406.619 215.633 406.619 213.043C406.619 212.108 406.597 211.389 406.553 210.885L405.565 197.505H388.837L384.358 206.677C382.646 210.202 381.79 213.079 381.79 215.309C381.79 217.971 383.107 219.518 385.742 219.949V222.108C384.424 221.892 382.427 221.784 379.748 221.784C377.07 221.784 375.16 221.892 374.018 222.108V219.949C375.95 219.086 378.343 215.741 381.197 209.914L407.673 155.744H408.661L412.744 213.043ZM405.434 195.346L403.392 167.938L389.891 195.346H405.434ZM460.361 144.737C461.326 144.737 462.051 145.241 462.534 146.248C463.061 147.183 463.324 148.37 463.324 149.809C463.324 152.687 462.314 155.348 460.295 157.794C459.021 159.017 457.682 159.916 456.277 160.492C454.872 160.996 453.182 161.247 451.206 161.247C449.538 161.247 447.671 161.067 445.608 160.708L436.98 209.59C436.585 211.748 436.387 213.547 436.387 214.986C436.387 216.784 436.805 218.043 437.639 218.762C438.473 219.482 439.9 219.878 441.92 219.949L441.656 222.108C439.373 221.892 436.102 221.784 431.843 221.784C427.54 221.784 424.335 221.892 422.228 222.108L422.491 219.949C424.379 219.806 425.828 219.446 426.838 218.87C427.848 218.295 428.638 217.324 429.209 215.957C429.823 214.59 430.372 212.468 430.855 209.59L439.746 159.305C435.883 158.442 433.116 158.01 431.448 158.01C428.638 158.01 426.574 158.622 425.257 159.844C425.608 160.636 425.894 161.607 426.113 162.758C426.333 163.909 426.443 165.024 426.443 166.103C426.443 167.758 426.157 169.233 425.586 170.527C425.016 171.75 424.203 172.362 423.15 172.362C422.228 172.362 421.503 171.894 420.976 170.959C420.493 169.952 420.252 168.621 420.252 166.966C420.252 163.298 421.393 160.492 423.676 158.55C425.564 156.895 428.045 156.068 431.119 156.068C433.621 156.068 437.112 156.571 441.59 157.578C443.215 157.938 444.883 158.298 446.596 158.657C448.352 158.945 449.977 159.089 451.469 159.089C453.094 159.089 454.455 158.909 455.553 158.55C456.65 158.19 457.726 157.578 458.78 156.715C457.682 154.917 457.133 152.902 457.133 150.672C457.133 149.09 457.397 147.723 457.924 146.572C458.494 145.349 459.307 144.737 460.361 144.737ZM466.507 210.669C466.112 213.403 465.914 215.166 465.914 215.957C465.914 217.468 466.222 218.475 466.836 218.978C467.495 219.482 468.681 219.806 470.393 219.949L470.129 222.108C468.11 221.892 465.322 221.784 461.765 221.784C458.121 221.784 455.333 221.892 453.401 222.108L453.73 219.949C455.267 219.806 456.409 219.518 457.155 219.086C457.945 218.655 458.56 217.827 458.999 216.604C459.482 215.309 459.943 213.331 460.382 210.669L467.297 167.938C467.649 165.492 467.824 163.765 467.824 162.758C467.824 161.175 467.495 160.132 466.836 159.629C466.222 159.125 465.08 158.801 463.412 158.657L463.741 156.499C465.541 156.715 468.329 156.823 472.105 156.823C475.618 156.823 478.428 156.715 480.535 156.499L480.206 158.657C478.581 158.801 477.374 159.089 476.584 159.521C475.837 159.952 475.223 160.78 474.74 162.003C474.301 163.226 473.862 165.204 473.422 167.938L466.507 210.669ZM496.799 223.618C491.881 223.618 487.951 221.424 485.01 217.036C482.068 212.648 480.597 206.173 480.597 197.612C480.597 191.066 481.717 184.484 483.956 177.865C486.195 171.247 489.313 165.779 493.308 161.463C497.304 157.147 501.804 154.989 506.809 154.989C511.727 154.989 515.657 157.183 518.598 161.571C521.54 165.959 523.011 172.434 523.011 180.995C523.011 187.541 521.891 194.123 519.652 200.742C517.413 207.36 514.296 212.828 510.3 217.144C506.304 221.46 501.804 223.618 496.799 223.618ZM506.217 156.931C502.748 156.931 499.587 158.981 496.733 163.082C493.879 167.182 491.64 172.506 490.015 179.052C488.434 185.527 487.644 192.217 487.644 199.123C487.644 206.893 488.5 212.612 490.213 216.281C491.969 219.878 494.362 221.676 497.391 221.676C500.86 221.676 504.021 219.626 506.875 215.525C509.729 211.425 511.947 206.137 513.527 199.663C515.152 193.116 515.964 186.39 515.964 179.484C515.964 171.714 515.086 166.031 513.33 162.434C511.617 158.765 509.246 156.931 506.217 156.931ZM575.937 151.536C577.342 151.536 578.352 152.039 578.967 153.046C579.582 154.053 579.889 155.384 579.889 157.039C579.889 158.981 579.538 160.78 578.835 162.434C578.133 164.017 577.189 164.808 576.003 164.808C575.125 164.808 574.488 164.413 574.093 163.621C573.698 162.758 573.501 161.751 573.501 160.6C573.501 159.449 573.698 158.262 574.093 157.039C574.488 155.744 574.993 154.665 575.608 153.802H575.41C574.269 153.874 573.259 154.377 572.381 155.312C571.547 156.248 570.756 157.578 570.01 159.305C568.078 163.837 566.014 171.247 563.819 181.534C561.668 191.821 559.319 205.526 556.772 222.647H555.323L540.307 163.513C535.609 197.181 531.745 217.108 528.716 223.295C527.662 225.453 526.608 227.107 525.554 228.258C524.544 229.481 523.249 230.093 521.669 230.093C519.034 230.093 517.717 228.222 517.717 224.482C517.717 222.539 518.068 220.777 518.771 219.194C519.473 217.611 520.417 216.82 521.603 216.82C522.481 216.82 523.118 217.252 523.513 218.115C523.908 218.906 524.105 219.878 524.105 221.029C524.105 222.18 523.908 223.367 523.513 224.59C523.118 225.812 522.613 226.892 521.998 227.827H522.13C524.237 227.755 526.081 225.884 527.662 222.216C530.823 214.518 534.555 195.059 538.858 163.837C538.946 161.823 538.639 160.492 537.936 159.844C537.277 159.197 535.894 158.801 533.787 158.657L534.116 156.499C535.521 156.715 537.475 156.823 539.978 156.823C541.997 156.823 543.776 156.715 545.312 156.499L557.826 207.324C562.041 181.426 565.707 165.132 568.824 158.442C570.932 153.838 573.303 151.536 575.937 151.536Z" stroke="#535353" stroke-width="1.77778" mask="url(#path-1-outside-1_1029_326)"/>
</svg>
