<?xml version="1.0" encoding="UTF-8"?>
<svg id="Layer_2" xmlns="http://www.w3.org/2000/svg" viewBox="0 0 69.57 11.25">
  <defs>
    <style>
      .cls-1 {
        fill: #231f20;
      }
    </style>
  </defs>
  <g id="Layer_1-2" data-name="Layer_1">
    <g>
      <path class="cls-1" d="M2.47,7.69c0,.09.04.22.12.39s.18.35.29.56.24.41.38.62.26.4.38.58.21.33.29.46.11.21.11.24c0,.05-.08.11-.25.19s-.36.16-.57.23-.42.14-.62.2-.33.09-.4.09c-.02,0-.03-.01-.04-.02s-.03,0-.04-.02c-.02-.02-.05-.07-.08-.16s-.06-.19-.09-.31-.06-.23-.09-.34-.04-.18-.05-.22c-.2-.67-.41-1.34-.62-1.99s-.46-1.3-.74-1.95c-.02-.05-.06-.12-.1-.21s-.09-.19-.14-.29-.1-.2-.13-.29-.06-.15-.07-.18l.05-.04c.06.02.16.09.29.21s.27.23.4.35.26.23.37.32.17.14.19.14c0,0,.02,0,.02,0s.02,0,.02,0c.02-.05.02-.11.02-.19s-.01-.16-.02-.25-.02-.18-.04-.26-.02-.16-.02-.22V.12c0-.08.04-.12.12-.12.06,0,.17,0,.33.02s.32.04.48.08.31.08.44.13.19.13.19.22v6.68c0,.05.02.1.06.12s.06.07.06.13c0,.03-.02.06-.05.09s-.08.05-.13.07-.11.04-.16.05-.09.03-.11.04l-.05.05ZM3.48,7.93s-.02-.03-.02-.05c0-.06.03-.09.09-.09h.14c.08,0,.22,0,.42,0s.44,0,.71.01.55.01.85.02.57.02.83.03.47.02.64.02.27.02.28.02l-.02.04s-.02,0-.04.01-.03.01-.04.01h-3.75l-.08-.04ZM4.49,5.64c.09-.27.2-.54.32-.81.04-.1.09-.22.15-.36s.14-.27.23-.39.19-.22.29-.31.23-.13.37-.13c.24,0,.42.08.54.23s.18.35.18.58-.07.49-.22.74-.33.47-.54.67-.46.36-.73.49-.52.19-.75.19c0,0-.02,0-.05,0s-.04,0-.06-.01-.03-.01-.04-.02,0-.03.01-.04c.1-.27.2-.55.29-.82ZM7.68,2.13s-.04-.1-.08-.17-.08-.11-.12-.11h-1.27s-.05,0-.11-.02-.08-.03-.08-.06.01-.06.04-.08.05-.04.08-.06c.2-.16.38-.31.53-.46s.26-.36.33-.62c0-.03.02-.08.03-.13s.03-.12.04-.17.04-.1.06-.14.05-.06.09-.06c.2,0,.43.03.67.08s.47.13.69.24.39.25.54.43.22.38.22.63v6.3c0,.09.04.13.12.13h1.77s.07.02.07.07l-.05.08s-.12.11-.23.24-.24.26-.38.39-.26.25-.37.35-.18.16-.19.16c-.06,0-.11-.05-.15-.14s-.08-.18-.13-.28-.1-.19-.15-.28-.12-.12-.21-.12c-.02,0-.04.02-.05.05s-.02.05-.02.07v2.05c0,.05.04.11.11.15s.11.1.11.15c0,.04-.02.06-.05.06s-.05,0-.07.02c-.27.05-.55.1-.84.13s-.56.05-.84.05c-.07,0-.11-.04-.11-.12V2.13Z"/>
      <path class="cls-1" d="M11.46,9.14c.08-.1.17-.22.26-.36s.18-.29.26-.46.11-.34.11-.52v-3.43c0-.27.05-.55.15-.84s.23-.56.39-.82.35-.5.56-.71.43-.39.67-.52c.16-.1.32-.18.5-.23s.36-.08.55-.08c.27,0,.46.07.56.2s.15.29.16.48,0,.39-.04.6-.06.4-.06.57.02.36.05.54.07.36.12.54.09.37.12.55.05.37.05.54c0,.02,0,.04,0,.08s-.02.05-.05.05c-.08,0-.15-.05-.21-.15s-.12-.22-.19-.37-.14-.31-.22-.48-.17-.33-.27-.48-.21-.27-.34-.38-.28-.15-.45-.15-.33.06-.46.18-.23.26-.3.43-.13.34-.17.53-.05.35-.05.5c0,.23.04.46.11.69s.14.45.22.67.15.44.22.66.11.46.11.7c0,.27-.07.52-.21.74s-.32.4-.54.56-.46.27-.73.35-.52.12-.77.12c-.04,0-.08,0-.11,0s-.07-.02-.1-.05c0-.05.05-.13.13-.23ZM21.13,3.53c.11.08.2.18.26.31s.1.27.12.43.03.31.03.46c0,.39-.06.77-.19,1.12s-.3.69-.52.98-.48.55-.79.77-.65.4-1.01.52c-.13.05-.27.09-.42.12s-.3.05-.46.05c-.02,0-.05,0-.09,0s-.05-.03-.05-.06c0,0,.03-.05.1-.14s.15-.2.26-.33.22-.28.35-.43.24-.3.35-.45.21-.28.29-.4.14-.2.16-.26c.09-.19.14-.39.16-.62l.06-.67c.02-.22.04-.44.08-.64s.1-.39.21-.56c.09-.12.18-.2.28-.25s.22-.07.36-.07c.2,0,.35.04.46.12Z"/>
      <path class="cls-1" d="M28.49,8.49c.72-.04,1.16-.05,1.32-.05h.86c.16,0,.29.05.39.15s.15.23.15.39c0,.2-.05.35-.16.47s-.25.21-.41.28-.34.11-.52.13-.35.04-.51.04c-.62,0-1.23-.08-1.83-.23s-1.19-.32-1.79-.5-1.19-.35-1.79-.5-1.2-.23-1.83-.23c-.1,0-.19.02-.28.06s-.16.08-.25.13-.17.1-.25.15-.18.07-.27.08l-.05-.06c-.05-.09-.07-.17-.08-.26s0-.18,0-.27c0-.18.04-.36.12-.54s.18-.34.31-.49.28-.26.45-.36.35-.14.53-.14c.3,0,.62.09.98.28s.74.39,1.14.61.81.43,1.23.61.84.28,1.27.28c.12,0,.55,0,1.27-.04ZM27.71,8.14c-.07.1-.32.03-.75-.21s-.85-.71-1.25-1.42-.6-1.47-.6-2.31c0-.62.11-1.14.33-1.58s.51-.79.88-1.07.8-.48,1.29-.61,1.02-.19,1.58-.19c.12,0,.23.01.35.04s.22.07.31.13.17.14.23.23.09.21.09.35c0,.28-.1.48-.29.6s-.43.21-.71.27-.59.12-.92.17-.64.15-.93.3-.52.38-.71.68-.29.73-.29,1.28c0,.48.04.91.13,1.31s.24.74.45,1.04.48.55.81.76c.06.06.06.14,0,.25Z"/>
      <path class="cls-1" d="M33.51,9.64s.04-.03.08-.05.07-.02.08-.02h2.59s.08-.01.13-.04.1-.04.15-.04c.04,0,.07.02.09.06s.05.06.09.06h2.67s.04,0,.06.02.04.03.04.05c0,.03-.05.1-.16.21s-.23.21-.37.33-.27.22-.39.31-.21.15-.26.16l-.07-.04c-.05-.09-.11-.18-.17-.28s-.12-.2-.2-.28-.16-.16-.25-.22-.2-.09-.33-.09c-.03,0-.06,0-.09.02s-.05.04-.05.09v.83l.04.08s.05.04.08.07.05.06.05.09c-.02.02-.11.05-.25.07s-.31.04-.5.06-.37.04-.53.05-.28.02-.32.02c-.05,0-.08-.03-.08-.08v-1.24c0-.09-.04-.13-.12-.13h-1.91l-.08-.04-.02-.05ZM35.45,2.2c.12,0,.25.04.38.13s.25.18.37.28.23.19.33.28.21.13.31.13c.03,0,.09,0,.16,0s.12-.03.12-.08c0-.07,0-.16-.01-.28s.02-.2.08-.23c.03-.02.08-.03.16-.04s.15-.02.23-.04.15-.04.21-.06.09-.06.09-.11c0-.06,0-.16,0-.29s0-.22-.03-.26c-.05-.08-.11-.13-.18-.15s-.14-.03-.21-.03h-.18c-.05,0-.08-.02-.08-.07,0-.04,0-.07.02-.09s.03-.04.05-.06c.09-.11.17-.23.22-.36s.1-.27.13-.4c.02-.05.03-.11.05-.2s.06-.13.12-.13c.13,0,.28.02.43.06s.29.11.42.19.24.19.32.31.13.25.13.39v3.3c0,.07.04.12.12.16s.12.08.12.15c0,.02-.05.07-.15.16s-.21.18-.33.28-.23.18-.34.26-.17.12-.19.12c-.06,0-.14-.05-.22-.15s-.15-.17-.19-.21c-.06-.08-.11-.13-.13-.17s-.1-.06-.21-.08c-.04,0-.1-.01-.18-.02s-.16-.01-.24-.02-.15-.03-.22-.05-.1-.05-.11-.08c.02-.02.07-.03.16-.03s.19,0,.3,0,.22,0,.32,0,.17,0,.21,0c.08,0,.12-.04.12-.12v-.88s-.02-.06-.06-.07-.08-.01-.12-.01c-.09,0-.16.03-.23.08s-.14.11-.21.17-.14.12-.21.17-.14.08-.22.08c-.05,0-.07-.02-.07-.06,0-.09.03-.17.08-.25s.08-.19.08-.31c0-.05-.04-.08-.12-.11s-.17-.05-.27-.06-.2-.02-.3-.02h-.2s-.06.02-.07.06-.01.08-.01.11c0,.02.03.09.08.22s.12.29.19.48.16.39.25.6.18.41.26.59.15.34.21.47.1.2.11.22c.05.05.14.07.28.06s.24-.01.31-.01c.05,0,.1-.03.14-.08s.07-.11.11-.17.07-.12.11-.17.11-.08.19-.08c.1,0,.19.03.28.08s.16.12.23.2.12.17.16.26.06.19.06.28v2.51s-.04.07-.12.1-.17.05-.28.06-.2.03-.3.03-.16,0-.19,0c-.06,0-.09-.02-.09-.05v-.11s-.02-.08-.05-.12-.11-.06-.23-.06c-.11,0-.21.02-.3.07s-.18.1-.27.15-.18.1-.28.15-.21.06-.32.06c-.04-.02-.07-.06-.08-.12s-.03-.12-.05-.18-.03-.13-.05-.19-.04-.12-.07-.16c-.03-.05-.08-.07-.16-.08s-.15,0-.23,0-.15,0-.22,0-.09-.03-.09-.08c0-.02.01-.05.04-.09s.06-.07.09-.11.07-.07.11-.1.06-.05.08-.07l.04-.08v-.11c-.11-.16-.22-.33-.33-.49s-.19-.33-.23-.51l.04-.04c.08.04.16.09.24.15l.25.18c.08.06.17.11.25.16s.18.07.28.07c.05,0,.08-.03.11-.08s.05-.11.08-.18.07-.12.12-.17.12-.08.22-.08c.12,0,.23.05.31.15s.12.21.12.33c0,.07-.02.14-.05.2s-.06.13-.09.19-.06.13-.09.19-.04.12-.04.18c0,.14.07.25.2.34s.26.13.38.13c.08,0,.12-.01.14-.04s.02-.07.02-.13v-2.07c0-.06-.04-.09-.12-.09h-.18c-.29,0-.58,0-.87.01s-.58.02-.86.04c-.09.02-.22.02-.37.02s-.27,0-.35.02c-.09.02-.13.06-.13.13,0,.36,0,.72.02,1.07s.02.71.02,1.07c0,.05,0,.1.01.15s0,.11-.01.15c-.02.06-.08.12-.19.16s-.24.07-.37.08-.25,0-.36-.02-.16-.06-.16-.12c0-.56.01-1.12.04-1.68s.04-1.12.04-1.68c0-.02,0-.04.02-.07s.04-.05.06-.05c.09,0,.19.03.3.09s.21.12.33.19.23.13.36.19.27.09.42.09c.03,0,.07,0,.12-.01s.07-.04.07-.08v-.98c0-.08-.05-.12-.15-.13s-.17-.02-.22-.02c-.15,0-.29.03-.43.09s-.27.13-.39.21-.25.14-.36.21-.23.1-.33.1c-.09,0-.13-.04-.13-.11,0-.88.01-1.76.04-2.62s.04-1.74.04-2.62c0-.06.03-.1.08-.11s.1-.01.15-.01.12,0,.22.02.19.03.29.05.18.05.25.09.11.09.11.16v2.4c0,.09.04.14.13.14.03,0,.07-.03.11-.09s.08-.12.12-.2.07-.15.09-.23.04-.13.05-.16l.06-.04ZM34.85,3.54v1.03c0,.08.04.12.12.12h.64c.08,0,.12-.04.12-.12,0-.2-.01-.39-.04-.59s-.04-.39-.06-.57l-.04-.04-.08-.05h-.47l-.08.05-.08.08-.04.08ZM39.27,6.62c.08.04.15.1.22.18s.14.12.23.12.13-.04.13-.12V.14c0-.08.04-.12.11-.12h.18c.26,0,.45.04.58.12s.23.17.29.27.12.19.15.27.09.12.16.12h3.3s.06.02.06.06,0,.08-.02.1c0,.02-.05.08-.13.16s-.17.18-.28.29-.19.2-.27.28-.12.12-.13.12c-.07,0-.12-.03-.16-.1s-.07-.14-.11-.22-.08-.15-.13-.22-.12-.11-.21-.11c-.05.02-.08.06-.08.12v2.2c0,.09.07.13.21.13s.3,0,.47-.02.33-.03.47-.03.21.03.21.1l-.04.08c-.12.12-.23.26-.33.39s-.21.26-.34.37h-.06s-.05-.02-.05-.02c-.05-.08-.1-.18-.17-.3s-.15-.19-.25-.22l-.08.02-.04.07v1.85c0,.08.07.12.21.13s.29,0,.45,0,.31-.01.45-.01.21.03.21.09c0,.02-.04.06-.11.13s-.15.15-.23.24-.16.17-.25.25-.13.13-.16.15l-.06.02-.06-.04s-.03-.05-.06-.11-.06-.11-.1-.16-.07-.1-.11-.13-.06-.06-.07-.06c-.03,0-.06.03-.09.08s-.04.08-.04.11v1.65c0,.06.04.1.11.12s.16.03.26.02.22-.01.35-.02.25-.02.35-.02.19,0,.26.01.11.04.11.09l-.04.08s-.1.09-.18.17-.17.16-.26.24-.18.15-.26.22-.14.11-.18.13l-.07-.04c-.09-.1-.18-.21-.25-.34s-.16-.23-.26-.33c0,0-.02,0-.02,0s-.02,0-.02,0h-1.82s-.1.02-.15.07-.08.09-.08.14c0,.02.03.1.09.25s.13.32.21.51.15.37.22.53.1.25.12.26c.04.06.11.12.2.18s.15.1.16.14c-.03.03-.12.08-.28.13s-.32.11-.5.16-.36.09-.52.13-.27.05-.33.05c-.06,0-.1-.02-.11-.07-.04-.11-.06-.23-.06-.35s0-.24-.02-.35c-.04-.25-.08-.5-.13-.75s-.1-.49-.16-.73c-.07-.26-.14-.52-.22-.78s-.15-.52-.23-.77c-.04-.12-.08-.24-.12-.36s-.07-.24-.09-.36l.04-.04ZM41.16,8.25c0,.09.04.13.12.13h.57c.08,0,.12-.04.12-.13v-1.92c0-.08-.04-.12-.12-.12h-.57c-.08,0-.12.04-.12.12v1.92ZM41.76,6.05l.09-.04.08-.08.04-.08v-1.93c0-.08-.04-.13-.13-.16s-.18-.05-.28-.05-.19.01-.28.04-.13.07-.13.12v2.06c0,.08.04.12.12.12h.48ZM41.85,3.57c.08,0,.12-.04.12-.12V1.09c0-.09-.04-.13-.13-.15s-.17-.02-.23-.02h-.11s-.1,0-.15.01-.1.02-.13.04-.05.04-.05.08v2.4c0,.08.04.12.12.12h.57ZM42.51,10.98c-.05-.12-.1-.27-.15-.46s-.11-.38-.15-.59-.09-.4-.12-.59-.05-.34-.05-.46l.05-.04c.09,0,.16.03.21.08l1.43,1.43s.08.07.12.09.07.05.09.1l-.02.05c-.09.02-.2.06-.32.1s-.24.09-.37.13-.25.09-.37.12-.21.05-.29.06l-.06-.04Z"/>
      <path class="cls-1" d="M49.73,2.72c-.05-.05-.05-.12-.02-.21s.07-.26.13-.51.12-.49.21-.73.19-.45.31-.63.29-.27.49-.27.38.05.5.14.21.22.27.37.1.32.11.49.02.35.02.51c0,.23-.01.46-.04.69s-.05.46-.07.69c-.04.4-.06.79-.07,1.18s-.01.78-.01,1.17c0,.26.02.47.06.63s.14.35.29.55c.13.2.31.39.53.59.2.17.32.29.38.34s.07.11.05.15-.06.06-.11.05-.08-.02-.11-.02c-.17,0-.29.05-.36.16s-.11.24-.11.4c0,.09.02.19.06.28s.08.18.12.27.08.18.12.28.05.2.05.3c0,.18-.05.35-.14.5s-.22.29-.37.4-.32.21-.49.28-.35.1-.52.1c-.05,0-.12,0-.22-.02s-.19-.03-.29-.05-.18-.05-.26-.09-.12-.09-.13-.14l.04-.05c.1-.04.2-.08.3-.13s.2-.1.28-.17.15-.14.21-.23.08-.2.08-.32c0-.77-.16-1.32-.49-1.66s-.88-.52-1.65-.52c-.12,0-.22.02-.3.05s-.15.07-.22.11-.12.07-.16.11-.08.05-.09.05c-.04,0-.06-.03-.07-.08s-.01-.09-.01-.12c0-.18.04-.36.12-.54s.18-.35.3-.5.27-.28.43-.37.35-.14.53-.14c.07,0,.13.02.19.05.03.02.06.05.08.08s.05.06.08.09l.17.17c.07.07.14.13.22.18s.16.1.23.14.15.06.22.06c.08,0,.12-.04.12-.11,0-.27-.06-.51-.19-.74s-.29-.46-.5-.67-.42-.44-.65-.66-.45-.45-.64-.67-.37-.46-.5-.7-.2-.5-.2-.79c0-.09,0-.17.02-.25s.04-.16.08-.23.09-.13.15-.18.15-.08.24-.08c.15,0,.26.05.33.14s.14.2.21.31.22.38.46.79.41.69.49.84.17.29.26.4.18.18.25.18c.05,0,.07-.04.07-.11v-1.41c0-.06-.02-.13-.06-.21s-.09-.12-.15-.12c-.04,0-.1.02-.18.05s-.15.07-.22.12c-.12.07-.21.08-.26.03ZM53.15,8.02s.11-.03.21.04.29.15.56.25.52.15.76.15c.2,0,.35-.04.47-.12s.21-.18.27-.29.1-.25.12-.4.03-.31.03-.46c0-.32-.02-.64-.06-.96s-.08-.63-.13-.96-.1-.64-.14-.95-.06-.63-.06-.95c0-.26.02-.51.07-.74s.12-.45.23-.63.25-.32.45-.43.44-.16.74-.16c.23,0,.48.04.77.13s.56.22.82.38.47.36.65.59.26.46.26.71v.06h-.05c-.28-.14-.56-.28-.83-.38s-.57-.16-.9-.16c-.2,0-.34.03-.45.08s-.18.12-.24.21-.09.2-.11.33-.02.27-.02.43c0,.27.02.54.05.81s.07.53.12.8.08.53.12.8.05.54.05.81-.02.54-.07.77-.13.44-.25.61-.28.31-.49.4-.46.15-.79.15c-.23,0-.45-.03-.66-.08s-.43-.12-.64-.21c-.09-.04-.17-.08-.26-.12s-.19-.1-.29-.16-.2-.13-.29-.21c-.06-.05-.08-.09-.04-.13Z"/>
      <path class="cls-1" d="M66.86,8.49c.72-.04,1.16-.05,1.32-.05h.86c.16,0,.29.05.39.15s.15.23.15.39c0,.2-.05.35-.16.47s-.25.21-.41.28-.34.11-.52.13-.35.04-.51.04c-.62,0-1.23-.08-1.83-.23s-1.19-.32-1.79-.5-1.19-.35-1.79-.5-1.2-.23-1.83-.23c-.1,0-.19.02-.28.06s-.16.08-.25.13-.17.1-.25.15-.18.07-.27.08l-.05-.06c-.05-.09-.07-.17-.08-.26s0-.18,0-.27c0-.18.04-.36.12-.54s.18-.34.31-.49.28-.26.45-.36.35-.14.53-.14c.3,0,.62.09.98.28s.74.39,1.14.61.81.43,1.23.61.84.28,1.27.28c.12,0,.55,0,1.27-.04ZM66.07,8.14c-.07.1-.32.03-.75-.21s-.85-.71-1.25-1.42-.6-1.47-.6-2.31c0-.62.11-1.14.33-1.58s.51-.79.88-1.07.8-.48,1.29-.61,1.02-.19,1.58-.19c.12,0,.23.01.35.04s.22.07.31.13.17.14.23.23.09.21.09.35c0,.28-.1.48-.29.6s-.43.21-.71.27-.59.12-.92.17-.64.15-.93.3-.52.38-.71.68-.29.73-.29,1.28c0,.48.04.91.13,1.31s.24.74.45,1.04.48.55.81.76c.06.06.06.14,0,.25Z"/>
    </g>
  </g>
</svg>