<?xml version="1.0" encoding="UTF-8"?>
<svg id="Layer_2" xmlns="http://www.w3.org/2000/svg" viewBox="0 0 17.17 78.21">
  <defs>
    <style>
      .cls-1 {
      fill: #231f20;
      }
    </style>
  </defs>
  <g id="Layer_1-2">
    <g>
      <g>
        <path class="cls-1"
          d="M3.92,75.11l-.07.04c0,.08.06.19.18.34.12.14.27.3.44.48s.37.35.58.53.4.34.58.5c.18.15.32.29.43.4.11.11.17.18.17.21,0,.04-.13.1-.38.17-.25.07-.54.14-.86.2-.32.06-.63.12-.93.17-.3.05-.5.08-.61.08-.02,0-.04-.01-.06-.02-.02,0-.04,0-.06-.02-.04-.01-.08-.06-.12-.14-.05-.08-.09-.17-.14-.27-.05-.1-.09-.2-.13-.29-.04-.09-.07-.16-.08-.19-.31-.58-.62-1.15-.94-1.71s-.69-1.12-1.12-1.67c-.04-.04-.09-.1-.15-.18s-.14-.16-.21-.25c-.08-.09-.14-.17-.2-.25-.06-.08-.1-.13-.11-.16l.07-.03c.09.02.24.08.44.18.2.1.4.2.61.3.21.1.39.2.56.28.17.08.26.12.28.12.01,0,.02,0,.04,0,.01,0,.02,0,.04,0,.02-.04.03-.09.03-.16,0-.07-.02-.14-.04-.22s-.04-.15-.05-.23c-.02-.07-.03-.14-.03-.19v-4.47c0-.07.06-.1.18-.1.09,0,.26,0,.5.02s.48.04.73.07.47.07.66.12.29.11.29.19v5.74s.03.08.1.11c.06.02.1.06.1.12,0,.03-.03.05-.08.08-.05.02-.12.04-.2.06-.08.02-.16.03-.24.05s-.13.02-.17.03h0ZM5.49,75.39l-.12-.03s-.04-.03-.04-.04c0-.05.05-.08.14-.08h.21c.12,0,.33,0,.64,0,.31,0,.66,0,1.07.01.41,0,.84.01,1.29.02.45.01.87.02,1.25.03.38,0,.71.01.97.02.26,0,.4.01.43.02l-.04.03s-.03,0-.06.01c-.03,0-.05.01-.06.01h-5.67,0ZM6.45,74.09c.15-.24.3-.47.44-.71s.3-.47.48-.7c.06-.09.14-.19.23-.31.09-.12.21-.23.35-.33s.28-.19.44-.27c.16-.07.35-.11.56-.11.37,0,.64.07.82.2.18.13.27.29.27.5s-.11.42-.33.63-.49.41-.82.58c-.33.17-.7.31-1.1.42s-.78.16-1.13.16c-.01,0-.04,0-.07,0-.04,0-.06,0-.09-.01-.02,0-.04-.01-.05-.02-.01-.01,0-.02.02-.04h0ZM11.71,77.95v-7.58s-.06-.08-.12-.15-.12-.1-.19-.1h-1.91s-.08,0-.16-.02c-.08-.01-.12-.03-.12-.06s.02-.05.06-.07c.04-.02.08-.04.12-.05.31-.13.57-.27.8-.4.22-.13.39-.31.5-.53.01-.03.03-.06.04-.12s.04-.1.06-.15c.02-.05.05-.09.09-.12.04-.03.08-.05.14-.05.31,0,.64.02,1.01.07.37.04.71.11,1.04.21s.6.22.82.37c.22.15.33.33.33.54v5.42c0,.07.06.11.18.11h2.68c.07,0,.11.02.11.06l-.07.07c-.06.03-.18.1-.35.21-.18.11-.37.22-.57.33-.2.11-.39.21-.56.3-.17.09-.27.14-.29.14-.09,0-.17-.05-.23-.12s-.12-.15-.19-.24-.14-.17-.22-.24-.18-.11-.31-.11c-.04,0-.06.01-.08.04-.02.03-.03.05-.03.06v1.76s.05.09.16.13.16.08.16.13c0,.03-.02.05-.07.06-.05,0-.08,0-.11.02-.41.05-.84.09-1.27.12-.43.03-.85.05-1.27.05-.11,0-.16-.03-.16-.1h0Z" />
        <path class="cls-1"
          d="M.64,66.28s.08-.11.19-.2c.12-.09.25-.19.4-.31.15-.12.28-.25.39-.39.11-.14.17-.29.17-.44v-2.95c0-.24.07-.48.22-.72.15-.25.34-.48.58-.71.24-.23.52-.43.84-.61.32-.19.66-.33,1.01-.45.24-.09.49-.15.76-.2s.55-.07.83-.07c.41,0,.69.06.84.17s.23.25.25.41,0,.33-.06.51c-.06.18-.09.34-.09.49s.02.31.07.46c.05.15.11.31.18.47.07.16.13.32.18.47.05.16.07.31.07.47,0,.01,0,.04,0,.07s-.03.05-.08.05c-.12,0-.22-.04-.31-.13s-.18-.19-.28-.32-.21-.27-.34-.41c-.12-.15-.26-.29-.41-.41-.15-.13-.32-.24-.51-.32s-.41-.13-.68-.13-.5.05-.69.15c-.19.1-.34.22-.46.37-.12.14-.2.3-.26.45-.05.16-.08.3-.08.43,0,.2.05.4.16.59.11.19.22.39.34.57.12.19.23.38.34.57.11.19.16.39.16.6,0,.24-.11.45-.32.63-.21.19-.49.35-.82.48s-.7.23-1.1.3c-.4.07-.78.11-1.16.11-.06,0-.12,0-.17,0-.05,0-.1-.02-.15-.05h0ZM14.76,61.15c.3,0,.53.03.7.1.17.07.3.16.4.27s.16.23.19.37c.03.13.04.27.04.39,0,.34-.09.66-.28.97-.19.31-.45.59-.78.84-.33.25-.73.47-1.2.66-.47.19-.98.34-1.53.45-.2.04-.41.07-.64.1-.22.03-.45.04-.69.04-.04,0-.08,0-.13,0-.05,0-.08-.02-.08-.06,0,0,.05-.05.15-.12.1-.07.23-.17.39-.28.16-.11.33-.24.52-.37.19-.13.37-.26.53-.39.17-.13.31-.24.44-.34.13-.1.21-.17.25-.22.13-.16.21-.34.24-.53.03-.19.06-.38.09-.57.03-.19.07-.38.12-.55.05-.18.15-.34.32-.48.13-.1.27-.17.42-.21s.33-.06.54-.06h0Z" />
        <path class="cls-1"
          d="M9.57,55.23c.19,0,.83,0,1.92-.04s1.76-.05,1.99-.05h1.29c.25,0,.45.04.59.13.15.08.22.2.22.34,0,.17-.08.3-.25.41s-.37.18-.62.24c-.25.05-.51.09-.79.12-.28.02-.53.04-.77.04-.95,0-1.87-.07-2.76-.2-.9-.13-1.8-.27-2.7-.43-.9-.16-1.81-.3-2.7-.43-.9-.13-1.82-.2-2.76-.2-.15,0-.29.02-.42.05-.12.03-.25.07-.37.12-.12.04-.25.09-.38.13-.13.04-.27.06-.41.07l-.07-.05c-.07-.07-.11-.15-.12-.22,0-.07,0-.15,0-.23,0-.15.06-.31.18-.46.12-.15.27-.29.47-.42s.42-.23.68-.31c.26-.08.53-.12.8-.12.45,0,.94.08,1.49.24.54.16,1.12.33,1.72.52.6.19,1.22.37,1.86.52.64.16,1.28.24,1.91.24h0ZM10.31,54.69c.09.05.09.12,0,.21-.1.09-.48.03-1.13-.18-.66-.21-1.28-.61-1.89-1.22s-.9-1.27-.9-1.99c0-.53.17-.98.5-1.36.33-.38.77-.68,1.33-.92.56-.24,1.21-.41,1.96-.52s1.54-.17,2.38-.17c.18,0,.35.01.52.04.17.02.33.06.47.12.14.05.26.12.35.2s.13.18.13.3c0,.24-.14.41-.43.51-.29.1-.65.18-1.07.23s-.89.1-1.39.15c-.5.04-.97.13-1.4.26-.43.13-.79.32-1.08.58-.29.26-.43.63-.43,1.1,0,.41.07.78.2,1.12.14.34.36.64.67.9.31.26.72.48,1.23.65h0Z" />
        <path class="cls-1"
          d="M.03,44.5l-.03-.06s.06-.04.12-.06c.06-.02.1-.03.12-.03h3.81c.06,0,.12-.02.2-.06s.15-.06.22-.06c.06,0,.1.03.14.08.03.05.08.08.14.08h3.93s.05,0,.1.02.06.04.06.07c0,.04-.08.13-.24.28-.16.14-.34.29-.54.44-.2.15-.39.29-.58.42-.18.13-.31.2-.38.22l-.1-.05c-.08-.12-.16-.24-.25-.38-.09-.14-.18-.26-.29-.38-.11-.12-.23-.21-.37-.29-.14-.08-.3-.12-.48-.12-.05,0-.09,0-.14.02-.05.02-.07.06-.07.12v1.12l.05.11s.07.05.12.1c.05.04.07.08.07.13-.03.03-.16.06-.37.1-.21.03-.46.06-.73.09s-.54.05-.79.07c-.25.02-.41.03-.47.03-.08,0-.12-.04-.12-.11v-1.68c0-.12-.06-.17-.17-.17H.16l-.12-.05H.03ZM2.78,34.44l.09-.05c.18,0,.37.06.56.17.19.12.37.24.54.37s.34.26.49.37.31.17.46.17c.05,0,.13,0,.24,0,.11,0,.17-.04.17-.1,0-.1,0-.22-.02-.38-.01-.16.03-.26.12-.32.05-.02.12-.04.23-.05s.22-.03.34-.05c.11-.02.22-.05.31-.09.09-.04.14-.09.14-.15,0-.08,0-.21,0-.39s0-.29-.04-.36c-.07-.11-.16-.17-.26-.2-.1-.03-.2-.04-.3-.04h-.27c-.08,0-.12-.03-.12-.1,0-.05.01-.09.03-.12.02-.03.05-.06.07-.09.14-.15.24-.31.32-.49.07-.18.14-.36.2-.54.02-.06.05-.15.08-.27.03-.12.09-.17.18-.17.2,0,.41.03.63.09.22.06.43.14.62.26.19.12.35.26.47.42.13.16.19.34.19.53v4.46c0,.09.06.17.18.21.12.05.18.11.18.2,0,.02-.07.09-.22.21-.14.12-.31.25-.48.37-.18.13-.34.25-.5.36-.16.11-.25.17-.28.17-.09,0-.2-.07-.33-.2-.13-.13-.22-.22-.28-.28-.09-.11-.16-.18-.2-.23s-.14-.08-.3-.1c-.06-.01-.14-.02-.26-.02-.12,0-.23-.02-.35-.03s-.23-.04-.32-.07c-.09-.03-.14-.07-.16-.11.02-.02.1-.03.23-.04.13,0,.28,0,.45,0s.32,0,.47,0c.14,0,.24,0,.3,0,.11,0,.17-.05.17-.16v-1.19c0-.05-.03-.08-.09-.1-.06-.01-.11-.02-.17-.02-.13,0-.24.03-.35.1s-.21.14-.31.23c-.1.08-.21.16-.31.23-.1.07-.21.1-.33.1-.07,0-.1-.03-.1-.08,0-.12.04-.23.12-.34s.12-.25.12-.42c0-.06-.06-.11-.18-.15s-.25-.06-.4-.08c-.14-.02-.29-.02-.44-.02h-.29c-.06,0-.09.03-.1.09-.01.06-.02.11-.02.15,0,.02.04.12.11.3.08.18.17.4.28.65.11.25.24.52.37.81.13.28.26.55.38.8s.22.46.31.63c.09.17.14.27.16.29.07.06.2.09.41.08.2-.01.35-.02.46-.02.08,0,.15-.03.21-.1s.11-.14.16-.23c.05-.08.1-.16.16-.23.06-.07.16-.1.28-.1.15,0,.28.03.41.1s.23.16.34.27.18.23.24.36.09.25.09.38v3.39c0,.05-.06.1-.18.13-.12.04-.26.07-.41.09-.15.02-.3.03-.44.04-.14,0-.24,0-.28,0-.09,0-.14-.02-.14-.07v-.15c0-.05-.02-.11-.07-.16-.05-.05-.16-.08-.35-.08-.16,0-.31.03-.44.1-.13.06-.26.13-.4.21-.13.07-.27.14-.41.2-.14.06-.3.09-.47.09-.06-.03-.1-.09-.12-.17-.02-.08-.05-.16-.07-.25-.02-.08-.05-.17-.07-.26-.02-.09-.06-.16-.1-.21-.05-.06-.12-.1-.23-.1-.11,0-.22,0-.35,0-.12,0-.23,0-.32,0-.09,0-.14-.04-.14-.1,0-.03.02-.07.06-.12s.09-.1.14-.14c.05-.05.1-.09.16-.13.05-.04.09-.07.11-.1l.05-.11v-.14c-.16-.22-.32-.44-.48-.66-.16-.22-.28-.45-.35-.69l.05-.05c.12.05.23.12.35.2s.24.16.36.24.24.15.37.21c.13.06.26.1.41.1.07,0,.12-.04.16-.11.03-.07.07-.15.12-.24.05-.08.11-.16.18-.23.07-.07.18-.1.32-.1.18,0,.34.07.46.2s.18.28.18.45c0,.09-.02.18-.07.27-.05.08-.09.17-.14.26-.05.09-.09.17-.13.25-.04.08-.06.16-.06.25,0,.19.1.34.29.46.2.12.38.17.55.17.11,0,.18-.02.21-.06.02-.04.03-.1.03-.18v-2.8c0-.08-.06-.13-.18-.13h-.27c-.43,0-.85,0-1.29.02-.43.01-.85.03-1.27.05-.14.02-.32.03-.54.03s-.39.01-.51.03c-.13.02-.19.08-.19.17,0,.49,0,.97.03,1.45s.03.96.03,1.45c0,.06,0,.13.02.21.01.07,0,.14-.02.21-.02.08-.12.16-.28.21-.17.06-.35.09-.54.11-.2.02-.37,0-.53-.02s-.23-.08-.23-.16c0-.76.02-1.52.06-2.27.04-.75.06-1.51.06-2.27,0-.02.01-.05.03-.1.02-.04.05-.06.09-.06.14,0,.28.04.44.12.16.08.32.17.48.26.17.09.34.18.53.26.18.08.39.12.62.12.05,0,.1,0,.17-.02s.1-.05.1-.11v-1.33c0-.11-.07-.17-.22-.18-.14-.02-.25-.02-.32-.02-.22,0-.43.04-.63.13-.2.08-.39.18-.58.28-.18.1-.36.2-.54.28-.17.09-.33.13-.48.13-.13,0-.19-.05-.19-.14,0-1.19.02-2.37.06-3.55s.06-2.35.06-3.55c0-.08.04-.13.11-.14.08-.01.15-.02.22-.02s.18,0,.32.02c.14.02.28.04.42.07s.26.07.37.13c.11.05.16.13.16.22v3.25c0,.13.06.19.19.19.05,0,.1-.04.16-.12.06-.08.12-.17.17-.27.05-.1.1-.2.14-.31.04-.11.07-.18.08-.22h0ZM2.04,36.08l-.05.11v1.39c0,.11.06.16.17.16h.95c.11,0,.17-.05.17-.16,0-.26-.02-.53-.05-.79-.03-.26-.06-.52-.09-.78l-.05-.05-.12-.06h-.69l-.12.06-.12.11h0ZM8.44,40.4l.05-.05c.11.05.22.13.32.25.1.11.21.17.34.17s.19-.05.19-.16v-9.01c0-.11.05-.16.16-.16h.27c.38,0,.66.06.85.17.19.11.33.23.43.36.1.13.17.25.22.36.05.11.13.17.23.17h4.87c.06,0,.09.03.09.09s-.01.1-.03.13c-.01.03-.08.11-.2.22-.12.12-.26.25-.41.39s-.28.27-.4.37c-.12.11-.18.16-.19.16-.1,0-.18-.04-.23-.13-.05-.09-.11-.19-.16-.29-.06-.11-.12-.21-.2-.3-.08-.1-.18-.14-.3-.14-.08.03-.12.08-.12.16v2.98c0,.12.1.18.31.18.21,0,.44,0,.69-.02.25-.02.48-.03.69-.04.21,0,.31.04.31.13l-.05.11c-.17.17-.33.35-.48.53s-.32.35-.5.5l-.09.02-.07-.05c-.07-.11-.15-.24-.25-.4-.1-.16-.22-.26-.37-.29l-.12.03-.05.1v2.5c0,.11.1.16.3.17s.42.01.66,0c.24-.01.46-.02.66-.02s.3.04.3.13c0,.02-.05.08-.16.18-.1.1-.22.21-.34.32-.12.12-.24.23-.36.33-.12.11-.2.17-.23.21l-.09.03-.09-.05s-.04-.07-.09-.14c-.05-.07-.1-.14-.15-.21-.05-.07-.11-.13-.16-.18-.06-.05-.09-.08-.1-.08-.05.01-.09.04-.13.1-.04.06-.06.11-.06.15v2.23c0,.08.05.14.16.17.11.03.24.04.39.03.15,0,.32-.02.51-.03.19-.02.36-.03.52-.03.16,0,.28,0,.39.02.1.02.16.06.16.12l-.05.11c-.06.04-.15.12-.27.23-.12.11-.25.22-.38.32-.13.11-.26.2-.39.29-.13.09-.21.15-.26.18l-.1-.05c-.14-.14-.26-.29-.37-.46-.11-.17-.24-.32-.39-.44-.01,0-.02,0-.03,0-.01,0-.02,0-.03,0h-2.67c-.07,0-.14.03-.22.1s-.12.13-.12.19c0,.02.04.13.13.33.09.2.19.43.31.69.12.26.23.5.32.71.09.22.15.33.17.36.06.08.16.16.29.24.14.07.22.14.24.19-.05.04-.18.1-.41.18s-.47.15-.74.22-.53.13-.77.17-.4.07-.48.07c-.09,0-.14-.03-.16-.1-.06-.15-.09-.31-.09-.48s-.01-.33-.03-.48c-.06-.34-.12-.68-.19-1.01s-.15-.66-.24-.98c-.1-.35-.21-.7-.32-1.05-.11-.35-.22-.7-.34-1.04-.06-.16-.12-.32-.18-.48-.06-.16-.11-.32-.13-.48h0ZM11.27,42.56c0,.12.06.17.17.17h.85c.11,0,.17-.06.17-.17v-2.6c0-.11-.06-.16-.17-.16h-.85c-.11,0-.17.05-.17.16v2.6ZM11.44,39.58h.71l.14-.05.12-.11.05-.11v-2.61c0-.11-.06-.18-.19-.22s-.26-.06-.41-.06-.28.02-.41.06c-.13.04-.19.09-.19.17v2.79c0,.11.06.16.17.16h0ZM11.44,36.24h.85c.11,0,.17-.05.17-.16v-3.2c0-.12-.07-.18-.2-.2-.13-.02-.24-.02-.34-.02h-.16c-.07,0-.14,0-.22.02s-.15.03-.2.05c-.05.02-.08.06-.08.11v3.25c0,.11.06.16.17.16h0ZM13.34,46.29l-.09-.05c-.07-.16-.14-.36-.22-.62-.08-.25-.16-.52-.22-.79-.07-.27-.13-.54-.17-.79-.05-.25-.07-.46-.07-.62l.07-.05c.13,0,.23.04.31.11l2.11,1.93c.06.05.12.09.18.12.06.03.11.07.13.13l-.03.06c-.14.03-.29.08-.47.13-.17.06-.35.12-.54.18s-.37.12-.54.16-.32.07-.43.08h0Z" />
        <path class="cls-1"
          d="M3.07,18.84c-.18.1-.31.11-.38.04-.07-.07-.08-.16-.03-.28.05-.12.11-.35.19-.69.08-.34.18-.67.3-.99s.27-.6.46-.85c.18-.24.41-.36.72-.36s.56.06.73.19.31.29.4.5c.09.21.14.43.16.66.02.24.03.47.03.69,0,.31-.02.61-.05.93-.03.31-.07.62-.1.93-.06.54-.09,1.07-.1,1.59-.01.52-.02,1.05-.02,1.58,0,.35.03.63.09.85.06.22.2.47.43.74.2.26.45.53.78.79.29.23.47.39.56.46.09.07.11.14.07.21-.04.06-.09.09-.16.07s-.12-.02-.16-.02c-.25,0-.43.07-.54.21-.1.14-.16.32-.16.55,0,.13.03.25.09.38.06.13.12.25.18.36.06.12.12.24.17.37.05.13.08.27.08.4,0,.24-.07.47-.21.67s-.32.39-.54.55c-.22.16-.47.28-.72.37s-.51.13-.77.13c-.07,0-.18,0-.32-.02-.14-.02-.28-.04-.42-.06-.14-.03-.26-.07-.38-.12-.12-.05-.18-.12-.19-.19l.05-.06c.15-.05.3-.11.45-.17.15-.06.29-.14.41-.23.13-.09.23-.2.3-.32.07-.12.11-.27.11-.44,0-1.03-.24-1.78-.72-2.25-.48-.46-1.29-.7-2.43-.7-.17,0-.32.02-.44.06s-.23.09-.32.14-.17.1-.24.14-.12.06-.14.06c-.06,0-.09-.04-.1-.11-.01-.07-.02-.13-.02-.16,0-.24.06-.49.17-.74.11-.25.26-.48.44-.68.18-.21.39-.37.64-.5.25-.13.51-.19.79-.19.1,0,.2.02.28.06.05.03.09.07.12.1.03.04.07.08.12.12.07.06.15.14.25.23.1.09.2.17.32.25.12.07.23.14.35.19.11.05.22.08.33.08.11,0,.17-.05.17-.14,0-.36-.1-.69-.28-1.01s-.43-.62-.73-.91c-.3-.3-.62-.59-.96-.89-.34-.3-.66-.6-.95-.91-.29-.31-.54-.62-.73-.95-.2-.33-.29-.68-.29-1.06,0-.12.01-.23.03-.34.02-.11.06-.21.11-.31.05-.1.13-.18.22-.25.1-.07.22-.1.35-.1.22,0,.38.06.49.19.11.13.21.27.3.42.09.15.32.51.68,1.06.36.55.6.93.72,1.14s.25.39.39.55.26.24.36.24c.07,0,.1-.05.1-.14v-1.9c0-.08-.03-.18-.09-.28-.06-.11-.13-.16-.22-.16-.06,0-.14.02-.26.06-.12.04-.22.1-.33.16h0ZM7.78,26.22c-.09-.06-.11-.12-.06-.18.05-.06.16-.04.31.05.16.09.43.2.83.34s.77.21,1.11.21c.29,0,.52-.05.69-.16.17-.11.3-.24.4-.4.09-.16.15-.34.18-.55.03-.21.04-.41.04-.63,0-.43-.03-.86-.09-1.29-.06-.43-.12-.86-.2-1.29-.08-.43-.14-.86-.21-1.28-.06-.42-.1-.85-.1-1.28,0-.35.03-.68.1-1.01s.18-.6.34-.85c.16-.24.37-.44.66-.58.28-.14.65-.21,1.1-.21.33,0,.71.06,1.14.18.43.12.83.29,1.21.51.38.22.7.49.96.79.26.31.39.63.39.97v.08l-.07.02c-.41-.21-.82-.39-1.22-.53-.4-.14-.84-.21-1.32-.21-.29,0-.51.03-.66.1-.15.07-.27.16-.35.28-.09.12-.14.27-.16.44s-.03.37-.03.58c0,.37.03.73.08,1.09.05.36.11.72.17,1.08.06.36.12.72.17,1.08s.08.71.08,1.09-.03.73-.1,1.04c-.07.32-.19.59-.37.82-.18.23-.42.41-.72.55s-.68.2-1.16.2c-.33,0-.66-.04-.98-.11-.32-.07-.63-.17-.94-.28-.13-.05-.26-.11-.39-.17s-.27-.13-.42-.22c-.15-.09-.29-.18-.43-.28h0Z" />
        <path class="cls-1"
          d="M9.3,10.51c.18.01.81,0,1.87-.06,1.06-.05,1.71-.07,1.94-.07h1.26c.24,0,.43.07.58.2s.22.31.22.53c0,.26-.08.48-.24.64-.16.16-.36.29-.6.37-.24.08-.5.14-.77.18-.27.04-.52.06-.75.06-.92,0-1.82-.1-2.69-.31-.87-.21-1.75-.43-2.63-.67-.88-.24-1.76-.47-2.63-.67-.87-.21-1.77-.31-2.69-.31-.15,0-.28.03-.41.08-.12.05-.24.11-.36.18s-.24.13-.37.2-.26.1-.4.11l-.07-.08c-.07-.12-.11-.23-.11-.35,0-.12,0-.24,0-.36,0-.24.06-.49.17-.73.11-.24.27-.46.46-.66.19-.2.41-.36.66-.48.25-.13.51-.19.78-.19.44,0,.92.12,1.45.37.53.25,1.09.52,1.67.82.59.3,1.19.58,1.81.82.62.25,1.24.37,1.86.37h0ZM10.02,9.66c.09.08.09.2,0,.33-.1.14-.47.04-1.1-.28-.64-.33-1.25-.97-1.84-1.92-.59-.95-.88-1.99-.88-3.12,0-.83.16-1.55.48-2.14.32-.59.75-1.07,1.29-1.45s1.18-.65,1.91-.82c.73-.17,1.5-.26,2.32-.26.17,0,.34.02.51.06.17.04.32.1.46.18.14.08.25.19.34.31s.13.28.13.47c0,.38-.14.65-.42.81-.28.16-.63.28-1.04.36-.41.08-.87.16-1.35.23s-.94.2-1.36.4c-.42.2-.77.51-1.05.92-.28.41-.42.99-.42,1.73,0,.64.07,1.23.2,1.77.13.53.35,1,.66,1.41.31.41.7.75,1.2,1.02h0Z" />
      </g>
    </g>
  </g>
</svg>