<?xml version="1.0" encoding="UTF-8"?>
<svg id="Layer_2" xmlns="http://www.w3.org/2000/svg" viewBox="0 0 118.24 35.76">
  <defs>
    <style>
      .cls-1 {
        fill: #f9f6f7;
      }
    </style>
  </defs>
  <g id="Layer_1-2" data-name="Layer_1">
    <path class="cls-1" d="M11.15,4.26c0,1.54-.31,3.01-.94,4.41-.63,1.38-1.49,2.5-2.6,3.35-1.09.84-2.31,1.26-3.66,1.26l-.88-.02c-.57-.02-.98-.04-1.25-.04-.82,0-1.43.02-1.82.06l.05-.37c.34-.02.6-.07.77-.15.18-.07.32-.22.43-.43.11-.22.22-.56.32-1.02L3.55,2.13c.09-.47.14-.77.14-.91,0-.25-.08-.42-.23-.52-.14-.1-.41-.15-.79-.17l.05-.37c.34.04.84.06,1.47.06l1.29-.02c.69-.02,1.15-.04,1.38-.04,1.43,0,2.5.35,3.21,1.04.72.69,1.08,1.71,1.08,3.05ZM3.77,12.94c1.26,0,2.33-.41,3.22-1.24.89-.84,1.56-1.96,2.02-3.35.46-1.39.68-2.91.68-4.55,0-1.12-.26-1.95-.77-2.48-.52-.54-1.34-.81-2.48-.81-.31,0-.56.04-.74.13-.17.09-.31.24-.43.46-.11.22-.21.56-.3,1l-1.99,9.25c-.09.44-.14.75-.14.91,0,.23.07.41.2.52.14.11.38.17.73.17ZM20.18,7.89c-.36,1.7-.86,3.01-1.49,3.92-.37.53-.84.95-1.38,1.26-.54.31-1.11.46-1.73.46-1.13,0-1.91-.33-2.34-1-.18-.28-.32-.57-.41-.87-.09-.3-.14-.64-.14-1.02,0-.62.13-1.52.39-2.7l.87-3.96c.08-.42.12-.72.12-.89,0-.27-.08-.45-.23-.54-.14-.09-.41-.14-.79-.17l.09-.37c.41.04,1.06.06,1.96.06.78,0,1.41-.02,1.9-.06l-.09.37c-.37.02-.65.07-.84.15-.17.07-.31.22-.43.43-.1.21-.2.55-.3,1.02l-.94,4.28c-.22,1.05-.33,1.88-.33,2.5,0,.68.14,1.2.41,1.57.27.37.73.56,1.38.56,1.06,0,1.9-.42,2.51-1.26.62-.84,1.09-2.02,1.41-3.54l.87-3.92c.07-.31.11-.59.11-.83,0-.33-.09-.57-.27-.7-.17-.14-.46-.22-.85-.24l.08-.37c.36.04.88.06,1.53.06.62,0,1.09-.02,1.43-.06l-.08.37c-.46.02-.8.16-1.03.41-.23.25-.43.7-.58,1.37l-.81,3.72ZM30.45,11.03h.35l-.06.24c-.18.77-.43,1.33-.73,1.7-.29.37-.67.56-1.14.56s-.81-.17-1.02-.5c-.2-.35-.29-.77-.27-1.28l.06-1.17c.01-.11.02-.28.02-.5,0-.49-.07-.88-.2-1.17-.12-.3-.34-.52-.67-.67-.32-.16-.79-.25-1.4-.28h-.29l-.73,3.33c-.08.39-.12.69-.12.89,0,.23.07.41.21.52.15.1.42.16.81.19l-.06.37c-.47-.04-1.09-.06-1.88-.06-.89,0-1.55.02-1.97.06l.06-.37c.36-.02.64-.07.82-.15.18-.07.32-.22.43-.43.11-.21.22-.55.32-1.02l1.61-7.33c.07-.39.11-.67.11-.81,0-.26-.08-.44-.23-.56-.14-.12-.4-.2-.77-.22l.08-.37c.41.04,1.03.06,1.87.06.49,0,.85,0,1.09-.02l1.12-.02c.99,0,1.74.2,2.25.61.52.39.77.94.77,1.63,0,.93-.34,1.7-1.03,2.33-.69.62-1.63,1.03-2.83,1.24l.32.06c.64.15,1.09.4,1.35.76.27.35.39.91.35,1.68l-.05.98c-.01.11-.02.26-.02.44,0,.35.04.61.11.8.07.19.19.28.36.28.18,0,.34-.12.49-.37.14-.26.29-.65.44-1.18l.08-.26ZM25.19,7.61h.26c.97,0,1.74-.12,2.29-.35.57-.23.97-.6,1.22-1.09.25-.51.38-1.17.38-2,0-.6-.15-1.05-.46-1.33-.3-.3-.8-.44-1.47-.44-.3,0-.54.05-.71.15-.17.09-.31.24-.43.46-.1.22-.2.55-.29.98l-.79,3.63ZM39.34,11.72c.04.41.13.7.27.89.14.19.3.28.47.3l-.08.37c-.41-.04-.96-.06-1.66-.06-.82,0-1.43.02-1.82.06l.08-.37c.48-.02.82-.12,1.02-.28s.3-.46.3-.91c0-.16,0-.28-.02-.37l-.23-2.3h-3.86l-1.03,1.57c-.39.6-.59,1.1-.59,1.48,0,.46.3.72.91.8v.37c-.3-.04-.76-.06-1.38-.06s-1.06.02-1.32.06v-.37c.45-.15,1-.72,1.66-1.72l6.11-9.29h.23l.94,9.83ZM37.65,8.68l-.47-4.7-3.11,4.7h3.59ZM50.32,0c.22,0,.39.09.5.26.12.16.18.36.18.61,0,.49-.23.95-.7,1.37-.29.21-.6.36-.93.46-.32.09-.71.13-1.17.13-.38,0-.82-.03-1.29-.09l-1.99,8.38c-.09.37-.14.68-.14.93,0,.31.1.52.29.65.19.12.52.19.99.2l-.06.37c-.53-.04-1.28-.06-2.26-.06s-1.73.02-2.22.06l.06-.37c.44-.02.77-.09,1-.19.23-.1.42-.27.55-.5.14-.23.27-.6.38-1.09l2.05-8.63c-.89-.15-1.53-.22-1.91-.22-.65,0-1.12.1-1.43.31.08.14.15.3.2.5.05.2.08.39.08.57,0,.28-.07.54-.2.76-.13.21-.32.31-.56.31-.21,0-.38-.08-.5-.24-.11-.17-.17-.4-.17-.68,0-.63.26-1.11.79-1.44.44-.28,1.01-.43,1.72-.43.58,0,1.38.09,2.42.26.37.06.76.12,1.15.19.41.05.78.07,1.12.07.37,0,.69-.03.94-.09.25-.06.5-.17.74-.31-.25-.31-.38-.65-.38-1.04,0-.27.06-.51.18-.7.13-.21.32-.31.56-.31ZM51.74,11.31c-.09.47-.14.77-.14.91,0,.26.07.43.21.52.15.09.43.14.82.17l-.06.37c-.47-.04-1.11-.06-1.93-.06s-1.48.02-1.93.06l.08-.37c.35-.02.62-.07.79-.15.18-.07.32-.22.43-.43.11-.22.22-.56.32-1.02l1.6-7.33c.08-.42.12-.72.12-.89,0-.27-.08-.45-.23-.54-.14-.09-.41-.14-.79-.17l.08-.37c.42.04,1.06.06,1.93.06.81,0,1.46-.02,1.94-.06l-.08.37c-.37.02-.65.07-.84.15-.17.07-.31.22-.43.43-.1.21-.2.55-.3,1.02l-1.6,7.33ZM58.73,13.53c-1.13,0-2.04-.38-2.72-1.13-.68-.75-1.02-1.86-1.02-3.33,0-1.12.26-2.25.77-3.39.52-1.14,1.24-2.07,2.16-2.81.92-.74,1.96-1.11,3.11-1.11s2.04.38,2.72,1.13c.68.75,1.02,1.86,1.02,3.33,0,1.12-.26,2.25-.77,3.39-.52,1.14-1.24,2.07-2.16,2.81-.92.74-1.96,1.11-3.11,1.11ZM60.9,2.09c-.8,0-1.53.35-2.19,1.06-.66.7-1.17,1.62-1.55,2.74-.36,1.11-.55,2.26-.55,3.44,0,1.33.2,2.31.59,2.94.41.62.96.93,1.66.93.8,0,1.53-.35,2.19-1.06.66-.7,1.17-1.61,1.53-2.72.37-1.12.56-2.28.56-3.46,0-1.33-.2-2.31-.61-2.92-.39-.63-.94-.94-1.64-.94ZM76.98,1.17c.32,0,.56.09.7.26.14.17.21.4.21.68,0,.33-.08.64-.24.93-.16.27-.38.41-.65.41-.2,0-.35-.07-.44-.2-.09-.15-.14-.32-.14-.52s.05-.4.14-.61c.09-.22.21-.41.35-.56h-.05c-.26.01-.5.1-.7.26-.19.16-.37.39-.55.68-.45.78-.92,2.05-1.43,3.81-.5,1.76-1.04,4.12-1.63,7.05h-.33l-3.46-10.14c-1.08,5.78-1.97,9.19-2.67,10.25-.24.37-.49.65-.73.85-.23.21-.53.31-.9.31-.61,0-.91-.32-.91-.96,0-.33.08-.64.24-.91.16-.27.38-.41.65-.41.2,0,.35.07.44.22.09.14.14.3.14.5s-.05.4-.14.61c-.09.21-.21.39-.35.56h.03c.49-.01.91-.33,1.28-.96.73-1.32,1.59-4.66,2.58-10.01.02-.35-.05-.57-.21-.68-.15-.11-.47-.18-.96-.2l.08-.37c.32.04.77.06,1.35.06.47,0,.88-.02,1.23-.06l2.89,8.72c.97-4.44,1.82-7.24,2.54-8.38.49-.79,1.03-1.18,1.64-1.18ZM28.98,23.43c.07-.31.11-.58.11-.81,0-.35-.09-.59-.26-.72-.17-.14-.46-.22-.87-.24l.08-.37c.35.04.87.06,1.53.06.6,0,1.07-.02,1.43-.06l-.08.37c-.35.02-.63.09-.84.2-.19.1-.35.27-.47.52-.11.23-.21.59-.3,1.06l-1.19,5.57c-.36,1.7-.86,3.01-1.49,3.92-.37.53-.84.95-1.38,1.26-.54.31-1.11.46-1.73.46-1.08,0-1.86-.33-2.34-1-.18-.26-.32-.54-.41-.83-.08-.31-.12-.66-.12-1.06,0-.67.13-1.57.38-2.7l1.26-5.81c.08-.42.12-.72.12-.89,0-.27-.08-.45-.23-.54-.14-.09-.41-.14-.79-.17l.09-.37c.41.04,1.06.06,1.96.06.78,0,1.41-.02,1.9-.06l-.09.37c-.37.02-.65.07-.84.15-.17.07-.31.22-.43.43-.1.21-.2.55-.3,1.02l-1.34,6.13c-.22,1.05-.33,1.88-.33,2.5,0,.68.14,1.2.41,1.57.28.37.74.56,1.38.56,1.06,0,1.9-.42,2.51-1.26.62-.84,1.09-2.02,1.41-3.54l1.25-5.78ZM41.85,22.29c.32,0,.56.09.7.26.14.17.21.4.21.68,0,.33-.08.64-.24.93-.16.27-.38.41-.65.41-.2,0-.35-.07-.44-.2-.09-.15-.14-.32-.14-.52s.05-.4.14-.61c.09-.22.21-.41.35-.56h-.05c-.26.01-.5.1-.7.26-.19.16-.37.39-.55.68-.45.78-.92,2.05-1.43,3.81-.5,1.76-1.04,4.12-1.63,7.05h-.33l-3.46-10.14c-1.08,5.77-1.97,9.19-2.67,10.25-.24.37-.49.65-.73.85-.23.21-.53.31-.9.31-.61,0-.91-.32-.91-.96,0-.33.08-.64.24-.91.16-.27.38-.41.65-.41.2,0,.35.07.44.22.09.14.14.3.14.5s-.05.4-.14.61c-.09.21-.21.39-.35.56h.03c.49-.01.91-.33,1.28-.96.73-1.32,1.59-4.66,2.58-10.01.02-.35-.05-.57-.21-.68-.15-.11-.47-.18-.96-.2l.08-.37c.32.04.77.06,1.35.06.47,0,.88-.02,1.23-.06l2.89,8.72c.97-4.44,1.82-7.24,2.54-8.39.49-.79,1.03-1.18,1.64-1.18ZM51.96,27.23c0,1.36-.28,2.58-.84,3.66-.56,1.09-1.35,1.94-2.38,2.57-1.02.62-2.22.93-3.59.93l-.88-.02c-.57-.02-.98-.04-1.25-.04-.82,0-1.43.02-1.82.06l.05-.37c.34-.02.6-.07.77-.15.18-.07.32-.22.43-.43.11-.22.22-.56.32-1.02l1.6-7.33c.09-.39.14-.7.14-.91,0-.25-.08-.42-.23-.52-.14-.1-.41-.15-.79-.17l.05-.37c.34.04.84.06,1.47.06l1.29-.02c.69-.02,1.15-.04,1.38-.04,1.43,0,2.5.35,3.21,1.04.72.69,1.08,1.71,1.08,3.05ZM44.97,34.06c1.87,0,3.26-.65,4.16-1.96.91-1.31,1.37-3.09,1.37-5.33,0-1.12-.26-1.95-.77-2.48-.52-.54-1.34-.81-2.48-.81-.31,0-.56.04-.74.13-.17.09-.31.24-.43.46-.11.22-.21.56-.3,1l-1.6,7.4c-.09.47-.14.78-.14.93,0,.23.07.41.2.52.14.1.38.15.73.15ZM61.34,29.01c-.36,1.7-.86,3.01-1.49,3.92-.37.53-.84.95-1.38,1.26-.54.31-1.11.46-1.73.46-1.13,0-1.91-.33-2.34-1-.18-.28-.32-.57-.41-.87-.09-.3-.14-.64-.14-1.02,0-.62.13-1.52.39-2.7l.87-3.96c.08-.42.12-.72.12-.89,0-.27-.08-.45-.23-.54-.14-.09-.41-.14-.79-.17l.09-.37c.41.04,1.06.06,1.96.06.78,0,1.41-.02,1.9-.06l-.09.37c-.37.02-.65.07-.84.15-.17.07-.31.22-.43.43-.1.21-.2.55-.3,1.02l-.94,4.28c-.22,1.05-.33,1.88-.33,2.5,0,.68.14,1.2.41,1.57.27.37.73.56,1.38.56,1.06,0,1.9-.42,2.51-1.26.62-.84,1.09-2.02,1.41-3.54l.87-3.92c.07-.31.11-.59.11-.83,0-.33-.09-.57-.27-.7-.17-.14-.46-.22-.85-.24l.08-.37c.36.04.88.06,1.53.06.62,0,1.09-.02,1.43-.06l-.08.37c-.46.02-.8.16-1.03.41-.23.25-.43.7-.58,1.37l-.81,3.72ZM71.15,30.51c-.02.09-.08.3-.18.65-.1.35-.18.7-.24,1.05-.11.46-.24,1.18-.38,2.18-.71-.04-1.91-.06-3.62-.06-1.87,0-3.29.02-4.25.06l.08-.37c.36-.02.64-.07.82-.15.18-.07.32-.22.43-.43.11-.21.22-.55.32-1.02l1.63-7.33c.09-.47.14-.77.14-.91,0-.26-.08-.43-.23-.52-.14-.09-.41-.14-.79-.17l.08-.37c.42.04,1.06.06,1.93.06.81,0,1.46-.02,1.94-.06l-.08.37c-.37.02-.65.07-.84.15-.18.07-.33.22-.44.43-.1.21-.2.55-.3,1.02l-1.63,7.33c-.09.47-.14.77-.14.89,0,.27.07.45.21.54.15.07.43.11.82.11h.96c.77,0,1.44-.27,2.01-.8.57-.54,1.04-1.43,1.41-2.67h.35ZM79.68,32.84c.04.41.13.7.27.89.14.19.3.28.47.3l-.08.37c-.41-.04-.96-.06-1.66-.06-.82,0-1.43.02-1.82.06l.08-.37c.48-.02.82-.12,1.02-.28.2-.16.3-.46.3-.91,0-.16,0-.28-.02-.37l-.23-2.3h-3.86l-1.03,1.57c-.39.6-.59,1.1-.59,1.48,0,.46.3.72.91.8v.37c-.3-.04-.76-.06-1.38-.06s-1.06.02-1.32.06v-.37c.45-.15,1-.72,1.66-1.72l6.11-9.29h.23l.94,9.83ZM78,29.8l-.47-4.7-3.11,4.7h3.59ZM90.67,21.12c.22,0,.39.09.5.26.12.16.18.36.18.61,0,.49-.23.95-.7,1.37-.29.21-.6.36-.93.46-.32.09-.71.13-1.17.13-.38,0-.82-.03-1.29-.09l-1.99,8.39c-.09.37-.14.68-.14.93,0,.31.1.52.29.65.19.12.52.19.99.2l-.06.37c-.53-.04-1.28-.06-2.26-.06s-1.73.02-2.22.06l.06-.37c.44-.02.77-.09,1-.19.23-.1.42-.27.55-.5.14-.23.27-.6.38-1.09l2.05-8.63c-.89-.15-1.53-.22-1.91-.22-.65,0-1.12.1-1.43.31.08.14.15.3.2.5.05.2.08.39.08.57,0,.28-.07.54-.2.76-.13.21-.32.31-.56.31-.21,0-.38-.08-.5-.24-.11-.17-.17-.4-.17-.68,0-.63.26-1.11.79-1.44.44-.28,1.01-.43,1.72-.43.58,0,1.38.09,2.42.26.37.06.76.12,1.15.19.41.05.78.07,1.12.07.37,0,.69-.03.94-.09.25-.06.5-.17.74-.31-.25-.31-.38-.65-.38-1.04,0-.27.06-.51.18-.7.13-.21.32-.31.56-.31ZM92.09,32.43c-.09.47-.14.77-.14.91,0,.26.07.43.21.52.15.09.43.14.82.17l-.06.37c-.47-.04-1.11-.06-1.93-.06s-1.48.02-1.93.06l.08-.37c.35-.02.62-.07.79-.15.18-.07.32-.22.43-.43.11-.22.22-.56.32-1.02l1.6-7.33c.08-.42.12-.72.12-.89,0-.27-.08-.45-.23-.54-.14-.09-.41-.14-.79-.17l.08-.37c.42.04,1.06.06,1.93.06.81,0,1.46-.02,1.94-.06l-.08.37c-.37.02-.65.07-.84.15-.17.07-.31.22-.43.43-.1.21-.2.55-.3,1.02l-1.6,7.33ZM99.07,34.65c-1.13,0-2.04-.38-2.72-1.13s-1.02-1.86-1.02-3.33c0-1.12.26-2.25.77-3.39.52-1.14,1.24-2.07,2.16-2.81.92-.74,1.96-1.11,3.11-1.11s2.04.38,2.72,1.13c.68.75,1.02,1.86,1.02,3.33,0,1.12-.26,2.25-.77,3.39-.52,1.14-1.24,2.07-2.16,2.81-.92.74-1.96,1.11-3.11,1.11ZM101.25,23.21c-.8,0-1.53.35-2.19,1.06-.66.7-1.17,1.62-1.55,2.74-.36,1.11-.55,2.26-.55,3.44,0,1.33.2,2.31.59,2.94.41.62.96.93,1.66.93.8,0,1.53-.35,2.19-1.06.66-.7,1.17-1.61,1.53-2.72.37-1.12.56-2.28.56-3.46,0-1.33-.2-2.31-.61-2.92-.39-.63-.94-.94-1.64-.94ZM117.33,22.29c.32,0,.56.09.7.26.14.17.21.4.21.68,0,.33-.08.64-.24.93-.16.27-.38.41-.65.41-.2,0-.35-.07-.44-.2-.09-.15-.14-.32-.14-.52s.05-.4.14-.61c.09-.22.21-.41.35-.56h-.05c-.26.01-.5.1-.7.26-.19.16-.37.39-.55.68-.45.78-.92,2.05-1.43,3.81-.5,1.76-1.04,4.12-1.63,7.05h-.33l-3.46-10.14c-1.08,5.77-1.97,9.19-2.67,10.25-.24.37-.49.65-.73.85-.23.21-.53.31-.9.31-.61,0-.91-.32-.91-.96,0-.33.08-.64.24-.91.16-.27.38-.41.65-.41.2,0,.35.07.44.22.09.14.14.3.14.5s-.05.4-.14.61c-.09.21-.21.39-.35.56h.03c.49-.01.91-.33,1.28-.96.73-1.32,1.59-4.66,2.58-10.01.02-.35-.05-.57-.21-.68-.15-.11-.47-.18-.96-.2l.08-.37c.32.04.77.06,1.35.06.47,0,.88-.02,1.23-.06l2.89,8.72c.97-4.44,1.82-7.24,2.54-8.39.49-.79,1.03-1.18,1.64-1.18Z"/>
  </g>
</svg>