<?xml version="1.0" encoding="UTF-8"?>
<svg id="Layer_2" xmlns="http://www.w3.org/2000/svg" viewBox="0 0 83.02 25.1">
  <defs>
    <style>
      .cls-1 {
        fill: #f9f6f7;
      }
    </style>
  </defs>
  <g id="Layer_2-2" data-name="Layer_2">
    <g id="Layer_1-2">
      <path class="cls-1" d="M7.83,22.12c0,.94-.25,1.66-.76,2.14-.5.48-1.25.73-2.25.73-.16,0-.48-.01-.97-.03h-.91c-.44-.01-.79,0-1.03.03l-.04-.26c.27-.01.46-.05.55-.12.11-.07.16-.19.16-.37,0-.1-.04-.31-.1-.64l-1.39-6.45c-.07-.32-.15-.56-.22-.72-.08-.15-.18-.25-.3-.3-.12-.06-.3-.09-.54-.11l-.04-.26c.27.03.7.04,1.28.04.19,0,.48-.01.88-.03h.62c.95-.01,1.8.28,2.57.87.78.6,1.38,1.38,1.83,2.35.44.98.66,2.02.66,3.1h0ZM2.65,16.01c-.25,0-.41.04-.51.12-.09.08-.14.2-.14.37,0,.11.04.33.1.64l1.4,6.49c.06.31.13.55.21.7.08.15.18.26.3.32.13.06.3.09.52.09.8,0,1.38-.19,1.74-.57.36-.37.54-.95.54-1.74,0-1.15-.15-2.22-.48-3.19-.32-.98-.79-1.76-1.42-2.35-.62-.58-1.38-.87-2.26-.87h0ZM14.17,19.55l.57,2.61c.11.47.25.79.41.96.16.18.4.27.72.29l.06.26c-.24-.03-.57-.04-1-.04s-.82.01-1.07.04l-.06-.26c.27-.01.48-.07.6-.17.13-.09.19-.26.19-.49,0-.17-.03-.37-.08-.58l-.61-2.75c-.22-1.07-.55-1.9-.99-2.49-.43-.59-1.02-.88-1.76-.88-.46,0-.78.13-.97.39-.19.26-.29.62-.29,1.1,0,.44.08,1.02.23,1.76l.66,3c.07.33.14.57.21.72.08.15.18.25.3.3.13.06.33.09.59.11l.06.26c-.34-.03-.79-.04-1.33-.04-.63,0-1.09.01-1.38.04l-.06-.26c.27-.02.46-.06.55-.12.11-.06.16-.19.16-.38,0-.12-.03-.33-.08-.62l-.61-2.78c-.18-.83-.27-1.46-.27-1.9,0-.27.04-.51.1-.72s.16-.41.29-.61c.3-.47.85-.7,1.64-.7.44,0,.84.11,1.21.32.38.22.71.51.97.88.44.64.79,1.56,1.05,2.75h0ZM21.39,17.36l-.06-.18c-.11-.37-.21-.65-.31-.83-.11-.18-.22-.26-.34-.26-.12,0-.2.06-.25.2-.05.13-.08.32-.08.56,0,.13,0,.23.01.31l.04.69c.03.54-.06.93-.25,1.18-.18.25-.5.43-.95.53l-.22.04c.84.15,1.5.44,1.99.87.48.44.72.98.72,1.64,0,.48-.18.87-.54,1.14-.36.29-.88.43-1.58.43h-.79c-.17-.03-.42-.03-.77-.03-.59,0-1.03.01-1.31.04l-.06-.26c.26-.01.44-.07.54-.15.11-.08.16-.21.16-.39,0-.1-.03-.29-.08-.57l-1.13-5.15c-.07-.33-.15-.57-.22-.72s-.18-.25-.3-.3c-.13-.06-.32-.09-.58-.11l-.04-.26c.29.03.76.04,1.38.04.55,0,.99-.01,1.32-.04l.04.26c-.27.02-.46.06-.57.13-.1.08-.15.2-.15.37,0,.14.03.35.08.62l.51,2.34h.2c.43-.02.76-.08.98-.2.23-.11.39-.26.47-.47.09-.2.14-.48.14-.82,0-.15,0-.27-.01-.35l-.04-.82c-.01-.36.05-.65.19-.9.15-.23.39-.35.72-.35s.6.13.8.39c.21.26.39.65.51,1.19l.04.17h-.25,0ZM17.69,19.75l.55,2.55c.06.3.13.53.2.69.08.15.18.26.3.32.12.07.29.11.5.11.47,0,.82-.1,1.03-.31.22-.2.32-.51.32-.93,0-.58-.09-1.05-.27-1.4-.18-.34-.46-.6-.86-.77-.39-.16-.93-.25-1.61-.25h-.18ZM26.96,23.77h-.16l-4.29-6.52c-.46-.7-.85-1.1-1.17-1.21v-.26c.18.03.49.04.93.04s.76-.01.97-.04v.26c-.43.06-.64.24-.64.56,0,.27.14.62.41,1.04l.72,1.1h2.71l.16-1.61c.01-.06.01-.15.01-.26,0-.32-.07-.53-.21-.64s-.38-.18-.72-.2l-.06-.26c.27.03.7.04,1.28.04.49,0,.88-.01,1.17-.04l.06.26c-.12.01-.23.08-.33.21-.1.13-.16.34-.19.62,0,0-.66,6.9-.66,6.9ZM26.44,19.01h-2.52l2.18,3.3.33-3.3h0ZM35.32,25.1c-.17,0-.3-.07-.39-.22-.08-.13-.13-.3-.13-.49,0-.27.09-.51.27-.73-.17-.1-.34-.18-.52-.22s-.4-.06-.66-.06c-.24,0-.5.01-.79.05-.27.05-.55.09-.81.13-.73.12-1.29.18-1.7.18-.5,0-.9-.11-1.21-.3-.37-.23-.55-.57-.55-1.01,0-.2.04-.36.12-.48.08-.11.2-.17.35-.17.17,0,.3.07.39.22.09.15.14.34.14.53,0,.13-.02.26-.06.4s-.08.25-.14.35c.22.15.55.22,1,.22.27,0,.72-.05,1.34-.15l-1.44-6.06c-.08-.34-.17-.6-.27-.77-.09-.16-.22-.28-.39-.35-.16-.07-.39-.12-.7-.13l-.04-.26c.34.03.87.04,1.56.04s1.21-.01,1.59-.04l.04.26c-.33,0-.56.06-.7.14-.13.09-.2.24-.2.46,0,.18.04.39.1.65l1.4,5.88c.33-.04.64-.06.91-.06.32,0,.6.03.82.09.23.07.45.18.65.32.33.29.49.62.49.96,0,.18-.04.32-.13.43-.08.12-.2.18-.35.18h0ZM36.32,17.16l1.12,5.15c.07.33.14.57.21.72.08.15.18.25.3.3.13.06.33.09.59.11l.06.26c-.34-.03-.79-.04-1.36-.04-.61,0-1.06.01-1.36.04l-.06-.26c.27-.02.46-.06.55-.12.11-.06.16-.19.16-.38,0-.12-.03-.33-.08-.62l-1.12-5.15c-.07-.32-.15-.56-.22-.72-.08-.15-.18-.25-.3-.3-.12-.06-.31-.09-.55-.11l-.06-.26c.32.03.78.04,1.36.04s1.03-.01,1.36-.04l.04.26c-.27.02-.47.06-.58.12-.1.06-.15.18-.15.37,0,.1.04.31.1.64h0ZM43.42,16.38c.65.52,1.15,1.17,1.52,1.97.36.8.54,1.59.54,2.38,0,1.03-.24,1.81-.72,2.34s-1.1.79-1.91.79-1.54-.26-2.18-.78-1.15-1.17-1.52-1.97c-.36-.8-.54-1.59-.54-2.38,0-1.03.24-1.81.72-2.34s1.12-.79,1.91-.79,1.54.26,2.18.78ZM42.75,23.63c.49,0,.88-.22,1.15-.66.29-.43.43-1.12.43-2.05,0-.83-.13-1.64-.39-2.43-.25-.78-.61-1.42-1.07-1.91-.46-.5-.98-.74-1.54-.74-.49,0-.88.22-1.17.65-.27.44-.41,1.13-.41,2.06,0,.83.13,1.64.39,2.42.27.79.62,1.43,1.09,1.92.46.5.98.74,1.54.74h0ZM54.05,24.27c-.43,0-.81-.27-1.15-.83-.51-.8-1.1-2.77-1.78-5.88l-2.03,6.12c-.25-.03-.53-.04-.86-.04-.41,0-.72.01-.95.04l-.06-.26c.34-.01.57-.06.67-.14.11-.08.16-.23.15-.48-.7-3.76-1.3-6.1-1.81-7.03-.26-.44-.55-.67-.9-.67h-.02c.1.12.18.25.25.39s.1.29.1.43-.04.25-.1.35c-.06.11-.17.15-.31.15-.19,0-.34-.1-.46-.29-.11-.19-.17-.41-.17-.64,0-.45.21-.67.64-.67.26,0,.47.07.63.22.17.14.34.34.51.6.49.74,1.12,3.14,1.87,7.2l2.43-7.12h.23c.41,2.06.79,3.71,1.14,4.95.36,1.24.69,2.13,1,2.67.13.2.25.37.39.48.14.11.31.18.49.18h.04c-.1-.11-.18-.24-.25-.39-.06-.15-.1-.29-.1-.43s.04-.26.1-.37c.06-.09.17-.14.31-.14.19,0,.34.1.46.29.11.2.17.42.17.65,0,.2-.05.36-.15.48s-.27.18-.49.18h0ZM20.34,8.65l-.88-4.06c-.22-1.07-.55-1.9-.99-2.49-.43-.59-1.02-.88-1.76-.88-.45,0-.77.13-.97.39-.19.26-.29.62-.29,1.1,0,.44.08,1.02.23,1.76l.94,4.3c.07.33.14.57.21.72.08.15.18.25.3.3.13.06.33.09.59.11l.06.26c-.34-.03-.79-.04-1.33-.04-.63,0-1.09.01-1.38.04l-.06-.26c.27-.02.46-.06.55-.12.11-.06.16-.19.16-.38,0-.12-.03-.33-.08-.62l-.88-4.08c-.18-.79-.27-1.43-.27-1.9,0-.28.03-.53.08-.74.06-.2.16-.4.29-.58.34-.47.88-.7,1.64-.7.44,0,.84.11,1.21.32.38.22.71.51.97.88.44.64.79,1.56,1.05,2.75l.84,3.91c.06.33.13.58.21.74.08.18.2.29.33.37.15.08.34.13.59.14l.06.26c-.25-.03-.58-.04-1-.04-.46,0-.83.01-1.07.04l-.06-.26c.29-.01.49-.07.61-.17.12-.09.18-.26.18-.51,0-.16-.03-.35-.08-.57h0ZM28.23,8.62c-.51-.81-1.1-2.77-1.78-5.89l-2.03,6.12c-.25-.03-.53-.04-.86-.04-.41,0-.72.01-.95.04l-.06-.26c.34-.01.57-.06.67-.14.11-.08.16-.23.15-.48-.7-3.76-1.3-6.1-1.81-7.03-.26-.44-.55-.67-.9-.67h-.02c.1.12.18.25.25.39s.1.29.1.43-.04.25-.1.35c-.06.11-.17.15-.31.15-.19,0-.34-.1-.46-.29s-.17-.41-.17-.64c0-.45.21-.67.64-.67.26,0,.47.07.63.22.17.14.34.34.51.6.49.74,1.12,3.15,1.87,7.2l2.43-7.12h.23c.41,2.06.79,3.71,1.14,4.95.36,1.24.69,2.13,1,2.67.13.2.25.37.39.48.14.11.31.18.49.18h.04c-.1-.11-.18-.24-.25-.39-.06-.15-.1-.29-.1-.43s.04-.26.1-.37c.06-.09.17-.14.31-.14.19,0,.34.1.46.29.11.2.17.42.17.65,0,.2-.05.36-.15.48s-.27.18-.49.18c-.43,0-.81-.27-1.15-.83ZM36.49,6c0,.94-.25,1.66-.76,2.14-.5.48-1.25.73-2.25.73-.16,0-.48-.01-.97-.03h-.91c-.44-.01-.79,0-1.03.03l-.04-.26c.27-.01.46-.05.55-.12.11-.07.16-.19.16-.37,0-.15-.04-.37-.1-.64l-1.12-5.15c-.07-.32-.15-.56-.22-.72-.08-.15-.18-.25-.3-.3-.12-.06-.3-.09-.54-.11l-.04-.26c.27.03.7.04,1.28.04.19,0,.48-.01.88-.03h.62c.96-.01,1.8.2,2.52.64.72.44,1.28,1.04,1.67,1.8.39.76.59,1.61.59,2.57h0ZM31.57,1.18c-.25,0-.41.04-.51.11-.09.08-.14.2-.14.37,0,.11.04.32.1.65l1.12,5.2c.06.31.13.55.21.7.08.15.18.26.3.32.13.06.3.09.52.09.8,0,1.38-.19,1.74-.57.36-.37.54-.95.54-1.74,0-1.57-.32-2.82-.96-3.74-.63-.92-1.61-1.38-2.92-1.38h0ZM43.07,4.73l.57,2.61c.11.47.25.79.41.96s.4.27.72.29l.06.26c-.24-.03-.57-.04-1-.04s-.82.01-1.07.04l-.06-.26c.27-.01.48-.07.6-.17.13-.09.19-.26.19-.49,0-.17-.03-.37-.08-.58l-.61-2.75c-.22-1.07-.55-1.9-.99-2.49-.43-.59-1.02-.88-1.76-.88-.46,0-.78.13-.97.39-.19.26-.29.62-.29,1.1,0,.44.08,1.02.23,1.76l.66,3c.07.33.14.57.21.72.08.15.18.25.3.3.13.06.33.09.59.11l.06.26c-.34-.03-.79-.04-1.33-.04-.63,0-1.09.01-1.38.04l-.06-.26c.27-.02.46-.06.55-.12.11-.06.16-.19.16-.38,0-.12-.03-.33-.08-.62l-.61-2.78c-.18-.83-.27-1.46-.27-1.9,0-.27.04-.51.1-.72s.16-.41.29-.61c.3-.47.85-.7,1.64-.7.44,0,.84.11,1.21.32.38.22.71.51.97.88.44.64.79,1.56,1.05,2.75h0ZM49.96,3.69h-.25c-.26-.87-.59-1.5-.99-1.87-.4-.37-.87-.56-1.41-.56h-.67c-.27,0-.47.03-.58.08-.1.06-.15.19-.15.38,0,.08.04.29.1.62l1.14,5.15c.07.33.14.57.21.72.08.15.18.25.31.3.13.06.33.09.59.11l.06.26c-.34-.03-.79-.04-1.36-.04-.61,0-1.06.01-1.36.04l-.06-.26c.27-.02.46-.06.55-.12.11-.06.16-.18.16-.37,0-.1-.04-.31-.1-.64l-1.14-5.15c-.07-.33-.15-.57-.22-.72s-.18-.25-.3-.3c-.13-.06-.32-.09-.58-.11l-.06-.26c.67.03,1.67.04,2.98.04,1.2,0,2.04-.01,2.54-.04.1.7.19,1.21.27,1.53.04.25.1.49.17.74s.11.39.13.46h0ZM55.94,2.04l-.66,6.9h-.16l-4.29-6.52c-.46-.7-.85-1.1-1.17-1.21v-.26c.18.03.49.04.93.04s.76-.01.97-.04v.26c-.43.06-.64.24-.64.56,0,.27.14.62.41,1.04l.72,1.1h2.71l.16-1.61c.01-.06.01-.15.01-.26,0-.32-.07-.53-.21-.64s-.38-.18-.72-.2l-.06-.26c.27.03.7.04,1.28.04.49,0,.88-.01,1.17-.04l.06.26c-.12.01-.23.08-.33.21s-.16.34-.19.62h0ZM54.77,4.18h-2.52l2.18,3.3.33-3.3h0ZM63.65,10.26c-.17,0-.3-.07-.39-.22-.08-.13-.13-.3-.13-.49,0-.27.09-.51.27-.73-.17-.1-.34-.18-.52-.22s-.4-.06-.66-.06c-.24,0-.5.01-.79.05-.27.05-.55.09-.81.13-.73.12-1.29.18-1.7.18-.5,0-.9-.11-1.21-.3-.37-.23-.55-.57-.55-1.01,0-.2.04-.36.12-.48.08-.11.2-.17.35-.17.17,0,.3.07.39.22.09.15.14.34.14.53,0,.13-.02.26-.06.4-.04.14-.08.25-.14.35.22.15.55.22,1,.22.27,0,.72-.05,1.34-.15l-1.44-6.06c-.08-.34-.17-.6-.27-.77-.09-.16-.22-.28-.39-.35s-.39-.12-.7-.13l-.04-.26c.34.03.87.04,1.56.04s1.21-.01,1.59-.04l.04.26c-.33,0-.56.06-.7.14-.13.09-.2.24-.2.46,0,.18.04.39.1.65l1.4,5.89c.33-.04.64-.06.91-.06.32,0,.6.03.82.09.23.07.45.18.65.32.33.29.49.62.49.96,0,.18-.04.32-.13.43-.08.12-.2.18-.35.18h0ZM64.65,2.33l1.12,5.15c.07.33.14.57.21.72.08.15.18.25.3.3.13.06.33.09.59.11l.06.26c-.34-.03-.79-.04-1.36-.04-.61,0-1.06.01-1.36.04l-.06-.26c.27-.02.46-.06.55-.12.11-.06.16-.19.16-.38,0-.12-.03-.33-.08-.62l-1.12-5.15c-.07-.32-.15-.56-.22-.72-.08-.15-.18-.25-.3-.3-.12-.06-.31-.09-.55-.11l-.06-.26c.32.03.78.04,1.36.04s1.03-.01,1.36-.04l.04.26c-.27.02-.47.06-.58.12-.1.06-.15.18-.15.37,0,.1.04.31.1.64h0ZM71.74,1.55c.65.52,1.15,1.17,1.52,1.97.36.8.54,1.59.54,2.38,0,1.03-.24,1.81-.72,2.34s-1.1.79-1.91.79-1.54-.26-2.18-.78c-.65-.52-1.15-1.17-1.52-1.97-.36-.8-.54-1.59-.54-2.38,0-1.03.24-1.81.72-2.34s1.12-.79,1.91-.79,1.54.26,2.18.78ZM71.08,8.8c.49,0,.88-.22,1.15-.66.29-.43.43-1.12.43-2.05,0-.83-.13-1.64-.39-2.43-.25-.78-.61-1.42-1.07-1.91-.46-.5-.98-.74-1.54-.74-.49,0-.88.22-1.17.65-.27.44-.41,1.13-.41,2.06,0,.83.13,1.64.39,2.42.27.79.62,1.43,1.09,1.92.46.5.98.74,1.54.74h0ZM81.23,8.62c-.51-.81-1.1-2.77-1.78-5.89l-2.03,6.12c-.25-.03-.53-.04-.86-.04-.41,0-.72.01-.95.04l-.06-.26c.34-.01.57-.06.67-.14.11-.08.16-.23.15-.48-.7-3.76-1.3-6.1-1.81-7.03-.26-.44-.55-.67-.9-.67h-.02c.1.12.18.25.25.39s.1.29.1.43-.04.25-.1.35c-.06.11-.17.15-.31.15-.19,0-.34-.1-.46-.29-.11-.19-.17-.41-.17-.64,0-.45.21-.67.64-.67.26,0,.47.07.63.22.17.14.34.34.51.6.49.74,1.12,3.15,1.87,7.2l2.43-7.12h.23c.41,2.06.79,3.71,1.14,4.95.36,1.24.69,2.13,1,2.67.13.2.25.37.39.48.14.11.31.18.49.18h.04c-.1-.11-.18-.24-.25-.39-.06-.15-.1-.29-.1-.43s.04-.26.1-.37c.06-.09.17-.14.31-.14.19,0,.34.1.46.29.11.2.17.42.17.65,0,.2-.05.36-.15.48s-.27.18-.49.18c-.43,0-.81-.27-1.15-.83Z"/>
    </g>
  </g>
</svg>