<?xml version="1.0" encoding="UTF-8"?>
<svg id="Layer_2" xmlns="http://www.w3.org/2000/svg" viewBox="0 0 25 42.71">
  <defs>
    <style>
      .cls-1 {
        fill: none;
        stroke: #c9cac9;
        stroke-miterlimit: 10;
        stroke-width: .37px;
      }

      .cls-2 {
        fill: #f0efef;
      }
    </style>
  </defs>
  <g id="Layer_2-2" data-name="Layer_2">
    <g id="Layer_2-2">
      <g id="Layer_1-2">
        <g id="_图层_1-2">
          <g>
            <g>
              <path class="cls-2" d="M2.39,36.53s.03.02.03.05c0,.04,0,.06-.03.08-.03.02-.08.04-.14.04s-.12.01-.19.03-.12.04-.17.07c-.05.04-.07.09-.07.17v5.67s0,.05-.02.05c0,0-.02.01-.03.01-.05,0-.11,0-.16-.02s-.11-.03-.17-.05c-.12-.05-.24-.1-.36-.14-.12-.04-.24-.1-.36-.16,0,0-.02-.01-.04-.02-.02,0-.04-.02-.05-.03-.02-.01-.03-.02-.04-.04-.01-.02-.02-.03-.02-.05,0-.03,0-.06,0-.07,0-.02.01-.03.03-.04.05,0,.1,0,.13.02s.07,0,.1.02c.03,0,.05,0,.06,0,.05,0,.09.01.12,0,.03,0,.06-.06.08-.16,0-.07,0-.13,0-.19v-1.72c0-.53,0-1.05,0-1.58,0-.53,0-1.06-.04-1.58,0-.05-.03-.09-.08-.11s-.11-.04-.18-.06-.14-.02-.2-.03-.11-.02-.13-.04c-.02-.02-.03-.04-.03-.07,0-.04,0-.06.03-.06h1.91,0Z"/>
              <path class="cls-2" d="M5.25,36.53s.03.02.03.05,0,.06-.03.08c-.03.02-.08.04-.14.04s-.12.01-.19.03-.12.04-.17.07c-.05.04-.07.09-.07.17v5.67s0,.05-.02.05c0,0-.02.01-.03.01-.05,0-.11,0-.16-.02s-.11-.03-.17-.05c-.12-.05-.24-.1-.36-.14-.12-.04-.24-.1-.36-.16,0,0-.02-.01-.04-.02-.02,0-.04-.02-.05-.03-.02-.01-.03-.02-.04-.04-.01-.02-.02-.03-.02-.05,0-.03,0-.06,0-.07,0-.02.01-.03.03-.04.05,0,.1,0,.13.02s.07,0,.1.02c.03,0,.05,0,.06,0,.05,0,.09.01.12,0,.03,0,.06-.06.08-.16,0-.07,0-.13,0-.19v-1.72c0-.53,0-1.05,0-1.58,0-.53,0-1.06-.04-1.58,0-.05-.03-.09-.08-.11s-.11-.04-.18-.06-.14-.02-.2-.03-.11-.02-.13-.04c-.02-.02-.03-.04-.03-.07,0-.04,0-.06.03-.06h1.91,0Z"/>
            </g>
            <g>
              <path class="cls-2" d="M7.82,28.84h0v.17c-.06.03-.11.07-.15.14-.07.11-.12.26-.17.43s-.08.37-.1.58c-.02.22-.04.43-.05.64-.01.21-.02.4-.02.58v.86c0,.18,0,.38.02.59,0,.21.03.42.05.64.02.22.05.41.1.58.04.17.1.31.17.42.05.07.1.12.15.15v.19h-.17c-.13,0-.25-.05-.34-.16s-.18-.24-.26-.42-.13-.36-.18-.58c-.05-.21-.09-.43-.12-.65s-.05-.44-.06-.64-.02-.39-.02-.54c0-.32.02-.66.05-1.01s.1-.67.2-.96c.09-.29.22-.53.38-.72.14-.17.32-.26.52-.28h0ZM8.64,29.74h0l.15.15-1.58,3.83-.15-.15,1.58-3.83h0ZM8.18,34.81h-.2v-.17c.08-.01.15-.07.21-.15.07-.11.12-.25.17-.42.04-.17.07-.37.09-.58s.03-.42.04-.64c0-.21,0-.41,0-.59v-.99c0-.19,0-.39,0-.58s-.02-.38-.04-.57c-.02-.19-.05-.36-.09-.52-.04-.16-.09-.3-.16-.43-.05-.09-.11-.15-.2-.18v-.16h.06s.09,0,.12,0c.1.03.19.08.28.16.09.08.16.17.23.28.1.16.19.34.25.54s.12.42.16.65c.04.23.06.46.08.69s.02.46.02.67c0,.15,0,.33-.02.54-.01.21-.03.42-.07.64s-.07.44-.12.65c-.05.21-.11.41-.19.58s-.16.31-.26.42-.22.15-.35.15h0Z"/>
              <path class="cls-2" d="M10.92,29.25h0l1.21,4.9s0,.04,0,.09v.43c0,.05-.02.08-.05.08h-2.25s-.05-.03-.05-.08v-.74c0-.05.02-.08.05-.08h2.02s.02-.02.03-.05.02-.05.02-.06c0-.04,0-.08-.04-.12s-.06-.08-.07-.1c-.02-.04-.04-.09-.05-.14s-.03-.1-.04-.15c-.15-.44-.31-.88-.47-1.31s-.31-.87-.46-1.31l-.25-.73c-.03-.08-.05-.16-.09-.23-.03-.08-.06-.16-.09-.24l-.12-.41s0-.07.03-.07h.56s.03.01.04.04.02.06.03.09c0,.04.01.07.02.11s.01.06.01.08h0Z"/>
            </g>
            <g>
              <path class="cls-2" d="M.04,11.71h2.06s.03.02.03.05-.01.06-.03.07c-.03.02-.08.03-.15.04-.07,0-.13.01-.2.03-.07.01-.13.04-.18.07s-.08.09-.08.16v5.34s0,.04-.02.05c0,0-.02.01-.04.01-.06,0-.11,0-.18-.01-.06-.01-.12-.03-.18-.05-.13-.05-.26-.09-.39-.13-.13-.04-.26-.09-.39-.15,0,0-.02-.01-.04-.02-.02,0-.04-.02-.06-.03-.02,0-.03-.02-.05-.04-.01-.01-.02-.03-.02-.05,0-.03,0-.05,0-.07,0-.01.01-.03.03-.04.06,0,.11,0,.14.01s.08,0,.11.01.06,0,.07,0c.05,0,.09.01.13,0,.04,0,.07-.06.08-.15,0-.06,0-.12,0-.18v-1.62c0-.5,0-.99,0-1.49s-.01-.99-.04-1.49c0-.05-.03-.08-.09-.11-.06-.02-.12-.04-.2-.05-.07-.01-.15-.02-.22-.03-.07,0-.12-.02-.14-.03-.02-.01-.03-.04-.03-.07,0-.04.01-.05.03-.05h0Z"/>
              <path class="cls-2" d="M3.11,11.71h2.06s.03.02.03.05c0,.03-.01.06-.03.07-.03.02-.08.03-.15.04s-.13.01-.2.03c-.07.01-.13.04-.18.07-.05.03-.08.09-.08.16v5.34s0,.04-.02.05c0,0-.02.01-.04.01-.06,0-.11,0-.18-.01s-.12-.03-.18-.05c-.13-.05-.26-.09-.39-.13-.13-.04-.26-.09-.39-.15,0,0-.02-.01-.04-.02s-.04-.02-.06-.03-.03-.02-.05-.04-.02-.03-.02-.05c0-.03,0-.05,0-.07,0-.01.01-.03.03-.04.06,0,.11,0,.14.01s.08,0,.11.01c.04,0,.06,0,.07,0,.05,0,.09.01.13,0s.07-.06.08-.15c0-.06,0-.12,0-.18v-1.62c0-.5,0-.99,0-1.49s-.01-.99-.04-1.49c0-.05-.03-.08-.09-.11-.06-.02-.12-.04-.2-.05-.07-.01-.15-.02-.22-.03s-.12-.02-.14-.03c-.02-.01-.03-.04-.03-.07,0-.04.01-.05.03-.05h0Z"/>
            </g>
            <g>
              <path class="cls-2" d="M6.43,3.71h2.06s.03.02.03.05c0,.03-.01.06-.03.07-.03.02-.08.03-.15.04-.07,0-.13.01-.2.03-.07.01-.13.04-.18.07s-.08.09-.08.16v5.34s0,.04-.02.05c0,0-.02.01-.04.01-.06,0-.11,0-.18-.01s-.12-.03-.18-.05c-.13-.05-.26-.09-.39-.13-.13-.04-.26-.09-.39-.15,0,0-.02-.01-.04-.02-.02,0-.04-.02-.06-.03s-.03-.02-.05-.04-.02-.03-.02-.05c0-.03,0-.05,0-.07s.01-.03.03-.04c.06,0,.11,0,.14.01s.08,0,.11.01.06,0,.07,0c.05,0,.09.01.13,0s.07-.06.08-.15c0-.06,0-.12,0-.18v-1.62c0-.5,0-.99,0-1.49s-.01-.99-.04-1.49c0-.05-.03-.08-.09-.11-.06-.02-.12-.04-.2-.05-.07-.01-.15-.02-.22-.03s-.12-.02-.14-.03c-.02-.01-.03-.04-.03-.07,0-.04.01-.05.03-.05h0Z"/>
              <path class="cls-2" d="M9.5,3.71h2.06s.03.02.03.05-.01.06-.03.07c-.03.02-.08.03-.15.04-.07,0-.13.01-.2.03-.07.01-.13.04-.18.07s-.08.09-.08.16v5.34s0,.04-.02.05c0,0-.02.01-.04.01-.06,0-.11,0-.18-.01s-.12-.03-.18-.05c-.13-.05-.26-.09-.39-.13-.13-.04-.26-.09-.39-.15,0,0-.02-.01-.04-.02-.02,0-.04-.02-.06-.03s-.03-.02-.05-.04-.02-.03-.02-.05c0-.03,0-.05,0-.07s.01-.03.03-.04c.06,0,.11,0,.14.01s.08,0,.11.01.06,0,.07,0c.05,0,.09.01.13,0s.07-.06.08-.15c0-.06,0-.12,0-.18v-1.62c0-.5,0-.99,0-1.49s-.01-.99-.04-1.49c0-.05-.03-.08-.09-.11-.06-.02-.12-.04-.2-.05-.07-.01-.15-.02-.22-.03s-.12-.02-.14-.03c-.02-.01-.03-.04-.03-.07,0-.04.01-.05.03-.05h0Z"/>
            </g>
            <line class="cls-1" x1="4.67" y1="32.09" x2="7.19" y2="36.91"/>
            <line class="cls-1" x1="4.46" y1="7.65" x2="6.99" y2="12.46"/>
            <line class="cls-1" x1="5.93" y1="21.2" x2="5.93" y2="23.29"/>
            <g>
              <path class="cls-2" d="M9.73,41.48h.23v.02c-.15.01-.16.03-.16.14v.9c0,.11,0,.12.16.13v.02h-.23v-1.21h0Z"/>
              <path class="cls-2" d="M10.12,41.7h.33c.29,0,.63.11.63.5,0,.13-.04.23-.12.3-.09.09-.23.11-.41.11h-.42v-.02c.12,0,.13-.03.13-.14v-.58c0-.11-.01-.14-.14-.15v-.02ZM10.34,41.87h0v.68s0,.03.01.03c.01,0,.05,0,.13,0,.14,0,.23-.02.3-.04.14-.06.2-.21.2-.38,0-.2-.12-.42-.48-.42-.14,0-.17.02-.17.13h0Z"/>
              <path class="cls-2" d="M11.63,41.68h0l.12.06v.02s-.05-.02-.08-.02c-.03,0-.05.02-.05.08v.31c0,.13-.09.18-.16.18-.07-.02-.17-.08-.21-.1-.02-.01-.04-.03-.04-.05,0-.03.02-.05.04-.05s.03.01.03.02c.02.12.1.12.13.12.13,0,.13-.13.13-.2-.03-.02-.12-.06-.2-.08-.1-.03-.14-.08-.14-.14,0-.09.07-.17.17-.17.05,0,.12.05.18.1,0-.03.01-.05.03-.07.01-.01.05-.03.05-.03h0ZM11.55,41.82s-.1-.07-.15-.07c-.05,0-.11.04-.11.11,0,.05.04.08.11.11.03.01.12.05.15.07,0,0,0-.21,0-.21Z"/>
              <path class="cls-2" d="M12.08,41.7h0l.09.05v.02s-.06-.03-.11-.03-.09.02-.09.14v.38h.16s.01.02.01.03c0,0,0,.01,0,.02h-.18v.18h-.02l-.05-.1v-.08h-.07l-.04-.03v-.02h.11v-.42c0-.1.04-.16.12-.16.02,0,.03,0,.06.02h0Z"/>
              <path class="cls-2" d="M12.72,41.81h0l-.02.02c-.07-.07-.13-.08-.18-.08-.1,0-.23.08-.23.3.2,0,.39.02.41.03s.02,0,.02.04c0,.1-.09.21-.21.21-.12,0-.29-.13-.29-.35,0-.15.11-.29.28-.29.03,0,.13.03.22.13h0ZM12.3,42.1h0c.02.12.1.18.17.18.11,0,.17-.07.17-.15,0,0,0-.02-.04-.02-.06,0-.27,0-.3,0h0Z"/>
              <path class="cls-2" d="M13.11,42.68h-.23v-.02c.15-.01.16-.03.16-.14v-.9c0-.11,0-.12-.16-.13v-.02h.23v1.21h0Z"/>
            </g>
            <g>
              <path class="cls-2" d="M2.08,27.07h.23v.02c-.15.01-.16.03-.16.14v.9c0,.11,0,.12.16.13v.02h-.23v-1.21h0Z"/>
              <path class="cls-2" d="M2.68,27.3h0v-.02h.39v.02c-.15,0-.16.03-.16.14v.71h.13c.12,0,.18-.02.21-.19h.02c0,.09-.02.18-.01.25h-.02s-.03-.03-.07-.03h-.59s-.03,0-.05,0-.02.01-.03.03h-.02c0-.08,0-.17-.02-.25h.02c.04.15.06.19.25.19h.09v-.71c0-.11,0-.14-.16-.14h0Z"/>
              <path class="cls-2" d="M3.34,27.3h0v-.02h.29v.02c-.1,0-.11.03-.11.13v.32c.04.05.11.08.17.09.14,0,.18-.07.18-.21v-.2c0-.1-.01-.12-.11-.13v-.02h.29v.02c-.09,0-.11.03-.11.12v.24c0,.17-.08.24-.2.24-.09,0-.17-.05-.23-.11v.5s-.11-.04-.18-.05v-.02c.1-.02.11-.02.11-.12v-.68c0-.09-.01-.11-.11-.12h0Z"/>
              <path class="cls-2" d="M4.28,27.52h0v.19c0,.11,0,.16,0,.19-.03,0-.14-.02-.17-.03h0s.05-.02.05-.02c.03,0,.05-.01.05-.1v-.27c0-.16.09-.21.18-.21.04,0,.07,0,.11.03.05.03.09.06.12.09v-.11h0c.06.01.12.03.18.04v.02h-.04c-.06,0-.07.01-.07.09v.47s-.14-.02-.2-.03v-.02h.06c.05-.02.07-.02.07-.11v-.32c-.06-.06-.13-.09-.19-.09-.08,0-.15.04-.15.18h0Z"/>
              <path class="cls-2" d="M4.99,27.27s.07.03.07.07c0,.04-.03.07-.07.07s-.06-.03-.06-.07.02-.06.06-.07Z"/>
              <path class="cls-2" d="M5.51,28.27h-.23v-.02c.15-.01.16-.03.16-.14v-.9c0-.11,0-.12-.16-.13v-.02h.23v1.21h0Z"/>
            </g>
            <g>
              <path class="cls-2" d="M1.25,2.75h.23v.02c-.15.01-.16.03-.16.14v.9c0,.11,0,.12.16.13v.02h-.23v-1.21h0Z"/>
              <path class="cls-2" d="M1.68,3.89h0v-.02c.11-.01.13-.03.13-.13,0-.03,0-.06,0-.1l-.02-.27c0-.15-.02-.24-.03-.28-.01-.06-.04-.08-.13-.09v-.02h.35v.02c-.13.01-.15.05-.15.19,0,.04,0,.09,0,.16l.02.39h0l.36-.75h.01l.39.8h0v-.61c0-.15,0-.17-.12-.18v-.02h.36v.02c-.14.01-.14.03-.15.18v.52c-.01.15,0,.16.13.17v.02h-.21l-.39-.77-.38.77h-.19Z"/>
              <path class="cls-2" d="M3.61,3.29h0c0,.17-.14.31-.32.31-.12,0-.32-.1-.32-.33,0-.16.13-.31.32-.31.14,0,.32.11.32.33h0ZM3.27,3.56c.16,0,.25-.15.25-.3,0-.2-.09-.28-.21-.28-.15,0-.25.13-.25.32,0,.15.08.25.21.25h0Z"/>
              <path class="cls-2" d="M3.71,2.99h0v-.02h.29v.02c-.1,0-.11.03-.11.12v.33s.12.09.19.09c.13,0,.16-.09.16-.18v-.24c0-.1-.02-.12-.12-.12v-.02h.28v.02c-.08,0-.1.02-.1.12v.29c0,.11-.07.19-.19.19-.04,0-.08-.01-.12-.04-.05-.03-.08-.06-.11-.07v.12s-.1-.05-.16-.06v-.02c.08-.02.09-.02.09-.12v-.29c0-.09-.02-.11-.11-.11h0Z"/>
              <path class="cls-2" d="M4.61,2.96s.07.03.07.07c0,.04-.03.07-.07.07s-.06-.03-.06-.07.02-.06.06-.07Z"/>
              <path class="cls-2" d="M5.13,3.96h-.23v-.02c.15-.01.16-.03.16-.14v-.9c0-.11,0-.12-.16-.13v-.02h.23v1.21h0Z"/>
            </g>
            <g>
              <path class="cls-2" d="M7.85,24.94h0v-.02h.39v.02c-.14.01-.16.03-.16.13v.74s-.12-.06-.22-.07v-.02h.07c.07-.01.08-.02.08-.09v-.56c0-.1,0-.11-.15-.13h0Z"/>
              <path class="cls-2" d="M8.52,24.94h0v-.02h.39v.02c-.14.01-.16.03-.16.13v.74s-.12-.06-.22-.07v-.02h.07c.07-.01.08-.02.08-.09v-.56c0-.1,0-.11-.15-.13h0Z"/>
              <path class="cls-2" d="M9.21,25.52s-.07-.03-.07-.07c0-.04.03-.07.07-.07s.07.03.07.07c0,.03-.03.07-.07.07ZM9.22,24.9s.07.03.07.07c0,.04-.03.07-.07.07s-.07-.03-.07-.07.02-.06.07-.07Z"/>
              <path class="cls-2" d="M9.72,25.81c-.21,0-.3-.25-.3-.45s.09-.45.3-.45.3.25.3.45-.08.45-.3.45ZM9.72,25.77c.16,0,.21-.22.21-.42s-.04-.42-.21-.42-.21.21-.21.42.04.42.21.42h0Z"/>
              <path class="cls-2" d="M10.4,25.81c-.21,0-.3-.25-.3-.45s.09-.45.3-.45.3.25.3.45-.08.45-.3.45ZM10.4,25.77c.16,0,.21-.22.21-.42s-.04-.42-.21-.42-.21.21-.21.42.04.42.21.42h0Z"/>
              <path class="cls-2" d="M11.69,24.94h0v-.02h.36v.02c-.11.01-.12.03-.17.14-.06.14-.13.32-.2.51l-.11.27h-.02s-.34-.75-.34-.75c-.06-.13-.08-.14-.19-.16v-.02h.35v.02c-.09.01-.13.02-.13.07s.08.24.09.27h.36c.06-.13.11-.25.11-.29,0-.03-.03-.04-.12-.06h0ZM11.54,25.72l.15-.39h-.33c.05.12.11.26.17.39h0,0Z"/>
              <path class="cls-2" d="M12.11,25.83h0v-.02c.12-.01.14-.03.14-.14,0-.03,0-.06,0-.1l-.02-.27c0-.15-.02-.24-.03-.28-.01-.06-.05-.08-.14-.09v-.02h.38v.02c-.14.01-.16.05-.16.19,0,.04,0,.09,0,.16l.02.39h0l.38-.75h.01l.42.8h0v-.61c0-.15,0-.17-.13-.18v-.02h.38v.02c-.15.01-.15.03-.16.18v.52c-.02.14,0,.16.14.17v.02h-.22l-.41-.77-.41.77h-.2Z"/>
            </g>
            <g>
              <path class="cls-2" d="M8.41.71h.02c.04.1.04.11.15.11h.33c-.12-.27-.27-.54-.45-.8h0s.09,0,.09,0c.13.29.27.58.42.86v.02h-.56c0-.06-.01-.12-.02-.18h0Z"/>
              <path class="cls-2" d="M9.19.62s-.07-.03-.07-.07c0-.04.03-.07.07-.07s.07.03.07.07c0,.03-.03.07-.07.07ZM9.2,0s.07.03.07.07c0,.04-.03.07-.07.07s-.07-.03-.07-.07.02-.06.07-.07Z"/>
              <path class="cls-2" d="M9.7.9c-.21,0-.3-.25-.3-.45s.09-.45.3-.45.3.25.3.45-.08.45-.3.45h0ZM9.7.87c.16,0,.21-.22.21-.42s-.04-.42-.21-.42-.21.21-.21.42.04.42.21.42h0Z"/>
              <path class="cls-2" d="M10.38.9c-.21,0-.3-.25-.3-.45s.09-.45.3-.45.3.25.3.45-.08.45-.3.45h0ZM10.38.87c.16,0,.21-.22.21-.42s-.04-.42-.21-.42-.21.21-.21.42.04.42.21.42h0Z"/>
              <path class="cls-2" d="M11.04.02h.4v.02c-.16,0-.17.03-.17.14v.24l.12-.03c.15-.01.36.07.36.29,0,.24-.24.25-.34.25h-.37v-.02c.14,0,.14-.03.14-.14V.18c0-.11-.01-.14-.15-.15v-.02h0ZM11.27.45h0v.41s0,.03.01.04c.01,0,.04,0,.08,0,.19,0,.29-.07.29-.23,0-.17-.11-.24-.25-.24-.07,0-.11.01-.13.02h0Z"/>
              <path class="cls-2" d="M11.88.93h0v-.02c.12-.01.14-.03.14-.14,0-.03,0-.06,0-.1l-.02-.27c0-.15-.02-.24-.03-.28-.01-.06-.05-.08-.14-.09v-.02h.38v.02c-.14.01-.16.05-.16.19,0,.04,0,.09,0,.16l.02.39h0l.38-.75h.01l.42.8h0V.22c0-.15,0-.17-.13-.18v-.02h.38v.02c-.15.01-.15.03-.16.18v.52c-.02.14,0,.16.14.17v.02h-.22l-.41-.77-.41.77h-.2Z"/>
            </g>
          </g>
        </g>
        <g id="_图层_1-2-2">
          <g>
            <path class="cls-2" d="M24.51,39.06h-.45v.21h.87s.03,0,.03.02,0,.02-.05.06c-.1.08-.11.09-.13.09-.01,0-.03,0-.12-.11h-.59v.15c.05.02.07.03.07.05,0,.03-.02.03-.23.06,0-.06.01-.1.01-.24v-.02h-.67c-.06,0-.11,0-.18.02l.02-.08c.06,0,.1.01.16.01h.67v-.21h-.41c-.07.04-.1.05-.18.08.01-.1.01-.19.01-.34,0-.3-.01-.38-.01-.43,0-.04.02-.05.07-.05.06,0,.09.02.09.07v.03h.33c-.2-.26-.48-.47-.8-.6-.01,0,0-.04.01-.03.38.11.64.26.89.53,0-.23-.02-.49-.02-.55,0-.04.02-.05.07-.05.07,0,.1.02.1.07,0,.06,0,.38-.02.63.11-.17.23-.29.35-.38.11-.08.23-.15.35-.2.04-.02.09-.03.1-.03.01,0,.03.01.04.05.02.05.05.08.1.09,0,0,.01.02,0,.02-.15.01-.32.06-.48.13-.17.08-.32.18-.43.33h.44v-.04s.01-.06.06-.06c.06,0,.09.02.09.06,0,.04,0,.16,0,.42v.15s.05.03.05.05c0,.01,0,.03-.03.05-.06.05-.08.06-.09.06s-.02,0-.09-.07h0ZM23.91,39.01v-.24h-.43v.24h.43ZM23.91,38.72v-.25h-.43v.25h.43ZM24.06,39.01h.46v-.24h-.46v.24ZM24.06,38.72h.46v-.25h-.46v.25Z"/>
            <path class="cls-2" d="M23.07,35.87h0s0-.03.02-.03c.25.11.39.22.54.41.07,0,.09,0,.09.03s-.05.05-.2.11c-.02-.04-.03-.09-.07-.13-.09-.13-.23-.29-.39-.4h0ZM24.64,37.3h-.57v.18c.06.02.07.04.07.05,0,.02-.03.04-.24.06,0-.07,0-.11,0-.14v-.15h-.67c-.06,0-.11,0-.17.01l.02-.08c.06,0,.1.01.15.01h1.68s.03,0,.03.02,0,.02-.05.06c-.1.08-.11.09-.13.09-.01,0-.03,0-.13-.12h0ZM24.08,36.29h0v.26h.37v-.04s.01-.06.07-.06c.06,0,.09.02.09.06,0,.03,0,.12,0,.32v.1s.06.04.06.06c0,.01,0,.02-.04.05-.07.05-.08.06-.1.06-.01,0-.02,0-.09-.07h-.87c-.07.04-.1.05-.18.08,0-.08.01-.14.01-.25,0-.23,0-.3,0-.34s.02-.06.07-.06c.06,0,.09.02.09.07v.02h.38v-.6s0-.03-.03-.03c-.07,0-.16,0-.28.02,0,0,0-.02,0-.03.16-.04.22-.07.23-.13,0-.04,0-.04.04-.04.04,0,.09.01.12.03.05.03.08.06.08.14,0,.05,0,.12,0,.38h0ZM24.45,36.61h-.9v.37h.9v-.37ZM24.6,36.01h0c.06-.13.08-.14.12-.14s.08.04.08.1c0,.13-.19.3-.48.42-.01,0-.03-.02-.02-.03.14-.11.23-.22.3-.34h0Z"/>
            <path class="cls-2" d="M24.06,34.99h.86s.03,0,.03.02,0,.03-.06.07c-.11.08-.12.1-.14.1-.01,0-.03-.01-.13-.13h-.59c0,.06,0,.13.01.2s0,.14,0,.22c.06.02.07.04.07.05,0,.03-.03.04-.25.07,0-.06,0-.1,0-.15,0-.15,0-.29-.02-.4h-.6c-.07,0-.12,0-.2.01l.02-.08c.07,0,.11.01.17.01h.59c-.03-.23-.08-.4-.16-.54-.14-.26-.34-.46-.66-.63-.01,0,0-.03.01-.03.32.11.53.26.7.46.14.18.22.38.27.7.05-.31.16-.55.3-.73.1-.12.24-.27.39-.36.06-.04.09-.05.11-.05.01,0,.02,0,.03.03.03.06.05.09.11.11,0,0,.01.02,0,.02-.19.07-.38.17-.53.32-.19.18-.31.4-.38.69h0,0Z"/>
            <path class="cls-2" d="M24.31,32.96h-.7c-.06,0-.1,0-.16.02l.02-.08c.05.01.09.01.14.01h.69c-.07-.09-.13-.15-.24-.24-.03,0-.08.01-.15.02,0-.06,0-.08,0-.19h-.69c-.05,0-.1,0-.16.01l.02-.08c.05,0,.09.01.14.01h.68v-.45s0-.03-.04-.03c-.06,0-.15,0-.29.02-.01,0-.01-.02,0-.03.19-.04.23-.07.24-.13,0-.04.01-.04.04-.04.07,0,.11.02.15.05s.06.06.06.13,0,.11,0,.32v.16h.85s.03,0,.03.02,0,.02-.06.06c-.1.08-.12.09-.13.09-.01,0-.03-.01-.12-.12h-.57v.07c.05.02.07.03.07.05,0,0,0,.02-.01.02.12.06.21.11.33.21.07,0,.09.01.09.04,0,.01,0,.02-.04.05-.08.06-.09.07-.1.07-.01,0-.02,0-.09-.07h0ZM23.34,33.17h1.37c-.02-.08-.04-.14-.08-.2,0,0,0-.02.02-.01.07.04.13.09.17.13.01.01.02.02.05.02.07,0,.08,0,.08.04,0,.01,0,.03-.05.07-.09.08-.1.09-.11.09s-.03,0-.1-.08h-.34c.09.07.19.16.27.25.07,0,.09.01.09.03,0,.02-.04.05-.2.12-.01-.05-.04-.11-.07-.17-.04-.08-.09-.16-.15-.24h-.96s0,.06-.01.09c0,0-.02,0-.02,0-.01-.13-.05-.19-.15-.25-.05-.03-.07-.05-.07-.09,0-.05.04-.08.09-.08.09,0,.17.11.17.28h0ZM23.53,33.36h0c.02-.08.04-.1.08-.1.05,0,.09.04.09.09,0,.1-.1.19-.27.24,0,0-.02-.01-.01-.02.05-.06.09-.13.11-.22h0ZM23.97,33.38h0c.01-.08.03-.1.08-.1.05,0,.09.04.09.09,0,.1-.1.2-.27.26,0,0-.02,0-.01-.02.06-.06.1-.15.12-.24h0Z"/>
            <path class="cls-2" d="M23.95,30.7h0-.24v.25h.52s.03,0,.03.02,0,.03-.05.06c-.09.08-.11.09-.12.09-.01,0-.03,0-.11-.11h-.27v.27h.43s.03,0,.03.02,0,.03-.05.06c-.08.07-.1.08-.11.08s-.03,0-.11-.11h-.19v.24c.06.02.07.04.07.05,0,.03-.03.04-.22.06,0-.06,0-.13,0-.36h-.22s.05.1.07.14c.05.01.07.02.07.05s-.02.03-.2.08c0-.06-.02-.13-.04-.2-.04-.11-.1-.24-.16-.32,0,0,0-.03.02-.02.09.07.15.14.21.22h.25v-.27h-.37c-.06,0-.09,0-.15.01l.02-.08s.09,0,.13,0h.37v-.25h-.24c-.06.04-.1.05-.16.08,0-.08,0-.14,0-.29,0-.26,0-.34,0-.4,0-.04.01-.05.06-.05.06,0,.09.02.09.06v.55h.25c0-.49,0-.7,0-.77,0-.05.02-.06.07-.06.06,0,.09.02.09.07,0,.08,0,.3,0,.76h.25v-.43s0-.03-.03-.03c-.03,0-.07,0-.16,0,0,0,0-.02,0-.02.11-.03.13-.04.14-.11,0-.02.01-.03.03-.03.04,0,.09.02.11.04.03.02.05.05.05.11,0,.04,0,.1,0,.32v.11s.05.04.05.06c0,.01,0,.02-.04.05-.06.05-.08.06-.09.06-.01,0-.02,0-.09-.07h0ZM24.47,31.12h0v.28c.05.02.07.03.07.05,0,.03-.03.04-.22.06,0-.11,0-.2,0-.54,0-.41,0-.57,0-.61s.02-.06.07-.06c.07,0,.09.02.09.07,0,.07,0,.29,0,.75h0ZM24.85,30.83v.71c.05.02.06.04.06.05,0,.03-.02.03-.22.06.01-.08.01-.11.01-.34v-1.26s0-.03-.03-.03c-.07,0-.16,0-.28.02-.01,0-.01-.02,0-.03.18-.04.22-.06.23-.12,0-.03.02-.04.05-.04.04,0,.09.01.12.04.05.03.07.06.07.14s0,.24,0,.81h0Z"/>
            <path class="cls-2" d="M23.46,27.91h0v1.06c.05.02.06.03.06.05,0,.02-.02.03-.12.05.1.14.19.3.26.49.06,0,.08.02.08.04,0,.02-.08.06-.23.1,0-.06-.02-.13-.04-.2-.08-.26-.25-.58-.44-.79,0,0,.01-.03.02-.02.1.08.19.17.27.26v-.4c0-.47,0-.62,0-.66s.03-.06.07-.06c.06,0,.09.02.09.07h0ZM24.65,29.33h-.61c.03.07.07.15.1.23.06,0,.09.02.09.04,0,.02-.07.05-.23.1,0-.05-.02-.1-.03-.15-.07-.27-.22-.56-.39-.77,0-.01.01-.03.03-.02.18.15.31.31.41.52h.09v-.87c0-.33,0-.46,0-.5,0-.05.02-.06.07-.06.07,0,.1.02.1.07,0,.07,0,.27,0,.54h.6s.03,0,.03.02,0,.03-.05.06c-.09.07-.1.08-.11.08-.01,0-.03,0-.11-.11h-.35v.38h.6s.03,0,.03.02,0,.03-.05.06c-.08.07-.1.08-.11.08s-.03,0-.11-.1h-.35v.34h.66s.03,0,.03.02c0,.01,0,.02-.05.06-.09.07-.11.08-.12.08-.01,0-.03,0-.12-.11h0Z"/>
            <path class="cls-2" d="M24.08,26.55h.82s.03,0,.03.02-.01.03-.05.06c-.1.08-.11.09-.12.09-.01,0-.03,0-.12-.11h-.27v.31h.42s.03,0,.03.02,0,.03-.05.05c-.09.07-.1.08-.11.08-.01,0-.03,0-.11-.11h-.18v.11c.05.02.07.04.07.05,0,.02-.02.04-.22.06,0-.07,0-.12,0-.19v-.03h-.33v.11c.05.02.07.04.07.05,0,.02-.02.04-.22.06,0-.07,0-.12,0-.19v-.03h-.16c-.05,0-.1,0-.16.01l.02-.08c.06,0,.09.01.13.01h.16v-.31h-.39c.03.21.04.42.04.64h1.23c0-.06.01-.08.06-.08.06,0,.09.02.09.05,0,.04,0,.09,0,.23v.06s.06.04.06.06c0,.01,0,.02-.04.05-.07.06-.08.06-.09.06-.01,0-.02,0-.09-.08h-1.19s-.11.05-.19.09c0-.11.01-.17.01-.42,0-.34,0-.57-.03-.76-.03-.24-.09-.42-.18-.62,0-.01.02-.03.03-.01.15.19.22.36.28.58,0,.03.01.06.02.09h.29v-.48c-.06,0-.11,0-.17-.01h-.1c.05-.21.05-.21.07-.21.02,0,.04.02.05.07.32.07.48.11.74.22.01,0,0,.03,0,.03-.14-.03-.29-.06-.43-.07v.47h.24c.1-.21.2-.35.32-.45.11-.09.24-.17.38-.21.05-.01.08-.02.1-.02.02,0,.03.01.04.05.02.06.04.08.1.1,0,0,0,.02,0,.02-.2.02-.39.07-.54.15-.03.02-.07.04-.1.07.11.03.18.07.28.13.07,0,.09,0,.09.02,0,.02-.05.06-.16.12,0-.03-.03-.05-.06-.09-.04-.05-.11-.1-.18-.16-.09.08-.16.17-.21.27h0ZM24.64,27.29h-1.23v.27h1.23v-.27ZM24.23,26.91v-.31h-.33v.31h.33Z"/>
            <path class="cls-2" d="M24.05,24.27h-.34c.06.1.13.19.34.4.2.19.37.29.37.54,0,.2-.15.35-.4.35s-.42-.21-.42-.34c0-.06.03-.07.08-.07.07,0,.14.04.14.09,0,.07,0,.11.02.15.03.06.08.11.18.11.13,0,.2-.12.2-.28,0-.19-.1-.3-.27-.51s-.25-.32-.37-.51c-.01-.02-.01-.02-.01-.05s0-.04.02-.04c.13,0,.25,0,.39,0s.25,0,.39,0c.04.11.08.25.11.35,0,.01,0,.02-.02.02-.02,0-.03,0-.03,0-.03-.07-.06-.11-.11-.16-.04-.03-.08-.04-.25-.04h0Z"/>
            <path class="cls-2" d="M24.01,23.59c-.27,0-.43-.29-.43-.75s.16-.74.43-.74.43.29.43.75-.16.74-.43.74ZM24.01,23.53c.18,0,.22-.27.22-.68s-.04-.68-.22-.68-.23.26-.23.68.05.68.23.68Z"/>
            <path class="cls-2" d="M24.05,20.32h-.34c.06.1.13.19.34.4.2.19.37.29.37.54,0,.2-.15.35-.4.35s-.42-.21-.42-.34c0-.06.03-.07.08-.07.07,0,.14.04.14.09,0,.06,0,.11.02.14.03.06.08.11.18.11.13,0,.2-.12.2-.28,0-.19-.1-.3-.27-.51s-.25-.32-.37-.51c-.01-.02-.01-.02-.01-.05s0-.04.02-.04c.13,0,.25,0,.39,0s.25,0,.39,0c.04.11.08.25.11.35,0,.01,0,.02-.02.02-.02,0-.03,0-.03,0-.03-.07-.06-.11-.11-.16-.04-.03-.08-.04-.25-.04h0Z"/>
            <path class="cls-2" d="M24.27,18.48h0v.09c.06,0,.13,0,.19,0,.01,0,.02,0,.02.01l.02.06s0,.01-.01.01c-.07,0-.14,0-.21,0v.47c0,.19,0,.35.01.51,0,.02,0,.02-.01.02l-.14-.04c-.21-.32-.36-.58-.56-.91t-.02-.08s0-.05.02-.05h.52v-.09c0-.11,0-.16-.03-.2-.01-.03-.09-.03-.14-.04-.01,0-.02,0-.02-.03s0-.03.02-.03c.08,0,.18,0,.26,0s.18,0,.25,0c.01,0,.02,0,.02.03s0,.03-.02.03c-.07,0-.14,0-.15.05-.02.05-.02.07-.02.2h0ZM24.09,19.08h0v-.43h-.44s-.03,0-.02.03c.15.26.31.52.47.77,0-.14,0-.22,0-.37h0Z"/>
            <path class="cls-2" d="M21.79,31.06h-.16l-.02-.05c-.02.06-.08.08-.13.08-.28,0-.53-.35-.53-.62,0-.16.08-.22.22-.22.09,0,.17.05.24.16-.03-.13.07-.16.18-.16.34,0,.53.32.53.53,0,.38-.29.64-.72.64s-.84-.32-.84-.81c0-.43.3-.71.76-.71.25,0,.39.07.56.19,0,0,.01.01,0,.03-.01.01-.03.01-.04,0-.14-.1-.3-.15-.5-.15-.34,0-.64.21-.64.64s.31.74.7.74.59-.26.59-.58c0-.28-.19-.48-.37-.48-.06,0-.08.02-.08.06,0,.04.02.1.05.18.04.13.14.42.19.53h0ZM21.12,30.43h0c0,.21.16.6.37.6.04,0,.07-.02.07-.09,0-.05-.02-.14-.06-.26-.11-.34-.24-.38-.29-.38s-.08.04-.08.13h0Z"/>
            <path class="cls-2" d="M21.24,28.24h-.28c-.05,0-.1,0-.16.01l.02-.08c.06,0,.1.01.15.01h.27c0-.24,0-.37,0-.41,0-.04.02-.06.07-.06.07,0,.11.02.11.07s0,.16,0,.4h.41s.03,0,.03.02,0,.03-.05.06c-.09.07-.1.08-.11.08s-.03,0-.11-.11h-.17c0,.27,0,.54-.01.81.09-.24.19-.4.29-.53.11-.14.27-.28.42-.38.04-.03.08-.04.09-.04.01,0,.02,0,.03.03.03.08.06.1.11.11,0,0,0,.02,0,.02-.2.07-.41.18-.57.33-.13.12-.25.27-.35.49h.81s.03,0,.03.02,0,.02-.06.06c-.1.08-.12.09-.13.09s-.03,0-.12-.12h-.56v.33c.06.03.07.04.07.06,0,.03-.04.04-.23.06,0-.08.01-.14.01-.38v-.08h-.62c-.06,0-.11,0-.18.01l.02-.08c.07,0,.11.01.16.01h.53c-.15-.37-.46-.75-.8-.98-.01,0,0-.03.02-.03.35.17.66.48.87.84,0-.23,0-.46,0-.68h0Z"/>
            <path class="cls-2" d="M20.81,26.55h0c-.08-.01-.17-.03-.25-.03.15.16.26.32.37.51.06,0,.08.01.08.03,0,.02-.05.06-.19.11,0-.05-.03-.11-.06-.18-.07-.16-.17-.34-.26-.48-.02,0-.04,0-.06,0h-.07c.04-.15.06-.2.08-.2.02,0,.03.01.04.06.13.04.23.08.32.12-.08-.27-.22-.5-.44-.69,0,0,0-.03.02-.03.34.21.51.45.6.82.05,0,.06.02.06.04,0,.02,0,.03-.2.09,0-.06-.01-.12-.03-.18h0ZM20.66,26.96h0s-.03.1-.08.15c.1.11.18.21.25.35.06,0,.08.01.08.03s-.05.05-.2.1c0-.04-.01-.09-.04-.15-.03-.09-.07-.19-.13-.29-.04.03-.09.06-.15.08,0,0-.02,0-.01-.02.07-.07.11-.15.14-.24.02-.08.03-.09.07-.09s.07.04.07.09h0ZM21.18,26.12h0v.54h.27v-.03s.01-.06.06-.06c.06,0,.09.02.09.07s0,.19,0,.53v.22s.05.04.05.05,0,.03-.03.05c-.05.04-.07.05-.08.05s-.02,0-.08-.06h-.25c-.06.03-.09.05-.16.08.01-.18.01-.38.01-.64v-.81s-.04,0-.06,0c-.04,0-.08,0-.12-.01.06-.19.06-.2.08-.2.02,0,.03.02.04.07.18.07.33.13.48.22,0,0,0-.02,0-.03.02-.11.04-.13.08-.13s.08.04.08.1c0,.13-.11.29-.27.39,0,0-.03,0-.02-.02.05-.08.1-.16.12-.27-.09-.03-.18-.06-.28-.08h0ZM21.45,27.1h-.27v.32h.27v-.32ZM21.18,27.05h.27v-.34h-.27v.34ZM21.86,26.27h0v1.16h.25c-.04-.23-.09-.42-.16-.58.14-.15.19-.31.19-.48,0-.07,0-.11-.03-.13,0-.01-.03-.02-.05-.02-.04,0-.09,0-.16,0,0,0,0-.02,0-.03.11-.03.14-.05.14-.11,0-.03.01-.03.03-.03.05,0,.11.03.14.07.04.05.06.12.06.22,0,.19-.08.36-.28.52.1.15.19.33.26.52.04.01.06.02.06.04,0,.01,0,.03-.04.06-.06.06-.08.07-.09.07-.01,0-.02,0-.08-.08h-.22c-.06.03-.09.05-.16.08,0-.08,0-.36,0-.83s0-.81,0-.93c0-.04.02-.05.06-.05.06,0,.09.02.09.07,0,.04,0,.16,0,.45h0Z"/>
            <path class="cls-2" d="M21.75,24.83h0c-.11-.02-.2-.04-.33-.07-.02.11-.04.2-.05.3.14.03.26.06.36.08.05,0,.09.02.12.02.02,0,.04.02.04.05,0,.02-.02.04-.05.05-.03,0-.07.01-.11.01-.02,0-.06-.01-.08-.03-.02-.02-.04-.02-.05-.03-.08-.02-.16-.05-.25-.07-.02.1-.03.16-.03.21,0,.03,0,.05.01.05,0,0,.02.03.02.04,0,.03-.02.05-.08.07-.06.02-.11.03-.16.03-.03,0-.06-.01-.08-.02-.01,0-.03-.02-.03-.03,0,0,0-.02.02-.02.05,0,.09,0,.11-.02.01-.01.02-.03.03-.06.02-.07.04-.16.06-.29-.09-.02-.18-.04-.25-.05-.05,0-.09-.02-.12-.02-.05,0-.09.02-.14.05-.01,0-.02.01-.03.01,0,0-.02,0-.02-.03,0-.02.02-.05.07-.1.05-.04.09-.06.12-.06.02,0,.03,0,.05.02.02.01.07.02.11.03.07.02.14.04.22.06.02-.1.04-.2.05-.3-.15-.04-.29-.07-.42-.1-.06-.01-.1-.02-.13-.02s-.06,0-.12.04c0,0-.02.01-.03.01,0,0-.01,0-.01-.02,0-.02,0-.04.02-.06.05-.06.14-.11.19-.11.03,0,.04,0,.06.03,0,.01.04.02.1.04.11.03.22.06.35.09.03-.17.07-.41.09-.57,0-.06.03-.09.08-.09.04,0,.08.03.08.07,0,.03,0,.07-.02.11-.03.14-.07.34-.11.52.2.04.31.06.4.07.06,0,.11,0,.14,0,.05,0,.08.02.08.06,0,.02-.02.05-.05.06-.03.01-.08.02-.12.02-.04,0-.06,0-.08-.02-.01-.01-.04-.02-.07-.03h0Z"/>
            <path class="cls-2" d="M21.92,23.45h0c-.11-.03-.25-.07-.41-.11-.01.07-.02.11-.03.16,0,.02,0,.03,0,.04s0,.02,0,.03.01.02.01.04c0,.02-.01.04-.07.07-.04.02-.08.03-.12.03-.03,0-.05,0-.07-.02s-.03-.03-.03-.04,0-.01.02-.01h.05s.03,0,.04-.02c.01-.02.02-.04.03-.08.02-.06.04-.13.06-.22-.11-.03-.2-.05-.3-.08-.05-.01-.08-.01-.11-.01-.03,0-.06.02-.09.05,0,0-.01.01-.02.01s-.01-.01-.01-.03c0-.04.02-.08.07-.12.05-.05.07-.06.1-.06.02,0,.03,0,.05.02.01.01.03.02.06.04.08.03.16.06.28.1,0-.05.02-.1.03-.16.04-.16.07-.33.11-.51,0-.04.03-.05.07-.05.03,0,.06.03.06.05s0,.06-.02.1c-.04.14-.07.28-.11.43-.01.06-.03.11-.04.17.14.04.33.1.44.13,0,0,.02,0,0-.01-.1-.14-.17-.22-.26-.32,0-.01-.02-.02-.02-.03s.01-.02.02-.02.02,0,.04.01c.11.08.24.2.33.28.02.01.03.02.05.02.03,0,.05.02.05.04s-.01.05-.07.08c-.06.05-.09.06-.11.06-.02,0-.03,0-.05-.02-.01-.01-.03-.03-.06-.03h0Z"/>
            <path class="cls-2" d="M20.78,22.22h0s-.03,0-.04,0c-.01,0-.02,0-.02-.02s0-.02.02-.02c.05-.03.11-.08.15-.13.04-.05.07-.1.09-.14.03-.05.04-.07.09-.07s.08.04.08.09c0,.08-.03.13-.12.19-.06.04-.14.08-.23.09h0ZM22.12,22.15h0s-.02.03-.03.03c0,0-.02,0-.03-.02-.13-.16-.31-.33-.5-.49-.18-.15-.37-.29-.56-.39-.04-.03-.08-.04-.1-.04-.03,0-.06.02-.1.07-.01.02-.02.02-.03.02-.01,0-.02-.02-.02-.05,0-.05.02-.1.09-.16.05-.04.09-.08.13-.08.03,0,.05.01.07.04,0,.01.03.03.05.05.2.14.38.28.54.44.18.17.34.35.46.54,0,.01.01.03.01.04h0Z"/>
            <path class="cls-2" d="M20.96,20.48h0s.07-.06.07-.08c0-.03-.02-.06-.06-.11-.06-.07-.13-.14-.21-.22-.1-.09-.21-.18-.34-.26-.02-.01-.03-.02-.03-.03,0-.02.01-.03.03-.03,0,0,.03,0,.05.02.13.05.26.13.37.21.11.08.2.15.28.24.02.02.04.04.06.04.03.01.05.03.05.06,0,.05-.06.11-.12.15-.05.03-.09.05-.12.05-.02,0-.05,0-.05-.02,0,0,0-.01.02-.03h0ZM22.02,19.95c.06,0,.09.04.09.11,0,.08-.1.21-.19.29-.1.09-.22.16-.34.21-.03,0-.04.02-.06.02-.01,0-.02,0-.02-.02,0,0,.01-.02.04-.04.08-.05.15-.12.21-.19.07-.08.12-.16.18-.29.02-.05.05-.08.09-.08h0ZM22.01,20.96c-.11,0-.19-.08-.19-.18s.09-.18.19-.18.19.08.19.18-.09.18-.19.18ZM22.01,20.9c.07,0,.12-.05.12-.12s-.05-.12-.12-.12-.12.05-.12.12.05.12.12.12Z"/>
            <path class="cls-2" d="M21.93,18.4h0c-.12.11-.3.21-.5.29.11.12.21.27.27.35.02.04.06.07.09.08.04.02.05.02.05.04,0,.02-.01.05-.07.1-.04.04-.07.05-.1.05-.02,0-.03,0-.05-.02-.02-.01-.03-.03-.07-.03-.15-.02-.33-.04-.49-.05-.06,0-.13-.01-.16-.01-.05,0-.08.03-.14.08-.01.01-.03.02-.03.02,0,0-.02-.02-.02-.04,0-.03.02-.06.06-.11.04-.06.1-.09.13-.09.03,0,.04,0,.06.02.02,0,.04.02.09.03.21.04.45.07.54.08.01,0,.02,0,.02,0s0,0,0-.02c-.12-.21-.24-.36-.39-.52-.21-.21-.43-.36-.68-.5-.01,0-.02-.02-.02-.03s0-.02.02-.02c.01,0,.04,0,.06.01.12.04.27.11.41.21.15.09.28.21.41.34.21-.12.36-.26.5-.45.03-.05.06-.06.09-.06.05,0,.09.03.09.09s-.06.12-.13.19h0Z"/>
          </g>
        </g>
      </g>
    </g>
  </g>
</svg>