<?xml version="1.0" encoding="UTF-8"?>
<svg id="Layer_2" xmlns="http://www.w3.org/2000/svg" viewBox="0 0 49.61 15">
  <defs>
    <style>
      .cls-1 {
        fill: #f9f6f7;
      }
    </style>
  </defs>
  <g id="Layer_2-2" data-name="Layer_2">
    <g id="Layer_1-2">
      <path class="cls-1" d="M4.68,13.22c0,.56-.15.99-.45,1.28-.3.29-.75.44-1.35.44-.1,0-.29,0-.58-.02h-.54c-.26,0-.47,0-.62.02l-.02-.16c.16,0,.27-.03.33-.07.06-.04.1-.11.1-.22,0-.06-.02-.18-.06-.38l-.83-3.85c-.04-.19-.09-.34-.13-.43-.05-.09-.1-.15-.18-.18-.07-.03-.18-.05-.32-.06l-.02-.16c.16.02.42.03.76.03.11,0,.29,0,.52-.02h.37c.57,0,1.08.17,1.54.52.47.36.83.83,1.09,1.41.26.59.39,1.2.39,1.85h0ZM1.58,9.57c-.15,0-.25.03-.31.07-.05.05-.08.12-.08.22,0,.07.02.2.06.38l.83,3.88c.04.18.08.33.13.42.05.09.11.16.18.19.08.04.18.05.31.05.48,0,.82-.11,1.04-.34.21-.22.32-.57.32-1.04,0-.69-.09-1.33-.29-1.91-.19-.58-.47-1.05-.85-1.41-.37-.35-.82-.52-1.35-.52h0ZM8.47,11.69l.34,1.56c.06.28.15.47.24.57.1.1.24.16.43.17l.03.16c-.14-.02-.34-.03-.6-.03s-.49,0-.64.03l-.03-.16c.16,0,.29-.04.36-.1.08-.05.11-.16.11-.29,0-.1-.02-.22-.05-.35l-.37-1.64c-.13-.64-.33-1.13-.59-1.49-.26-.35-.61-.53-1.05-.53-.27,0-.47.08-.58.23-.11.16-.17.37-.17.66,0,.26.05.61.14,1.05l.39,1.8c.04.2.08.34.13.43.05.09.11.15.18.18.08.03.2.05.35.06l.04.16c-.21-.02-.47-.03-.8-.03-.38,0-.65,0-.82.03l-.04-.16c.16-.01.27-.03.33-.07.06-.04.1-.11.1-.23,0-.07-.02-.2-.05-.37l-.37-1.66c-.11-.5-.16-.87-.16-1.13,0-.16.02-.3.06-.43s.1-.25.17-.37c.18-.28.51-.42.98-.42.26,0,.5.06.73.19.23.13.42.31.58.53.26.38.47.93.63,1.64h0ZM12.78,10.38l-.03-.11c-.06-.22-.13-.39-.18-.5-.06-.1-.13-.16-.21-.16-.07,0-.12.04-.15.12-.03.08-.05.19-.05.34,0,.08,0,.14,0,.18l.02.41c.02.32-.03.56-.15.7-.11.15-.3.26-.57.32l-.13.03c.5.09.9.26,1.19.52.29.26.43.59.43.98,0,.29-.1.52-.32.68-.21.17-.53.26-.94.26h-.47c-.1-.02-.25-.02-.46-.02-.35,0-.61,0-.78.03l-.03-.16c.16,0,.26-.04.32-.09.06-.05.1-.13.1-.23,0-.06-.02-.18-.05-.34l-.68-3.08c-.04-.2-.09-.34-.13-.43s-.1-.15-.18-.18c-.08-.03-.19-.05-.34-.06l-.03-.16c.18.02.45.03.83.03.33,0,.59,0,.79-.03l.03.16c-.16.01-.28.04-.34.08-.06.05-.09.12-.09.22,0,.08.02.21.05.37l.31,1.4h.12c.26-.01.45-.05.59-.12.14-.06.23-.16.28-.28.05-.12.08-.29.08-.49,0-.09,0-.16,0-.21l-.03-.49c0-.21.03-.39.11-.54.09-.14.23-.21.43-.21s.36.08.48.23c.13.16.23.39.31.71l.03.1h-.15,0ZM10.57,11.8l.33,1.52c.04.18.08.32.12.41.05.09.11.16.18.19.07.04.17.06.3.06.28,0,.49-.06.62-.18.13-.12.19-.31.19-.56,0-.35-.05-.63-.16-.84-.1-.21-.27-.36-.51-.46-.23-.1-.55-.15-.96-.15h-.11ZM16.11,14.21h-.1l-2.56-3.9c-.28-.42-.51-.66-.7-.72v-.16c.11.02.29.03.55.03s.45,0,.58-.03v.16c-.26.03-.38.14-.38.34,0,.16.08.37.25.62l.43.66h1.62l.1-.97s0-.09,0-.16c0-.19-.04-.31-.13-.38s-.23-.11-.43-.12l-.03-.16c.16.02.42.03.76.03.29,0,.52,0,.7-.03l.03.16c-.07,0-.14.05-.2.13-.06.08-.1.2-.11.37,0,0-.39,4.12-.39,4.12ZM15.8,11.36h-1.51l1.3,1.97.2-1.97h0ZM21.11,15c-.1,0-.18-.04-.23-.13-.05-.08-.08-.18-.08-.29,0-.16.05-.31.16-.44-.1-.06-.21-.1-.31-.13s-.24-.04-.39-.04c-.14,0-.3,0-.47.03-.16.03-.33.05-.48.08-.44.07-.77.11-1.02.11-.3,0-.54-.06-.72-.18-.22-.14-.33-.34-.33-.6,0-.12.03-.21.07-.29.05-.07.12-.1.21-.1.1,0,.18.04.23.13.05.09.08.2.08.32,0,.08-.01.16-.03.24s-.05.15-.08.21c.13.09.33.13.6.13.16,0,.43-.03.8-.09l-.86-3.62c-.05-.21-.1-.36-.16-.46-.05-.1-.13-.17-.23-.21-.1-.04-.23-.07-.42-.08l-.03-.16c.21.02.52.03.93.03s.73,0,.95-.03l.03.16c-.2,0-.34.03-.42.08-.08.05-.12.14-.12.27,0,.1.02.23.06.39l.83,3.52c.2-.03.38-.04.54-.04.19,0,.36.02.49.05.14.04.27.1.39.19.2.18.29.37.29.57,0,.1-.03.19-.08.26-.05.07-.12.11-.21.11h0ZM21.7,10.25l.67,3.08c.04.2.08.34.13.43.05.09.11.15.18.18.08.03.2.05.35.06l.03.16c-.2-.02-.47-.03-.81-.03-.37,0-.63,0-.81.03l-.03-.16c.16-.01.27-.03.33-.07.06-.04.1-.11.1-.23,0-.07-.02-.2-.05-.37l-.67-3.08c-.04-.19-.09-.34-.13-.43-.05-.09-.1-.15-.18-.18-.07-.03-.18-.05-.33-.06l-.03-.16c.19.02.47.03.81.03s.61,0,.81-.03l.03.16c-.16.01-.28.03-.34.07-.06.04-.09.11-.09.22,0,.06.02.18.06.38h0ZM25.95,9.79c.39.31.69.7.91,1.18.21.48.32.95.32,1.42,0,.62-.14,1.08-.43,1.4s-.66.47-1.14.47-.92-.16-1.3-.47-.69-.7-.91-1.18c-.21-.48-.32-.95-.32-1.42,0-.62.14-1.08.43-1.4s.67-.47,1.14-.47.92.16,1.3.47ZM25.55,14.12c.29,0,.52-.13.69-.39.17-.26.26-.67.26-1.23,0-.5-.08-.98-.23-1.45-.15-.47-.37-.85-.64-1.14-.28-.3-.58-.44-.92-.44-.29,0-.52.13-.7.39-.16.26-.25.68-.25,1.23,0,.5.08.98.23,1.44.16.47.37.86.65,1.15.28.3.58.44.92.44h0ZM32.3,14.5c-.26,0-.48-.16-.69-.5-.3-.48-.66-1.65-1.07-3.52l-1.21,3.66c-.15-.02-.32-.03-.52-.03-.24,0-.43,0-.57.03l-.03-.16c.21,0,.34-.04.4-.08.07-.05.1-.14.09-.29-.42-2.24-.78-3.65-1.08-4.2-.16-.26-.33-.4-.54-.4h-.01c.06.07.11.15.15.23s.06.17.06.26-.02.15-.06.21c-.04.06-.1.09-.18.09-.11,0-.21-.06-.27-.17-.07-.11-.1-.24-.1-.38,0-.27.13-.4.38-.4.16,0,.28.04.38.13.1.08.21.2.31.36.29.44.67,1.88,1.12,4.3l1.45-4.25h.14c.25,1.23.47,2.22.68,2.96.21.74.41,1.27.6,1.6.08.12.15.22.23.29.08.07.18.1.29.11h.02c-.06-.06-.11-.14-.15-.23-.04-.09-.06-.17-.06-.26s.02-.16.06-.22c.04-.05.1-.08.18-.08.11,0,.21.06.27.17.07.12.1.25.1.39,0,.12-.03.21-.09.29s-.16.11-.29.11h0ZM12.16,5.17l-.52-2.43c-.13-.64-.33-1.13-.59-1.49-.26-.35-.61-.53-1.05-.53-.27,0-.46.08-.58.23-.11.16-.17.37-.17.66,0,.26.05.61.14,1.05l.56,2.57c.04.2.08.34.13.43.05.09.11.15.18.18.08.03.2.05.35.06l.04.16c-.21-.02-.47-.03-.8-.03-.38,0-.65,0-.82.03l-.04-.16c.16-.01.27-.03.33-.07.06-.04.1-.11.1-.23,0-.07-.02-.2-.05-.37l-.53-2.44c-.1-.47-.16-.85-.16-1.13,0-.17.02-.31.05-.44.04-.12.1-.24.17-.35.2-.28.53-.42.98-.42.26,0,.5.06.73.19.23.13.42.31.58.53.26.38.47.93.63,1.64l.5,2.34c.04.2.08.35.13.44.05.1.12.18.2.22.09.05.21.08.35.08l.03.16c-.15-.02-.35-.03-.6-.03-.28,0-.5,0-.64.03l-.03-.16c.17,0,.29-.04.37-.1.07-.05.11-.16.11-.3,0-.1-.02-.21-.05-.34h0ZM16.87,5.15c-.3-.48-.66-1.66-1.07-3.52l-1.21,3.66c-.15-.02-.32-.03-.52-.03-.24,0-.43,0-.57.03l-.03-.16c.21,0,.34-.04.4-.08.07-.05.1-.14.09-.29-.42-2.24-.78-3.65-1.08-4.2-.16-.26-.33-.4-.54-.4h-.01c.06.07.11.15.15.23s.06.17.06.26-.02.15-.06.21c-.04.06-.1.09-.18.09-.11,0-.21-.06-.27-.17s-.1-.24-.1-.38c0-.27.13-.4.38-.4.16,0,.28.04.38.13.1.08.21.2.31.36.29.44.67,1.88,1.12,4.3l1.45-4.25h.14c.25,1.23.47,2.22.68,2.96.21.74.41,1.27.6,1.6.08.12.15.22.23.29.08.07.18.1.29.11h.02c-.06-.06-.11-.14-.15-.23-.04-.09-.06-.17-.06-.26s.02-.16.06-.22c.04-.05.1-.08.18-.08.11,0,.21.06.27.17.07.12.1.25.1.39,0,.12-.03.21-.09.29s-.16.11-.29.11c-.26,0-.48-.16-.69-.5ZM21.81,3.58c0,.56-.15.99-.45,1.28-.3.29-.75.44-1.35.44-.1,0-.29,0-.58-.02h-.54c-.26,0-.47,0-.62.02l-.02-.16c.16,0,.27-.03.33-.07.06-.04.1-.11.1-.22,0-.09-.02-.22-.06-.38l-.67-3.08c-.04-.19-.09-.34-.13-.43-.05-.09-.1-.15-.18-.18-.07-.03-.18-.05-.32-.06l-.02-.16c.16.02.42.03.76.03.11,0,.29,0,.52-.02h.37c.57,0,1.08.12,1.51.38.43.26.76.62,1,1.08.23.45.35.97.35,1.54h0ZM18.87.7c-.15,0-.25.02-.31.06-.05.05-.08.12-.08.22,0,.06.02.19.06.39l.67,3.1c.04.18.08.33.13.42.05.09.11.16.18.19.08.04.18.05.31.05.48,0,.82-.11,1.04-.34.21-.22.32-.57.32-1.04,0-.94-.19-1.69-.57-2.24-.38-.55-.96-.82-1.75-.82h0ZM25.74,2.82l.34,1.56c.06.28.15.47.24.57s.24.16.43.17l.03.16c-.14-.02-.34-.03-.6-.03s-.49,0-.64.03l-.03-.16c.16,0,.29-.04.36-.1.08-.05.11-.16.11-.29,0-.1-.02-.22-.05-.35l-.37-1.64c-.13-.64-.33-1.13-.59-1.49-.26-.35-.61-.53-1.05-.53-.27,0-.47.08-.58.23-.11.16-.17.37-.17.66,0,.26.05.61.14,1.05l.39,1.8c.04.2.08.34.13.43.05.09.11.15.18.18.08.03.2.05.35.06l.04.16c-.21-.02-.47-.03-.8-.03-.38,0-.65,0-.82.03l-.04-.16c.16-.01.27-.03.33-.07.06-.04.1-.11.1-.23,0-.07-.02-.2-.05-.37l-.37-1.66c-.11-.5-.16-.87-.16-1.13,0-.16.02-.3.06-.43s.1-.25.17-.37c.18-.28.51-.42.98-.42.26,0,.5.06.73.19.23.13.42.31.58.53.26.38.47.93.63,1.64h0ZM29.86,2.21h-.15c-.16-.52-.35-.89-.59-1.12-.24-.22-.52-.34-.84-.34h-.4c-.16,0-.28.02-.34.05-.06.04-.09.11-.09.23,0,.05.02.18.06.37l.68,3.08c.04.2.08.34.13.43.05.09.11.15.18.18.08.03.2.05.35.06l.03.16c-.2-.02-.47-.03-.81-.03-.37,0-.63,0-.81.03l-.03-.16c.16-.01.27-.03.33-.07.06-.04.1-.11.1-.22,0-.06-.02-.18-.06-.38l-.68-3.08c-.04-.2-.09-.34-.13-.43s-.1-.15-.18-.18c-.08-.03-.19-.05-.34-.06l-.03-.16c.4.02,1,.03,1.78.03.72,0,1.22,0,1.52-.03.06.42.11.72.16.91.03.15.06.29.1.44s.07.23.08.27h0ZM33.43,1.22l-.39,4.12h-.1l-2.56-3.9c-.28-.42-.51-.66-.7-.72v-.16c.11.02.29.03.55.03s.45,0,.58-.03v.16c-.26.03-.38.14-.38.34,0,.16.08.37.25.62l.43.66h1.62l.1-.97s0-.09,0-.16c0-.19-.04-.31-.13-.38s-.23-.11-.43-.12l-.03-.16c.16.02.42.03.76.03.29,0,.52,0,.7-.03l.03.16c-.07,0-.14.05-.2.13s-.1.2-.11.37h0ZM32.73,2.5h-1.51l1.3,1.97.2-1.97h0ZM38.04,6.13c-.1,0-.18-.04-.23-.13-.05-.08-.08-.18-.08-.29,0-.16.05-.31.16-.44-.1-.06-.21-.1-.31-.13s-.24-.04-.39-.04c-.14,0-.3,0-.47.03-.16.03-.33.05-.48.08-.44.07-.77.11-1.02.11-.3,0-.54-.06-.72-.18-.22-.14-.33-.34-.33-.6,0-.12.03-.21.07-.29.05-.07.12-.1.21-.1.1,0,.18.04.23.13.05.09.08.2.08.32,0,.08-.01.16-.03.24-.02.08-.05.15-.08.21.13.09.33.13.6.13.16,0,.43-.03.8-.09l-.86-3.62c-.05-.21-.1-.36-.16-.46-.05-.1-.13-.17-.23-.21s-.23-.07-.42-.08l-.03-.16c.21.02.52.03.93.03s.73,0,.95-.03l.03.16c-.2,0-.34.03-.42.08-.08.05-.12.14-.12.27,0,.1.02.23.06.39l.83,3.52c.2-.03.38-.04.54-.04.19,0,.36.02.49.05.14.04.27.1.39.19.2.18.29.37.29.57,0,.1-.03.19-.08.26-.05.07-.12.11-.21.11h0ZM38.63,1.39l.67,3.08c.04.2.08.34.13.43.05.09.11.15.18.18.08.03.2.05.35.06l.03.16c-.2-.02-.47-.03-.81-.03-.37,0-.63,0-.81.03l-.03-.16c.16-.01.27-.03.33-.07.06-.04.1-.11.1-.23,0-.07-.02-.2-.05-.37l-.67-3.08c-.04-.19-.09-.34-.13-.43-.05-.09-.1-.15-.18-.18-.07-.03-.18-.05-.33-.06l-.03-.16c.19.02.47.03.81.03s.61,0,.81-.03l.03.16c-.16.01-.28.03-.34.07-.06.04-.09.11-.09.22,0,.06.02.18.06.38h0ZM42.87.93c.39.31.69.7.91,1.18.21.48.32.95.32,1.42,0,.62-.14,1.08-.43,1.4s-.66.47-1.14.47-.92-.16-1.3-.47c-.39-.31-.69-.7-.91-1.18-.21-.48-.32-.95-.32-1.42,0-.62.14-1.08.43-1.4s.67-.47,1.14-.47.92.16,1.3.47ZM42.48,5.26c.29,0,.52-.13.69-.39.17-.26.26-.67.26-1.23,0-.5-.08-.98-.23-1.45-.15-.47-.37-.85-.64-1.14-.28-.3-.58-.44-.92-.44-.29,0-.52.13-.7.39-.16.26-.25.68-.25,1.23,0,.5.08.98.23,1.44.16.47.37.86.65,1.15.28.3.58.44.92.44h0ZM48.54,5.15c-.3-.48-.66-1.66-1.07-3.52l-1.21,3.66c-.15-.02-.32-.03-.52-.03-.24,0-.43,0-.57.03l-.03-.16c.21,0,.34-.04.4-.08.07-.05.1-.14.09-.29-.42-2.24-.78-3.65-1.08-4.2-.16-.26-.33-.4-.54-.4h-.01c.06.07.11.15.15.23s.06.17.06.26-.02.15-.06.21c-.04.06-.1.09-.18.09-.11,0-.21-.06-.27-.17-.07-.11-.1-.24-.1-.38,0-.27.13-.4.38-.4.16,0,.28.04.38.13.1.08.21.2.31.36.29.44.67,1.88,1.12,4.3l1.45-4.25h.14c.25,1.23.47,2.22.68,2.96.21.74.41,1.27.6,1.6.08.12.15.22.23.29.08.07.18.1.29.11h.02c-.06-.06-.11-.14-.15-.23-.04-.09-.06-.17-.06-.26s.02-.16.06-.22c.04-.05.1-.08.18-.08.11,0,.21.06.27.17.07.12.1.25.1.39,0,.12-.03.21-.09.29s-.16.11-.29.11c-.26,0-.48-.16-.69-.5Z"/>
    </g>
  </g>
</svg>