<?xml version="1.0" encoding="UTF-8"?>
<svg id="Layer_2" xmlns="http://www.w3.org/2000/svg" viewBox="0 0 70 119.59">
  <defs>
    <style>
      .cls-1 {
        fill: none;
        stroke: #c9cac9;
        stroke-miterlimit: 10;
        stroke-width: .37px;
      }

      .cls-2 {
        fill: #f0efef;
      }
    </style>
  </defs>
  <g id="Layer_2-2" data-name="Layer_2">
    <g id="Layer_2-2">
      <g id="Layer_1-2">
        <g id="_图层_1-2">
          <g>
            <g>
              <path class="cls-2" d="M6.68,102.27c.06,0,.09.05.08.15,0,.1-.03.17-.08.22-.08.06-.22.1-.39.12s-.35.04-.53.08-.33.11-.47.21c-.14.1-.2.26-.2.47v15.88c0,.08-.01.13-.05.15-.03.03-.06.03-.1.03-.14.01-.3,0-.46-.05s-.31-.09-.47-.14c-.34-.14-.68-.27-1.02-.39-.34-.12-.67-.27-1.01-.46-.02-.01-.05-.03-.1-.05-.05-.03-.1-.05-.15-.08-.05-.03-.09-.07-.12-.12-.03-.05-.05-.09-.05-.14,0-.09,0-.16.01-.21,0-.05.03-.08.09-.12.15.01.28.03.38.05s.19.03.29.05c.1.01.15.02.18.02.13.03.24.04.34.03.1-.01.17-.17.21-.46.02-.18.03-.36.02-.53v-4.81c0-1.47,0-2.95.01-4.43,0-1.48-.03-2.95-.12-4.43,0-.14-.08-.24-.23-.31s-.31-.12-.51-.16-.38-.07-.57-.09-.31-.05-.38-.1c-.05-.05-.08-.12-.08-.21,0-.11.03-.16.09-.16h5.36v-.02Z"/>
              <path class="cls-2" d="M14.69,102.27c.06,0,.09.05.08.15s-.03.17-.08.22c-.08.06-.22.1-.39.12s-.35.04-.53.08-.33.11-.47.21c-.14.1-.2.26-.2.47v15.88c0,.08-.01.13-.05.15-.03.03-.06.03-.1.03-.14.01-.3,0-.46-.05s-.31-.09-.47-.14c-.34-.14-.68-.27-1.02-.39-.34-.12-.67-.27-1.01-.46-.02-.01-.05-.03-.1-.05-.05-.03-.1-.05-.15-.08-.05-.03-.09-.07-.12-.12-.03-.05-.05-.09-.05-.14,0-.09,0-.16.01-.21,0-.05.03-.08.09-.12.15.01.28.03.38.05s.19.03.29.05c.1.01.15.02.18.02.13.03.24.04.34.03.1-.01.17-.17.21-.46.02-.18.03-.36.02-.53v-4.81c0-1.47,0-2.95.01-4.43,0-1.48-.03-2.95-.12-4.43,0-.14-.08-.24-.23-.31s-.31-.12-.51-.16-.38-.07-.57-.09-.31-.05-.38-.1c-.05-.05-.08-.12-.08-.21,0-.11.03-.16.09-.16h5.36v-.02Z"/>
            </g>
            <g>
              <path class="cls-2" d="M21.89,80.74h0v.47c-.16.08-.3.21-.43.39-.18.32-.34.72-.47,1.2s-.22,1.03-.27,1.63c-.06.61-.1,1.2-.14,1.79-.03.59-.05,1.13-.05,1.63v2.42c0,.51.01,1.06.05,1.65.03.58.08,1.18.14,1.79.06.61.15,1.15.27,1.63.12.48.28.87.47,1.17.13.2.27.34.43.41v.52h-.49c-.37,0-.69-.15-.96-.44s-.51-.68-.72-1.16-.38-1.02-.51-1.61c-.14-.6-.25-1.21-.34-1.83s-.14-1.22-.17-1.8-.05-1.09-.05-1.52c0-.91.05-1.85.15-2.84s.28-1.88.55-2.7c.26-.81.62-1.49,1.07-2.02.4-.47.88-.72,1.46-.78h0ZM24.2,83.26h0l.43.43-4.42,10.74-.43-.43,4.42-10.74h0ZM22.9,97.46h-.57v-.48c.23-.04.42-.18.58-.43.19-.3.35-.7.47-1.18.12-.49.21-1.03.26-1.61s.09-1.18.11-1.78c.02-.59.03-1.15.02-1.66v-2.78c0-.54-.01-1.08-.03-1.61s-.05-1.07-.1-1.59c-.05-.53-.14-1.02-.25-1.46-.1-.44-.25-.83-.44-1.2-.14-.26-.32-.42-.55-.5v-.46l.16-.02c.12-.01.24,0,.35.02.28.08.53.22.77.44.24.23.46.48.65.77.29.45.52.96.71,1.53s.34,1.18.44,1.81c.1.64.17,1.28.21,1.93s.06,1.28.06,1.89c0,.43-.02.94-.05,1.52-.03.57-.1,1.18-.18,1.8s-.21,1.23-.35,1.83c-.14.6-.32,1.14-.53,1.63s-.46.88-.74,1.16-.62.43-.98.43h-.01Z"/>
              <path class="cls-2" d="M30.57,81.91h0l3.39,13.73s.01.11.01.24v1.21c0,.14-.05.22-.15.22h-6.31c-.1,0-.15-.08-.15-.22v-2.08c0-.14.05-.22.15-.22h5.66s.06-.05.09-.13.05-.14.06-.17c.02-.1-.02-.21-.12-.33s-.16-.21-.2-.28c-.05-.12-.1-.25-.14-.39s-.08-.28-.12-.41c-.43-1.24-.87-2.47-1.31-3.67s-.87-2.43-1.29-3.67l-.7-2.04c-.08-.22-.15-.44-.24-.65-.09-.22-.17-.44-.24-.67l-.35-1.15c-.05-.13-.01-.19.1-.19h1.56s.08.03.11.11.07.16.09.26c.02.1.04.21.06.3s.03.17.04.22h0v-.02Z"/>
            </g>
            <g>
              <path class="cls-2" d="M.1,32.79h5.77c.06,0,.1.05.09.14s-.03.16-.09.21c-.1.06-.23.1-.42.11-.19.01-.38.04-.57.08-.18.03-.36.1-.5.19s-.21.24-.21.44v14.96c0,.08-.01.12-.05.14-.03.02-.07.03-.1.03-.16.01-.32,0-.49-.04-.17-.04-.34-.08-.51-.13-.37-.13-.73-.25-1.1-.37-.36-.12-.72-.26-1.09-.43-.02-.01-.05-.03-.11-.05-.05-.02-.11-.05-.16-.08-.05-.03-.1-.07-.13-.11-.03-.04-.05-.09-.05-.13,0-.08,0-.15.01-.19,0-.04.04-.08.1-.11.16.01.3.03.4.04s.21.03.31.04.16.02.19.02c.14.03.26.03.36.02.1-.01.18-.16.23-.43.02-.17.03-.34.02-.5v-4.53c0-1.39,0-2.78.01-4.17s-.03-2.78-.12-4.17c-.01-.13-.09-.23-.25-.29-.16-.06-.34-.12-.55-.15-.21-.03-.41-.07-.61-.09-.2-.02-.34-.05-.4-.1-.05-.04-.08-.11-.08-.19,0-.1.03-.15.1-.15h0Z"/>
              <path class="cls-2" d="M8.71,32.79h5.77c.06,0,.1.05.09.14,0,.1-.03.16-.09.21-.1.06-.23.1-.42.11s-.38.04-.57.08c-.18.03-.36.1-.5.19-.14.1-.21.24-.21.44v14.96c0,.08-.01.12-.05.14-.03.02-.07.03-.1.03-.16.01-.32,0-.49-.04s-.34-.08-.51-.13c-.37-.13-.73-.25-1.1-.37-.36-.12-.72-.26-1.09-.43-.02-.01-.05-.03-.11-.05s-.11-.05-.16-.08-.1-.07-.13-.11-.05-.09-.05-.13c0-.08,0-.15.01-.19,0-.04.04-.08.1-.11.16.01.3.03.4.04s.21.03.31.04c.1.01.16.02.19.02.14.03.26.03.36.02s.18-.16.23-.43c.02-.17.03-.34.02-.5v-4.53c0-1.39,0-2.78.01-4.17s-.03-2.78-.12-4.17c-.01-.13-.09-.23-.25-.29-.16-.06-.34-.12-.55-.15-.21-.03-.41-.07-.61-.09s-.34-.05-.4-.1c-.05-.04-.08-.11-.08-.19,0-.1.03-.15.1-.15h0Z"/>
            </g>
            <g>
              <path class="cls-2" d="M18.01,10.39h5.77c.06,0,.1.05.09.14,0,.1-.03.16-.09.21-.1.06-.23.1-.42.11-.19.01-.38.04-.57.08-.18.03-.36.1-.5.19s-.21.24-.21.44v14.96c0,.08-.01.12-.05.14-.03.02-.07.03-.1.03-.16.01-.32,0-.49-.04s-.34-.08-.51-.13c-.37-.13-.73-.25-1.1-.37-.36-.12-.72-.26-1.09-.43-.02-.01-.05-.03-.11-.05-.05-.02-.11-.05-.16-.08s-.1-.07-.13-.11-.05-.09-.05-.13c0-.08,0-.15.01-.19s.04-.08.1-.11c.16.01.3.03.4.04s.21.03.31.04.16.02.19.02c.14.03.26.03.36.02s.18-.16.23-.43c.02-.17.03-.34.02-.5v-4.53c0-1.39,0-2.78.01-4.17s-.03-2.78-.12-4.17c-.01-.13-.09-.23-.25-.29-.16-.06-.34-.12-.55-.15-.21-.03-.41-.07-.61-.09s-.34-.05-.4-.1c-.05-.04-.08-.11-.08-.19,0-.1.03-.15.1-.15h0Z"/>
              <path class="cls-2" d="M26.61,10.39h5.77c.06,0,.1.05.09.14s-.03.16-.09.21c-.1.06-.23.1-.42.11-.19.01-.38.04-.57.08-.18.03-.36.1-.5.19s-.21.24-.21.44v14.96c0,.08-.01.12-.05.14-.03.02-.07.03-.1.03-.16.01-.32,0-.49-.04s-.34-.08-.51-.13c-.37-.13-.73-.25-1.1-.37-.36-.12-.72-.26-1.09-.43-.02-.01-.05-.03-.11-.05-.05-.02-.11-.05-.16-.08s-.1-.07-.13-.11-.05-.09-.05-.13c0-.08,0-.15.01-.19s.04-.08.1-.11c.16.01.3.03.4.04s.21.03.31.04.16.02.19.02c.14.03.26.03.36.02s.18-.16.23-.43c.02-.17.03-.34.02-.5v-4.53c0-1.39,0-2.78.01-4.17s-.03-2.78-.12-4.17c-.01-.13-.09-.23-.25-.29-.16-.06-.34-.12-.55-.15-.21-.03-.41-.07-.61-.09s-.34-.05-.4-.1c-.05-.04-.08-.11-.08-.19,0-.1.03-.15.1-.15h0Z"/>
            </g>
            <line class="cls-1" x1="13.06" y1="89.86" x2="20.13" y2="103.35"/>
            <line class="cls-1" x1="12.49" y1="21.41" x2="19.56" y2="34.9"/>
            <line class="cls-1" x1="16.6" y1="59.36" x2="16.6" y2="65.22"/>
            <g>
              <path class="cls-2" d="M27.24,116.13h.64v.05c-.43.03-.44.08-.44.38v2.52c0,.3.01.34.44.38v.05h-.64v-3.38h0Z"/>
              <path class="cls-2" d="M28.35,116.76h.94c.81,0,1.75.31,1.75,1.39,0,.36-.12.64-.33.84-.25.24-.64.32-1.14.32h-1.19v-.06c.34-.02.37-.09.37-.4v-1.62c0-.32-.03-.39-.4-.41v-.05ZM28.96,117.23h0v1.91c0,.08.02.08.03.08.03,0,.15,0,.36,0,.4,0,.66-.05.84-.12.38-.18.57-.6.57-1.07,0-.55-.34-1.19-1.33-1.19-.4,0-.47.06-.47.38h0Z"/>
              <path class="cls-2" d="M32.57,116.71h0l.35.18-.03.07s-.11-.05-.18-.05c-.08,0-.14.07-.14.23v.88c0,.36-.25.49-.45.49-.2-.05-.47-.21-.57-.28-.07-.03-.12-.08-.12-.14,0-.08.07-.14.12-.14s.08.04.09.07c.07.33.29.34.36.35.37,0,.37-.36.37-.55-.09-.05-.35-.16-.56-.22-.28-.08-.4-.22-.4-.4,0-.25.19-.47.47-.47.15,0,.34.14.49.27.03-.09.04-.14.09-.19.04-.04.13-.08.13-.08h0ZM32.35,117.1c-.09-.1-.27-.21-.41-.21-.14,0-.31.11-.31.32,0,.15.11.23.29.29.09.03.35.14.43.18,0,0,0-.59,0-.59Z"/>
              <path class="cls-2" d="M33.82,116.76h0l.25.13-.03.06s-.14-.08-.28-.08-.25.07-.25.4v1.06h.46s.04.05.04.08c0,.01,0,.03-.01.05h-.49v.51h-.05l-.14-.28v-.23h-.19l-.11-.08v-.05h.31v-1.17c0-.27.11-.44.34-.44.05,0,.09,0,.16.05h0Z"/>
              <path class="cls-2" d="M35.6,117.07h0l-.05.06c-.21-.2-.36-.23-.49-.23-.28,0-.65.22-.65.84.56.01,1.09.06,1.15.08s.07.03.07.11c0,.29-.25.57-.6.57-.33,0-.82-.37-.82-.97,0-.43.29-.81.78-.81.1,0,.37.08.62.36h0ZM34.44,117.88h0c.06.33.28.51.48.51.29,0,.47-.21.47-.43,0-.03,0-.07-.1-.07-.18,0-.75-.01-.84-.01h0Z"/>
              <path class="cls-2" d="M36.72,119.51h-.64v-.05c.43-.03.44-.08.44-.38v-2.52c0-.3-.01-.34-.44-.38v-.05h.64v3.38h0Z"/>
            </g>
            <g>
              <path class="cls-2" d="M5.83,75.78h.64v.05c-.43.03-.44.08-.44.38v2.52c0,.3.01.34.44.38v.05h-.64v-3.38h0Z"/>
              <path class="cls-2" d="M7.5,76.45h0v-.05h1.1v.05c-.42.02-.45.09-.45.4v2h.36c.35,0,.5-.05.6-.52h.07c-.02.26-.05.51-.03.7h-.07c-.05-.08-.09-.1-.19-.1h-1.64c-.05,0-.1,0-.13.01s-.06.03-.09.08h-.07c0-.23-.02-.47-.05-.71h.07c.12.43.18.52.71.52h.25v-2c0-.31-.03-.38-.44-.4h0Z"/>
              <path class="cls-2" d="M9.35,76.45h0v-.05h.81v.05c-.28.01-.32.08-.32.36v.91c.12.14.29.23.49.24.39,0,.5-.21.5-.59v-.56c0-.28-.03-.34-.31-.36v-.05h.8v.05c-.25.01-.29.08-.29.33v.68c0,.47-.23.67-.55.67-.24,0-.47-.14-.64-.31v1.39c-.11-.04-.31-.1-.5-.14v-.05c.28-.05.31-.07.31-.33v-1.91c0-.25-.04-.31-.29-.33h0Z"/>
              <path class="cls-2" d="M11.98,77.06h0v.53c0,.3,0,.45.01.53-.09-.02-.39-.07-.49-.08v-.04l.13-.03c.08-.03.14-.04.14-.29v-.75c0-.45.25-.58.49-.58.11,0,.19.02.31.09.14.08.24.16.35.24v-.31l.02-.02c.16.05.34.12.5.14v.05h-.12c-.16.02-.21.04-.21.25v1.33c-.1-.03-.38-.07-.55-.08v-.05l.16-.03c.14-.03.21-.04.21-.29v-.9c-.17-.17-.36-.25-.53-.25-.23,0-.42.11-.42.51h0v.02Z"/>
              <path class="cls-2" d="M13.99,76.35c.11,0,.18.08.18.18,0,.1-.08.18-.18.18s-.18-.08-.18-.18.07-.18.18-.18Z"/>
              <path class="cls-2" d="M15.44,79.15h-.64v-.05c.43-.03.44-.08.44-.38v-2.52c0-.3-.01-.34-.44-.38v-.05h.64v3.38h0Z"/>
            </g>
            <g>
              <path class="cls-2" d="M3.51,7.71h.64v.05c-.43.03-.44.08-.44.38v2.52c0,.3.01.34.44.38v.05h-.64v-3.38h0Z"/>
              <path class="cls-2" d="M4.71,10.88h0v-.05c.31-.03.38-.09.38-.38,0-.08,0-.16,0-.27l-.05-.75c-.03-.42-.06-.66-.09-.79-.03-.16-.12-.23-.37-.25v-.05h.98v.05c-.38.03-.42.14-.42.54,0,.11,0,.25.01.44l.05,1.1h0l1.01-2.09h.03l1.1,2.23h.01l.02-1.71c0-.42,0-.48-.37-.51v-.05h1v.05c-.38.03-.4.08-.41.51l-.03,1.45c-.01.41.02.45.4.49v.05h-.59l-1.08-2.16-1.07,2.16h-.53Z"/>
              <path class="cls-2" d="M10.1,9.21h0c0,.47-.39.86-.9.86-.34,0-.9-.27-.9-.94,0-.44.37-.85.9-.85.39,0,.9.31.9.92h0ZM9.16,9.97c.45,0,.69-.43.69-.83,0-.55-.25-.77-.59-.77-.43,0-.7.37-.7.89,0,.41.23.7.6.7h0Z"/>
              <path class="cls-2" d="M10.39,8.38h0v-.05h.82v.05c-.28.02-.32.08-.32.34v.92c.13.13.34.25.53.25.38,0,.44-.26.44-.49v-.67c0-.27-.05-.33-.33-.34v-.05h.79v.05c-.23.02-.27.06-.27.34v.81c0,.32-.19.53-.53.53-.12,0-.22-.04-.33-.12-.13-.08-.23-.16-.31-.21v.34c-.13-.1-.29-.13-.45-.17v-.05c.23-.05.25-.06.25-.34v-.82c0-.25-.07-.3-.3-.32h0Z"/>
              <path class="cls-2" d="M12.91,8.28c.11,0,.18.08.18.18,0,.1-.08.18-.18.18s-.18-.08-.18-.18.07-.18.18-.18Z"/>
              <path class="cls-2" d="M14.36,11.08h-.64v-.05c.43-.03.44-.08.44-.38v-2.52c0-.3-.01-.34-.44-.38v-.05h.64v3.38h0Z"/>
            </g>
            <g>
              <path class="cls-2" d="M21.97,69.83h0v-.05h1.08v.05c-.4.03-.44.08-.44.36v2.07c-.14-.08-.35-.16-.62-.2v-.06l.18-.02c.21-.02.23-.05.23-.23v-1.57c0-.27-.03-.31-.43-.36h0Z"/>
              <path class="cls-2" d="M23.87,69.83h0v-.05h1.08v.05c-.4.03-.44.08-.44.36v2.07c-.14-.08-.35-.16-.62-.2v-.06l.18-.02c.21-.02.23-.05.23-.23v-1.57c0-.27-.03-.31-.43-.36h0Z"/>
              <path class="cls-2" d="M25.8,71.45c-.11,0-.19-.08-.19-.18,0-.12.08-.18.19-.18s.2.08.2.18c0,.09-.08.18-.2.18ZM25.8,69.72c.12,0,.2.08.2.18,0,.1-.09.18-.2.18s-.19-.08-.19-.18.07-.18.19-.18Z"/>
              <path class="cls-2" d="M27.22,72.25c-.6,0-.84-.69-.84-1.26s.25-1.27.84-1.27.83.7.83,1.27-.23,1.26-.83,1.26ZM27.22,72.16c.45,0,.57-.62.57-1.17s-.1-1.17-.57-1.17-.59.6-.59,1.17.12,1.17.59,1.17h0Z"/>
              <path class="cls-2" d="M29.12,72.25c-.6,0-.84-.69-.84-1.26s.25-1.27.84-1.27.83.7.83,1.27-.23,1.26-.83,1.26ZM29.13,72.16c.45,0,.57-.62.57-1.17s-.1-1.17-.57-1.17-.59.6-.59,1.17.12,1.17.59,1.17h0Z"/>
              <path class="cls-2" d="M32.72,69.83h0v-.05h1v.05c-.3.04-.34.09-.47.39-.16.39-.36.9-.56,1.42l-.29.76-.05-.02-.94-2.08c-.16-.37-.22-.4-.52-.46v-.05h.99v.05c-.25.03-.36.06-.36.2s.22.68.26.76h1.01c.16-.38.29-.69.29-.8,0-.1-.09-.12-.34-.16h0ZM32.31,72.01l.42-1.09h-.92c.14.34.31.73.49,1.09h.01,0Z"/>
              <path class="cls-2" d="M33.92,72.33h0v-.05c.33-.03.4-.09.4-.38,0-.08,0-.16,0-.27l-.06-.75c-.03-.42-.07-.67-.1-.79-.03-.16-.13-.23-.4-.25v-.05h1.05v.05c-.4.03-.45.14-.45.54,0,.11,0,.25.02.44l.05,1.1h0l1.07-2.09h.04l1.18,2.24h.02l.02-1.72c0-.42,0-.48-.39-.51v-.05h1.07v.05c-.41.03-.42.09-.44.51l-.03,1.45c-.02.4.02.45.42.49v.05h-.63l-1.16-2.17-1.16,2.17h-.56Z"/>
            </g>
            <g>
              <path class="cls-2" d="M23.55,1.98h.07c.1.28.12.31.42.31h.93c-.35-.76-.76-1.51-1.26-2.24l.03-.03.26.03c.38.8.75,1.61,1.18,2.4l-.03.05h-1.55c-.02-.17-.03-.34-.06-.51h0Z"/>
              <path class="cls-2" d="M25.74,1.72c-.11,0-.19-.08-.19-.18,0-.12.08-.18.19-.18s.2.08.2.18c0,.09-.08.18-.2.18ZM25.75,0c.12,0,.2.08.2.18,0,.1-.09.18-.2.18s-.19-.08-.19-.18.07-.18.19-.18Z"/>
              <path class="cls-2" d="M27.16,2.53c-.6,0-.84-.69-.84-1.26s.25-1.27.84-1.27.83.7.83,1.27-.23,1.26-.83,1.26h0ZM27.16,2.43c.45,0,.57-.62.57-1.17s-.1-1.17-.57-1.17-.59.6-.59,1.17.12,1.17.59,1.17h0Z"/>
              <path class="cls-2" d="M29.07,2.53c-.6,0-.84-.69-.84-1.26s.25-1.27.84-1.27.83.7.83,1.27-.23,1.26-.83,1.26h0ZM29.07,2.43c.45,0,.57-.62.57-1.17s-.1-1.17-.57-1.17-.59.6-.59,1.17.12,1.17.59,1.17h0Z"/>
              <path class="cls-2" d="M30.92.05h1.12v.05c-.44.03-.47.08-.47.4v.68l.35-.09c.41-.04,1.02.21,1.02.8,0,.68-.68.71-.95.71h-1.03v-.06c.38-.02.38-.08.38-.4V.51c0-.32-.03-.4-.41-.41v-.05h0ZM31.57,1.27h0v1.14c0,.09.01.1.04.1.04,0,.1,0,.23,0,.53,0,.81-.21.81-.65,0-.47-.32-.66-.7-.66-.21,0-.32.04-.37.06h0Z"/>
              <path class="cls-2" d="M33.26,2.61h0v-.05c.33-.03.4-.09.4-.38,0-.08,0-.16,0-.27l-.06-.75c-.03-.42-.07-.67-.1-.79-.03-.16-.13-.23-.4-.25v-.05h1.05v.05c-.4.03-.45.14-.45.54,0,.11,0,.25.02.44l.05,1.1h0l1.07-2.09h.04l1.18,2.24h.02l.02-1.72c0-.42,0-.48-.39-.51v-.05h1.07v.05c-.41.03-.42.09-.44.51l-.03,1.45c-.02.4.02.45.42.49v.05h-.63l-1.16-2.17-1.16,2.17h-.56Z"/>
            </g>
          </g>
        </g>
        <g id="_图层_1-2-2">
          <g>
            <path class="cls-2" d="M68.63,109.38h-1.26v.6h2.43c.05,0,.08.02.08.05s-.03.07-.15.16c-.28.22-.32.24-.36.24-.03,0-.08-.03-.34-.31h-1.66v.42c.15.06.18.1.18.14,0,.08-.05.1-.64.17.03-.16.04-.28.04-.68v-.05h-1.87c-.17,0-.31.01-.5.05l.06-.22c.16.02.29.03.44.03h1.87v-.6h-1.14c-.19.1-.28.14-.49.22.04-.27.04-.52.04-.94,0-.83-.03-1.06-.03-1.2,0-.1.05-.14.18-.14.18,0,.25.06.25.18v.09h.93c-.55-.74-1.35-1.31-2.23-1.69-.03-.01,0-.1.03-.09,1.06.31,1.8.72,2.48,1.48-.03-.66-.05-1.37-.05-1.54,0-.11.05-.15.19-.15.18,0,.28.05.28.18,0,.18-.03,1.06-.05,1.75.31-.47.64-.81.97-1.05.29-.22.64-.41.97-.55.12-.05.24-.08.29-.08.04,0,.08.03.12.14.05.14.14.22.29.26.03,0,.03.06,0,.06-.43.03-.9.16-1.34.37-.48.23-.88.51-1.2.92h1.22v-.1c0-.12.04-.16.18-.16.18,0,.26.05.26.18,0,.11-.03.45-.03,1.18v.42c.13.08.14.1.14.14,0,.03-.01.08-.1.14-.17.14-.21.16-.26.16s-.07-.03-.24-.18h0ZM66.95,109.23v-.66h-1.2v.66h1.2ZM66.95,108.42v-.7h-1.2v.7h1.2ZM67.37,109.23h1.3v-.66h-1.3v.66ZM67.37,108.43h1.3v-.7h-1.3v.7Z"/>
            <path class="cls-2" d="M64.6,100.44h0s.02-.1.05-.08c.71.31,1.1.63,1.53,1.14.19,0,.25.03.25.09s-.14.14-.55.32c-.05-.12-.1-.24-.18-.37-.25-.37-.66-.8-1.1-1.11h0ZM69.01,104.45h-1.59v.51c.16.07.2.11.2.14,0,.07-.08.12-.67.18.03-.21.03-.29.03-.4v-.43h-1.87c-.16,0-.29.01-.48.04l.06-.22c.16.02.27.03.42.03h4.7c.05,0,.08.02.08.05s-.03.07-.15.17c-.28.23-.32.25-.36.25-.03,0-.08-.03-.37-.34h0ZM67.43,101.61h0v.74h1.04v-.12c0-.13.04-.18.18-.18.16,0,.25.06.25.18,0,.08-.02.34-.02.9v.27c.14.08.16.11.16.16,0,.03-.03.07-.12.14-.19.15-.23.18-.27.18-.03,0-.06-.02-.25-.21h-2.43c-.2.12-.29.15-.51.23.03-.23.03-.39.03-.7,0-.66-.03-.83-.03-.95s.05-.16.19-.16c.18,0,.25.06.25.21v.06h1.05v-1.69c0-.06-.03-.09-.09-.09-.19,0-.44.01-.78.05-.03,0-.03-.07,0-.08.46-.1.62-.18.64-.36.01-.11.03-.12.11-.12.1,0,.24.04.34.09.15.08.23.17.23.39,0,.14-.01.35-.01,1.06h0ZM68.47,102.5h-2.52v1.03h2.52v-1.03ZM68.88,100.83h0c.18-.36.22-.4.35-.4s.22.11.22.27c0,.36-.52.83-1.35,1.17-.03.01-.08-.05-.05-.08.39-.31.65-.62.83-.96h0Z"/>
            <path class="cls-2" d="M67.37,97.98h2.41c.05,0,.08.02.08.05s-.03.08-.16.18c-.29.23-.35.27-.39.27-.03,0-.08-.03-.36-.37h-1.66c.02.18.03.36.04.56s.02.4.02.63c.16.07.2.1.2.15,0,.08-.1.12-.69.2.02-.17.03-.27.03-.41,0-.42-.02-.8-.05-1.13h-1.67c-.18,0-.34.01-.55.04l.06-.22c.19.02.31.03.49.03h1.66c-.08-.65-.23-1.12-.44-1.52-.39-.72-.95-1.29-1.85-1.75-.03-.01,0-.1.04-.08.89.3,1.48.72,1.95,1.3.39.49.62,1.07.75,1.95.15-.87.44-1.54.83-2.04.27-.35.68-.75,1.1-1.01.16-.1.25-.15.31-.15.03,0,.07.03.09.09.08.18.14.26.31.31.03.01.04.05.01.06-.53.19-1.07.48-1.48.9-.53.51-.87,1.11-1.06,1.94h0,0Z"/>
            <path class="cls-2" d="M68.06,92.29h-1.96c-.17,0-.27.02-.45.05l.06-.22c.14.03.25.04.4.04h1.94c-.19-.24-.38-.42-.67-.66-.1.02-.23.04-.43.07.02-.17.02-.23.02-.52h-1.92c-.15,0-.27.01-.44.04l.06-.22c.15.03.26.03.39.03h1.91v-1.26c0-.07-.03-.1-.1-.1-.17,0-.42.02-.81.05-.03,0-.04-.07,0-.08.52-.11.65-.19.67-.36.02-.1.03-.12.12-.12.18,0,.32.05.42.14s.16.18.16.36-.01.32-.02.9v.46h2.39c.05,0,.08.02.08.05s-.03.07-.16.18c-.29.22-.33.25-.37.25-.03,0-.08-.03-.35-.35h-1.59v.21c.15.06.18.1.18.14,0,.03,0,.05-.03.05.33.17.57.32.92.59.2.02.26.04.26.1,0,.03-.03.07-.11.15-.22.18-.25.21-.29.21-.03,0-.07-.02-.26-.2h-.01ZM65.35,92.88h3.84c-.05-.22-.12-.38-.22-.56,0-.02.03-.05.05-.04.19.12.36.25.48.38.04.04.06.05.13.05.18,0,.23.03.23.12,0,.03-.03.08-.14.18-.24.22-.27.25-.31.25s-.08-.03-.27-.23h-.96c.26.21.53.46.75.71.2,0,.25.03.25.1,0,.05-.1.14-.57.33-.04-.14-.1-.3-.18-.47-.12-.23-.26-.46-.41-.67h-2.67c0,.08-.02.16-.03.25,0,.03-.06.03-.06,0-.04-.36-.14-.54-.42-.69-.14-.08-.18-.14-.18-.24,0-.13.1-.23.24-.23.26,0,.47.29.47.77h0ZM65.87,93.41h0c.05-.22.1-.27.23-.27.14,0,.24.12.24.25,0,.27-.27.53-.75.68-.03,0-.05-.03-.03-.05.14-.16.25-.38.31-.62h0ZM67.1,93.48h0c.04-.22.08-.27.21-.27.14,0,.25.11.25.26,0,.27-.27.55-.75.72-.03.01-.06-.03-.04-.05.16-.18.28-.42.34-.66h0Z"/>
            <path class="cls-2" d="M67.06,85.95h.01-.67v.69h1.46c.05,0,.08.02.08.05s-.03.08-.14.16c-.26.21-.29.24-.34.24-.03,0-.08-.03-.31-.31h-.75v.77h1.2s.08.01.08.05-.03.08-.14.16c-.23.19-.27.22-.31.22s-.08-.03-.3-.29h-.53v.68c.16.06.2.1.2.14,0,.08-.08.11-.63.17.02-.17.03-.38.03-1h-.61c.08.13.14.27.2.4.15.04.21.07.21.13s-.06.08-.56.21c-.02-.16-.05-.36-.12-.55-.1-.32-.27-.66-.46-.91-.02-.03.03-.08.06-.05.25.19.43.39.59.62h.7v-.77h-1.04c-.16,0-.26.01-.42.04l.06-.21c.14.02.24.03.37.03h1.03v-.69h-.66c-.18.11-.27.15-.46.23.02-.21.02-.4.02-.82,0-.73-.02-.96-.02-1.13,0-.1.04-.14.17-.14.17,0,.25.06.25.18v1.55h.71c0-1.37-.03-1.95-.03-2.15,0-.13.05-.18.2-.18.17,0,.25.07.25.2,0,.22,0,.83-.01,2.13h.71v-1.2c0-.05-.03-.08-.09-.08-.08,0-.21,0-.44.03-.03,0-.03-.06,0-.07.32-.08.37-.12.39-.3.01-.06.03-.09.1-.09.11,0,.24.05.31.12.08.06.13.14.13.29,0,.12-.01.27-.01.88v.3c.13.09.15.12.15.16,0,.03-.03.07-.1.14-.18.14-.21.16-.25.16-.03,0-.06-.01-.24-.18h0ZM68.53,87.12h0v.79c.15.05.18.1.18.14,0,.08-.08.11-.62.16.03-.31.03-.56.03-1.52,0-1.16-.03-1.6-.03-1.72s.05-.16.18-.16c.18,0,.26.06.26.18,0,.18-.03.81-.03,2.11h.01ZM69.59,86.32v1.98c.14.06.18.1.18.15,0,.08-.05.1-.63.16.03-.21.04-.31.04-.96v-3.52c0-.07-.03-.1-.1-.1-.18,0-.46.02-.79.05-.03,0-.04-.07,0-.08.51-.1.63-.18.66-.35.03-.1.05-.12.14-.12.11,0,.25.04.34.1.14.08.2.17.2.4s-.03.67-.03,2.28h-.01Z"/>
            <path class="cls-2" d="M65.7,78.15h0v2.97c.14.06.17.1.17.14,0,.06-.05.08-.34.13.29.4.52.85.72,1.38.16.03.22.05.22.12,0,.07-.21.16-.65.28-.02-.18-.05-.36-.12-.55-.22-.74-.71-1.61-1.24-2.2-.03-.03.03-.09.07-.06.29.23.54.47.75.72v-1.11c-.01-1.33-.03-1.74-.03-1.85s.08-.16.2-.16c.16,0,.25.07.25.2h0ZM69.01,82.12h-1.72c.1.21.19.42.28.66.17.02.25.05.25.12,0,.07-.18.14-.66.27-.02-.14-.05-.28-.09-.42-.2-.76-.62-1.58-1.08-2.15-.03-.03.04-.09.08-.06.5.42.86.88,1.16,1.44h.25v-2.43c0-.92-.03-1.29-.03-1.4,0-.13.05-.18.2-.18.2,0,.28.06.28.21,0,.2-.01.76-.02,1.5h1.68c.05,0,.08.02.08.05s-.03.08-.13.16c-.24.19-.28.22-.32.22-.03,0-.08-.03-.31-.29h-.99v1.05h1.67c.05,0,.08.02.08.05s-.03.08-.14.16c-.23.18-.28.21-.31.21s-.08-.03-.31-.29h-.98v.96h1.85c.05,0,.08.02.08.06,0,.03-.03.07-.14.17-.26.21-.3.23-.34.23-.03,0-.08-.03-.34-.32h0Z"/>
            <path class="cls-2" d="M67.43,74.35h2.3c.05,0,.08.02.08.05s-.03.08-.14.16c-.27.22-.29.25-.34.25-.03,0-.08-.03-.33-.31h-.75v.85h1.16s.08.02.08.05-.03.08-.13.15c-.24.19-.27.22-.31.22-.03,0-.08-.03-.31-.29h-.5v.3c.15.06.18.11.18.14,0,.06-.06.1-.62.16.03-.19.03-.34.03-.53v-.08h-.94v.31c.14.05.18.11.18.14,0,.06-.06.1-.62.16.02-.19.03-.35.03-.53v-.08h-.44c-.15,0-.27,0-.44.03l.06-.22c.16.03.25.04.38.04h.44v-.85h-1.1c.08.59.12,1.19.12,1.78h3.45v-.03c0-.14.03-.18.17-.18.16,0,.26.05.26.15,0,.11-.01.24-.01.64v.18c.14.09.16.12.16.17,0,.03-.03.06-.12.14-.18.16-.22.18-.26.18-.03,0-.06-.02-.25-.22h-3.34c-.14.08-.29.14-.54.25.03-.29.03-.47.03-1.16,0-.96-.03-1.6-.1-2.14-.1-.68-.25-1.18-.51-1.74-.02-.03.05-.08.08-.04.42.53.63,1.01.77,1.63.02.08.03.16.05.25h.81v-1.35c-.16,0-.32-.02-.49-.03h-.27c.14-.57.14-.59.21-.59.05,0,.1.05.14.18.9.18,1.34.32,2.06.62.03.01.01.08-.03.08-.4-.09-.81-.16-1.22-.21v1.31h.68c.27-.59.56-.98.89-1.26.29-.25.67-.47,1.07-.59.14-.04.23-.06.28-.06.05,0,.09.03.11.13.05.18.11.23.27.27.03,0,.03.05,0,.05-.56.05-1.09.19-1.5.43-.1.06-.19.12-.28.18.29.1.51.2.79.37.19-.03.26.01.26.05,0,.06-.14.16-.46.35-.03-.08-.09-.15-.18-.25-.12-.14-.3-.29-.51-.44-.25.21-.44.48-.59.76h0v.04ZM68.99,76.42h-3.45v.75h3.45v-.75ZM67.86,75.35v-.85h-.94v.85h.94Z"/>
            <path class="cls-2" d="M67.33,67.97h-.96c.18.28.36.53.96,1.11.55.53,1.03.8,1.03,1.51,0,.55-.42.99-1.13.99s-1.18-.59-1.18-.95c0-.16.1-.21.22-.21.19,0,.4.1.4.25,0,.18.02.32.06.41.08.17.23.31.51.31.36,0,.56-.34.56-.79,0-.52-.27-.83-.75-1.42s-.69-.9-1.03-1.43c-.03-.05-.04-.05-.04-.14s.01-.1.07-.1c.38.02.71.02,1.09.02s.7,0,1.08-.02c.1.29.22.7.29.99,0,.03,0,.05-.06.07-.05.02-.08.01-.09-.03-.09-.18-.17-.32-.31-.44-.11-.09-.22-.12-.7-.12h-.02Z"/>
            <path class="cls-2" d="M67.24,66.05c-.75,0-1.21-.82-1.21-2.11s.46-2.06,1.21-2.06,1.2.81,1.2,2.09-.45,2.07-1.2,2.07ZM67.24,65.87c.5,0,.62-.75.62-1.91s-.12-1.9-.62-1.9-.64.74-.64,1.9.14,1.91.64,1.91Z"/>
            <path class="cls-2" d="M67.33,56.91h-.96c.18.28.36.53.96,1.11.55.53,1.03.8,1.03,1.51,0,.55-.42.99-1.13.99s-1.18-.59-1.18-.95c0-.16.1-.21.22-.21.19,0,.4.1.4.25,0,.18.02.32.06.4.08.17.23.31.51.31.36,0,.56-.34.56-.79,0-.52-.27-.83-.75-1.42s-.69-.9-1.03-1.43c-.03-.05-.04-.05-.04-.14s.01-.1.07-.1c.38.02.71.02,1.09.02s.7,0,1.08-.02c.1.29.22.7.29.99,0,.03,0,.05-.06.07-.05.02-.08.01-.09-.03-.09-.18-.17-.32-.31-.44-.11-.09-.22-.12-.7-.12h-.02Z"/>
            <path class="cls-2" d="M67.95,51.76h0v.25c.17,0,.37,0,.54-.01.03,0,.05,0,.05.03l.05.18s0,.04-.03.04c-.21-.01-.4-.03-.6-.03v1.31c.03.52.03.98.04,1.43,0,.05-.02.05-.04.05l-.39-.1c-.58-.91-1.02-1.61-1.58-2.54q-.06-.1-.06-.23c0-.13.01-.14.07-.14h1.46v-.25c0-.3-.01-.45-.08-.57-.04-.09-.24-.1-.39-.12-.04,0-.06-.01-.06-.08s.01-.08.06-.08c.21,0,.51.03.72.03s.49-.01.7-.03c.03,0,.05,0,.05.08s-.02.08-.05.08c-.19.02-.38.03-.43.14-.06.14-.05.2-.05.56h0ZM67.46,53.43h0v-1.21h-1.24c-.08,0-.08.03-.05.08.41.72.87,1.45,1.31,2.15-.02-.38-.03-.61-.03-1.03h0Z"/>
            <path class="cls-2" d="M61,86.97h-.46l-.05-.15c-.05.17-.21.22-.36.22-.79,0-1.48-.99-1.48-1.74,0-.44.21-.62.62-.62.25,0,.47.13.68.44-.08-.37.19-.44.5-.44.96,0,1.48.88,1.48,1.5,0,1.07-.81,1.78-2.02,1.78s-2.36-.9-2.36-2.27c0-1.2.83-1.98,2.13-1.98.7,0,1.1.19,1.56.52.03.01.03.04,0,.08-.04.04-.09.03-.11.02-.39-.27-.85-.42-1.41-.42-.95,0-1.78.59-1.78,1.79s.86,2.08,1.97,2.08,1.66-.74,1.66-1.61c0-.79-.53-1.33-1.03-1.33-.16,0-.22.05-.22.17,0,.11.06.28.14.49.1.36.4,1.16.52,1.48h.01ZM59.14,85.2h0c0,.58.44,1.69,1.03,1.69.12,0,.18-.07.18-.25,0-.15-.05-.38-.17-.73-.31-.94-.67-1.07-.82-1.07s-.22.12-.22.37h0Z"/>
            <path class="cls-2" d="M59.47,79.07h-.78c-.15,0-.27,0-.45.04l.06-.22c.17.02.28.03.42.03h.75c-.01-.68-.03-1.05-.03-1.14,0-.12.05-.16.2-.16.18,0,.29.06.29.19s0,.46-.02,1.11h1.16c.05,0,.08.01.08.05s-.03.08-.14.16c-.25.2-.28.23-.32.23s-.08-.03-.3-.29h-.49c-.01.75-.03,1.52-.04,2.27.26-.67.53-1.11.82-1.49.32-.4.76-.78,1.18-1.05.12-.08.21-.11.25-.11.04,0,.06.03.09.08.08.21.16.28.32.31.03,0,.03.05,0,.05-.55.18-1.15.5-1.59.93-.36.34-.7.77-.98,1.37h2.28c.05,0,.08.02.08.05s-.03.07-.16.17c-.28.23-.33.25-.36.25s-.08-.03-.33-.34h-1.57v.94c.16.08.19.12.19.16,0,.08-.11.12-.66.16.03-.21.03-.4.03-1.05v-.21h-1.74c-.18,0-.3,0-.51.04l.06-.22c.18.02.3.03.46.03h1.5c-.42-1.04-1.28-2.1-2.23-2.74-.03-.03.03-.09.06-.08.99.48,1.85,1.33,2.43,2.35,0-.64-.02-1.28-.03-1.91h0v.03Z"/>
            <path class="cls-2" d="M58.25,74.34h0c-.23-.03-.47-.08-.7-.1.42.44.72.88,1.04,1.44.17.01.21.04.21.09,0,.05-.14.16-.53.31-.03-.13-.1-.31-.18-.5-.18-.44-.47-.94-.74-1.35-.06,0-.11,0-.16-.01h-.21c.1-.42.16-.55.22-.55.05,0,.08.04.11.18.38.12.66.21.89.34-.21-.75-.62-1.39-1.23-1.92-.03-.03.02-.1.05-.08.96.57,1.42,1.25,1.68,2.3.14.03.16.06.16.12,0,.06-.03.09-.55.24-.01-.16-.03-.33-.08-.5h0ZM57.84,75.49h0c0,.14-.08.29-.22.42.28.29.49.6.7.98.17,0,.22.04.22.1s-.14.14-.57.27c0-.1-.04-.25-.1-.43-.08-.24-.2-.52-.36-.82-.11.09-.25.16-.42.23-.03.01-.05-.03-.03-.05.19-.19.32-.41.39-.68.05-.23.08-.26.2-.26s.21.11.21.25h0ZM59.29,73.12h0v1.52h.76v-.1c0-.13.04-.16.16-.16.17,0,.24.06.24.18s-.03.53-.03,1.47v.62c.12.08.14.1.14.14s-.02.08-.1.14c-.15.12-.18.14-.23.14s-.07-.02-.22-.17h-.7c-.17.1-.25.14-.46.22.03-.5.03-1.07.03-1.81v-2.28c-.05,0-.11-.01-.16-.03-.11-.01-.21-.02-.34-.03.16-.53.18-.56.23-.56.06,0,.09.05.12.19.5.18.92.38,1.33.61,0-.03.01-.06.02-.1.05-.29.1-.36.23-.36s.21.11.21.27c0,.36-.31.8-.76,1.1-.03.02-.08-.02-.06-.05.14-.21.27-.45.34-.75-.25-.08-.51-.16-.78-.22h0ZM60.05,75.87h-.76v.9h.76v-.9ZM59.29,75.73h.76v-.94h-.76v.94ZM61.2,73.55h0v3.24h.69c-.12-.64-.25-1.17-.44-1.61.38-.42.53-.88.53-1.34,0-.21-.02-.32-.08-.37-.03-.03-.08-.05-.14-.05-.12,0-.25,0-.46.03-.03,0-.03-.07,0-.08.32-.09.38-.15.4-.32.01-.08.04-.1.09-.1.15,0,.3.08.39.18.12.13.18.34.18.61,0,.54-.23,1.01-.79,1.46.27.42.54.94.72,1.46.12.03.16.05.16.11,0,.04-.03.08-.11.18-.16.16-.21.2-.26.2-.03,0-.06-.03-.23-.21h-.62c-.18.1-.26.14-.46.22.03-.21.03-1.01.03-2.31s-.02-2.26-.02-2.59c0-.1.05-.15.17-.15.16,0,.25.06.25.18,0,.12-.01.44-.01,1.27h0Z"/>
            <path class="cls-2" d="M60.89,69.51h0c-.29-.06-.55-.12-.92-.2-.05.29-.1.55-.15.83.4.09.72.16,1.02.23.14.03.24.05.34.06.07.01.1.05.1.13,0,.05-.05.12-.14.14-.09.03-.21.04-.31.04-.07,0-.16-.03-.22-.08-.05-.05-.1-.07-.14-.08-.22-.06-.46-.13-.71-.18-.05.27-.08.46-.09.6,0,.08.02.13.04.15.03.03.05.08.05.12,0,.08-.07.14-.21.2-.16.06-.29.08-.45.08-.09,0-.17-.03-.23-.07-.03-.02-.08-.06-.08-.1,0-.03.02-.05.06-.05.14,0,.25-.02.29-.05.04-.04.07-.09.09-.16.05-.21.1-.44.18-.82-.25-.06-.51-.12-.71-.15-.14-.03-.25-.05-.34-.05-.15,0-.26.05-.39.13-.03.02-.05.03-.08.03-.03,0-.05-.03-.05-.08,0-.06.06-.14.21-.27.13-.12.25-.18.34-.18.06,0,.1.01.14.05.06.04.18.05.31.09.18.05.38.1.62.16.05-.28.1-.55.15-.83-.42-.1-.82-.19-1.17-.28-.16-.04-.29-.07-.38-.07s-.18.03-.33.11c-.03.01-.07.04-.09.04-.03,0-.04-.03-.04-.07,0-.05.03-.11.07-.16.15-.17.4-.31.53-.31.08,0,.12.02.18.08.03.03.1.07.27.12.3.1.62.18.99.26.08-.49.2-1.15.26-1.61.03-.17.09-.25.21-.24.12,0,.22.08.22.18,0,.08-.03.2-.05.29-.09.4-.2.94-.29,1.45.56.12.86.16,1.13.19.16.02.31.02.4.02.15,0,.22.05.22.16,0,.07-.05.13-.14.17-.08.04-.21.06-.33.07-.1,0-.17-.01-.23-.05-.04-.03-.1-.07-.18-.08h0Z"/>
            <path class="cls-2" d="M61.39,65.66h0c-.31-.08-.7-.2-1.14-.32-.03.18-.07.31-.09.46-.01.05-.01.1-.01.12s.01.05.03.08.03.06.03.1c0,.05-.03.1-.21.18-.11.05-.23.1-.34.1-.08,0-.13-.02-.2-.07s-.1-.09-.1-.12.02-.04.06-.04h.14c.05,0,.1-.02.12-.05.03-.05.05-.12.09-.22.05-.17.1-.36.16-.61-.29-.08-.57-.15-.83-.22-.14-.03-.23-.04-.3-.04-.09,0-.16.05-.26.14-.03.03-.04.04-.06.04s-.04-.04-.04-.08c0-.12.05-.21.19-.34.14-.14.2-.16.27-.16.05,0,.1.03.13.05.03.03.08.05.17.1.21.08.46.16.79.27.03-.13.06-.27.1-.44.1-.44.21-.94.32-1.44.02-.12.1-.14.21-.14.09,0,.16.08.16.15s-.03.16-.05.27c-.1.39-.21.79-.32,1.21-.04.18-.08.32-.12.48.4.12.92.27,1.24.36.03,0,.05-.01.03-.04-.27-.38-.49-.63-.72-.88-.03-.03-.05-.06-.05-.09s.03-.05.06-.05.05.01.1.04c.32.23.67.55.92.79.05.04.09.06.15.07.1.01.14.05.14.12s-.04.13-.18.23c-.18.13-.25.16-.31.16-.05,0-.08-.02-.14-.07-.04-.04-.08-.08-.16-.1h.03Z"/>
            <path class="cls-2" d="M58.18,62.23h0c-.06.01-.1.01-.12.01-.03,0-.06-.03-.06-.05s.02-.05.05-.07c.14-.09.3-.21.42-.36.12-.14.18-.27.25-.38.08-.14.12-.19.25-.19s.22.1.22.25c0,.21-.09.36-.35.52-.17.11-.4.21-.65.26h0ZM61.93,62.02h0s-.05.08-.09.08c-.02,0-.05-.02-.08-.05-.37-.46-.87-.92-1.4-1.37-.51-.42-1.05-.81-1.56-1.09-.12-.08-.22-.1-.27-.1-.1,0-.16.06-.28.2-.04.05-.05.06-.08.06-.04,0-.06-.05-.06-.14,0-.13.07-.27.25-.46.13-.12.24-.22.38-.22.08,0,.14.04.18.12.03.03.08.08.14.13.55.4,1.05.78,1.53,1.23.51.47.96.98,1.3,1.52.03.04.04.08.04.1h0Z"/>
            <path class="cls-2" d="M58.69,57.33h0c.14-.1.19-.16.19-.22,0-.08-.05-.16-.16-.3-.16-.19-.36-.4-.58-.62-.28-.25-.6-.49-.96-.72-.05-.03-.09-.05-.09-.09,0-.05.03-.08.08-.08.03,0,.08.01.14.05.37.14.72.36,1.05.59.3.21.55.43.79.67.07.06.11.1.16.12.1.03.14.08.14.17,0,.14-.16.3-.34.42-.14.1-.26.14-.34.14-.07,0-.14-.03-.14-.07,0-.03,0-.03.07-.08h0ZM61.66,55.86c.18,0,.25.1.25.29,0,.23-.27.58-.53.8-.29.25-.61.44-.94.58-.08.03-.12.05-.16.05-.03,0-.07-.02-.07-.07,0-.03.03-.06.1-.11.22-.15.42-.33.6-.53.19-.23.34-.46.5-.8.07-.14.14-.22.26-.22h0ZM61.63,58.7c-.29,0-.53-.23-.53-.51s.24-.51.53-.51.53.23.53.51-.24.51-.53.51ZM61.63,58.52c.19,0,.34-.14.34-.34s-.15-.34-.34-.34-.34.15-.34.34.15.34.34.34Z"/>
            <path class="cls-2" d="M61.41,51.52h0c-.35.32-.85.58-1.39.8.3.35.59.75.75.99.07.11.16.18.25.21.12.05.14.07.14.12,0,.07-.04.14-.21.27-.12.11-.18.14-.27.14-.06,0-.1-.03-.14-.06-.05-.04-.1-.08-.2-.08-.43-.05-.92-.1-1.37-.14-.17-.01-.37-.03-.46-.03-.13,0-.23.08-.39.22-.03.03-.08.07-.1.07-.03,0-.06-.06-.06-.12,0-.1.05-.18.16-.32.12-.16.27-.26.36-.26.08,0,.12.03.17.05.05.03.12.05.24.08.59.12,1.26.2,1.53.22.03,0,.05,0,.05-.01s0-.03-.03-.05c-.35-.58-.67-1.01-1.1-1.44-.58-.6-1.2-1.01-1.89-1.39-.03-.02-.06-.05-.06-.08s.03-.07.06-.07c.04,0,.1.01.16.04.34.12.75.32,1.14.57.41.26.79.58,1.14.96.57-.33,1-.72,1.39-1.26.09-.13.17-.18.25-.18.14,0,.24.09.24.24s-.16.34-.36.53h0Z"/>
          </g>
        </g>
      </g>
    </g>
  </g>
</svg>