<?xml version="1.0" encoding="UTF-8"?>
<svg id="Layer_2" xmlns="http://www.w3.org/2000/svg" viewBox="0 0 50 85.41">
  <defs>
    <style>
      .cls-1 {
        fill: none;
        stroke: #c9cac9;
        stroke-miterlimit: 10;
        stroke-width: .37px;
      }

      .cls-2 {
        fill: #f0efef;
      }
    </style>
  </defs>
  <g id="Layer_2-2" data-name="Layer_2">
    <g id="Layer_2-2">
      <g id="Layer_2-2-2" data-name="Layer_2-2">
        <g id="Layer_1-2">
          <g id="_图层_1-2">
            <g>
              <g>
                <path class="cls-2" d="M4.77,73.05s.06.04.06.11c0,.07-.02.12-.06.16-.06.04-.16.07-.28.09s-.25.03-.38.06-.24.08-.34.15-.14.19-.14.34v11.34c0,.06,0,.09-.04.11-.02.02-.04.02-.07.02-.1,0-.21,0-.33-.04s-.22-.06-.34-.1c-.24-.1-.49-.19-.73-.28s-.48-.19-.72-.33c-.01,0-.04-.02-.07-.04-.04-.02-.07-.04-.11-.06s-.06-.05-.09-.09-.04-.06-.04-.1c0-.06,0-.11,0-.15,0-.04.02-.06.06-.09.11,0,.2.02.27.04s.14.02.21.04c.07,0,.11.01.13.01.09.02.17.03.24.02s.12-.12.15-.33c.01-.13.02-.26.01-.38v-3.44c0-1.05,0-2.11,0-3.16,0-1.06-.02-2.11-.09-3.16,0-.1-.06-.17-.16-.22s-.22-.09-.36-.11-.27-.05-.41-.06-.22-.04-.27-.07c-.04-.04-.06-.09-.06-.15,0-.08.02-.11.06-.11h3.83s.02,0,.02,0Z"/>
                <path class="cls-2" d="M10.49,73.05s.06.04.06.11-.02.12-.06.16c-.06.04-.16.07-.28.09s-.25.03-.38.06-.24.08-.34.15-.14.19-.14.34v11.34c0,.06,0,.09-.04.11-.02.02-.04.02-.07.02-.1,0-.21,0-.33-.04s-.22-.06-.34-.1c-.24-.1-.49-.19-.73-.28s-.48-.19-.72-.33c-.01,0-.04-.02-.07-.04-.04-.02-.07-.04-.11-.06-.04-.02-.06-.05-.09-.09s-.04-.06-.04-.1c0-.06,0-.11,0-.15,0-.04.02-.06.06-.09.11,0,.2.02.27.04s.14.02.21.04c.07,0,.11.01.13.01.09.02.17.03.24.02s.12-.12.15-.33c.01-.13.02-.26.01-.38v-3.44c0-1.05,0-2.11,0-3.16,0-1.06-.02-2.11-.09-3.16,0-.1-.06-.17-.16-.22s-.22-.09-.36-.11-.27-.05-.41-.06-.22-.04-.27-.07c-.04-.04-.06-.09-.06-.15,0-.08.02-.11.06-.11h3.83s.02,0,.02,0Z"/>
              </g>
              <g>
                <path class="cls-2" d="M15.64,57.67h0v.34c-.11.06-.21.15-.31.28-.13.23-.24.51-.34.86s-.16.74-.19,1.16c-.04.44-.07.86-.1,1.28-.02.42-.04.81-.04,1.16v1.73c0,.36,0,.76.04,1.18.02.41.06.84.1,1.28s.11.82.19,1.16c.09.34.2.62.34.84.09.14.19.24.31.29v.37h-.35c-.26,0-.49-.11-.69-.31s-.36-.49-.51-.83-.27-.73-.36-1.15c-.1-.43-.18-.86-.24-1.31s-.1-.87-.12-1.29-.04-.78-.04-1.09c0-.65.04-1.32.11-2.03s.2-1.34.39-1.93c.19-.58.44-1.06.76-1.44.29-.34.63-.51,1.04-.56h0ZM17.29,59.47h0l.31.31-3.16,7.67-.31-.31,3.16-7.67h0ZM16.36,69.61h-.41v-.34c.16-.03.3-.13.41-.31.14-.21.25-.5.34-.84.09-.35.15-.74.19-1.15s.06-.84.08-1.27c.01-.42.02-.82.01-1.19v-1.99c0-.39,0-.77-.02-1.15s-.04-.76-.07-1.14c-.04-.38-.1-.73-.18-1.04-.07-.31-.18-.59-.31-.86-.1-.19-.23-.3-.39-.36v-.33h.11c.09-.02.17-.01.25,0,.2.06.38.16.55.31.17.16.33.34.46.55.21.32.37.69.51,1.09s.24.84.31,1.29c.07.46.12.91.15,1.38s.04.91.04,1.35c0,.31-.01.67-.04,1.09-.02.41-.07.84-.13,1.29s-.15.88-.25,1.31c-.1.43-.23.81-.38,1.16s-.33.63-.53.83-.44.31-.7.31h-.01Z"/>
                <path class="cls-2" d="M21.83,58.51h0l2.42,9.81s0,.08,0,.17v.86c0,.1-.04.16-.11.16h-4.51c-.07,0-.11-.06-.11-.16v-1.49c0-.1.04-.16.11-.16h4.04s.04-.04.06-.09.04-.1.04-.12c.01-.07-.01-.15-.09-.24s-.11-.15-.14-.2c-.04-.09-.07-.18-.1-.28s-.06-.2-.09-.29c-.31-.89-.62-1.76-.94-2.62s-.62-1.74-.92-2.62l-.5-1.46c-.06-.16-.11-.31-.17-.46-.06-.16-.12-.31-.17-.48l-.25-.82c-.04-.09,0-.14.07-.14h1.11s.06.02.08.08.05.11.06.19.03.15.04.21.02.12.03.16h0s0-.01,0-.01Z"/>
              </g>
              <g>
                <path class="cls-2" d="M.07,23.42h4.12s.07.04.06.1-.02.11-.06.15c-.07.04-.16.07-.3.08-.14,0-.27.03-.41.06-.13.02-.26.07-.36.14s-.15.17-.15.31v10.69c0,.06,0,.09-.04.1-.02.01-.05.02-.07.02-.11,0-.23,0-.35-.03s-.24-.06-.36-.09c-.26-.09-.52-.18-.79-.26-.26-.09-.51-.19-.78-.31-.01,0-.04-.02-.08-.04-.04-.01-.08-.04-.11-.06-.04-.02-.07-.05-.09-.08s-.04-.06-.04-.09c0-.06,0-.11,0-.14,0-.03.03-.06.07-.08.11,0,.21.02.29.03s.15.02.22.03.11.01.14.01c.1.02.19.02.26.01s.13-.11.16-.31c.01-.12.02-.24.01-.36v-3.24c0-.99,0-1.99,0-2.98,0-.99-.02-1.99-.09-2.98,0-.09-.06-.16-.18-.21s-.24-.09-.39-.11c-.15-.02-.29-.05-.44-.06-.14-.01-.24-.04-.29-.07-.04-.03-.06-.08-.06-.14,0-.07.02-.11.07-.11h0Z"/>
                <path class="cls-2" d="M6.22,23.42h4.12s.07.04.06.1c0,.07-.02.11-.06.15-.07.04-.16.07-.3.08s-.27.03-.41.06c-.13.02-.26.07-.36.14-.1.07-.15.17-.15.31v10.69c0,.06,0,.09-.04.1-.02.01-.05.02-.07.02-.11,0-.23,0-.35-.03s-.24-.06-.36-.09c-.26-.09-.52-.18-.79-.26-.26-.09-.51-.19-.78-.31-.01,0-.04-.02-.08-.04s-.08-.04-.11-.06-.07-.05-.09-.08-.04-.06-.04-.09c0-.06,0-.11,0-.14,0-.03.03-.06.07-.08.11,0,.21.02.29.03s.15.02.22.03c.07,0,.11.01.14.01.1.02.19.02.26.01s.13-.11.16-.31c.01-.12.02-.24.01-.36v-3.24c0-.99,0-1.99,0-2.98s-.02-1.99-.09-2.98c0-.09-.06-.16-.18-.21s-.24-.09-.39-.11c-.15-.02-.29-.05-.44-.06s-.24-.04-.29-.07c-.04-.03-.06-.08-.06-.14,0-.07.02-.11.07-.11h0Z"/>
              </g>
              <g>
                <path class="cls-2" d="M12.86,7.42h4.12s.07.04.06.1c0,.07-.02.11-.06.15-.07.04-.16.07-.3.08-.14,0-.27.03-.41.06-.13.02-.26.07-.36.14s-.15.17-.15.31v10.69c0,.06,0,.09-.04.1-.02.01-.05.02-.07.02-.11,0-.23,0-.35-.03s-.24-.06-.36-.09c-.26-.09-.52-.18-.79-.26-.26-.09-.51-.19-.78-.31-.01,0-.04-.02-.08-.04-.04-.01-.08-.04-.11-.06s-.07-.05-.09-.08-.04-.06-.04-.09c0-.06,0-.11,0-.14s.03-.06.07-.08c.11,0,.21.02.29.03s.15.02.22.03.11.01.14.01c.1.02.19.02.26.01s.13-.11.16-.31c.01-.12.02-.24.01-.36v-3.24c0-.99,0-1.99,0-2.98s-.02-1.99-.09-2.98c0-.09-.06-.16-.18-.21s-.24-.09-.39-.11-.29-.05-.44-.06-.24-.04-.29-.07c-.04-.03-.06-.08-.06-.14,0-.07.02-.11.07-.11h0Z"/>
                <path class="cls-2" d="M19.01,7.42h4.12s.07.04.06.1-.02.11-.06.15c-.07.04-.16.07-.3.08-.14,0-.27.03-.41.06-.13.02-.26.07-.36.14s-.15.17-.15.31v10.69c0,.06,0,.09-.04.1-.02.01-.05.02-.07.02-.11,0-.23,0-.35-.03s-.24-.06-.36-.09c-.26-.09-.52-.18-.79-.26-.26-.09-.51-.19-.78-.31-.01,0-.04-.02-.08-.04-.04-.01-.08-.04-.11-.06s-.07-.05-.09-.08-.04-.06-.04-.09c0-.06,0-.11,0-.14s.03-.06.07-.08c.11,0,.21.02.29.03s.15.02.22.03.11.01.14.01c.1.02.19.02.26.01s.13-.11.16-.31c.01-.12.02-.24.01-.36v-3.24c0-.99,0-1.99,0-2.98s-.02-1.99-.09-2.98c0-.09-.06-.16-.18-.21s-.24-.09-.39-.11-.29-.05-.44-.06-.24-.04-.29-.07c-.04-.03-.06-.08-.06-.14,0-.07.02-.11.07-.11h0Z"/>
              </g>
              <line class="cls-1" x1="9.33" y1="64.18" x2="14.38" y2="73.82"/>
              <line class="cls-1" x1="8.92" y1="15.29" x2="13.97" y2="24.93"/>
              <line class="cls-1" x1="11.86" y1="42.4" x2="11.86" y2="46.58"/>
              <g>
                <path class="cls-2" d="M19.46,82.95h.46v.04c-.31.02-.31.06-.31.27v1.8c0,.21,0,.24.31.27v.04h-.46v-2.41h0Z"/>
                <path class="cls-2" d="M20.25,83.4h.67c.58,0,1.25.22,1.25.99,0,.26-.09.46-.24.6-.18.17-.46.23-.81.23h-.85v-.04c.24-.01.26-.06.26-.29v-1.16c0-.23-.02-.28-.29-.29v-.04h0ZM20.68,83.73h0v1.36c0,.06.01.06.02.06h.26c.29,0,.47-.04.6-.09.27-.13.41-.43.41-.76,0-.39-.24-.85-.95-.85-.29,0-.34.04-.34.27h0Z"/>
                <path class="cls-2" d="M23.26,83.36h0l.25.13-.02.05s-.08-.04-.13-.04c-.06,0-.1.05-.1.16v.63c0,.26-.18.35-.32.35-.14-.04-.34-.15-.41-.2-.05-.02-.09-.06-.09-.1,0-.06.05-.1.09-.1s.06.03.06.05c.05.24.21.24.26.25.26,0,.26-.26.26-.39-.06-.04-.25-.11-.4-.16-.2-.06-.29-.16-.29-.29,0-.18.14-.34.34-.34.11,0,.24.1.35.19.02-.06.03-.1.06-.14.03-.03.09-.06.09-.06h-.01ZM23.11,83.64c-.06-.07-.19-.15-.29-.15s-.22.08-.22.23c0,.11.08.16.21.21.06.02.25.1.31.13v-.42h0Z"/>
                <path class="cls-2" d="M24.16,83.4h0l.18.09-.02.04s-.1-.06-.2-.06-.18.05-.18.29v.76h.33s.03.04.03.06c0,0,0,.02,0,.04h-.35v.36h-.04l-.1-.2v-.16h-.14l-.08-.06v-.04h.22v-.84c0-.19.08-.31.24-.31.04,0,.06,0,.11.04h0Z"/>
                <path class="cls-2" d="M25.43,83.62h0l-.04.04c-.15-.14-.26-.16-.35-.16-.2,0-.46.16-.46.6.4,0,.78.04.82.06s.05.02.05.08c0,.21-.18.41-.43.41-.24,0-.59-.26-.59-.69,0-.31.21-.58.56-.58.07,0,.26.06.44.26h0ZM24.6,84.2h0c.04.24.2.36.34.36.21,0,.34-.15.34-.31,0-.02,0-.05-.07-.05-.13,0-.54,0-.6,0h0Z"/>
                <path class="cls-2" d="M26.23,85.36h-.46v-.04c.31-.02.31-.06.31-.27v-1.8c0-.21,0-.24-.31-.27v-.04h.46v2.41h0Z"/>
              </g>
              <g>
                <path class="cls-2" d="M4.16,54.13h.46v.04c-.31.02-.31.06-.31.27v1.8c0,.21,0,.24.31.27v.04h-.46v-2.41h0Z"/>
                <path class="cls-2" d="M5.36,54.61h0v-.04h.79v.04c-.3.01-.32.06-.32.29v1.43h.26c.25,0,.36-.04.43-.37h.05c-.01.19-.04.36-.02.5h-.05c-.04-.06-.06-.07-.14-.07h-1.17s-.07,0-.09,0-.04.02-.06.06h-.05c0-.16-.01-.34-.04-.51h.05c.09.31.13.37.51.37h.18v-1.43c0-.22-.02-.27-.31-.29h0Z"/>
                <path class="cls-2" d="M6.68,54.61h0v-.04h.58v.04c-.2,0-.23.06-.23.26v.65c.09.1.21.16.35.17.28,0,.36-.15.36-.42v-.4c0-.2-.02-.24-.22-.26v-.04h.57v.04c-.18,0-.21.06-.21.24v.49c0,.34-.16.48-.39.48-.17,0-.34-.1-.46-.22v.99c-.08-.03-.22-.07-.36-.1v-.04c.2-.04.22-.05.22-.24v-1.36c0-.18-.03-.22-.21-.24h0Z"/>
                <path class="cls-2" d="M8.56,55.04h0v.38c0,.21,0,.32,0,.38-.06-.01-.28-.05-.35-.06v-.03l.09-.02c.06-.02.1-.03.1-.21v-.54c0-.32.18-.41.35-.41.08,0,.14.01.22.06.1.06.17.11.25.17v-.22h.01c.11.02.24.07.36.09v.04h-.09c-.11.01-.15.03-.15.18v.95c-.07-.02-.27-.05-.39-.06v-.04l.11-.02c.1-.02.15-.03.15-.21v-.64c-.12-.12-.26-.18-.38-.18-.16,0-.3.08-.3.36h0s0,.02,0,.02Z"/>
                <path class="cls-2" d="M9.99,54.53c.08,0,.13.06.13.13s-.06.13-.13.13-.13-.06-.13-.13.05-.13.13-.13Z"/>
                <path class="cls-2" d="M11.03,56.53h-.46v-.04c.31-.02.31-.06.31-.27v-1.8c0-.21,0-.24-.31-.27v-.04h.46v2.41h0Z"/>
              </g>
              <g>
                <path class="cls-2" d="M2.51,5.51h.46v.04c-.31.02-.31.06-.31.27v1.8c0,.21,0,.24.31.27v.04h-.46v-2.41h0Z"/>
                <path class="cls-2" d="M3.36,7.77h0v-.04c.22-.02.27-.06.27-.27v-.19l-.04-.54c-.02-.3-.04-.47-.06-.56-.02-.11-.09-.16-.26-.18v-.04h.7v.04c-.27.02-.3.1-.3.39,0,.08,0,.18,0,.31l.04.79h0l.72-1.49h.02l.79,1.59h0v-1.22c.01-.3.01-.34-.25-.36v-.04h.71v.04c-.27.02-.29.06-.29.36l-.02,1.04c0,.29.01.32.29.35v.04h-.42l-.77-1.54-.76,1.54h-.38.01Z"/>
                <path class="cls-2" d="M7.21,6.58h0c0,.34-.28.61-.64.61-.24,0-.64-.19-.64-.67,0-.31.26-.61.64-.61.28,0,.64.22.64.66h0ZM6.54,7.12c.32,0,.49-.31.49-.59,0-.39-.18-.55-.42-.55-.31,0-.5.26-.5.64,0,.29.16.5.43.5h0Z"/>
                <path class="cls-2" d="M7.42,5.99h0v-.04h.59v.04c-.2.01-.23.06-.23.24v.66c.09.09.24.18.38.18.27,0,.31-.19.31-.35v-.48c0-.19-.04-.24-.24-.24v-.04h.56v.04c-.16.01-.19.04-.19.24v.58c0,.23-.14.38-.38.38-.09,0-.16-.03-.24-.09-.09-.06-.16-.11-.22-.15v.24c-.09-.07-.21-.09-.32-.12v-.04c.16-.04.18-.04.18-.24v-.59c0-.18-.05-.21-.21-.23h0Z"/>
                <path class="cls-2" d="M9.22,5.91c.08,0,.13.06.13.13s-.06.13-.13.13-.13-.06-.13-.13.05-.13.13-.13Z"/>
                <path class="cls-2" d="M10.26,7.91h-.46v-.04c.31-.02.31-.06.31-.27v-1.8c0-.21,0-.24-.31-.27v-.04h.46v2.41h0Z"/>
              </g>
              <g>
                <path class="cls-2" d="M15.69,49.88h0v-.04h.77v.04c-.29.02-.31.06-.31.26v1.48c-.1-.06-.25-.11-.44-.14v-.04h.13c.15-.03.16-.05.16-.18v-1.12c0-.19-.02-.22-.31-.26h0Z"/>
                <path class="cls-2" d="M17.05,49.88h0v-.04h.77v.04c-.29.02-.31.06-.31.26v1.48c-.1-.06-.25-.11-.44-.14v-.04h.13c.15-.03.16-.05.16-.18v-1.12c0-.19-.02-.22-.31-.26h0Z"/>
                <path class="cls-2" d="M18.43,51.03c-.08,0-.14-.06-.14-.13,0-.09.06-.13.14-.13s.14.06.14.13c0,.06-.06.13-.14.13ZM18.43,49.8c.09,0,.14.06.14.13s-.06.13-.14.13-.14-.06-.14-.13.05-.13.14-.13Z"/>
                <path class="cls-2" d="M19.44,51.61c-.43,0-.6-.49-.6-.9s.18-.91.6-.91.59.5.59.91-.16.9-.59.9ZM19.44,51.54c.32,0,.41-.44.41-.84s-.07-.84-.41-.84-.42.43-.42.84.09.84.42.84h0Z"/>
                <path class="cls-2" d="M20.8,51.61c-.43,0-.6-.49-.6-.9s.18-.91.6-.91.59.5.59.91-.16.9-.59.9ZM20.81,51.54c.32,0,.41-.44.41-.84s-.07-.84-.41-.84-.42.43-.42.84.09.84.42.84h0Z"/>
                <path class="cls-2" d="M23.37,49.88h0v-.04h.71v.04c-.21.03-.24.06-.34.28-.11.28-.26.64-.4,1.01l-.21.54h-.04s-.67-1.5-.67-1.5c-.11-.26-.16-.29-.37-.33v-.04h.71v.04c-.18.02-.26.04-.26.14s.16.49.19.54h.72c.11-.27.21-.49.21-.57,0-.07-.06-.09-.24-.11h-.01ZM23.08,51.43l.3-.78h-.66c.1.24.22.52.35.78h0Z"/>
                <path class="cls-2" d="M24.23,51.66h0v-.04c.24-.02.29-.06.29-.27v-.19l-.04-.54c-.02-.3-.05-.48-.07-.56-.02-.11-.09-.16-.29-.18v-.04h.75v.04c-.29.02-.32.1-.32.39,0,.08,0,.18.01.31l.04.79h0l.76-1.49h.03l.84,1.6h.01v-1.23c.01-.3.01-.34-.26-.36v-.04h.76v.04c-.29.02-.3.06-.31.36l-.02,1.04c-.01.29.01.32.3.35v.04h-.45l-.83-1.55-.83,1.55h-.4.03Z"/>
              </g>
              <g>
                <path class="cls-2" d="M16.82,1.41h.05c.07.2.09.22.3.22h.66c-.25-.54-.54-1.08-.9-1.6l.02-.02.19.02c.27.57.54,1.15.84,1.71l-.02.04h-1.11c-.01-.12-.02-.24-.04-.36h0Z"/>
                <path class="cls-2" d="M18.39,1.23c-.08,0-.14-.06-.14-.13,0-.09.06-.13.14-.13s.14.06.14.13c0,.06-.06.13-.14.13ZM18.39,0c.09,0,.14.06.14.13s-.06.13-.14.13-.14-.06-.14-.13.05-.13.14-.13Z"/>
                <path class="cls-2" d="M19.4,1.81c-.43,0-.6-.49-.6-.9s.18-.91.6-.91.59.5.59.91-.16.9-.59.9h0ZM19.4,1.74c.32,0,.41-.44.41-.84s-.07-.84-.41-.84-.42.43-.42.84.09.84.42.84h0Z"/>
                <path class="cls-2" d="M20.76,1.81c-.43,0-.6-.49-.6-.9s.18-.91.6-.91.59.5.59.91-.16.9-.59.9h0ZM20.76,1.74c.32,0,.41-.44.41-.84s-.07-.84-.41-.84-.42.43-.42.84.09.84.42.84h0Z"/>
                <path class="cls-2" d="M22.08.04h.8v.04c-.31.02-.34.06-.34.29v.49l.25-.06c.29-.03.73.15.73.57,0,.49-.49.51-.68.51h-.74v-.04c.27-.01.27-.06.27-.29V.36c0-.23-.02-.29-.29-.29v-.04h0ZM22.55.91h0v.81c0,.06,0,.07.03.07h.16c.38,0,.58-.15.58-.46,0-.34-.23-.47-.5-.47-.15,0-.23.03-.26.04h0Z"/>
                <path class="cls-2" d="M23.76,1.86h0v-.04c.24-.02.29-.06.29-.27v-.19l-.04-.54c-.02-.3-.05-.48-.07-.56-.02-.11-.09-.16-.29-.18v-.04h.75v.04c-.29.02-.32.1-.32.39,0,.08,0,.18.01.31l.04.79h0l.76-1.49h.03l.84,1.6h.01V.45c.01-.3.01-.34-.26-.36v-.04h.76v.04c-.29.02-.3.06-.31.36l-.02,1.04c-.01.29.01.32.3.35v.04h-.45l-.83-1.55-.83,1.55h-.4.03Z"/>
              </g>
            </g>
          </g>
          <g id="_图层_1-2-2">
            <g>
              <path class="cls-2" d="M49.02,78.13h-.9v.43h1.74s.06.01.06.04-.02.05-.11.11c-.2.16-.23.17-.26.17-.02,0-.06-.02-.24-.22h-1.19v.3c.11.04.13.07.13.1,0,.06-.04.07-.46.12.02-.11.03-.2.03-.49v-.04h-1.34c-.12,0-.22,0-.36.04l.04-.16c.11.01.21.02.31.02h1.34v-.43h-.81c-.14.07-.2.1-.35.16.03-.19.03-.37.03-.67,0-.59-.02-.76-.02-.86,0-.07.04-.1.13-.1.13,0,.18.04.18.13v.06h.66c-.39-.53-.96-.94-1.59-1.21-.02,0,0-.07.02-.06.76.22,1.29.51,1.77,1.06-.02-.47-.04-.98-.04-1.1,0-.08.04-.11.14-.11.13,0,.2.04.2.13,0,.13-.02.76-.04,1.25.22-.34.46-.58.69-.75.21-.16.46-.29.69-.39.09-.04.17-.06.21-.06.03,0,.06.02.09.1.04.1.1.16.21.19.02,0,.02.04,0,.04-.31.02-.64.11-.96.26-.34.16-.63.36-.86.66h.87v-.07c0-.09.03-.11.13-.11.13,0,.19.04.19.13,0,.08-.02.32-.02.84v.3c.09.06.1.07.1.1,0,.02,0,.06-.07.1-.12.1-.15.11-.19.11s-.05-.02-.17-.13h.01ZM47.82,78.02v-.47h-.86v.47h.86ZM47.82,77.44v-.5h-.86v.5h.86ZM48.12,78.02h.93v-.47h-.93v.47ZM48.12,77.45h.93v-.5h-.93v.5Z"/>
              <path class="cls-2" d="M46.14,71.74h0s.01-.07.04-.06c.51.22.79.45,1.09.81.14,0,.18.02.18.06s-.1.1-.39.23c-.04-.09-.07-.17-.13-.26-.18-.26-.47-.57-.79-.79h0ZM49.29,74.6h-1.14v.36c.11.05.14.08.14.1,0,.05-.06.09-.48.13.02-.15.02-.21.02-.29v-.31h-1.34c-.11,0-.21,0-.34.03l.04-.16c.11.01.19.02.3.02h3.36s.06.01.06.04-.02.05-.11.12c-.2.16-.23.18-.26.18-.02,0-.06-.02-.26-.24h0ZM48.16,72.58h0v.53h.74v-.09c0-.09.03-.13.13-.13.11,0,.18.04.18.13,0,.06-.01.24-.01.64v.19c.1.06.11.08.11.11,0,.02-.02.05-.09.1-.14.11-.16.13-.19.13-.02,0-.04-.01-.18-.15h-1.74c-.14.09-.21.11-.36.16.02-.16.02-.28.02-.5,0-.47-.02-.59-.02-.68s.04-.11.14-.11c.13,0,.18.04.18.15v.04h.75v-1.21s-.02-.06-.06-.06c-.14,0-.31,0-.56.04-.02,0-.02-.05,0-.06.33-.07.44-.13.46-.26,0-.08.02-.09.08-.09.07,0,.17.03.24.06.11.06.16.12.16.28,0,.1,0,.25,0,.76h.03ZM48.91,73.21h-1.8v.74h1.8v-.74ZM49.2,72.02h0c.13-.26.16-.29.25-.29s.16.08.16.19c0,.26-.37.59-.96.84-.02,0-.06-.04-.04-.06.28-.22.46-.44.59-.69h0Z"/>
              <path class="cls-2" d="M48.12,69.98h1.72s.06.01.06.04-.02.06-.11.13c-.21.16-.25.19-.28.19-.02,0-.06-.02-.26-.26h-1.19c.01.13.02.26.03.4s.01.29.01.45c.11.05.14.07.14.11,0,.06-.07.09-.49.14.01-.12.02-.19.02-.29,0-.3-.01-.57-.04-.81h-1.19c-.13,0-.24,0-.39.03l.04-.16c.14.01.22.02.35.02h1.19c-.06-.46-.16-.8-.31-1.09-.28-.51-.68-.92-1.32-1.25-.02,0,0-.07.03-.06.64.21,1.06.51,1.39.93.28.35.44.76.54,1.39.11-.62.31-1.1.59-1.46.19-.25.49-.54.79-.72.11-.07.18-.11.22-.11.02,0,.05.02.06.06.06.13.1.19.22.22.02,0,.03.04,0,.04-.38.14-.76.34-1.06.64-.38.36-.62.79-.76,1.39h-.01Z"/>
              <path class="cls-2" d="M48.61,65.92h-1.4c-.12,0-.19.01-.32.04l.04-.16c.1.02.18.03.29.03h1.39c-.14-.17-.27-.3-.48-.47-.07.01-.16.03-.31.05.01-.12.01-.16.01-.37h-1.37c-.11,0-.19,0-.31.03l.04-.16c.11.02.19.02.28.02h1.36v-.9s-.02-.07-.07-.07c-.12,0-.3.01-.58.04-.02,0-.03-.05,0-.06.37-.08.46-.14.48-.26.01-.07.02-.09.09-.09.13,0,.23.04.3.1s.11.13.11.26,0,.23-.01.64v.33h1.71s.06.01.06.04-.02.05-.11.13c-.21.16-.24.18-.26.18-.02,0-.06-.02-.25-.25h-1.14v.15c.11.04.13.07.13.1,0,.02,0,.04-.02.04.24.12.41.23.66.42.14.01.19.03.19.07,0,.02-.02.05-.08.11-.16.13-.18.15-.21.15-.02,0-.05-.01-.19-.14h-.01ZM46.68,66.34h2.74c-.04-.16-.09-.27-.16-.4,0-.01.02-.04.04-.03.14.09.26.18.34.27.03.03.04.04.09.04.13,0,.16.02.16.09,0,.02-.02.06-.1.13-.17.16-.19.18-.22.18s-.06-.02-.19-.16h-.69c.19.15.38.33.54.51.14,0,.18.02.18.07,0,.04-.07.1-.41.24-.03-.1-.07-.21-.13-.34-.09-.16-.19-.33-.29-.48h-1.91c0,.06-.01.11-.02.18,0,.02-.04.02-.04,0-.03-.26-.1-.39-.3-.49-.1-.06-.13-.1-.13-.17,0-.09.07-.16.17-.16.19,0,.34.21.34.55h-.01ZM47.05,66.72h0c.04-.16.07-.19.16-.19.1,0,.17.09.17.18,0,.19-.19.38-.54.49-.02,0-.04-.02-.02-.04.1-.11.18-.27.22-.44h0ZM47.93,66.77h0c.03-.16.06-.19.15-.19.1,0,.18.08.18.19,0,.19-.19.39-.54.51-.02,0-.04-.02-.03-.04.11-.13.2-.3.24-.47h0Z"/>
              <path class="cls-2" d="M47.9,61.39h0-.48v.49h1.04s.06.01.06.04-.02.06-.1.11c-.19.15-.21.17-.24.17-.02,0-.06-.02-.22-.22h-.54v.55h.86s.06,0,.06.04-.02.06-.1.11c-.16.14-.19.16-.22.16s-.06-.02-.21-.21h-.38v.49c.11.04.14.07.14.1,0,.06-.06.08-.45.12.01-.12.02-.27.02-.71h-.44c.06.09.1.19.14.29.11.03.15.05.15.09s-.04.06-.4.15c-.01-.11-.04-.26-.09-.39-.07-.23-.19-.47-.33-.65-.01-.02.02-.06.04-.04.18.14.31.28.42.44h.5v-.55h-.74c-.11,0-.19,0-.3.03l.04-.15c.1.01.17.02.26.02h.74v-.49h-.47c-.13.08-.19.11-.33.16.01-.15.01-.29.01-.59,0-.52-.01-.69-.01-.81,0-.07.03-.1.12-.1.12,0,.18.04.18.13v1.11h.51c0-.98-.02-1.39-.02-1.54,0-.09.04-.13.14-.13.12,0,.18.05.18.14,0,.16,0,.59,0,1.52h.51v-.86s-.02-.06-.06-.06c-.06,0-.15,0-.31.02-.02,0-.02-.04,0-.05.23-.06.26-.09.28-.21,0-.04.02-.06.07-.06.08,0,.17.04.22.09.06.04.09.1.09.21,0,.09,0,.19,0,.63v.21c.09.06.11.09.11.11,0,.02-.02.05-.07.1-.13.1-.15.11-.18.11-.02,0-.04,0-.17-.13h-.02ZM48.95,62.23h0v.56c.11.04.13.07.13.1,0,.06-.06.08-.44.11.02-.22.02-.4.02-1.09,0-.83-.02-1.14-.02-1.23s.04-.11.13-.11c.13,0,.19.04.19.13,0,.13-.02.58-.02,1.51h.02ZM49.71,61.65v1.41c.1.04.13.07.13.11,0,.06-.04.07-.45.11.02-.15.03-.22.03-.69v-2.51s-.02-.07-.07-.07c-.13,0-.33.01-.56.04-.02,0-.03-.05,0-.06.36-.07.45-.13.47-.25.02-.07.04-.09.1-.09.08,0,.18.03.24.07.1.06.14.12.14.29s-.02.48-.02,1.63h0Z"/>
              <path class="cls-2" d="M46.93,55.82h0v2.12c.1.04.12.07.12.1,0,.04-.04.06-.24.09.21.29.37.61.51.99.11.02.16.04.16.09s-.15.11-.46.2c-.01-.13-.04-.26-.09-.39-.16-.53-.51-1.15-.89-1.57-.02-.02.02-.06.05-.04.21.16.39.34.54.51v-.79c0-.95-.02-1.24-.02-1.32s.06-.11.14-.11c.11,0,.18.05.18.14h0ZM49.29,58.66h-1.23c.07.15.14.3.2.47.12.01.18.04.18.09s-.13.1-.47.19c-.01-.1-.04-.2-.06-.3-.14-.54-.44-1.13-.77-1.54-.02-.02.03-.06.06-.04.36.3.61.63.83,1.03h.18v-1.74c0-.66-.02-.92-.02-1,0-.09.04-.13.14-.13.14,0,.2.04.2.15,0,.14,0,.54-.01,1.07h1.2s.06.01.06.04-.02.06-.09.11c-.17.14-.2.16-.23.16-.02,0-.06-.02-.22-.21h-.71v.75h1.19s.06.01.06.04-.02.06-.1.11c-.16.13-.2.15-.22.15s-.06-.02-.22-.21h-.7v.69h1.32s.06.01.06.04c0,.02-.02.05-.1.12-.19.15-.21.16-.24.16-.02,0-.06-.02-.24-.23h-.02Z"/>
              <path class="cls-2" d="M48.16,53.11h1.64s.06.01.06.04-.02.06-.1.11c-.19.16-.21.18-.24.18-.02,0-.06-.02-.24-.22h-.54v.61h.83s.06.01.06.04-.02.06-.09.11c-.17.14-.19.16-.22.16-.02,0-.06-.02-.22-.21h-.36v.21c.11.04.13.08.13.1,0,.04-.04.07-.44.11.02-.14.02-.24.02-.38v-.06h-.67v.22c.1.04.13.08.13.1,0,.04-.04.07-.44.11.01-.14.02-.25.02-.38v-.06h-.31c-.11,0-.19,0-.31.02l.04-.16c.11.02.18.03.27.03h.31v-.61h-.79c.06.42.09.85.09,1.27h2.46v-.02c0-.1.02-.13.12-.13.11,0,.19.04.19.11,0,.08,0,.17,0,.46v.13c.1.06.11.09.11.12,0,.02-.02.04-.09.1-.13.11-.16.13-.19.13-.02,0-.04-.01-.18-.16h-2.39c-.1.06-.21.1-.39.18.02-.21.02-.34.02-.83,0-.69-.02-1.14-.07-1.53-.07-.49-.18-.84-.36-1.24-.01-.02.04-.06.06-.03.3.38.45.72.55,1.16.01.06.02.11.04.18h.58v-.96c-.11,0-.23-.01-.35-.02h-.19c.1-.41.1-.42.15-.42.04,0,.07.04.1.13.64.13.96.23,1.47.44.02,0,0,.06-.02.06-.29-.06-.58-.11-.87-.15v.94h.49c.19-.42.4-.7.64-.9.21-.18.48-.34.76-.42.1-.03.16-.04.2-.04s.06.02.08.09c.04.13.08.16.19.19.02,0,.02.04,0,.04-.4.04-.78.14-1.07.31-.07.04-.14.09-.2.13.21.07.36.14.56.26.14-.02.19,0,.19.04,0,.04-.1.11-.33.25-.02-.06-.06-.11-.13-.18-.09-.1-.21-.21-.36-.31-.18.15-.31.34-.42.54h0v.03h.04ZM49.28,54.58h-2.46v.54h2.46v-.54ZM48.47,53.82v-.61h-.67v.61h.67Z"/>
              <path class="cls-2" d="M48.09,48.55h-.69c.13.2.26.38.69.79.39.38.74.57.74,1.08,0,.39-.3.71-.81.71s-.84-.42-.84-.68c0-.11.07-.15.16-.15.14,0,.29.07.29.18,0,.13.01.23.04.29.06.12.16.22.36.22.26,0,.4-.24.4-.56,0-.37-.19-.59-.54-1.01s-.49-.64-.74-1.02c-.02-.04-.03-.04-.03-.1s0-.07.05-.07c.27.01.51.01.78.01s.5,0,.77-.01c.07.21.16.5.21.71,0,.02,0,.04-.04.05-.04.01-.06,0-.06-.02-.06-.13-.12-.23-.22-.31-.08-.06-.16-.09-.5-.09h-.01Z"/>
              <path class="cls-2" d="M48.03,47.18c-.54,0-.86-.59-.86-1.51s.33-1.47.86-1.47.86.58.86,1.49-.32,1.48-.86,1.48h0ZM48.03,47.05c.36,0,.44-.54.44-1.36s-.09-1.36-.44-1.36-.46.53-.46,1.36.1,1.36.46,1.36Z"/>
              <path class="cls-2" d="M48.09,40.65h-.69c.13.2.26.38.69.79.39.38.74.57.74,1.08,0,.39-.3.71-.81.71s-.84-.42-.84-.68c0-.11.07-.15.16-.15.14,0,.29.07.29.18,0,.13.01.23.04.29.06.12.16.22.36.22.26,0,.4-.24.4-.56,0-.37-.19-.59-.54-1.01s-.49-.64-.74-1.02c-.02-.04-.03-.04-.03-.1s0-.07.05-.07c.27.01.51.01.78.01s.5,0,.77-.01c.07.21.16.5.21.71,0,.02,0,.04-.04.05-.04.01-.06,0-.06-.02-.06-.13-.12-.23-.22-.31-.08-.06-.16-.09-.5-.09h-.01Z"/>
              <path class="cls-2" d="M48.53,36.97h0v.18c.12,0,.26,0,.39,0,.02,0,.04,0,.04.02l.04.13s0,.03-.02.03c-.15,0-.29-.02-.43-.02v.94c.02.37.02.7.03,1.02,0,.04-.01.04-.03.04l-.28-.07c-.41-.65-.73-1.15-1.13-1.81-.03-.05-.04-.1-.04-.16,0-.09,0-.1.05-.1h1.04v-.18c0-.21,0-.32-.06-.41-.03-.06-.17-.07-.28-.09-.03,0-.04,0-.04-.06s0-.06.04-.06c.15,0,.36.02.51.02s.35,0,.5-.02c.02,0,.04,0,.04.06s-.01.06-.04.06c-.14.01-.27.02-.31.1-.04.1-.04.14-.04.4h.01ZM48.18,38.16h0v-.86h-.89c-.06,0-.06.02-.04.06.29.51.62,1.04.94,1.54-.01-.27-.02-.44-.02-.74h0Z"/>
              <path class="cls-2" d="M43.57,62.12h-.33l-.04-.11c-.04.12-.15.16-.26.16-.56,0-1.06-.71-1.06-1.24,0-.31.15-.44.44-.44.18,0,.34.09.49.31-.06-.26.14-.31.36-.31.69,0,1.06.63,1.06,1.07,0,.76-.58,1.27-1.44,1.27s-1.69-.64-1.69-1.62c0-.86.59-1.41,1.52-1.41.5,0,.79.14,1.11.37.02,0,.02.03,0,.06-.03.03-.06.02-.08.01-.28-.19-.61-.3-1.01-.3-.68,0-1.27.42-1.27,1.28s.61,1.49,1.41,1.49,1.19-.53,1.19-1.15c0-.56-.38-.95-.74-.95-.11,0-.16.04-.16.12,0,.08.04.2.1.35.07.26.29.83.37,1.06h.01ZM42.24,60.85h0c0,.41.31,1.21.74,1.21.09,0,.13-.05.13-.18,0-.11-.04-.27-.12-.52-.22-.67-.48-.76-.59-.76s-.16.09-.16.26h0Z"/>
              <path class="cls-2" d="M42.48,56.48h-.56c-.11,0-.19,0-.32.03l.04-.16c.12.01.2.02.3.02h.54c0-.49-.02-.75-.02-.81,0-.09.04-.11.14-.11.13,0,.21.04.21.14s0,.33-.01.79h.83s.06,0,.06.04-.02.06-.1.11c-.18.14-.2.16-.23.16s-.06-.02-.21-.21h-.35c0,.54-.02,1.09-.03,1.62.19-.48.38-.79.59-1.06.23-.29.54-.56.84-.75.09-.06.15-.08.18-.08s.04.02.06.06c.06.15.11.2.23.22.02,0,.02.04,0,.04-.39.13-.82.36-1.14.66-.26.24-.5.55-.7.98h1.63s.06.01.06.04-.02.05-.11.12c-.2.16-.24.18-.26.18s-.06-.02-.24-.24h-1.12v.67c.11.06.14.09.14.11,0,.06-.08.09-.47.11.02-.15.02-.29.02-.75v-.15h-1.24c-.13,0-.21,0-.36.03l.04-.16c.13.01.21.02.33.02h1.07c-.3-.74-.91-1.5-1.59-1.96-.02-.02.02-.06.04-.06.71.34,1.32.95,1.74,1.68,0-.46-.01-.91-.02-1.36h0v.02h.01Z"/>
              <path class="cls-2" d="M41.61,53.1h0c-.16-.02-.34-.06-.5-.07.3.31.51.63.74,1.03.12,0,.15.03.15.06s-.1.11-.38.22c-.02-.09-.07-.22-.13-.36-.13-.31-.34-.67-.53-.96-.04,0-.08,0-.11,0h-.15c.07-.3.11-.39.16-.39.04,0,.06.03.08.13.27.09.47.15.64.24-.15-.54-.44-.99-.88-1.37-.02-.02.01-.07.04-.06.69.41,1.01.89,1.2,1.64.1.02.11.04.11.09s-.02.06-.39.17c0-.11-.02-.24-.06-.36h.01ZM41.31,53.92h0c0,.1-.06.21-.16.3.2.21.35.43.5.7.12,0,.16.03.16.07s-.1.1-.41.19c0-.07-.03-.18-.07-.31-.06-.17-.14-.37-.26-.59-.08.06-.18.11-.3.16-.02,0-.04-.02-.02-.04.14-.14.23-.29.28-.49.04-.16.06-.19.14-.19s.15.08.15.18h-.01ZM42.35,52.23h0v1.09h.54v-.07c0-.09.03-.11.11-.11.12,0,.17.04.17.13s-.02.38-.02,1.05v.44c.09.06.1.07.1.1s-.01.06-.07.1c-.11.09-.13.1-.16.1s-.05-.01-.16-.12h-.5c-.12.07-.18.1-.33.16.02-.36.02-.76.02-1.29v-1.63s-.08,0-.11-.02c-.08,0-.15-.01-.24-.02.11-.38.13-.4.16-.4.04,0,.06.04.09.14.36.13.66.27.95.44,0-.02,0-.04.01-.07.04-.21.07-.26.16-.26s.15.08.15.19c0,.26-.22.57-.54.79-.02.01-.06-.01-.04-.04.1-.15.19-.32.24-.54-.18-.06-.36-.11-.56-.16h.02ZM42.89,54.19h-.54v.64h.54v-.64ZM42.35,54.09h.54v-.67h-.54v.67ZM43.71,52.53h0v2.31h.49c-.09-.46-.18-.84-.31-1.15.27-.3.38-.63.38-.96,0-.15-.01-.23-.06-.26-.02-.02-.06-.04-.1-.04-.09,0-.18,0-.33.02-.02,0-.02-.05,0-.06.23-.06.27-.11.29-.23,0-.06.03-.07.06-.07.11,0,.21.06.28.13.09.09.13.24.13.44,0,.39-.16.72-.56,1.04.19.3.39.67.51,1.04.09.02.11.04.11.08,0,.03-.02.06-.08.13-.11.11-.15.14-.19.14-.02,0-.04-.02-.16-.15h-.44c-.13.07-.19.1-.33.16.02-.15.02-.72.02-1.65s-.01-1.61-.01-1.85c0-.07.04-.11.12-.11.11,0,.18.04.18.13s0,.31,0,.91h0Z"/>
              <path class="cls-2" d="M43.49,49.65h0c-.21-.04-.39-.09-.66-.14-.04.21-.07.39-.11.59.29.06.51.11.73.16.1.02.17.04.24.04.05,0,.07.04.07.09,0,.04-.04.09-.1.1-.06.02-.15.03-.22.03-.05,0-.11-.02-.16-.06-.04-.04-.07-.05-.1-.06-.16-.04-.33-.09-.51-.13-.04.19-.06.33-.06.43,0,.06.01.09.03.11.02.02.04.06.04.09,0,.06-.05.1-.15.14-.11.04-.21.06-.32.06-.06,0-.12-.02-.16-.05-.02-.01-.06-.04-.06-.07,0-.02.01-.04.04-.04.1,0,.18-.01.21-.04.03-.03.05-.06.06-.11.04-.15.07-.31.13-.59-.18-.04-.36-.09-.51-.11-.1-.02-.18-.04-.24-.04-.11,0-.19.04-.28.09-.02.01-.04.02-.06.02s-.04-.02-.04-.06c0-.04.04-.1.15-.19.09-.09.18-.13.24-.13.04,0,.07,0,.1.04.04.03.13.04.22.06.13.04.27.07.44.11.04-.2.07-.39.11-.59-.3-.07-.59-.14-.84-.2-.11-.03-.21-.05-.27-.05s-.13.02-.24.08c-.02,0-.05.03-.06.03-.02,0-.03-.02-.03-.05,0-.04.02-.08.05-.11.11-.12.29-.22.38-.22.06,0,.09.01.13.06.02.02.07.05.19.09.21.07.44.13.71.19.06-.35.14-.82.19-1.15.02-.12.06-.18.15-.17.09,0,.16.06.16.13,0,.06-.02.14-.04.21-.06.29-.14.67-.21,1.04.4.09.61.11.81.14.11.01.22.01.29.01.11,0,.16.04.16.11,0,.05-.04.09-.1.12-.06.03-.15.04-.24.05-.07,0-.12,0-.16-.04-.03-.02-.07-.05-.13-.06h0l.02.03Z"/>
              <path class="cls-2" d="M43.85,46.9h0c-.22-.06-.5-.14-.81-.23-.02.13-.05.22-.06.33,0,.04,0,.07,0,.09s0,.04.02.06.02.04.02.07c0,.04-.02.07-.15.13-.08.04-.16.07-.24.07-.06,0-.09-.01-.14-.05s-.07-.06-.07-.09.01-.03.04-.03h.1s.07-.01.09-.04c.02-.04.04-.09.06-.16.04-.12.07-.26.11-.44-.21-.06-.41-.11-.59-.16-.1-.02-.16-.03-.21-.03-.06,0-.11.04-.19.1-.02.02-.03.03-.04.03s-.03-.03-.03-.06c0-.09.04-.15.14-.24.1-.1.14-.11.19-.11.04,0,.07.02.09.04.02.02.06.04.12.07.15.06.33.11.56.19.02-.09.04-.19.07-.31.07-.31.15-.67.23-1.03.01-.09.07-.1.15-.1.06,0,.11.06.11.11s-.02.11-.04.19c-.07.28-.15.56-.23.86-.03.13-.06.23-.09.34.29.09.66.19.89.26.02,0,.04,0,.02-.03-.19-.27-.35-.45-.51-.63-.02-.02-.04-.04-.04-.06s.02-.04.04-.04.04,0,.07.03c.23.16.48.39.66.56.04.03.06.04.11.05.07,0,.1.04.1.09s-.03.09-.13.16c-.13.09-.18.11-.22.11-.04,0-.06-.01-.1-.05-.03-.03-.06-.06-.11-.07h.02,0Z"/>
              <path class="cls-2" d="M41.56,44.45h0s-.07,0-.09,0c-.02,0-.04-.02-.04-.04s.01-.04.04-.05c.1-.06.21-.15.3-.26.09-.1.13-.19.18-.27.06-.1.09-.14.18-.14s.16.07.16.18c0,.15-.06.26-.25.37-.12.08-.29.15-.46.19h0ZM44.23,44.3h0s-.04.06-.06.06c-.01,0-.04-.01-.06-.04-.26-.33-.62-.66-1-.98-.36-.3-.75-.58-1.11-.78-.09-.06-.16-.07-.19-.07-.07,0-.11.04-.2.14-.03.04-.04.04-.06.04-.03,0-.04-.04-.04-.1,0-.09.05-.19.18-.33.09-.09.17-.16.27-.16.06,0,.1.03.13.09.02.02.06.06.1.09.39.29.75.56,1.09.88.36.34.69.7.93,1.09.02.03.03.06.03.07h0Z"/>
              <path class="cls-2" d="M41.92,40.95h0c.1-.07.14-.11.14-.16,0-.06-.04-.11-.11-.21-.11-.14-.26-.29-.41-.44-.2-.18-.43-.35-.69-.51-.04-.02-.06-.04-.06-.06,0-.04.02-.06.06-.06.02,0,.06,0,.1.04.26.1.51.26.75.42.21.15.39.31.56.48.05.04.08.07.11.09.07.02.1.06.1.12,0,.1-.11.21-.24.3-.1.07-.19.1-.24.1-.05,0-.1-.02-.1-.05t.05-.06h0ZM44.04,39.9c.13,0,.18.07.18.21,0,.16-.19.41-.38.57-.21.18-.44.31-.67.41-.06.02-.09.04-.11.04-.02,0-.05-.01-.05-.05,0-.02.02-.04.07-.08.16-.11.3-.24.43-.38.14-.16.24-.33.36-.57.05-.1.1-.16.19-.16h0ZM44.02,41.93c-.21,0-.38-.16-.38-.36s.17-.36.38-.36.38.16.38.36-.17.36-.38.36ZM44.02,41.8c.14,0,.24-.1.24-.24s-.11-.24-.24-.24-.24.11-.24.24.11.24.24.24Z"/>
              <path class="cls-2" d="M43.86,36.8h0c-.25.23-.61.41-.99.57.21.25.42.54.54.71.05.08.11.13.18.15.09.04.1.05.1.09,0,.05-.03.1-.15.19-.09.08-.13.1-.19.1-.04,0-.07-.02-.1-.04-.04-.03-.07-.06-.14-.06-.31-.04-.66-.07-.98-.1-.12,0-.26-.02-.33-.02-.09,0-.16.06-.28.16-.02.02-.06.05-.07.05-.02,0-.04-.04-.04-.09,0-.07.04-.13.11-.23.09-.11.19-.19.26-.19.06,0,.09.02.12.04.04.02.09.04.17.06.42.09.9.14,1.09.16.02,0,.04,0,.04,0s0-.02-.02-.04c-.25-.41-.48-.72-.79-1.03-.41-.43-.86-.72-1.35-.99-.02-.01-.04-.04-.04-.06s.02-.05.04-.05c.03,0,.07,0,.11.03.24.09.54.23.81.41.29.19.56.41.81.69.41-.24.71-.51.99-.9.06-.09.12-.13.18-.13.1,0,.17.06.17.17s-.11.24-.26.38h0Z"/>
            </g>
          </g>
        </g>
      </g>
    </g>
  </g>
</svg>