<svg width="75" height="23" viewBox="0 0 75 23" fill="none" xmlns="http://www.w3.org/2000/svg">
<g clip-path="url(#clip0_1648_106)">
<path d="M7.05999 2.70016C7.05999 1.85016 6.82999 1.20016 6.37999 0.760157C5.92999 0.320157 5.24999 0.0901566 4.33999 0.0901566C4.18999 0.0901566 3.89999 0.0901572 3.45999 0.120157H2.63999C2.24999 0.120157 1.92999 0.120157 1.69999 0.0901566L1.66999 0.330156C1.90999 0.330156 2.07999 0.380157 2.16999 0.440157C2.25999 0.500157 2.31999 0.610157 2.31999 0.770157C2.31999 0.860157 2.28999 1.04016 2.22999 1.34016L0.96999 7.16016C0.90999 7.45016 0.82999 7.67016 0.76999 7.81016C0.68999 7.95016 0.61999 8.04016 0.49999 8.08016C0.38999 8.13016 0.22999 8.16016 0.0199902 8.17016L-0.0100098 8.41016C0.22999 8.38016 0.62999 8.36016 1.13999 8.36016C1.30999 8.36016 1.57999 8.36016 1.92999 8.39016H2.48999C3.34999 8.39016 4.11999 8.13016 4.81999 7.60016C5.52999 7.06016 6.07999 6.34016 6.46999 5.47016C6.85999 4.58016 7.05999 3.66016 7.05999 2.67016V2.70016ZM2.36999 8.22016C2.13999 8.22016 1.98999 8.17016 1.89999 8.11016C1.81999 8.03016 1.77999 7.93016 1.77999 7.78016C1.77999 7.67016 1.80999 7.48016 1.86999 7.21016L3.12999 1.34016C3.18999 1.07016 3.24999 0.840157 3.32999 0.700157C3.40999 0.560157 3.49999 0.460156 3.59999 0.410156C3.71999 0.350156 3.86999 0.330156 4.06999 0.330156C4.79999 0.330156 5.30999 0.500157 5.63999 0.840157C5.95999 1.17016 6.11999 1.70016 6.11999 2.41016C6.11999 3.45016 5.97999 4.42016 5.67999 5.30016C5.38999 6.18016 4.96999 6.89016 4.38999 7.43016C3.82999 7.96016 3.14999 8.22016 2.34999 8.22016L2.36999 8.20016V8.22016ZM12.79 5.01016L13.3 2.65016C13.39 2.23016 13.53 1.94016 13.66 1.79016C13.81 1.64016 14.02 1.55016 14.31 1.53016L14.36 1.29016C14.15 1.32016 13.85 1.34016 13.45 1.34016C13.05 1.34016 12.71 1.34016 12.48 1.29016L12.43 1.53016C12.67 1.53016 12.87 1.59016 12.97 1.68016C13.09 1.76016 13.14 1.92016 13.14 2.12016C13.14 2.27016 13.11 2.45016 13.06 2.65016L12.5 5.13016C12.3 6.10016 12 6.84016 11.61 7.38016C11.22 7.91016 10.69 8.18016 10.02 8.18016C9.60999 8.18016 9.30999 8.06016 9.13999 7.83016C8.96999 7.59016 8.87999 7.27016 8.87999 6.83016C8.87999 6.44016 8.95999 5.91016 9.08999 5.24016L9.67999 2.52016C9.73999 2.22016 9.79999 2.01016 9.87999 1.87016C9.95999 1.73016 10.05 1.64016 10.15 1.60016C10.27 1.55016 10.45 1.52016 10.68 1.51016L10.74 1.27016C10.42 1.30016 10.03 1.32016 9.52999 1.32016C8.95999 1.32016 8.54999 1.32016 8.28999 1.27016L8.22999 1.51016C8.46999 1.53016 8.63999 1.56016 8.72999 1.62016C8.81999 1.68016 8.87999 1.79016 8.87999 1.97016C8.87999 2.08016 8.84999 2.27016 8.79999 2.53016L8.23999 5.04016C8.06999 5.80016 7.99999 6.36016 7.99999 6.75016C7.99999 6.99016 8.02999 7.20016 8.08999 7.40016C8.14999 7.60016 8.23999 7.78016 8.34999 7.96016C8.61999 8.38016 9.11999 8.60016 9.82999 8.60016C10.22 8.60016 10.59 8.51016 10.93 8.31016C11.28 8.11016 11.57 7.84016 11.81 7.51016C12.2 6.94016 12.52 6.10016 12.76 5.03016V5.01016H12.79ZM19.31 6.99016L19.26 7.16016C19.17 7.49016 19.06 7.75016 18.99 7.92016C18.9 8.07016 18.79 8.16016 18.67 8.16016C18.56 8.16016 18.49 8.10016 18.44 7.98016C18.39 7.86016 18.36 7.69016 18.36 7.47016V7.20016L18.39 6.58016C18.42 6.10016 18.34 5.73016 18.16 5.52016C17.99 5.29016 17.71 5.13016 17.3 5.04016L17.1 4.99016C17.86 4.85016 18.46 4.60016 18.9 4.20016C19.34 3.81016 19.55 3.31016 19.55 2.72016C19.55 2.28016 19.4 1.93016 19.07 1.69016C18.75 1.43016 18.27 1.30016 17.65 1.30016H16.94C16.79 1.33016 16.56 1.33016 16.24 1.33016C15.71 1.33016 15.32 1.33016 15.06 1.28016L15.01 1.52016C15.25 1.52016 15.4 1.58016 15.49 1.66016C15.58 1.74016 15.64 1.86016 15.64 2.01016C15.64 2.10016 15.61 2.28016 15.56 2.52016L14.53 7.18016C14.47 7.48016 14.39 7.69016 14.33 7.83016C14.27 7.97016 14.18 8.06016 14.06 8.10016C13.94 8.15016 13.77 8.18016 13.55 8.19016L13.5 8.43016C13.77 8.40016 14.18 8.38016 14.76 8.38016C15.26 8.38016 15.65 8.38016 15.95 8.43016L16 8.19016C15.76 8.17016 15.58 8.13016 15.49 8.07016C15.4 7.99016 15.35 7.89016 15.35 7.74016C15.35 7.62016 15.38 7.42016 15.43 7.18016L15.9 5.06016H16.08C16.47 5.08016 16.76 5.14016 16.97 5.24016C17.18 5.33016 17.32 5.48016 17.39 5.66016C17.46 5.84016 17.51 6.10016 17.51 6.40016V6.72016L17.46 7.46016C17.46 7.78016 17.51 8.05016 17.63 8.28016C17.77 8.49016 17.98 8.60016 18.28 8.60016C18.58 8.60016 18.82 8.48016 19.01 8.25016C19.21 8.01016 19.36 7.66016 19.48 7.18016L19.53 7.03016H19.3L19.28 7.00016L19.31 6.99016ZM15.97 4.84016L16.47 2.54016C16.53 2.27016 16.59 2.06016 16.65 1.92016C16.73 1.78016 16.82 1.68016 16.92 1.63016C17.03 1.57016 17.18 1.54016 17.37 1.54016C17.79 1.54016 18.11 1.63016 18.31 1.81016C18.51 1.99016 18.6 2.28016 18.6 2.66016C18.6 3.19016 18.52 3.61016 18.36 3.93016C18.21 4.25016 17.95 4.47016 17.59 4.63016C17.24 4.78016 16.76 4.86016 16.14 4.86016H15.97V4.84016ZM24.35 1.20016H24.2L20.33 7.10016C19.91 7.74016 19.56 8.10016 19.27 8.19016V8.43016C19.44 8.40016 19.71 8.38016 20.1 8.38016C20.49 8.38016 20.78 8.38016 20.98 8.43016V8.19016C20.59 8.14016 20.41 7.98016 20.41 7.68016C20.41 7.44016 20.53 7.12016 20.79 6.74016L21.44 5.74016H23.89L24.04 7.21016V7.45016C24.04 7.74016 23.98 7.92016 23.84 8.02016C23.7 8.12016 23.49 8.19016 23.19 8.20016L23.14 8.44016C23.38 8.41016 23.78 8.39016 24.29 8.39016C24.73 8.39016 25.08 8.39016 25.35 8.44016L25.4 8.20016C25.29 8.20016 25.19 8.12016 25.1 8.00016C25.01 7.88016 24.95 7.70016 24.93 7.44016L24.34 1.21016L24.36 1.19016L24.35 1.20016ZM23.88 5.51016H21.6L23.57 2.53016L23.87 5.51016H23.89H23.88ZM31.91 0.000156403C31.76 0.000156403 31.64 0.0601572 31.56 0.200157C31.48 0.320157 31.44 0.470158 31.44 0.640158C31.44 0.880158 31.52 1.11016 31.68 1.31016C31.53 1.40016 31.36 1.46016 31.21 1.51016C31.06 1.56016 30.85 1.57016 30.62 1.57016C30.41 1.57016 30.17 1.57016 29.91 1.52016C29.67 1.47016 29.41 1.44016 29.18 1.40016C28.51 1.29016 28.02 1.23016 27.64 1.23016C27.19 1.23016 26.82 1.32016 26.55 1.50016C26.22 1.71016 26.05 2.01016 26.05 2.41016C26.05 2.59016 26.1 2.73016 26.16 2.85016C26.24 2.96016 26.34 3.00016 26.48 3.00016C26.63 3.00016 26.75 2.94016 26.83 2.80016C26.91 2.66016 26.95 2.50016 26.95 2.32016C26.95 2.20016 26.93 2.08016 26.9 1.96016C26.87 1.84016 26.82 1.73016 26.78 1.64016C26.98 1.50016 27.28 1.44016 27.69 1.44016C27.93 1.44016 28.34 1.49016 28.9 1.58016L27.6 7.05016C27.52 7.37016 27.45 7.59016 27.36 7.75016C27.28 7.90016 27.16 8.01016 27.01 8.07016C26.86 8.13016 26.66 8.18016 26.37 8.19016L26.32 8.43016C26.64 8.40016 27.11 8.38016 27.73 8.38016C28.35 8.38016 28.83 8.38016 29.17 8.43016L29.22 8.19016C28.92 8.19016 28.71 8.14016 28.58 8.07016C28.45 8.00016 28.4 7.86016 28.4 7.66016C28.4 7.51016 28.43 7.31016 28.49 7.07016L29.75 1.75016C30.05 1.80016 30.32 1.81016 30.57 1.81016C30.86 1.81016 31.11 1.78016 31.31 1.73016C31.52 1.67016 31.72 1.58016 31.9 1.44016C32.2 1.17016 32.34 0.880156 32.34 0.580156C32.34 0.430156 32.29 0.290157 32.22 0.190157C32.14 0.0801569 32.04 0.0201569 31.9 0.0201569L31.92 0.000156403H31.91ZM32.8 7.19016L33.81 2.53016C33.87 2.23016 33.93 2.02016 34.01 1.88016C34.09 1.74016 34.18 1.65016 34.28 1.61016C34.4 1.56016 34.58 1.53016 34.81 1.52016L34.86 1.28016C34.56 1.31016 34.15 1.33016 33.63 1.33016C33.07 1.33016 32.68 1.33016 32.4 1.28016L32.35 1.52016C32.59 1.54016 32.76 1.57016 32.85 1.63016C32.94 1.69016 33 1.80016 33 1.98016C33 2.09016 32.97 2.28016 32.92 2.54016L31.91 7.20016C31.85 7.49016 31.77 7.71016 31.71 7.85016C31.63 7.99016 31.56 8.08016 31.44 8.12016C31.33 8.17016 31.17 8.20016 30.94 8.21016L30.89 8.45016C31.18 8.42016 31.6 8.40016 32.12 8.40016C32.64 8.40016 33.04 8.40016 33.35 8.45016L33.4 8.21016C33.16 8.19016 32.98 8.16016 32.89 8.10016C32.8 8.04016 32.75 7.93016 32.75 7.77016C32.75 7.68016 32.78 7.50016 32.84 7.20016H32.79L32.8 7.19016ZM39.23 7.88016C39.82 7.41016 40.27 6.82016 40.61 6.10016C40.93 5.37016 41.09 4.66016 41.09 3.95016C41.09 3.01016 40.88 2.32016 40.44 1.83016C40 1.34016 39.44 1.12016 38.72 1.12016C38 1.12016 37.33 1.36016 36.75 1.83016C36.17 2.30016 35.71 2.89016 35.37 3.61016C35.05 4.34016 34.89 5.05016 34.89 5.76016C34.89 6.70016 35.1 7.39016 35.54 7.88016C35.98 8.37016 36.55 8.59016 37.26 8.59016C37.97 8.59016 38.65 8.35016 39.23 7.88016ZM38.63 1.33016C39.07 1.33016 39.42 1.53016 39.67 1.92016C39.92 2.31016 40.06 2.93016 40.06 3.78016C40.06 4.54016 39.94 5.26016 39.71 5.97016C39.48 6.68016 39.15 7.26016 38.74 7.69016C38.32 8.14016 37.86 8.36016 37.35 8.36016C36.91 8.36016 36.56 8.16016 36.29 7.77016C36.05 7.38016 35.91 6.74016 35.91 5.91016C35.91 5.15016 36.03 4.43016 36.26 3.73016C36.5 3.02016 36.82 2.43016 37.24 1.99016C37.66 1.54016 38.12 1.32016 38.63 1.32016H38.61L38.63 1.33016ZM48.84 0.760157C48.45 0.760157 48.11 1.00016 47.8 1.52016C47.35 2.25016 46.8 4.02016 46.18 6.84016L44.35 1.30016C44.12 1.33016 43.87 1.35016 43.56 1.35016C43.2 1.35016 42.91 1.35016 42.7 1.30016L42.65 1.54016C42.97 1.54016 43.16 1.60016 43.25 1.66016C43.36 1.74016 43.4 1.87016 43.39 2.10016C42.75 5.49016 42.21 7.62016 41.76 8.45016C41.52 8.84016 41.26 9.05016 40.94 9.05016H40.92C41.01 8.94016 41.09 8.82016 41.15 8.70016C41.21 8.58016 41.24 8.44016 41.24 8.31016C41.24 8.18016 41.21 8.08016 41.15 7.99016C41.09 7.90016 41 7.85016 40.88 7.85016C40.71 7.85016 40.56 7.94016 40.47 8.11016C40.36 8.28016 40.32 8.47016 40.32 8.68016C40.32 9.09016 40.52 9.28016 40.89 9.28016C41.13 9.28016 41.31 9.22016 41.46 9.08016C41.61 8.96016 41.78 8.78016 41.93 8.54016C42.37 7.87016 42.94 5.70016 43.62 2.04016L45.81 8.47016H46.02C46.4 6.61016 46.73 5.11016 47.05 3.99016C47.37 2.87016 47.67 2.07016 47.96 1.57016C48.08 1.39016 48.19 1.24016 48.31 1.13016C48.43 1.02016 48.58 0.980157 48.75 0.960157H48.78C48.69 1.05016 48.61 1.17016 48.55 1.31016C48.49 1.45016 48.46 1.57016 48.46 1.70016C48.46 1.83016 48.49 1.94016 48.55 2.03016C48.61 2.11016 48.7 2.15016 48.82 2.15016C48.99 2.15016 49.14 2.06016 49.23 1.89016C49.34 1.71016 49.38 1.51016 49.38 1.30016C49.38 1.12016 49.33 0.980157 49.24 0.860157C49.15 0.740157 49 0.690157 48.8 0.690157L48.82 0.720158L48.84 0.760157ZM18.38 14.8702L17.59 18.5502C17.39 19.5202 17.09 20.2602 16.7 20.8002C16.31 21.3302 15.78 21.6002 15.11 21.6002C14.7 21.6002 14.41 21.4802 14.23 21.2502C14.06 21.0102 13.97 20.6902 13.97 20.2502C13.97 19.8602 14.05 19.3302 14.18 18.6602L15.03 14.7702C15.09 14.4702 15.15 14.2602 15.23 14.1202C15.31 13.9802 15.4 13.8902 15.5 13.8502C15.62 13.8002 15.8 13.7702 16.03 13.7602L16.09 13.5202C15.77 13.5502 15.38 13.5702 14.88 13.5702C14.31 13.5702 13.9 13.5702 13.64 13.5202L13.58 13.7602C13.82 13.7802 13.99 13.8102 14.08 13.8702C14.17 13.9302 14.23 14.0402 14.23 14.2202C14.23 14.3302 14.2 14.5202 14.15 14.7802L13.35 18.4702C13.2 19.1802 13.11 19.7602 13.11 20.1802C13.11 20.4402 13.14 20.6502 13.19 20.8502C13.25 21.0302 13.34 21.2102 13.45 21.3802C13.75 21.8002 14.25 22.0202 14.93 22.0202C15.32 22.0202 15.69 21.9302 16.03 21.7302C16.37 21.5302 16.67 21.2602 16.91 20.9302C17.3 20.3602 17.62 19.5202 17.86 18.4502L18.62 14.9102C18.68 14.6102 18.74 14.3802 18.82 14.2402C18.9 14.0902 19 13.9702 19.12 13.9102C19.26 13.8302 19.44 13.7902 19.65 13.7902L19.7 13.5502C19.47 13.5802 19.17 13.6002 18.79 13.6002C18.37 13.6002 18.03 13.6002 17.82 13.5502L17.77 13.7902C18.03 13.7902 18.21 13.8502 18.33 13.9402C18.44 14.0202 18.5 14.1802 18.5 14.3902C18.5 14.5402 18.47 14.7102 18.42 14.9002L18.37 14.8702H18.38ZM25.5 14.9002C25.05 15.6302 24.5 17.4102 23.88 20.2202L22.05 14.6802C21.82 14.7102 21.57 14.7302 21.26 14.7302C20.9 14.7302 20.61 14.7302 20.4 14.6802L20.35 14.9202C20.67 14.9202 20.86 14.9802 20.95 15.0402C21.06 15.1202 21.1 15.2502 21.09 15.4802C20.45 18.8702 19.91 21.0002 19.46 21.8302C19.22 22.2202 18.96 22.4302 18.64 22.4302H18.62C18.71 22.3202 18.79 22.2002 18.85 22.0802C18.91 21.9602 18.94 21.8202 18.94 21.6902C18.94 21.5602 18.91 21.4602 18.85 21.3702C18.79 21.2802 18.7 21.2302 18.58 21.2302C18.41 21.2302 18.26 21.3202 18.17 21.4902C18.08 21.6602 18.02 21.8502 18.02 22.0602C18.02 22.4702 18.22 22.6602 18.59 22.6602C18.83 22.6602 19.01 22.6002 19.16 22.4602C19.31 22.3402 19.48 22.1602 19.63 21.9202C20.07 21.2502 20.64 19.0802 21.32 15.4202L23.51 21.8502H23.72C24.1 19.9902 24.43 18.4902 24.75 17.3702C25.07 16.2502 25.37 15.4502 25.66 14.9502C25.78 14.7702 25.89 14.6202 26.01 14.5102C26.13 14.4002 26.28 14.3602 26.45 14.3402H26.48C26.39 14.4302 26.31 14.5502 26.25 14.6902C26.19 14.8302 26.16 14.9502 26.16 15.0802C26.16 15.2102 26.19 15.3202 26.25 15.4102C26.31 15.4902 26.4 15.5302 26.52 15.5302C26.69 15.5302 26.84 15.4402 26.93 15.2702C27.04 15.0902 27.08 14.8902 27.08 14.6802C27.08 14.5002 27.03 14.3602 26.94 14.2402C26.85 14.1202 26.7 14.0702 26.5 14.0702C26.11 14.0702 25.77 14.3102 25.46 14.8302L25.48 14.8602L25.5 14.9002ZM32.97 17.2802C32.97 16.4302 32.74 15.7802 32.29 15.3402C31.84 14.9002 31.16 14.6702 30.25 14.6702C30.1 14.6702 29.81 14.6702 29.37 14.7002H28.55C28.16 14.7002 27.84 14.7002 27.61 14.6702L27.58 14.9102C27.82 14.9102 27.99 14.9602 28.08 15.0202C28.17 15.0802 28.23 15.1902 28.23 15.3502C28.23 15.4902 28.2 15.6802 28.14 15.9202L27.13 20.5802C27.07 20.8702 26.99 21.0902 26.93 21.2302C26.85 21.3702 26.78 21.4602 26.66 21.5002C26.55 21.5502 26.39 21.5802 26.18 21.5902L26.15 21.8302C26.39 21.8002 26.79 21.7802 27.3 21.7802C27.47 21.7802 27.74 21.7802 28.09 21.8102H28.65C29.51 21.8102 30.28 21.6302 30.93 21.2402C31.58 20.8502 32.08 20.3002 32.44 19.6102C32.79 18.9302 32.97 18.1402 32.97 17.2802ZM28.52 21.6302C28.29 21.6302 28.14 21.6002 28.05 21.5402C27.97 21.4602 27.93 21.3602 27.93 21.2102C27.93 21.1202 27.96 20.9202 28.02 20.6202L29.03 15.9302C29.09 15.6602 29.15 15.4302 29.23 15.2902C29.31 15.1502 29.4 15.0502 29.5 15.0002C29.62 14.9402 29.77 14.9202 29.97 14.9202C30.7 14.9202 31.21 15.0902 31.54 15.4302C31.86 15.7602 32.02 16.2902 32.02 17.0002C32.02 18.4202 31.73 19.5602 31.16 20.3902C30.59 21.2202 29.71 21.6302 28.51 21.6302V21.6102L28.52 21.6302ZM38.91 18.4302L39.42 16.0702C39.51 15.6502 39.65 15.3602 39.78 15.2102C39.91 15.0602 40.14 14.9702 40.43 14.9502L40.48 14.7102C40.27 14.7402 39.97 14.7602 39.57 14.7602C39.17 14.7602 38.83 14.7602 38.6 14.7102L38.55 14.9502C38.79 14.9502 38.99 15.0102 39.09 15.1002C39.21 15.1802 39.26 15.3402 39.26 15.5402C39.26 15.6902 39.23 15.8702 39.18 16.0702L38.62 18.5502C38.42 19.5202 38.12 20.2602 37.73 20.8002C37.34 21.3302 36.81 21.6002 36.14 21.6002C35.73 21.6002 35.43 21.4802 35.26 21.2502C35.09 21.0102 35 20.6902 35 20.2502C35 19.8602 35.08 19.3302 35.21 18.6602L35.8 15.9402C35.86 15.6402 35.92 15.4302 36 15.2902C36.08 15.1502 36.17 15.0602 36.27 15.0202C36.39 14.9702 36.57 14.9402 36.8 14.9302L36.86 14.6902C36.54 14.7202 36.15 14.7402 35.65 14.7402C35.08 14.7402 34.67 14.7402 34.41 14.6902L34.35 14.9302C34.59 14.9502 34.76 14.9802 34.85 15.0402C34.94 15.1002 35 15.2102 35 15.3902C35 15.5002 34.97 15.6902 34.92 15.9502L34.36 18.4602C34.19 19.2202 34.12 19.7802 34.12 20.1702C34.12 20.4102 34.15 20.6202 34.21 20.8202C34.27 21.0202 34.36 21.2002 34.47 21.3802C34.74 21.8002 35.24 22.0202 35.95 22.0202C36.34 22.0202 36.71 21.9302 37.05 21.7302C37.39 21.5302 37.69 21.2602 37.93 20.9302C38.32 20.3602 38.64 19.5202 38.88 18.4502V18.4302H38.91ZM45.15 19.3502H44.92C44.68 20.1402 44.39 20.7002 44.03 21.0402C43.67 21.3702 43.24 21.5502 42.76 21.5502L42.16 21.5502C41.92 21.5502 41.74 21.5202 41.65 21.4702C41.56 21.4102 41.51 21.3002 41.51 21.1202C41.51 21.0402 41.54 20.8502 41.6 20.5602L42.63 15.9002C42.69 15.6002 42.75 15.3902 42.83 15.2502C42.91 15.1102 43 15.0202 43.1 14.9802C43.22 14.9302 43.4 14.9002 43.63 14.8902L43.68 14.6502C43.38 14.6802 42.97 14.7002 42.45 14.7002C41.89 14.7002 41.5 14.7002 41.22 14.6502L41.17 14.8902C41.41 14.9102 41.58 14.9402 41.67 15.0002C41.76 15.0602 41.82 15.1702 41.82 15.3302C41.82 15.4202 41.79 15.6002 41.73 15.9002L40.7 20.5602C40.64 20.8602 40.56 21.0702 40.5 21.2102C40.44 21.3502 40.35 21.4402 40.23 21.4802C40.11 21.5202 39.94 21.5602 39.72 21.5702L39.67 21.8102C40.27 21.7802 41.18 21.7602 42.36 21.7602C43.45 21.7602 44.21 21.7602 44.66 21.8102C44.75 21.1702 44.83 20.7202 44.9 20.4302C44.95 20.2002 44.99 19.9902 45.05 19.7602C45.11 19.5302 45.16 19.4102 45.17 19.3502L45.14 19.3202L45.15 19.3502ZM50.54 20.8402L49.95 14.6102H49.8L45.93 20.5102C45.51 21.1502 45.16 21.5102 44.87 21.6002V21.8402C45.04 21.8102 45.31 21.7902 45.7 21.7902C46.09 21.7902 46.38 21.7902 46.58 21.8402V21.6002C46.19 21.5502 46.01 21.3902 46.01 21.0902C46.01 20.8502 46.13 20.5302 46.39 20.1502L47.04 19.1502H49.49L49.64 20.6202V20.8602C49.64 21.1502 49.58 21.3302 49.44 21.4302C49.3 21.5302 49.09 21.6002 48.79 21.6102L48.74 21.8502C48.98 21.8202 49.38 21.8002 49.89 21.8002C50.33 21.8002 50.68 21.8002 50.95 21.8502L51 21.6102C50.89 21.6102 50.79 21.5302 50.7 21.4102C50.61 21.2902 50.55 21.1102 50.53 20.8502L50.55 20.8302L50.54 20.8402ZM49.49 18.9102H47.21L49.18 15.9302L49.48 18.9102H49.5H49.49ZM57.52 13.4202C57.37 13.4202 57.25 13.4802 57.17 13.6202C57.09 13.7402 57.05 13.8902 57.05 14.0602C57.05 14.3002 57.13 14.5302 57.29 14.7302C57.14 14.8202 56.97 14.8802 56.82 14.9302C56.67 14.9802 56.46 14.9902 56.23 14.9902C56.02 14.9902 55.78 14.9902 55.52 14.9402C55.28 14.8902 55.02 14.8602 54.79 14.8202C54.12 14.7102 53.63 14.6502 53.25 14.6502C52.8 14.6502 52.43 14.7402 52.16 14.9202C51.83 15.1302 51.66 15.4302 51.66 15.8302C51.66 16.0102 51.71 16.1502 51.77 16.2702C51.85 16.3802 51.95 16.4202 52.09 16.4202C52.24 16.4202 52.36 16.3602 52.44 16.2202C52.52 16.0802 52.56 15.9202 52.56 15.7402C52.56 15.6202 52.54 15.5002 52.51 15.3802C52.48 15.2602 52.43 15.1502 52.39 15.0602C52.59 14.9202 52.89 14.8602 53.3 14.8602C53.54 14.8602 53.95 14.9102 54.51 15.0002L53.21 20.4702C53.13 20.7902 53.06 21.0102 52.97 21.1702C52.89 21.3202 52.77 21.4302 52.62 21.4902C52.47 21.5502 52.27 21.6002 51.98 21.6102L51.93 21.8502C52.25 21.8202 52.72 21.8002 53.34 21.8002C53.96 21.8002 54.44 21.8002 54.78 21.8502L54.83 21.6102C54.53 21.6102 54.32 21.5602 54.19 21.4902C54.07 21.4102 54.01 21.2802 54.01 21.0802C54.01 20.9302 54.04 20.7302 54.1 20.4902L55.36 15.1702C55.66 15.2202 55.93 15.2302 56.18 15.2302C56.47 15.2302 56.72 15.2002 56.92 15.1502C57.13 15.0902 57.33 15.0002 57.51 14.8602C57.81 14.5902 57.95 14.3002 57.95 14.0002C57.95 13.8502 57.9 13.7102 57.83 13.6102C57.75 13.5002 57.65 13.4402 57.51 13.4402L57.53 13.4202H57.52ZM58.41 20.5902L59.42 15.9302C59.48 15.6302 59.54 15.4202 59.62 15.2802C59.7 15.1402 59.79 15.0502 59.89 15.0102C60.01 14.9602 60.19 14.9302 60.42 14.9202L60.47 14.6802C60.17 14.7102 59.76 14.7302 59.24 14.7302C58.68 14.7302 58.29 14.7302 58.01 14.6802L57.96 14.9202C58.2 14.9402 58.37 14.9702 58.46 15.0302C58.55 15.0902 58.61 15.2002 58.61 15.3802C58.61 15.4902 58.58 15.6802 58.53 15.9402L57.52 20.6002C57.46 20.8902 57.38 21.1102 57.32 21.2502C57.24 21.3902 57.17 21.4802 57.05 21.5202C56.94 21.5702 56.78 21.6002 56.55 21.6102L56.5 21.8502C56.79 21.8202 57.21 21.8002 57.73 21.8002C58.25 21.8002 58.65 21.8002 58.96 21.8502L59.01 21.6102C58.77 21.5902 58.59 21.5602 58.5 21.5002C58.41 21.4402 58.36 21.3302 58.36 21.1702C58.36 21.0802 58.39 20.9002 58.45 20.6002H58.4L58.41 20.5902ZM64.82 21.2802C65.41 20.8102 65.86 20.2202 66.2 19.5002C66.52 18.7702 66.68 18.0602 66.68 17.3502C66.68 16.4102 66.47 15.7202 66.03 15.2302C65.59 14.7402 65.03 14.5202 64.31 14.5202C63.59 14.5202 62.92 14.7602 62.34 15.2302C61.75 15.7002 61.3 16.2902 60.96 17.0102C60.64 17.7402 60.48 18.4502 60.48 19.1602C60.48 20.1002 60.69 20.7902 61.13 21.2802C61.57 21.7702 62.14 21.9902 62.85 21.9902C63.56 21.9902 64.24 21.7502 64.82 21.2802ZM64.23 14.7302C64.67 14.7302 65.02 14.9302 65.27 15.3202C65.52 15.7102 65.66 16.3302 65.66 17.1802C65.66 17.9402 65.54 18.6602 65.31 19.3702C65.08 20.0802 64.75 20.6602 64.34 21.0902C63.92 21.5402 63.46 21.7602 62.95 21.7602C62.51 21.7602 62.16 21.5602 61.89 21.1702C61.65 20.7802 61.51 20.1402 61.51 19.3102C61.51 18.5502 61.63 17.8302 61.86 17.1302C62.1 16.4202 62.42 15.8302 62.84 15.3902C63.26 14.9402 63.72 14.7202 64.23 14.7202H64.21L64.23 14.7302ZM73.4 14.9002C72.95 15.6302 72.4 17.4102 71.78 20.2202L69.95 14.6802C69.72 14.7102 69.47 14.7302 69.16 14.7302C68.8 14.7302 68.51 14.7302 68.3 14.6802L68.25 14.9202C68.57 14.9202 68.76 14.9802 68.85 15.0402C68.96 15.1202 69 15.2502 68.99 15.4802C68.35 18.8702 67.81 21.0002 67.36 21.8302C67.12 22.2202 66.86 22.4302 66.54 22.4302H66.52C66.61 22.3202 66.69 22.2002 66.75 22.0802C66.81 21.9602 66.84 21.8202 66.84 21.6902C66.84 21.5602 66.81 21.4602 66.75 21.3702C66.69 21.2802 66.6 21.2302 66.48 21.2302C66.31 21.2302 66.16 21.3202 66.07 21.4902C65.96 21.6602 65.92 21.8502 65.92 22.0602C65.92 22.4702 66.12 22.6602 66.49 22.6602C66.73 22.6602 66.91 22.6002 67.06 22.4602C67.21 22.3402 67.38 22.1602 67.53 21.9202C67.97 21.2502 68.54 19.0802 69.22 15.4202L71.41 21.8502H71.62C72 19.9902 72.33 18.4902 72.65 17.3702C72.97 16.2502 73.27 15.4502 73.56 14.9502C73.68 14.7702 73.79 14.6202 73.91 14.5102C74.03 14.4002 74.18 14.3602 74.35 14.3402H74.38C74.29 14.4302 74.21 14.5502 74.15 14.6902C74.09 14.8302 74.06 14.9502 74.06 15.0802C74.06 15.2102 74.09 15.3202 74.15 15.4102C74.21 15.4902 74.3 15.5302 74.42 15.5302C74.59 15.5302 74.74 15.4402 74.83 15.2702C74.94 15.0902 74.98 14.8902 74.98 14.6802C74.98 14.5002 74.93 14.3602 74.84 14.2402C74.75 14.1202 74.6 14.0702 74.4 14.0702C74.01 14.0702 73.67 14.3102 73.36 14.8302L73.38 14.8602L73.4 14.9002Z" fill="white"/>
</g>
<defs>
<clipPath id="clip0_1648_106">
<rect width="75" height="22.69" fill="white" transform="matrix(1 0 0 -1 0 22.6914)"/>
</clipPath>
</defs>
</svg>
