<svg width="50" height="86" viewBox="0 0 50 86" fill="none" xmlns="http://www.w3.org/2000/svg">
<g clip-path="url(#clip0_1648_27)">
<path d="M4.77006 12.3594C4.77006 12.3594 4.83006 12.3194 4.83006 12.2494C4.83006 12.1794 4.81006 12.1294 4.77006 12.0894C4.71006 12.0494 4.61006 12.0194 4.49006 11.9994C4.37006 11.9794 4.24006 11.9694 4.11006 11.9394C3.98006 11.9094 3.87006 11.8594 3.77006 11.7894C3.67006 11.7194 3.63006 11.5994 3.63006 11.4494L3.63006 0.109375C3.63006 0.049375 3.63006 0.0193744 3.59006 -0.00062561C3.57006 -0.0206256 3.55006 -0.0206223 3.52006 -0.0206223C3.42006 -0.0206223 3.31006 -0.0206213 3.19006 0.0193787C3.07006 0.0593787 2.97006 0.0793771 2.85006 0.119377C2.61006 0.219377 2.36006 0.309376 2.12006 0.399376C1.88006 0.489376 1.64006 0.589378 1.40006 0.729378C1.39006 0.729378 1.36006 0.749379 1.33006 0.769379C1.29006 0.789379 1.26006 0.809376 1.22006 0.829376C1.18006 0.849376 1.16006 0.87938 1.13006 0.91938C1.10006 0.95938 1.09006 0.979379 1.09006 1.01938C1.09006 1.07938 1.09006 1.12938 1.09006 1.16938C1.09006 1.20938 1.11006 1.22938 1.15006 1.25938C1.26006 1.25938 1.35006 1.23938 1.42006 1.21938C1.49006 1.19938 1.56006 1.19937 1.63006 1.17937C1.70006 1.17937 1.74006 1.16938 1.76006 1.16938C1.85006 1.14938 1.93006 1.13938 2.00006 1.14938C2.07006 1.15938 2.12006 1.26938 2.15006 1.47938C2.16006 1.60938 2.17006 1.73938 2.16006 1.85938L2.16006 5.29938C2.16006 6.34938 2.16006 7.40938 2.16006 8.45938C2.16006 9.51938 2.14006 10.5694 2.07006 11.6194C2.07006 11.7194 2.01006 11.7894 1.91006 11.8394C1.81006 11.8894 1.69006 11.9294 1.55006 11.9494C1.41006 11.9694 1.28006 11.9994 1.14006 12.0094C1.00006 12.0194 0.920059 12.0494 0.870059 12.0794C0.830059 12.1194 0.810059 12.1694 0.810059 12.2294C0.810059 12.3094 0.830059 12.3394 0.870059 12.3394H4.70006H4.72006L4.77006 12.3594Z" fill="white"/>
<path d="M10.49 12.3594C10.49 12.3594 10.55 12.3194 10.55 12.2494C10.55 12.1794 10.53 12.1294 10.49 12.0894C10.43 12.0494 10.33 12.0194 10.21 11.9994C10.09 11.9794 9.96003 11.9694 9.83003 11.9394C9.70003 11.9094 9.59003 11.8594 9.49003 11.7894C9.39003 11.7194 9.35003 11.5994 9.35003 11.4494L9.35003 0.109375C9.35003 0.049375 9.35003 0.0193744 9.31003 -0.00062561C9.29003 -0.0206256 9.27003 -0.0206223 9.24003 -0.0206223C9.14003 -0.0206223 9.03003 -0.0206213 8.91003 0.0193787C8.79003 0.0593787 8.69003 0.0793771 8.57003 0.119377C8.33003 0.219377 8.08003 0.309376 7.84003 0.399376C7.60003 0.489376 7.36003 0.589378 7.12003 0.729378C7.11003 0.729378 7.08003 0.749379 7.05003 0.769379C7.01003 0.789379 6.98003 0.809376 6.94003 0.829376C6.90003 0.849376 6.88003 0.87938 6.85003 0.91938C6.82003 0.95938 6.81003 0.979379 6.81003 1.01938C6.81003 1.07938 6.81003 1.12938 6.81003 1.16938C6.81003 1.20938 6.83003 1.22938 6.87003 1.25938C6.98003 1.25938 7.07003 1.23938 7.14003 1.21938C7.21003 1.19938 7.28003 1.19937 7.35003 1.17937C7.42003 1.17937 7.46003 1.16938 7.48003 1.16938C7.57003 1.14938 7.65003 1.13938 7.72003 1.14938C7.79003 1.15938 7.84003 1.26938 7.87003 1.47938C7.88003 1.60938 7.89003 1.73938 7.88003 1.85938L7.88003 5.29938C7.88003 6.34938 7.88003 7.40938 7.88003 8.45938C7.88003 9.51938 7.86003 10.5694 7.79003 11.6194C7.79003 11.7194 7.73003 11.7894 7.63003 11.8394C7.53003 11.8894 7.41003 11.9294 7.27003 11.9494C7.13003 11.9694 7.00003 11.9994 6.86003 12.0094C6.72003 12.0194 6.64003 12.0494 6.59003 12.0794C6.55003 12.1194 6.53003 12.1694 6.53003 12.2294C6.53003 12.3094 6.55003 12.3394 6.59003 12.3394H10.42H10.44L10.49 12.3594Z" fill="white"/>
<path d="M15.6401 27.7397V27.3997C15.5301 27.3397 15.4301 27.2497 15.3301 27.1197C15.2001 26.8897 15.0901 26.6097 14.9901 26.2597C14.8901 25.9097 14.8301 25.5197 14.8001 25.0997C14.7601 24.6597 14.7301 24.2397 14.7001 23.8197C14.6801 23.3997 14.6601 23.0097 14.6601 22.6597V20.9297C14.6601 20.5697 14.6601 20.1697 14.7001 19.7497C14.7201 19.3397 14.7601 18.9097 14.8001 18.4697C14.8401 18.0297 14.9101 17.6497 14.9901 17.3097C15.0801 16.9697 15.1901 16.6897 15.3301 16.4697C15.4201 16.3297 15.5201 16.2297 15.6401 16.1797V15.8097H15.2901C15.0301 15.8097 14.8001 15.9197 14.6001 16.1197C14.4001 16.3197 14.2401 16.6097 14.0901 16.9497C13.9401 17.2897 13.8201 17.6797 13.7301 18.0997C13.6301 18.5297 13.5501 18.9597 13.4901 19.4097C13.4301 19.8597 13.3901 20.2797 13.3701 20.6997C13.3501 21.1197 13.3301 21.4797 13.3301 21.7897C13.3301 22.4397 13.3701 23.1097 13.4401 23.8197C13.5101 24.5297 13.6401 25.1597 13.8301 25.7497C14.0201 26.3297 14.2701 26.8097 14.5901 27.1897C14.8801 27.5297 15.2201 27.6997 15.6301 27.7497L15.6401 27.7397ZM17.2901 25.9397L17.6001 25.6297L14.4401 17.9597L14.1301 18.2697L17.2901 25.9397ZM16.3601 15.7997H15.9501V16.1397C16.1101 16.1697 16.2501 16.2697 16.3601 16.4497C16.5001 16.6597 16.6101 16.9497 16.7001 17.2897C16.7901 17.6397 16.8501 18.0297 16.8901 18.4397C16.9301 18.8497 16.9501 19.2797 16.9701 19.7097C16.9801 20.1297 16.9901 20.5297 16.9801 20.8997V22.8897C16.9801 23.2797 16.9801 23.6597 16.9601 24.0397C16.9401 24.4197 16.9201 24.7997 16.8901 25.1797C16.8501 25.5597 16.7901 25.9097 16.7101 26.2197C16.6401 26.5297 16.5301 26.8097 16.4001 27.0797C16.3001 27.2697 16.1701 27.3797 16.0101 27.4397V27.7697H16.1201C16.2101 27.7897 16.2901 27.7797 16.3701 27.7697C16.5701 27.7097 16.7501 27.6097 16.9201 27.4597C17.0901 27.2997 17.2501 27.1197 17.3801 26.9097C17.5901 26.5897 17.7501 26.2197 17.8901 25.8197C18.0301 25.4197 18.1301 24.9797 18.2001 24.5297C18.2701 24.0697 18.3201 23.6197 18.3501 23.1497C18.3801 22.6797 18.3901 22.2397 18.3901 21.7997C18.3901 21.4897 18.3801 21.1297 18.3501 20.7097C18.3301 20.2997 18.2801 19.8697 18.2201 19.4197C18.1601 18.9697 18.0701 18.5397 17.9701 18.1097C17.8701 17.6797 17.7401 17.2997 17.5901 16.9497C17.4401 16.5997 17.2601 16.3197 17.0601 16.1197C16.8601 15.9197 16.6201 15.8097 16.3601 15.8097H16.3501L16.3601 15.7997Z" fill="white"/>
<path d="M21.83 26.9013L24.25 17.0913C24.25 17.0913 24.25 17.0113 24.25 16.9213V16.0613C24.25 15.9613 24.21 15.9012 24.14 15.9012H19.63C19.56 15.9012 19.52 15.9613 19.52 16.0613V17.5513C19.52 17.6513 19.56 17.7113 19.63 17.7113H23.67C23.67 17.7113 23.71 17.7513 23.73 17.8013C23.75 17.8513 23.77 17.9013 23.77 17.9213C23.78 17.9913 23.76 18.0713 23.68 18.1613C23.6 18.2513 23.57 18.3112 23.54 18.3612C23.5 18.4512 23.47 18.5413 23.44 18.6413C23.41 18.7413 23.38 18.8412 23.35 18.9312C23.04 19.8212 22.73 20.6913 22.41 21.5513C22.09 22.4113 21.79 23.2912 21.49 24.1712L20.99 25.6313C20.93 25.7913 20.88 25.9413 20.82 26.0913C20.76 26.2513 20.7 26.4013 20.65 26.5713L20.4 27.3913C20.36 27.4813 20.4 27.5312 20.47 27.5312H21.58C21.58 27.5312 21.64 27.5113 21.66 27.4513C21.68 27.3913 21.71 27.3412 21.72 27.2612C21.73 27.1812 21.75 27.1113 21.76 27.0513C21.77 26.9913 21.78 26.9313 21.79 26.8913V26.9013H21.83Z" fill="white"/>
<path d="M0.0699609 61.9917H4.18996C4.18996 61.9917 4.25996 61.9517 4.24996 61.8917C4.23996 61.8317 4.22996 61.7817 4.18996 61.7417C4.11996 61.7017 4.02996 61.6717 3.88996 61.6617C3.74996 61.6617 3.61996 61.6317 3.47996 61.6017C3.34996 61.5817 3.21996 61.5317 3.11996 61.4617C3.01996 61.3917 2.96996 61.2917 2.96996 61.1517L2.96996 50.4617C2.96996 50.4017 2.96996 50.3717 2.92996 50.3617C2.90996 50.3517 2.87996 50.3417 2.85996 50.3417C2.74996 50.3417 2.62996 50.3417 2.50996 50.3717C2.38996 50.4017 2.26996 50.4317 2.14996 50.4617C1.88996 50.5517 1.62996 50.6417 1.35996 50.7217C1.09996 50.8117 0.849961 50.9117 0.579961 51.0317C0.569961 51.0317 0.539961 51.0517 0.499961 51.0717C0.459961 51.0817 0.419961 51.1117 0.389961 51.1317C0.349961 51.1517 0.319961 51.1817 0.299961 51.2117C0.279961 51.2417 0.259961 51.2717 0.259961 51.3017C0.259961 51.3617 0.259961 51.4117 0.259961 51.4417C0.259961 51.4717 0.289961 51.5017 0.329961 51.5217C0.439961 51.5217 0.539961 51.5017 0.619961 51.4917C0.699961 51.4817 0.769961 51.4717 0.839961 51.4617C0.909961 51.4517 0.949961 51.4517 0.979961 51.4517C1.07996 51.4317 1.16996 51.4317 1.23996 51.4417C1.30996 51.4517 1.36996 51.5517 1.39996 51.7517C1.40996 51.8717 1.41996 51.9917 1.40996 52.1117L1.40996 55.3517C1.40996 56.3417 1.40996 57.3417 1.40996 58.3317C1.40996 59.3217 1.38996 60.3217 1.31996 61.3117C1.31996 61.4017 1.25996 61.4717 1.13996 61.5217C1.01996 61.5717 0.899961 61.6117 0.749961 61.6317C0.599961 61.6517 0.459961 61.6817 0.309961 61.6917C0.169961 61.7017 0.0699609 61.7317 0.0199609 61.7617C-0.0200391 61.7917 -0.0400391 61.8417 -0.0400391 61.9017C-0.0400391 61.9717 -0.0200391 62.0117 0.0299609 62.0117L0.0699609 61.9917Z" fill="white"/>
<path d="M6.21986 61.9917H10.3399C10.3399 61.9917 10.4099 61.9517 10.3999 61.8917C10.3999 61.8217 10.3799 61.7817 10.3399 61.7417C10.2699 61.7017 10.1799 61.6717 10.0399 61.6617C9.89986 61.6517 9.76986 61.6317 9.62986 61.6017C9.49986 61.5817 9.36986 61.5317 9.26986 61.4617C9.16986 61.3917 9.11986 61.2917 9.11986 61.1517L9.11986 50.4617C9.11986 50.4017 9.11986 50.3717 9.07986 50.3617C9.05986 50.3517 9.02986 50.3417 9.00986 50.3417C8.89986 50.3417 8.77986 50.3417 8.65986 50.3717C8.53986 50.4017 8.41986 50.4317 8.29986 50.4617C8.03986 50.5517 7.77986 50.6417 7.50986 50.7217C7.24986 50.8117 6.99986 50.9117 6.72986 51.0317C6.71986 51.0317 6.68986 51.0517 6.64986 51.0717C6.60986 51.0917 6.56986 51.1117 6.53986 51.1317C6.50986 51.1517 6.46986 51.1817 6.44986 51.2117C6.42986 51.2417 6.40986 51.2717 6.40986 51.3017C6.40986 51.3617 6.40986 51.4117 6.40986 51.4417C6.40986 51.4717 6.43986 51.5017 6.47986 51.5217C6.58986 51.5217 6.68986 51.5017 6.76986 51.4917C6.84986 51.4817 6.91986 51.4717 6.98986 51.4617C7.05986 51.4617 7.09986 51.4517 7.12986 51.4517C7.22986 51.4317 7.31986 51.4317 7.38986 51.4417C7.45986 51.4517 7.51986 51.5517 7.54986 51.7517C7.55986 51.8717 7.56986 51.9917 7.55986 52.1117V55.3517C7.55986 56.3417 7.55986 57.3417 7.55986 58.3317C7.55986 59.3217 7.53986 60.3217 7.46986 61.3117C7.46986 61.4017 7.40986 61.4717 7.28986 61.5217C7.16986 61.5717 7.04986 61.6117 6.89986 61.6317C6.74986 61.6517 6.60986 61.6817 6.45986 61.6917C6.30986 61.7017 6.21986 61.7317 6.16986 61.7617C6.12986 61.7917 6.10986 61.8417 6.10986 61.9017C6.10986 61.9717 6.12986 62.0117 6.17986 62.0117L6.21986 61.9917Z" fill="white"/>
<path d="M12.86 77.9917H16.98C16.98 77.9917 17.05 77.9517 17.04 77.8917C17.04 77.8217 17.02 77.7817 16.98 77.7417C16.91 77.7017 16.82 77.6717 16.68 77.6617C16.54 77.6617 16.41 77.6317 16.27 77.6017C16.14 77.5817 16.01 77.5317 15.91 77.4617C15.81 77.3917 15.76 77.2917 15.76 77.1517L15.76 66.4617C15.76 66.4017 15.76 66.3717 15.72 66.3617C15.7 66.3517 15.67 66.3417 15.65 66.3417C15.54 66.3417 15.42 66.3417 15.3 66.3717C15.18 66.4017 15.06 66.4317 14.94 66.4617C14.68 66.5517 14.42 66.6417 14.15 66.7217C13.89 66.8117 13.64 66.9117 13.37 67.0317C13.36 67.0317 13.33 67.0517 13.29 67.0717C13.25 67.0817 13.21 67.1117 13.18 67.1317C13.15 67.1517 13.11 67.1817 13.09 67.2117C13.07 67.2417 13.05 67.2717 13.05 67.3017C13.05 67.3617 13.05 67.4117 13.05 67.4417C13.05 67.4717 13.08 67.5017 13.12 67.5217C13.23 67.5217 13.33 67.5017 13.41 67.4917C13.49 67.4817 13.56 67.4717 13.63 67.4617C13.7 67.4517 13.74 67.4517 13.77 67.4517C13.87 67.4317 13.96 67.4317 14.03 67.4417C14.1 67.4517 14.16 67.5517 14.19 67.7517C14.2 67.8717 14.21 67.9917 14.2 68.1117L14.2 71.3517C14.2 72.3417 14.2 73.3417 14.2 74.3317C14.2 75.3217 14.18 76.3217 14.11 77.3117C14.11 77.4017 14.05 77.4717 13.93 77.5217C13.81 77.5717 13.69 77.6117 13.54 77.6317C13.39 77.6517 13.25 77.6817 13.1 77.6917C12.95 77.7017 12.86 77.7317 12.81 77.7617C12.77 77.7917 12.75 77.8417 12.75 77.9017C12.75 77.9717 12.77 78.0117 12.82 78.0117L12.86 77.9917Z" fill="white"/>
<path d="M19.0099 77.9917H23.1299C23.1299 77.9917 23.1999 77.9517 23.1899 77.8917C23.1799 77.8317 23.1699 77.7817 23.1299 77.7417C23.0599 77.7017 22.9699 77.6717 22.8299 77.6617C22.6899 77.6617 22.5599 77.6317 22.4199 77.6017C22.2899 77.5817 22.1599 77.5317 22.0599 77.4617C21.9599 77.3917 21.9099 77.2917 21.9099 77.1517V66.4617C21.9099 66.4017 21.9099 66.3717 21.8699 66.3617C21.8499 66.3517 21.8199 66.3417 21.7999 66.3417C21.6899 66.3417 21.5699 66.3417 21.4499 66.3717C21.3299 66.4017 21.2099 66.4317 21.0899 66.4617C20.8299 66.5517 20.5699 66.6417 20.2999 66.7217C20.0399 66.8117 19.7899 66.9117 19.5199 67.0317C19.5099 67.0317 19.4799 67.0517 19.4399 67.0717C19.3999 67.0817 19.3599 67.1117 19.3299 67.1317C19.2999 67.1517 19.2599 67.1817 19.2399 67.2117C19.2199 67.2417 19.1999 67.2717 19.1999 67.3017C19.1999 67.3617 19.1999 67.4117 19.1999 67.4417C19.1999 67.4717 19.2299 67.5017 19.2699 67.5217C19.3799 67.5217 19.4799 67.5017 19.5599 67.4917C19.6399 67.4817 19.7099 67.4717 19.7799 67.4617C19.8499 67.4517 19.8899 67.4517 19.9199 67.4517C20.0199 67.4317 20.1099 67.4317 20.1799 67.4417C20.2499 67.4517 20.3099 67.5517 20.3399 67.7517C20.3499 67.8717 20.3599 67.9917 20.3499 68.1117V71.3517C20.3499 72.3417 20.3499 73.3417 20.3499 74.3317C20.3499 75.3217 20.3299 76.3217 20.2599 77.3117C20.2599 77.4017 20.1999 77.4717 20.0799 77.5217C19.9599 77.5717 19.8399 77.6117 19.6899 77.6317C19.5399 77.6517 19.3999 77.6817 19.2499 77.6917C19.0999 77.7017 19.0099 77.7317 18.9599 77.7617C18.9199 77.7917 18.8999 77.8417 18.8999 77.9017C18.8999 77.9717 18.9199 78.0117 18.9699 78.0117L19.0099 77.9917Z" fill="white"/>
<path d="M9.33008 21.2305L14.3801 11.5905" stroke="white" stroke-width="0.37" stroke-miterlimit="10"/>
<path d="M8.91992 70.1211L13.9699 60.4811" stroke="white" stroke-width="0.37" stroke-miterlimit="10"/>
<path d="M11.8599 43.0117V38.8317" stroke="white" stroke-width="0.37" stroke-miterlimit="10"/>
<path d="M19.46 2.45703H19.92V2.41703C19.61 2.39703 19.61 2.35703 19.61 2.14703V0.347031C19.61 0.137031 19.61 0.107026 19.92 0.0770264V0.0370255H19.46V2.44703V2.45703Z" fill="white"/>
<path d="M20.25 2.00781H20.92C21.5 2.00781 22.17 1.78781 22.17 1.01781C22.17 0.757815 22.08 0.557816 21.93 0.417816C21.75 0.247816 21.47 0.187813 21.12 0.187813H20.27V0.227814C20.51 0.237814 20.53 0.287815 20.53 0.517815V1.67781C20.53 1.90781 20.51 1.95781 20.24 1.96781V2.00781H20.25ZM20.68 1.67781V0.317818C20.68 0.257818 20.69 0.257812 20.7 0.257812H20.96C21.25 0.257813 21.43 0.297816 21.56 0.347816C21.83 0.477816 21.97 0.777811 21.97 1.10781C21.97 1.49781 21.73 1.95782 21.02 1.95782C20.73 1.95782 20.68 1.91781 20.68 1.68781V1.67781Z" fill="white"/>
<path d="M23.2599 2.04859L23.5099 1.91859L23.4899 1.86859C23.4899 1.86859 23.4099 1.90859 23.3599 1.90859C23.2999 1.90859 23.2599 1.85859 23.2599 1.74859V1.11859C23.2599 0.858591 23.0799 0.768593 22.9399 0.768593C22.7999 0.808593 22.5999 0.91859 22.5299 0.96859C22.4799 0.98859 22.4399 1.0286 22.4399 1.0686C22.4399 1.1286 22.4899 1.16859 22.5299 1.16859C22.5699 1.16859 22.5899 1.13859 22.5899 1.11859C22.6399 0.878591 22.7999 0.878591 22.8499 0.868591C23.1099 0.868591 23.1099 1.12859 23.1099 1.25859C23.0499 1.29859 22.8599 1.36859 22.7099 1.41859C22.5099 1.47859 22.4199 1.5786 22.4199 1.7086C22.4199 1.8886 22.5599 2.04859 22.7599 2.04859C22.8699 2.04859 22.9999 1.94859 23.1099 1.85859C23.1299 1.91859 23.1399 1.95859 23.1699 1.99859C23.1999 2.02859 23.2599 2.05859 23.2599 2.05859H23.2499L23.2599 2.04859ZM23.1099 1.76859C23.0499 1.83859 22.9199 1.91859 22.8199 1.91859C22.7199 1.91859 22.5999 1.83859 22.5999 1.68859C22.5999 1.57859 22.6799 1.52859 22.8099 1.47859C22.8699 1.45859 23.0599 1.37859 23.1199 1.34859V1.76859H23.1099Z" fill="white"/>
<path d="M24.1598 2.00906L24.3398 1.91907L24.3198 1.87907C24.3198 1.87907 24.2198 1.93906 24.1198 1.93906C24.0198 1.93906 23.9398 1.88906 23.9398 1.64906V0.889069H24.2698C24.2698 0.889069 24.2998 0.849063 24.2998 0.829063C24.2998 0.829063 24.2998 0.809062 24.2998 0.789062H23.9498V0.429062H23.9098L23.8098 0.629066V0.789062H23.6698L23.5898 0.849068V0.889069H23.8098V1.72906C23.8098 1.91906 23.8898 2.03906 24.0498 2.03906C24.0898 2.03906 24.1098 2.03906 24.1598 1.99906V2.00906Z" fill="white"/>
<path d="M25.4299 1.78734L25.3899 1.74734C25.2399 1.88734 25.1299 1.90734 25.0399 1.90734C24.8399 1.90734 24.5799 1.74734 24.5799 1.30734C24.9799 1.30734 25.3599 1.26734 25.3999 1.24734C25.4399 1.22734 25.4499 1.22734 25.4499 1.16734C25.4499 0.957343 25.2699 0.757339 25.0199 0.757339C24.7799 0.757339 24.4299 1.01734 24.4299 1.44734C24.4299 1.75734 24.6399 2.02734 24.9899 2.02734C25.0599 2.02734 25.2499 1.96734 25.4299 1.76734V1.78734ZM24.5999 1.20734C24.6399 0.967344 24.7999 0.847343 24.9399 0.847343C25.1499 0.847343 25.2799 0.997341 25.2799 1.15734C25.2799 1.17734 25.2799 1.20734 25.2099 1.20734C25.0799 1.20734 24.6699 1.20734 24.6099 1.20734H24.5999Z" fill="white"/>
<path d="M26.23 0.0487518H25.77V0.0887527C26.08 0.108753 26.08 0.148749 26.08 0.358749V2.15875C26.08 2.36875 26.08 2.39875 25.77 2.42875V2.46875H26.23V0.058754V0.0487518Z" fill="white"/>
<path d="M4.15991 31.2812H4.61991V31.2413C4.30991 31.2213 4.30991 31.1813 4.30991 30.9713V29.1712C4.30991 28.9612 4.30991 28.9313 4.61991 28.9013V28.8613H4.15991V31.2713V31.2812Z" fill="white"/>
<path d="M5.35995 30.7998V30.8398H6.14995V30.7998C5.84995 30.7898 5.82995 30.7398 5.82995 30.5098V29.0798H6.08995C6.33995 29.0798 6.44995 29.1198 6.51995 29.4498H6.56995C6.55995 29.2598 6.52995 29.0898 6.54995 28.9498H6.49995C6.45995 29.0098 6.43995 29.0198 6.35995 29.0198H5.18995C5.18995 29.0198 5.11995 29.0198 5.09995 29.0198C5.07995 29.0198 5.05995 28.9998 5.03995 28.9598H4.98995C4.98995 29.1198 4.97995 29.2998 4.94995 29.4698H4.99995C5.08995 29.1598 5.12995 29.0998 5.50995 29.0998H5.68995V30.5298C5.68995 30.7498 5.66995 30.7998 5.37995 30.8198L5.35995 30.7998Z" fill="white"/>
<path d="M6.67992 30.7998V30.8398H7.25992V30.7998C7.05992 30.7998 7.02992 30.7398 7.02992 30.5398V29.8898C7.11992 29.7898 7.23992 29.7298 7.37992 29.7198C7.65992 29.7198 7.73992 29.8698 7.73992 30.1398V30.5398C7.73992 30.7398 7.71992 30.7798 7.51992 30.7998V30.8398H8.08992V30.7998C7.90992 30.7998 7.87992 30.7398 7.87992 30.5598V30.0698C7.87992 29.7298 7.71992 29.5898 7.48992 29.5898C7.31992 29.5898 7.14992 29.6898 7.02992 29.8098V28.8198C6.94992 28.8498 6.80992 28.8898 6.66992 28.9198V28.9598C6.86992 28.9998 6.88992 29.0098 6.88992 29.1998V30.5598C6.88992 30.7398 6.85992 30.7798 6.67992 30.7998Z" fill="white"/>
<path d="M8.55996 30.3689V29.9889C8.55996 29.7789 8.55996 29.6689 8.55996 29.6089C8.49996 29.6189 8.27996 29.6589 8.20996 29.6689V29.6989L8.29996 29.7189C8.35996 29.7389 8.39996 29.7489 8.39996 29.9289V30.4689C8.39996 30.7889 8.57996 30.8789 8.74996 30.8789C8.82996 30.8789 8.88996 30.8689 8.96996 30.8189C9.06996 30.7589 9.13996 30.7089 9.21996 30.6489V30.8689H9.22996C9.33996 30.8489 9.46996 30.7989 9.58996 30.7789V30.7389H9.49996C9.38996 30.7289 9.34996 30.7089 9.34996 30.5589V29.6089C9.27996 29.6289 9.07996 29.6589 8.95996 29.6689V29.7089L9.06996 29.7289C9.16996 29.7489 9.21996 29.7589 9.21996 29.9389V30.5789C9.09996 30.6989 8.95996 30.7589 8.83996 30.7589C8.67996 30.7589 8.53996 30.6789 8.53996 30.3989V30.3789L8.55996 30.3689Z" fill="white"/>
<path d="M9.98986 30.8789C10.0699 30.8789 10.1199 30.8189 10.1199 30.7489C10.1199 30.6789 10.0599 30.6189 9.98986 30.6189C9.91986 30.6189 9.85986 30.6789 9.85986 30.7489C9.85986 30.8189 9.90986 30.8789 9.98986 30.8789Z" fill="white"/>
<path d="M11.0298 28.8808H10.5698V28.9208C10.8798 28.9408 10.8798 28.9808 10.8798 29.1908V30.9908C10.8798 31.2008 10.8798 31.2308 10.5698 31.2608V31.3008H11.0298V28.8908V28.8808Z" fill="white"/>
<path d="M2.51001 79.9023H2.97001V79.8623C2.66001 79.8423 2.66001 79.8023 2.66001 79.5923L2.66001 77.7923C2.66001 77.5823 2.66001 77.5523 2.97001 77.5223V77.4823H2.51001L2.51001 79.8923V79.9023Z" fill="white"/>
<path d="M3.36002 77.6409V77.6809C3.58002 77.7009 3.63002 77.7409 3.63002 77.9509V78.1409L3.59002 78.6809C3.57002 78.9809 3.55002 79.1509 3.53002 79.2409C3.51002 79.3509 3.44002 79.4009 3.27002 79.4209V79.4609H3.97002V79.4209C3.70002 79.4009 3.67002 79.3209 3.67002 79.0309C3.67002 78.9509 3.67002 78.8509 3.67002 78.7209L3.71002 77.9309L4.43002 79.4209H4.45002L5.24002 77.8309V79.0509C5.25002 79.3509 5.25002 79.3909 4.99002 79.4109V79.4509H5.70002V79.4109C5.43002 79.3909 5.41002 79.3509 5.41002 79.0509L5.39002 78.0109C5.39002 77.7209 5.40002 77.6909 5.68002 77.6609V77.6209H5.26002L4.49002 79.1609L3.73002 77.6209H3.35002H3.36002V77.6409Z" fill="white"/>
<path d="M7.20993 78.83C7.20993 78.49 6.92993 78.22 6.56993 78.22C6.32993 78.22 5.92993 78.41 5.92993 78.89C5.92993 79.2 6.18993 79.5 6.56993 79.5C6.84993 79.5 7.20993 79.28 7.20993 78.84V78.83ZM6.53993 78.29C6.85993 78.29 7.02993 78.6 7.02993 78.88C7.02993 79.27 6.84993 79.43 6.60993 79.43C6.29993 79.43 6.10993 79.17 6.10993 78.79C6.10993 78.5 6.26993 78.29 6.53993 78.29Z" fill="white"/>
<path d="M7.41991 79.4209V79.4609H8.00991V79.4209C7.80991 79.4109 7.77991 79.3609 7.77991 79.1809V78.5209C7.86991 78.4309 8.01991 78.3409 8.15991 78.3409C8.42991 78.3409 8.46991 78.5309 8.46991 78.6909V79.1709C8.46991 79.3609 8.42991 79.4109 8.22991 79.4109V79.4509H8.78991V79.4109C8.62991 79.4009 8.59991 79.3709 8.59991 79.1709V78.5909C8.59991 78.3609 8.45991 78.2109 8.21991 78.2109C8.12991 78.2109 8.05991 78.2409 7.97991 78.3009C7.88991 78.3609 7.81991 78.4109 7.75991 78.4509V78.2109C7.66991 78.2809 7.54991 78.3009 7.43991 78.3309V78.3709C7.59991 78.4109 7.61991 78.4109 7.61991 78.6109V79.2009C7.61991 79.3809 7.56991 79.4109 7.40991 79.4309L7.41991 79.4209Z" fill="white"/>
<path d="M9.22009 79.5C9.30009 79.5 9.35009 79.44 9.35009 79.37C9.35009 79.3 9.29009 79.24 9.22009 79.24C9.15009 79.24 9.09009 79.3 9.09009 79.37C9.09009 79.44 9.14009 79.5 9.22009 79.5Z" fill="white"/>
<path d="M10.26 77.5019H9.80005V77.5419C10.11 77.5619 10.11 77.6019 10.11 77.8119V79.6119C10.11 79.8219 10.11 79.8519 9.80005 79.8819V79.9219H10.26V77.5119V77.5019Z" fill="white"/>
<path d="M15.6899 35.5303V35.5703H16.4599V35.5303C16.1699 35.5103 16.1499 35.4703 16.1499 35.2703V33.7903C16.0499 33.8503 15.8999 33.9003 15.7099 33.9303V33.9703H15.8399C15.9899 34.0003 15.9999 34.0203 15.9999 34.1503V35.2703C15.9999 35.4603 15.9799 35.4903 15.6899 35.5303Z" fill="white"/>
<path d="M17.05 35.5303V35.5703H17.82V35.5303C17.53 35.5103 17.51 35.4703 17.51 35.2703V33.7903C17.41 33.8503 17.26 33.9003 17.07 33.9303V33.9703H17.2001C17.3501 34.0003 17.3601 34.0203 17.3601 34.1503V35.2703C17.3601 35.4603 17.34 35.4903 17.05 35.5303Z" fill="white"/>
<path d="M18.43 34.3794C18.35 34.3794 18.29 34.4394 18.29 34.5094C18.29 34.5994 18.35 34.6394 18.43 34.6394C18.51 34.6394 18.57 34.5794 18.57 34.5094C18.57 34.4494 18.51 34.3794 18.43 34.3794ZM18.43 35.6094C18.52 35.6094 18.57 35.5494 18.57 35.4794C18.57 35.4094 18.51 35.3494 18.43 35.3494C18.35 35.3494 18.29 35.4094 18.29 35.4794C18.29 35.5494 18.34 35.6094 18.43 35.6094Z" fill="white"/>
<path d="M19.4398 33.7994C19.0098 33.7994 18.8398 34.2894 18.8398 34.6994C18.8398 35.1094 19.0198 35.6094 19.4398 35.6094C19.8598 35.6094 20.0298 35.1094 20.0298 34.6994C20.0298 34.2894 19.8698 33.7994 19.4398 33.7994ZM19.4398 33.8694C19.7598 33.8694 19.8498 34.3094 19.8498 34.7094C19.8498 35.1094 19.7798 35.5494 19.4398 35.5494C19.0998 35.5494 19.0198 35.1194 19.0198 34.7094C19.0198 34.2994 19.1098 33.8694 19.4398 33.8694Z" fill="white"/>
<path d="M20.7999 33.7994C20.3699 33.7994 20.2 34.2894 20.2 34.6994C20.2 35.1094 20.3799 35.6094 20.7999 35.6094C21.2199 35.6094 21.3899 35.1094 21.3899 34.6994C21.3899 34.2894 21.2299 33.7994 20.7999 33.7994ZM20.8099 33.8694C21.1299 33.8694 21.2199 34.3094 21.2199 34.7094C21.2199 35.1094 21.1499 35.5494 20.8099 35.5494C20.4699 35.5494 20.3899 35.1194 20.3899 34.7094C20.3899 34.2994 20.4799 33.8694 20.8099 33.8694Z" fill="white"/>
<path d="M23.3701 35.5303V35.5703H24.08V35.5303C23.87 35.5003 23.84 35.4703 23.74 35.2503C23.63 34.9703 23.48 34.6103 23.34 34.2403L23.13 33.7003H23.09L22.42 35.2003C22.31 35.4603 22.26 35.4903 22.05 35.5303V35.5703H22.76V35.5303C22.58 35.5103 22.5 35.4903 22.5 35.3903C22.5 35.2903 22.6601 34.9003 22.6901 34.8503H23.41C23.52 35.1203 23.6201 35.3403 23.6201 35.4203C23.6201 35.4903 23.56 35.5103 23.38 35.5303H23.3701ZM23.08 33.9803L23.38 34.7603H22.72C22.82 34.5203 22.94 34.2403 23.07 33.9803H23.08Z" fill="white"/>
<path d="M24.2299 33.7503V33.7903C24.4699 33.8103 24.5199 33.8503 24.5199 34.0603V34.2503L24.4799 34.7903C24.4599 35.0903 24.4299 35.2703 24.4099 35.3503C24.3899 35.4603 24.3199 35.5103 24.1199 35.5303V35.5703H24.8699V35.5303C24.5799 35.5103 24.5499 35.4303 24.5499 35.1403C24.5499 35.0603 24.5499 34.9603 24.5599 34.8303L24.5999 34.0403L25.3599 35.5303H25.3899L26.2299 33.9303H26.2399V35.1603C26.2499 35.4603 26.2499 35.5003 25.9799 35.5203V35.5603H26.7399V35.5203C26.4499 35.5003 26.4399 35.4603 26.4299 35.1603L26.4099 34.1203C26.3999 33.8303 26.4199 33.8003 26.7099 33.7703V33.7303H26.2599L25.4299 35.2803L24.5999 33.7303H24.1999H24.2299V33.7503Z" fill="white"/>
<path d="M16.8201 83.9984H16.8701C16.9401 83.7984 16.9601 83.7784 17.1701 83.7784H17.8301C17.5801 84.3184 17.2901 84.8584 16.9301 85.3784L16.9501 85.3984L17.1401 85.3784C17.4101 84.8084 17.6801 84.2284 17.9801 83.6684L17.9601 83.6284H16.8501C16.8401 83.7484 16.8301 83.8684 16.8101 83.9884L16.8201 83.9984Z" fill="white"/>
<path d="M18.39 84.1802C18.31 84.1802 18.25 84.2402 18.25 84.3102C18.25 84.4002 18.31 84.4402 18.39 84.4402C18.47 84.4402 18.53 84.3802 18.53 84.3102C18.53 84.2502 18.47 84.1802 18.39 84.1802ZM18.39 85.4102C18.48 85.4102 18.53 85.3502 18.53 85.2802C18.53 85.2102 18.47 85.1502 18.39 85.1502C18.31 85.1502 18.25 85.2102 18.25 85.2802C18.25 85.3502 18.3 85.4102 18.39 85.4102Z" fill="white"/>
<path d="M19.4 83.6002C18.97 83.6002 18.8 84.0902 18.8 84.5002C18.8 84.9102 18.98 85.4102 19.4 85.4102C19.82 85.4102 19.99 84.9102 19.99 84.5002C19.99 84.0902 19.83 83.6002 19.4 83.6002ZM19.4 83.6702C19.72 83.6702 19.81 84.1102 19.81 84.5102C19.81 84.9102 19.74 85.3502 19.4 85.3502C19.06 85.3502 18.98 84.9202 18.98 84.5102C18.98 84.1002 19.07 83.6702 19.4 83.6702Z" fill="white"/>
<path d="M20.7602 83.6002C20.3302 83.6002 20.1602 84.0902 20.1602 84.5002C20.1602 84.9102 20.3402 85.4102 20.7602 85.4102C21.1802 85.4102 21.3502 84.9102 21.3502 84.5002C21.3502 84.0902 21.1902 83.6002 20.7602 83.6002ZM20.7602 83.6702C21.0802 83.6702 21.1702 84.1102 21.1702 84.5102C21.1702 84.9102 21.1002 85.3502 20.7602 85.3502C20.4202 85.3502 20.3402 84.9202 20.3402 84.5102C20.3402 84.1002 20.4302 83.6702 20.7602 83.6702Z" fill="white"/>
<path d="M22.0801 85.3689H22.8801V85.3289C22.5701 85.3089 22.5401 85.2689 22.5401 85.0389V84.5489L22.7901 84.6089C23.0801 84.6389 23.5201 84.4589 23.5201 84.0389C23.5201 83.5489 23.0301 83.5289 22.8401 83.5289H22.1001V83.5689C22.3701 83.5789 22.3701 83.6289 22.3701 83.8589V85.0489C22.3701 85.2789 22.3501 85.3389 22.0801 85.3389V85.3789V85.3689ZM22.5501 84.4989V83.6889C22.5501 83.6289 22.5501 83.6189 22.5801 83.6189H22.7401C23.1201 83.6189 23.3201 83.7689 23.3201 84.0789C23.3201 84.4189 23.0901 84.5489 22.8201 84.5489C22.6701 84.5489 22.5901 84.5189 22.5601 84.5089L22.5501 84.4989Z" fill="white"/>
<path d="M23.7601 83.5511V83.5911C24.0001 83.6111 24.0501 83.6511 24.0501 83.8611V84.0511L24.0101 84.5911C23.9901 84.8911 23.9601 85.0711 23.9401 85.1511C23.9201 85.2611 23.8501 85.3111 23.6501 85.3311V85.3711H24.4001V85.3311C24.1101 85.3111 24.0801 85.2311 24.0801 84.9411C24.0801 84.8611 24.0801 84.7611 24.0901 84.6311L24.1301 83.8411L24.8901 85.3311H24.9201L25.7601 83.7311H25.7701V84.9611C25.7801 85.2611 25.7801 85.3011 25.5101 85.3211V85.3611H26.2701V85.3211C25.9801 85.3011 25.9701 85.2611 25.9601 84.9611L25.9401 83.9211C25.9301 83.6311 25.9501 83.6011 26.2401 83.5711V83.5311H25.7901L24.9601 85.0811L24.1301 83.5311H23.7301H23.7601V83.5511Z" fill="white"/>
<path d="M49.02 7.28219H48.12V6.85219H49.86C49.86 6.85219 49.92 6.84219 49.92 6.81219C49.92 6.78219 49.9 6.76219 49.81 6.70219C49.61 6.54219 49.58 6.53219 49.55 6.53219C49.53 6.53219 49.49 6.55218 49.31 6.75218H48.12V6.45219C48.23 6.41219 48.25 6.38219 48.25 6.35219C48.25 6.29219 48.21 6.28219 47.79 6.23219C47.81 6.34219 47.82 6.43218 47.82 6.72218V6.76218H46.48C46.36 6.76218 46.26 6.76218 46.12 6.72218L46.16 6.88219C46.27 6.87219 46.37 6.86218 46.47 6.86218H47.81V7.29218H47C46.86 7.22218 46.8 7.19219 46.65 7.13219C46.68 7.32219 46.68 7.50219 46.68 7.80219C46.68 8.39219 46.66 8.56219 46.66 8.66219C46.66 8.73219 46.7 8.76218 46.79 8.76218C46.92 8.76218 46.97 8.72219 46.97 8.63219V8.57219H47.63C47.24 9.10219 46.67 9.51219 46.04 9.78219C46.02 9.78219 46.04 9.85219 46.06 9.84219C46.82 9.62219 47.35 9.33219 47.83 8.78219C47.81 9.25219 47.79 9.76219 47.79 9.88219C47.79 9.96219 47.83 9.99219 47.93 9.99219C48.06 9.99219 48.13 9.95218 48.13 9.86218C48.13 9.73218 48.11 9.10218 48.09 8.61218C48.31 8.95218 48.55 9.19218 48.78 9.36218C48.99 9.52218 49.24 9.65218 49.47 9.75218C49.56 9.79218 49.64 9.81219 49.68 9.81219C49.71 9.81219 49.74 9.79219 49.77 9.71219C49.81 9.61219 49.87 9.55219 49.98 9.52219C50 9.52219 50 9.48219 49.98 9.48219C49.67 9.46219 49.34 9.37218 49.02 9.22218C48.68 9.06218 48.39 8.86219 48.16 8.56219H49.03V8.63219C49.03 8.72219 49.06 8.74219 49.16 8.74219C49.29 8.74219 49.35 8.70218 49.35 8.61218C49.35 8.53218 49.33 8.29219 49.33 7.77219V7.47218C49.42 7.41218 49.43 7.40218 49.43 7.37218C49.43 7.35218 49.43 7.31219 49.36 7.27219C49.24 7.17219 49.21 7.16219 49.17 7.16219C49.13 7.16219 49.12 7.18218 49 7.29218H49.01L49.02 7.28219ZM47.82 7.39219V7.86218H46.96V7.39219H47.82ZM47.82 7.97218V8.47218H46.96V7.97218H47.82ZM48.12 7.39219H49.05V7.86218H48.12V7.39219ZM48.12 7.96219H49.05V8.46219H48.12V7.96219Z" fill="white"/>
<path d="M46.1401 13.6692C46.1401 13.6692 46.1501 13.7392 46.1801 13.7292C46.6901 13.5092 46.9701 13.2792 47.2701 12.9192C47.4101 12.9192 47.4501 12.8992 47.4501 12.8592C47.4501 12.8192 47.3501 12.7592 47.0601 12.6292C47.0201 12.7192 46.9901 12.7992 46.9301 12.8892C46.7501 13.1492 46.4601 13.4592 46.1401 13.6792V13.6692ZM49.2901 10.8092H48.1501V10.4492C48.2601 10.3992 48.2901 10.3692 48.2901 10.3492C48.2901 10.2992 48.2301 10.2592 47.8101 10.2192C47.8301 10.3692 47.8301 10.4292 47.8301 10.5092V10.8192H46.4901C46.3801 10.8192 46.2801 10.8192 46.1501 10.7892L46.1901 10.9492C46.3001 10.9392 46.3801 10.9292 46.4901 10.9292H49.8501C49.8501 10.9292 49.9101 10.9192 49.9101 10.8892C49.9101 10.8592 49.8901 10.8392 49.8001 10.7692C49.6001 10.6092 49.5701 10.5892 49.5401 10.5892C49.5201 10.5892 49.4801 10.6092 49.2801 10.8292L49.2901 10.8092ZM48.1601 12.8292V12.2992H48.9001V12.3892C48.9001 12.4792 48.9301 12.5192 49.0301 12.5192C49.1401 12.5192 49.2101 12.4792 49.2101 12.3892C49.2101 12.3292 49.2001 12.1492 49.2001 11.7492V11.5592C49.3001 11.4992 49.3101 11.4792 49.3101 11.4492C49.3101 11.4292 49.2901 11.3992 49.2201 11.3492C49.0801 11.2392 49.0601 11.2192 49.0301 11.2192C49.0101 11.2192 48.9901 11.2292 48.8501 11.3692H47.1101C46.9701 11.2792 46.9001 11.2592 46.7501 11.2092C46.7701 11.3692 46.7701 11.4892 46.7701 11.7092C46.7701 12.1792 46.7501 12.2992 46.7501 12.3892C46.7501 12.4792 46.7901 12.4992 46.8901 12.4992C47.0201 12.4992 47.0701 12.4592 47.0701 12.3492V12.3092H47.8201V13.5192C47.8201 13.5192 47.8001 13.5792 47.7601 13.5792C47.6201 13.5792 47.4501 13.5792 47.2001 13.5392C47.1801 13.5392 47.1801 13.5892 47.2001 13.5992C47.5301 13.6692 47.6401 13.7292 47.6601 13.8592C47.6601 13.9392 47.6801 13.9492 47.7401 13.9492C47.8101 13.9492 47.9101 13.9192 47.9801 13.8892C48.0901 13.8292 48.1401 13.7692 48.1401 13.6092C48.1401 13.5092 48.1401 13.3592 48.1401 12.8492H48.1701L48.1601 12.8292ZM48.9101 12.1992H47.1101V11.4592H48.9101V12.1992ZM49.2001 13.3892C49.3301 13.6492 49.3601 13.6792 49.4501 13.6792C49.5401 13.6792 49.6101 13.5992 49.6101 13.4892C49.6101 13.2292 49.2401 12.8992 48.6501 12.6492C48.6301 12.6492 48.5901 12.6892 48.6101 12.7092C48.8901 12.9292 49.0701 13.1492 49.2001 13.3992V13.3892Z" fill="white"/>
<path d="M48.1201 15.4289H49.8401C49.8401 15.4289 49.9001 15.4189 49.9001 15.3889C49.9001 15.3589 49.8801 15.3289 49.7901 15.2589C49.5801 15.0989 49.5401 15.0689 49.5101 15.0689C49.4901 15.0689 49.4501 15.0889 49.2501 15.3289H48.0601C48.0701 15.1989 48.0801 15.0689 48.0901 14.9289C48.1001 14.7889 48.1001 14.6389 48.1001 14.4789C48.2101 14.4289 48.2401 14.4089 48.2401 14.3689C48.2401 14.3089 48.1701 14.2789 47.7501 14.2289C47.7601 14.3489 47.7701 14.4189 47.7701 14.5189C47.7701 14.8189 47.7601 15.0889 47.7301 15.3289H46.5401C46.4101 15.3289 46.3001 15.3289 46.1501 15.2989L46.1901 15.4589C46.3301 15.4489 46.4101 15.4389 46.5401 15.4389H47.7301C47.6701 15.8989 47.5701 16.2389 47.4201 16.5289C47.1401 17.0389 46.7401 17.4489 46.1001 17.7789C46.0801 17.7789 46.1001 17.8489 46.1301 17.8389C46.7701 17.6289 47.1901 17.3289 47.5201 16.9089C47.8001 16.5589 47.9601 16.1489 48.0601 15.5189C48.1701 16.1389 48.3701 16.6189 48.6501 16.9789C48.8401 17.2289 49.1401 17.5189 49.4401 17.6989C49.5501 17.7689 49.6201 17.8089 49.6601 17.8089C49.6801 17.8089 49.7101 17.7889 49.7201 17.7489C49.7801 17.6189 49.8201 17.5589 49.9401 17.5289C49.9601 17.5289 49.9701 17.4889 49.9401 17.4889C49.5601 17.3489 49.1801 17.1489 48.8801 16.8489C48.5001 16.4889 48.2601 16.0589 48.1201 15.4589H48.1101L48.1201 15.4289Z" fill="white"/>
<path d="M48.6101 19.4903H47.2101C47.0901 19.4903 47.0201 19.4803 46.8901 19.4503L46.9301 19.6103C47.0301 19.5903 47.1101 19.5803 47.2201 19.5803H48.6101C48.4701 19.7503 48.3401 19.8803 48.1301 20.0503C48.0601 20.0403 47.9701 20.0203 47.8201 20.0003C47.8301 20.1203 47.8301 20.1603 47.8301 20.3703H46.4601C46.3501 20.3703 46.2701 20.3703 46.1501 20.3403L46.1901 20.5003C46.3001 20.4803 46.3801 20.4803 46.4701 20.4803H47.8301V21.3803C47.8301 21.3803 47.8101 21.4503 47.7601 21.4503C47.6401 21.4503 47.4601 21.4403 47.1801 21.4103C47.1601 21.4103 47.1501 21.4603 47.1801 21.4703C47.5501 21.5503 47.6401 21.6103 47.6601 21.7303C47.6701 21.8003 47.6801 21.8203 47.7501 21.8203C47.8801 21.8203 47.9801 21.7803 48.0501 21.7203C48.1201 21.6603 48.1601 21.5903 48.1601 21.4603C48.1601 21.3303 48.1601 21.2303 48.1501 20.8203V20.4903H49.8601C49.8601 20.4903 49.9201 20.4803 49.9201 20.4503C49.9201 20.4203 49.9001 20.4003 49.8101 20.3203C49.6001 20.1603 49.5701 20.1403 49.5501 20.1403C49.5301 20.1403 49.4901 20.1603 49.3001 20.3903H48.1601V20.2403C48.2701 20.2003 48.2901 20.1703 48.2901 20.1403C48.2901 20.1203 48.2901 20.1003 48.2701 20.1003C48.5101 19.9803 48.6801 19.8703 48.9301 19.6803C49.0701 19.6703 49.1201 19.6503 49.1201 19.6103C49.1201 19.5903 49.1001 19.5603 49.0401 19.5003C48.8801 19.3703 48.8601 19.3503 48.8301 19.3503C48.8101 19.3503 48.7801 19.3603 48.6401 19.4903H48.6301H48.6101ZM46.6801 19.0703H49.4201C49.3801 19.2303 49.3301 19.3403 49.2601 19.4703C49.2601 19.4803 49.2801 19.5103 49.3001 19.5003C49.4401 19.4103 49.5601 19.3203 49.6401 19.2303C49.6701 19.2003 49.6801 19.1903 49.7301 19.1903C49.8601 19.1903 49.8901 19.1703 49.8901 19.1003C49.8901 19.0803 49.8701 19.0403 49.7901 18.9703C49.6201 18.8103 49.6001 18.7903 49.5701 18.7903C49.5401 18.7903 49.5101 18.8103 49.3801 18.9503H48.6901C48.8801 18.8003 49.0701 18.6203 49.2301 18.4403C49.3701 18.4403 49.4101 18.4203 49.4101 18.3703C49.4101 18.3303 49.3401 18.2703 49.0001 18.1303C48.9701 18.2303 48.9301 18.3403 48.8701 18.4703C48.7801 18.6303 48.6801 18.8003 48.5801 18.9503H46.6701C46.6701 18.8903 46.6601 18.8403 46.6501 18.7703C46.6501 18.7503 46.6101 18.7503 46.6101 18.7703C46.5801 19.0303 46.5101 19.1603 46.3101 19.2603C46.2101 19.3203 46.1801 19.3603 46.1801 19.4303C46.1801 19.5203 46.2501 19.5903 46.3501 19.5903C46.5401 19.5903 46.6901 19.3803 46.6901 19.0403H46.6801V19.0703ZM47.0501 18.6903C47.0901 18.8503 47.1201 18.8803 47.2101 18.8803C47.3101 18.8803 47.3801 18.7903 47.3801 18.7003C47.3801 18.5103 47.1901 18.3203 46.8401 18.2103C46.8201 18.2103 46.8001 18.2303 46.8201 18.2503C46.9201 18.3603 47.0001 18.5203 47.0401 18.6903H47.0501ZM47.9301 18.6403C47.9601 18.8003 47.9901 18.8303 48.0801 18.8303C48.1801 18.8303 48.2601 18.7503 48.2601 18.6403C48.2601 18.4503 48.0701 18.2503 47.7201 18.1303C47.7001 18.1303 47.6801 18.1503 47.6901 18.1703C47.8001 18.3003 47.8901 18.4703 47.9301 18.6403Z" fill="white"/>
<path d="M47.9001 24.0208H47.4201V23.5308H48.4601C48.4601 23.5308 48.5201 23.5208 48.5201 23.4908C48.5201 23.4608 48.5001 23.4308 48.4201 23.3808C48.2301 23.2308 48.2101 23.2108 48.1801 23.2108C48.1601 23.2108 48.1201 23.2308 47.9601 23.4308H47.4201V22.8808H48.2801C48.2801 22.8808 48.3401 22.8808 48.3401 22.8408C48.3401 22.8008 48.3201 22.7808 48.2401 22.7308C48.0801 22.5908 48.0501 22.5708 48.0201 22.5708C47.9901 22.5708 47.9601 22.5908 47.8101 22.7808H47.4301V22.2908C47.5401 22.2508 47.5701 22.2208 47.5701 22.1908C47.5701 22.1308 47.5101 22.1108 47.1201 22.0708C47.1301 22.1908 47.1401 22.3408 47.1401 22.7808H46.7001C46.7601 22.6908 46.8001 22.5908 46.8401 22.4908C46.9501 22.4608 46.9901 22.4408 46.9901 22.4008C46.9901 22.3608 46.9501 22.3408 46.5901 22.2508C46.5801 22.3608 46.5501 22.5108 46.5001 22.6408C46.4301 22.8708 46.3101 23.1108 46.1701 23.2908C46.1601 23.3108 46.1901 23.3508 46.2101 23.3308C46.3901 23.1908 46.5201 23.0508 46.6301 22.8908H47.1301V23.4408H46.3901C46.2801 23.4408 46.2001 23.4408 46.0901 23.4108L46.1301 23.5608C46.2301 23.5508 46.3001 23.5408 46.3901 23.5408H47.1301V24.0308H46.6601C46.5301 23.9508 46.4701 23.9208 46.3301 23.8708C46.3401 24.0208 46.3401 24.1608 46.3401 24.4608C46.3401 24.9808 46.3301 25.1508 46.3301 25.2708C46.3301 25.3408 46.3601 25.3708 46.4501 25.3708C46.5701 25.3708 46.6301 25.3308 46.6301 25.2408V24.1308H47.1401C47.1401 25.1108 47.1201 25.5208 47.1201 25.6708C47.1201 25.7608 47.1601 25.8008 47.2601 25.8008C47.3801 25.8008 47.4401 25.7508 47.4401 25.6608C47.4401 25.5008 47.4401 25.0708 47.4401 24.1408H47.9501V25.0008C47.9501 25.0008 47.9301 25.0608 47.8901 25.0608C47.8301 25.0608 47.7401 25.0608 47.5801 25.0408C47.5601 25.0408 47.5601 25.0808 47.5801 25.0908C47.8101 25.1508 47.8401 25.1808 47.8601 25.3008C47.8601 25.3408 47.8801 25.3608 47.9301 25.3608C48.0101 25.3608 48.1001 25.3208 48.1501 25.2708C48.2101 25.2308 48.2401 25.1708 48.2401 25.0608C48.2401 24.9708 48.2401 24.8708 48.2401 24.4308V24.2208C48.3301 24.1608 48.3501 24.1308 48.3501 24.1108C48.3501 24.0908 48.3301 24.0608 48.2801 24.0108C48.1501 23.9108 48.1301 23.9008 48.1001 23.9008C48.0801 23.9008 48.0601 23.9008 47.9301 24.0308H47.9101L47.9001 24.0208ZM48.9501 23.1808V22.6208C49.0601 22.5808 49.0801 22.5508 49.0801 22.5208C49.0801 22.4608 49.0201 22.4408 48.6401 22.4108C48.6601 22.6308 48.6601 22.8108 48.6601 23.5008C48.6601 24.3308 48.6401 24.6408 48.6401 24.7308C48.6401 24.8208 48.6801 24.8408 48.7701 24.8408C48.9001 24.8408 48.9601 24.8008 48.9601 24.7108C48.9601 24.5808 48.9401 24.1308 48.9401 23.2008H48.9601L48.9501 23.1808ZM49.7101 23.7608V22.3508C49.8101 22.3108 49.8401 22.2808 49.8401 22.2408C49.8401 22.1808 49.8001 22.1708 49.3901 22.1308C49.4101 22.2808 49.4201 22.3508 49.4201 22.8208V25.3308C49.4201 25.3308 49.4001 25.4008 49.3501 25.4008C49.2201 25.4008 49.0201 25.3908 48.7901 25.3608C48.7701 25.3608 48.7601 25.4108 48.7901 25.4208C49.1501 25.4908 49.2401 25.5508 49.2601 25.6708C49.2801 25.7408 49.3001 25.7608 49.3601 25.7608C49.4401 25.7608 49.5401 25.7308 49.6001 25.6908C49.7001 25.6308 49.7401 25.5708 49.7401 25.4008C49.7401 25.2308 49.7201 24.9208 49.7201 23.7708L49.7101 23.7608Z" fill="white"/>
<path d="M46.9301 29.5887V27.4688C47.0301 27.4288 47.05 27.3987 47.05 27.3687C47.05 27.3287 47.0101 27.3087 46.8101 27.2787C47.0201 26.9887 47.1801 26.6687 47.3201 26.2887C47.4301 26.2687 47.48 26.2487 47.48 26.1987C47.48 26.1487 47.3301 26.0887 47.0201 25.9987C47.0101 26.1287 46.9801 26.2587 46.9301 26.3887C46.7701 26.9187 46.4201 27.5387 46.0401 27.9587C46.0201 27.9787 46.0601 28.0187 46.0901 27.9987C46.3001 27.8387 46.4801 27.6588 46.6301 27.4888V28.2787C46.6301 29.2287 46.6101 29.5187 46.6101 29.5987C46.6101 29.6787 46.6701 29.7087 46.7501 29.7087C46.8601 29.7087 46.9301 29.6587 46.9301 29.5687V29.5887ZM49.2901 26.7487H48.0601C48.1301 26.5987 48.2 26.4487 48.26 26.2787C48.38 26.2687 48.44 26.2387 48.44 26.1887C48.44 26.1387 48.3101 26.0887 47.9701 25.9987C47.9601 26.0987 47.9301 26.1987 47.9101 26.2987C47.7701 26.8387 47.47 27.4287 47.14 27.8387C47.12 27.8587 47.1701 27.8987 47.2001 27.8787C47.5601 27.5787 47.81 27.2487 48.03 26.8487H48.21V28.5887C48.21 29.2487 48.19 29.5087 48.19 29.5887C48.19 29.6787 48.2301 29.7188 48.3301 29.7188C48.4701 29.7188 48.53 29.6787 48.53 29.5687C48.53 29.4287 48.5301 29.0287 48.5201 28.4987H49.7201C49.7201 28.4987 49.78 28.4887 49.78 28.4587C49.78 28.4287 49.76 28.3987 49.69 28.3487C49.52 28.2087 49.49 28.1887 49.46 28.1887C49.44 28.1887 49.4001 28.2088 49.2401 28.3988H48.53V27.6488H49.7201C49.7201 27.6488 49.78 27.6387 49.78 27.6087C49.78 27.5787 49.7601 27.5487 49.6801 27.4987C49.5201 27.3687 49.48 27.3487 49.46 27.3487C49.44 27.3487 49.4001 27.3688 49.2401 27.5588H48.5401V26.8687H49.8601C49.8601 26.8687 49.92 26.8587 49.92 26.8287C49.92 26.8087 49.9001 26.7787 49.8201 26.7087C49.6301 26.5587 49.6101 26.5487 49.5801 26.5487C49.5601 26.5487 49.5201 26.5687 49.3401 26.7787H49.3201L49.2901 26.7487Z" fill="white"/>
<path d="M48.1601 32.3005H49.8001C49.8001 32.3005 49.8601 32.2905 49.8601 32.2605C49.8601 32.2305 49.8401 32.2005 49.7601 32.1505C49.5701 31.9905 49.5501 31.9705 49.5201 31.9705C49.5001 31.9705 49.4601 31.9905 49.2801 32.1905H48.7401V31.5805H49.5701C49.5701 31.5805 49.6301 31.5705 49.6301 31.5405C49.6301 31.5105 49.6101 31.4805 49.5401 31.4305C49.3701 31.2905 49.3501 31.2705 49.3201 31.2705C49.3001 31.2705 49.2601 31.2905 49.1001 31.4805H48.7401V31.2705C48.8501 31.2305 48.8701 31.1905 48.8701 31.1705C48.8701 31.1305 48.8301 31.1005 48.4301 31.0605C48.4501 31.2005 48.4501 31.3005 48.4501 31.4405V31.5005H47.7801V31.2805C47.8801 31.2405 47.9101 31.2005 47.9101 31.1805C47.9101 31.1405 47.8701 31.1105 47.4701 31.0705C47.4801 31.2105 47.4901 31.3205 47.4901 31.4505V31.5105H47.1801C47.0701 31.5105 46.9901 31.5105 46.8701 31.4905L46.9101 31.6505C47.0201 31.6305 47.0901 31.6205 47.1801 31.6205H47.4901V32.2305H46.7001C46.7601 31.8105 46.7901 31.3805 46.7901 30.9605H49.2501V30.9805C49.2501 31.0805 49.2701 31.1105 49.3701 31.1105C49.4801 31.1105 49.5601 31.0705 49.5601 31.0005C49.5601 30.9205 49.5601 30.8305 49.5601 30.5405V30.4105C49.6601 30.3505 49.6701 30.3205 49.6701 30.2905C49.6701 30.2705 49.6501 30.2505 49.5801 30.1905C49.4501 30.0805 49.4201 30.0605 49.3901 30.0605C49.3701 30.0605 49.3501 30.0705 49.2101 30.2205H46.8201C46.7201 30.1605 46.6101 30.1205 46.4301 30.0405C46.4501 30.2505 46.4501 30.3805 46.4501 30.8705C46.4501 31.5605 46.4301 32.0105 46.3801 32.4005C46.3101 32.8905 46.2001 33.2405 46.0201 33.6405C46.0101 33.6605 46.0601 33.7005 46.0801 33.6705C46.3801 33.2905 46.5301 32.9505 46.6301 32.5105C46.6401 32.4505 46.6501 32.4005 46.6701 32.3305H47.2501V33.2905C47.1401 33.2905 47.0201 33.3005 46.9001 33.3105H46.7101C46.8101 33.7205 46.8101 33.7305 46.8601 33.7305C46.9001 33.7305 46.9301 33.6905 46.9601 33.6005C47.6001 33.4705 47.9201 33.3705 48.4301 33.1605C48.4501 33.1605 48.4301 33.1005 48.4101 33.1005C48.1201 33.1605 47.8301 33.2105 47.5401 33.2505V32.3105H48.0301C48.2201 32.7305 48.4301 33.0105 48.6701 33.2105C48.8801 33.3905 49.1501 33.5505 49.4301 33.6305C49.5301 33.6605 49.5901 33.6705 49.6301 33.6705C49.6701 33.6705 49.6901 33.6505 49.7101 33.5805C49.7501 33.4505 49.7901 33.4205 49.9001 33.3905C49.9201 33.3905 49.9201 33.3505 49.9001 33.3505C49.5001 33.3105 49.1201 33.2105 48.8301 33.0405C48.7601 33.0005 48.6901 32.9505 48.6301 32.9105C48.8401 32.8405 48.9901 32.7705 49.1901 32.6505C49.3301 32.6705 49.3801 32.6505 49.3801 32.6105C49.3801 32.5705 49.2801 32.5005 49.0501 32.3605C49.0301 32.4205 48.9901 32.4705 48.9201 32.5405C48.8301 32.6405 48.7101 32.7505 48.5601 32.8505C48.3801 32.7005 48.2501 32.5105 48.1401 32.3105V32.2805H48.1801L48.1601 32.3005ZM49.2801 30.8305H46.8201V30.2905H49.2801V30.8305ZM48.4701 31.5905V32.2005H47.8001V31.5905H48.4701Z" fill="white"/>
<path d="M48.0901 36.8597H47.4001C47.5301 36.6597 47.6601 36.4797 48.0901 36.0697C48.4801 35.6897 48.8301 35.4997 48.8301 34.9897C48.8301 34.5997 48.5301 34.2797 48.0201 34.2797C47.5101 34.2797 47.1801 34.6997 47.1801 34.9597C47.1801 35.0697 47.2501 35.1097 47.3401 35.1097C47.4801 35.1097 47.6301 35.0397 47.6301 34.9297C47.6301 34.7997 47.6401 34.6997 47.6701 34.6397C47.7301 34.5197 47.8301 34.4197 48.0301 34.4197C48.2901 34.4197 48.4301 34.6597 48.4301 34.9797C48.4301 35.3497 48.2401 35.5697 47.8901 35.9897C47.5401 36.4097 47.4001 36.6297 47.1501 37.0097C47.1301 37.0497 47.1201 37.0497 47.1201 37.1097C47.1201 37.1697 47.1201 37.1797 47.1701 37.1797C47.4401 37.1697 47.6801 37.1697 47.9501 37.1697C48.2201 37.1697 48.4501 37.1697 48.7201 37.1797C48.7901 36.9697 48.8801 36.6797 48.9301 36.4697C48.9301 36.4497 48.9301 36.4297 48.8901 36.4197C48.8501 36.4097 48.8301 36.4197 48.8301 36.4397C48.7701 36.5697 48.7101 36.6697 48.6101 36.7497C48.5301 36.8097 48.4501 36.8397 48.1101 36.8397H48.1001L48.0901 36.8597Z" fill="white"/>
<path d="M48.0302 38.2309C47.4902 38.2309 47.1702 38.8209 47.1702 39.7409C47.1702 40.6609 47.5002 41.2109 48.0302 41.2109C48.5602 41.2109 48.8902 40.6309 48.8902 39.7209C48.8902 38.8109 48.5702 38.2409 48.0302 38.2409V38.2309ZM48.0302 38.3609C48.3902 38.3609 48.4702 38.9009 48.4702 39.7209C48.4702 40.5409 48.3802 41.0809 48.0302 41.0809C47.6802 41.0809 47.5702 40.5509 47.5702 39.7209C47.5702 38.8909 47.6702 38.3609 48.0302 38.3609Z" fill="white"/>
<path d="M48.0901 44.762H47.4001C47.5301 44.562 47.6601 44.382 48.0901 43.972C48.4801 43.592 48.8301 43.402 48.8301 42.892C48.8301 42.502 48.5301 42.182 48.0201 42.182C47.5101 42.182 47.1801 42.602 47.1801 42.862C47.1801 42.972 47.2501 43.012 47.3401 43.012C47.4801 43.012 47.6301 42.942 47.6301 42.832C47.6301 42.702 47.6401 42.602 47.6701 42.542C47.7301 42.422 47.8301 42.322 48.0301 42.322C48.2901 42.322 48.4301 42.562 48.4301 42.882C48.4301 43.252 48.2401 43.472 47.8901 43.892C47.5401 44.312 47.4001 44.532 47.1501 44.912C47.1301 44.952 47.1201 44.952 47.1201 45.012C47.1201 45.072 47.1201 45.082 47.1701 45.082C47.4401 45.072 47.6801 45.072 47.9501 45.072C48.2201 45.072 48.4501 45.072 48.7201 45.082C48.7901 44.872 48.8801 44.582 48.9301 44.372C48.9301 44.352 48.9301 44.332 48.8901 44.322C48.8501 44.312 48.8301 44.322 48.8301 44.342C48.7701 44.472 48.7101 44.572 48.6101 44.652C48.5301 44.712 48.4501 44.742 48.1101 44.742H48.1001L48.0901 44.762Z" fill="white"/>
<path d="M48.5301 48.4391V48.2591C48.6501 48.2591 48.7901 48.2591 48.9201 48.2591C48.9401 48.2591 48.9601 48.2591 48.9601 48.2391L49.0001 48.1091C49.0001 48.1091 49.0001 48.0791 48.9801 48.0791C48.8301 48.0791 48.6901 48.0991 48.5501 48.0991V47.1591C48.5701 46.7891 48.5701 46.4591 48.5801 46.1391C48.5801 46.0991 48.5701 46.0991 48.5501 46.0991L48.2701 46.1691C47.8601 46.8191 47.5401 47.3191 47.1401 47.9791C47.1101 48.0291 47.1001 48.0791 47.1001 48.1391C47.1001 48.2291 47.1001 48.2391 47.1501 48.2391H48.1901V48.4191C48.1901 48.6291 48.1901 48.7391 48.1301 48.8291C48.1001 48.8891 47.9601 48.8991 47.8501 48.9191C47.8201 48.9191 47.8101 48.9191 47.8101 48.9791C47.8101 49.0391 47.8101 49.0391 47.8501 49.0391C48.0001 49.0391 48.2101 49.0191 48.3601 49.0191C48.5101 49.0191 48.7101 49.0191 48.8601 49.0391C48.8801 49.0391 48.9001 49.0391 48.9001 48.9791C48.9001 48.9191 48.8901 48.9191 48.8601 48.9191C48.7201 48.9091 48.5901 48.8991 48.5501 48.8191C48.5101 48.7191 48.5101 48.6791 48.5101 48.4191H48.5201L48.5301 48.4391ZM48.1801 47.2491V48.1091H47.2901C47.2301 48.1091 47.2301 48.0891 47.2501 48.0491C47.5401 47.5391 47.8701 47.0091 48.1901 46.5091C48.1801 46.7791 48.1701 46.9491 48.1701 47.2491H48.1801Z" fill="white"/>
<path d="M43.5701 23.2894H43.2401L43.2001 23.3994C43.1601 23.2794 43.0501 23.2394 42.9401 23.2394C42.3801 23.2394 41.8801 23.9494 41.8801 24.4794C41.8801 24.7894 42.0301 24.9194 42.3201 24.9194C42.5001 24.9194 42.6601 24.8294 42.8101 24.6094C42.7501 24.8694 42.9501 24.9194 43.1701 24.9194C43.8601 24.9194 44.2301 24.2894 44.2301 23.8494C44.2301 23.0894 43.6501 22.5794 42.7901 22.5794C41.9301 22.5794 41.1001 23.2194 41.1001 24.1994C41.1001 25.0594 41.6901 25.6094 42.6201 25.6094C43.1201 25.6094 43.4101 25.4694 43.7301 25.2394C43.7501 25.2394 43.7501 25.2094 43.7301 25.1794C43.7001 25.1494 43.6701 25.1594 43.6501 25.1694C43.3701 25.3594 43.0401 25.4694 42.6401 25.4694C41.9601 25.4694 41.3701 25.0494 41.3701 24.1894C41.3701 23.3294 41.9801 22.6994 42.7801 22.6994C43.5801 22.6994 43.9701 23.2294 43.9701 23.8494C43.9701 24.4094 43.5901 24.7994 43.2301 24.7994C43.1201 24.7994 43.0701 24.7594 43.0701 24.6794C43.0701 24.5994 43.1101 24.4794 43.1701 24.3294C43.2401 24.0694 43.4601 23.4994 43.5401 23.2694H43.5501L43.5701 23.2894ZM42.2401 24.5594C42.2401 24.1494 42.5501 23.3494 42.9801 23.3494C43.0701 23.3494 43.1101 23.3994 43.1101 23.5294C43.1101 23.6394 43.0701 23.7994 42.9901 24.0494C42.7701 24.7194 42.5101 24.8094 42.4001 24.8094C42.2901 24.8094 42.2401 24.7194 42.2401 24.5494V24.5594Z" fill="white"/>
<path d="M42.4801 28.9309H41.9201C41.8101 28.9309 41.7301 28.9309 41.6001 28.9009L41.6401 29.0609C41.7601 29.0509 41.8401 29.0409 41.9401 29.0409H42.4801C42.4801 29.5309 42.4601 29.7909 42.4601 29.8509C42.4601 29.9409 42.5001 29.9609 42.6001 29.9609C42.7301 29.9609 42.8101 29.9209 42.8101 29.8209C42.8101 29.7209 42.8101 29.4909 42.8001 29.0309H43.6301C43.6301 29.0309 43.6901 29.0309 43.6901 28.9909C43.6901 28.9509 43.6701 28.9309 43.5901 28.8809C43.4101 28.7409 43.3901 28.7209 43.3601 28.7209C43.3301 28.7209 43.3001 28.7409 43.1501 28.9309H42.8001C42.8001 28.3909 42.7801 27.8409 42.7701 27.3109C42.9601 27.7909 43.1501 28.1009 43.3601 28.3709C43.5901 28.6609 43.9001 28.9309 44.2001 29.1209C44.2901 29.1809 44.3501 29.2009 44.3801 29.2009C44.4101 29.2009 44.4201 29.1809 44.4401 29.1409C44.5001 28.9909 44.5501 28.9409 44.6701 28.9209C44.6901 28.9209 44.6901 28.8809 44.6701 28.8809C44.2801 28.7509 43.8501 28.5209 43.5301 28.2209C43.2701 27.9809 43.0301 27.6709 42.8301 27.2409H44.4601C44.4601 27.2409 44.5201 27.2309 44.5201 27.2009C44.5201 27.1709 44.5001 27.1509 44.4101 27.0809C44.2101 26.9209 44.1701 26.9009 44.1501 26.9009C44.1301 26.9009 44.0901 26.9209 43.9101 27.1409H42.7901V26.4709C42.9001 26.4109 42.9301 26.3809 42.9301 26.3609C42.9301 26.3009 42.8501 26.2709 42.4601 26.2509C42.4801 26.4009 42.4801 26.5409 42.4801 27.0009V27.1509H41.2401C41.1101 27.1509 41.0301 27.1509 40.8801 27.1209L40.9201 27.2809C41.0501 27.2709 41.1301 27.2609 41.2501 27.2609H42.3201C42.0201 28.0009 41.4101 28.7609 40.7301 29.2209C40.7101 29.2409 40.7501 29.2809 40.7701 29.2809C41.4801 28.9409 42.0901 28.3309 42.5101 27.6009C42.5101 28.0609 42.5001 28.5109 42.4901 28.9609V28.9409H42.5001L42.4801 28.9309Z" fill="white"/>
<path d="M41.6101 32.3119C41.4501 32.3319 41.2701 32.3719 41.1101 32.3819C41.4101 32.0719 41.6201 31.7519 41.8501 31.3519C41.9701 31.3519 42.0001 31.3219 42.0001 31.2919C42.0001 31.2619 41.9001 31.1819 41.6201 31.0719C41.6001 31.1619 41.5501 31.2919 41.4901 31.4319C41.3601 31.7419 41.1501 32.1019 40.9601 32.3919C40.9201 32.3919 40.8801 32.3919 40.8501 32.3919H40.7001C40.7701 32.6919 40.8101 32.7819 40.8601 32.7819C40.9001 32.7819 40.9201 32.7519 40.9401 32.6519C41.2101 32.5619 41.4101 32.5019 41.5801 32.4119C41.4301 32.9519 41.1401 33.4019 40.7001 33.7819C40.6801 33.8019 40.7101 33.8519 40.7401 33.8419C41.4301 33.4319 41.7501 32.9519 41.9401 32.2019C42.0401 32.1819 42.0501 32.1619 42.0501 32.1119C42.0501 32.0619 42.0301 32.0519 41.6601 31.9419C41.6601 32.0519 41.6401 32.1819 41.6001 32.3019H41.6101V32.3119ZM41.3101 31.4919C41.3101 31.3919 41.2501 31.2819 41.1501 31.1919C41.3501 30.9819 41.5001 30.7619 41.6501 30.4919C41.7701 30.4919 41.8101 30.4619 41.8101 30.4219C41.8101 30.3819 41.7101 30.3219 41.4001 30.2319C41.4001 30.3019 41.3701 30.4119 41.3301 30.5419C41.2701 30.7119 41.1901 30.9119 41.0701 31.1319C40.9901 31.0719 40.8901 31.0219 40.7701 30.9719C40.7501 30.9719 40.7301 30.9919 40.7501 31.0119C40.8901 31.1519 40.9801 31.3019 41.0301 31.5019C41.0701 31.6619 41.0901 31.6919 41.1701 31.6919C41.2501 31.6919 41.3201 31.6119 41.3201 31.5119H41.3101V31.4919ZM42.3501 33.1819V32.0919H42.8901V32.1619C42.8901 32.2519 42.9201 32.2719 43.0001 32.2719C43.1201 32.2719 43.1701 32.2319 43.1701 32.1419C43.1701 32.0519 43.1501 31.7619 43.1501 31.0919V30.6519C43.2401 30.5919 43.2501 30.5819 43.2501 30.5519C43.2501 30.5219 43.2401 30.4919 43.1801 30.4519C43.0701 30.3619 43.0501 30.3519 43.0201 30.3519C42.9901 30.3519 42.9701 30.3619 42.8601 30.4719H42.3601C42.2401 30.4019 42.1801 30.3719 42.0301 30.3119C42.0501 30.6719 42.0501 31.0719 42.0501 31.6019V33.2319C42.0501 33.2319 41.9701 33.2319 41.9401 33.2519C41.8601 33.2519 41.7901 33.2619 41.7001 33.2719C41.8101 33.6519 41.8301 33.6719 41.8601 33.6719C41.9001 33.6719 41.9201 33.6319 41.9501 33.5319C42.3101 33.4019 42.6101 33.2619 42.9001 33.0919C42.9001 33.1119 42.9001 33.1319 42.9101 33.1619C42.9501 33.3719 42.9801 33.4219 43.0701 33.4219C43.1601 33.4219 43.2201 33.3419 43.2201 33.2319C43.2201 32.9719 43.0001 32.6619 42.6801 32.4419C42.6601 32.4319 42.6201 32.4519 42.6401 32.4819C42.7401 32.6319 42.8301 32.8019 42.8801 33.0219C42.7001 33.0819 42.5201 33.1319 42.3201 33.1819H42.3401H42.3501ZM42.8901 31.2219H42.3501V30.5819H42.8901V31.2219ZM42.3501 31.3219H42.8901V31.9919H42.3501V31.3219ZM43.7101 32.8819V30.5719H44.2001C44.1101 31.0319 44.0201 31.4119 43.8901 31.7219C44.1601 32.0219 44.2701 32.3519 44.2701 32.6819C44.2701 32.8319 44.2601 32.9119 44.2101 32.9419C44.1901 32.9619 44.1501 32.9819 44.1101 32.9819C44.0201 32.9819 43.9301 32.9819 43.7801 32.9619C43.7601 32.9619 43.7601 33.0119 43.7801 33.0219C44.0101 33.0819 44.0501 33.1319 44.0701 33.2519C44.0701 33.3119 44.1001 33.3219 44.1301 33.3219C44.2401 33.3219 44.3401 33.2619 44.4101 33.1919C44.5001 33.1019 44.5401 32.9519 44.5401 32.7519C44.5401 32.3619 44.3801 32.0319 43.9801 31.7119C44.1701 31.4119 44.3701 31.0419 44.4901 30.6719C44.5801 30.6519 44.6001 30.6319 44.6001 30.5919C44.6001 30.5619 44.5801 30.5319 44.5201 30.4619C44.4101 30.3519 44.3701 30.3219 44.3301 30.3219C44.3101 30.3219 44.2901 30.3419 44.1701 30.4719H43.7301C43.6001 30.4019 43.5401 30.3719 43.4001 30.3119C43.4201 30.4619 43.4201 31.0319 43.4201 31.9619C43.4201 32.8919 43.4101 33.5719 43.4101 33.8119C43.4101 33.8819 43.4501 33.9219 43.5301 33.9219C43.6401 33.9219 43.7101 33.8819 43.7101 33.7919C43.7101 33.7019 43.7101 33.4819 43.7101 32.8819Z" fill="white"/>
<path d="M43.4901 35.7606C43.2801 35.8006 43.1001 35.8506 42.8301 35.9006C42.7901 35.6906 42.7601 35.5106 42.7201 35.3106C43.0101 35.2506 43.2301 35.2006 43.4501 35.1506C43.5501 35.1306 43.6201 35.1106 43.6901 35.1106C43.7401 35.1106 43.7601 35.0706 43.7601 35.0206C43.7601 34.9806 43.7201 34.9306 43.6601 34.9206C43.6001 34.9006 43.5101 34.8906 43.4401 34.8906C43.3901 34.8906 43.3301 34.9106 43.2801 34.9506C43.2401 34.9906 43.2101 35.0006 43.1801 35.0106C43.0201 35.0506 42.8501 35.1006 42.6701 35.1406C42.6301 34.9506 42.6101 34.8106 42.6101 34.7106C42.6101 34.6506 42.6201 34.6206 42.6401 34.6006C42.6601 34.5806 42.6801 34.5406 42.6801 34.5106C42.6801 34.4506 42.6301 34.4106 42.5301 34.3706C42.4201 34.3306 42.3201 34.3106 42.2101 34.3106C42.1501 34.3106 42.0901 34.3306 42.0501 34.3606C42.0301 34.3706 41.9901 34.4006 41.9901 34.4306C41.9901 34.4506 42.0001 34.4706 42.0301 34.4706C42.1301 34.4706 42.2101 34.4806 42.2401 34.5106C42.2701 34.5406 42.2901 34.5706 42.3001 34.6206C42.3401 34.7706 42.3701 34.9306 42.4301 35.2106C42.2501 35.2506 42.0701 35.3006 41.9201 35.3206C41.8201 35.3406 41.7401 35.3606 41.6801 35.3606C41.5701 35.3606 41.4901 35.3206 41.4001 35.2706C41.3801 35.2606 41.3601 35.2506 41.3401 35.2506C41.3201 35.2506 41.3001 35.2706 41.3001 35.3106C41.3001 35.3506 41.3401 35.4106 41.4501 35.5006C41.5401 35.5906 41.6301 35.6306 41.6901 35.6306C41.7301 35.6306 41.7601 35.6306 41.7901 35.5906C41.8301 35.5606 41.9201 35.5506 42.0101 35.5306C42.1401 35.4906 42.2801 35.4606 42.4501 35.4206C42.4901 35.6206 42.5201 35.8106 42.5601 36.0106C42.2601 36.0806 41.9701 36.1506 41.7201 36.2106C41.6101 36.2406 41.5101 36.2606 41.4501 36.2606C41.3901 36.2606 41.3201 36.2406 41.2101 36.1806C41.1901 36.1806 41.1601 36.1506 41.1501 36.1506C41.1301 36.1506 41.1201 36.1706 41.1201 36.2006C41.1201 36.2406 41.1401 36.2806 41.1701 36.3106C41.2801 36.4306 41.4601 36.5306 41.5501 36.5306C41.6101 36.5306 41.6401 36.5206 41.6801 36.4706C41.7001 36.4506 41.7501 36.4206 41.8701 36.3806C42.0801 36.3106 42.3101 36.2506 42.5801 36.1906C42.6401 36.5406 42.7201 37.0106 42.7701 37.3406C42.7901 37.4606 42.8301 37.5206 42.9201 37.5106C43.0101 37.5106 43.0801 37.4506 43.0801 37.3806C43.0801 37.3206 43.0601 37.2406 43.0401 37.1706C42.9801 36.8806 42.9001 36.5006 42.8301 36.1306C43.2301 36.0406 43.4401 36.0206 43.6401 35.9906C43.7501 35.9806 43.8601 35.9806 43.9301 35.9806C44.0401 35.9806 44.0901 35.9406 44.0901 35.8706C44.0901 35.8206 44.0501 35.7806 43.9901 35.7506C43.9301 35.7206 43.8401 35.7106 43.7501 35.7006C43.6801 35.7006 43.6301 35.7006 43.5901 35.7406C43.5601 35.7606 43.5201 35.7906 43.4601 35.8006L43.4801 35.7706L43.4901 35.7606Z" fill="white"/>
<path d="M43.85 38.5102C43.63 38.5702 43.35 38.6502 43.04 38.7402C43.02 38.6102 42.99 38.5202 42.98 38.4102C42.98 38.3702 42.98 38.3402 42.98 38.3202C42.98 38.3002 42.98 38.2802 43 38.2602C43.02 38.2402 43.02 38.2202 43.02 38.1902C43.02 38.1502 43 38.1202 42.87 38.0602C42.79 38.0202 42.71 37.9902 42.63 37.9902C42.57 37.9902 42.54 38.0002 42.49 38.0402C42.44 38.0802 42.42 38.1002 42.42 38.1302C42.42 38.1602 42.43 38.1602 42.46 38.1602H42.56C42.56 38.1602 42.63 38.1702 42.65 38.2002C42.67 38.2402 42.69 38.2902 42.71 38.3602C42.75 38.4802 42.78 38.6202 42.82 38.8002C42.61 38.8602 42.41 38.9102 42.23 38.9602C42.13 38.9802 42.07 38.9902 42.02 38.9902C41.96 38.9902 41.91 38.9502 41.83 38.8902C41.81 38.8702 41.8 38.8602 41.79 38.8602C41.78 38.8602 41.76 38.8902 41.76 38.9202C41.76 39.0102 41.8 39.0702 41.9 39.1602C42 39.2602 42.04 39.2702 42.09 39.2702C42.13 39.2702 42.16 39.2502 42.18 39.2302C42.2 39.2102 42.24 39.1902 42.3 39.1602C42.45 39.1002 42.63 39.0502 42.86 38.9702C42.88 39.0602 42.9 39.1602 42.93 39.2802C43 39.5902 43.08 39.9502 43.16 40.3102C43.17 40.4002 43.23 40.4102 43.31 40.4102C43.37 40.4102 43.42 40.3502 43.42 40.3002C43.42 40.2502 43.4 40.1902 43.38 40.1102C43.31 39.8302 43.23 39.5502 43.15 39.2502C43.12 39.1202 43.09 39.0202 43.06 38.9102C43.35 38.8202 43.72 38.7202 43.95 38.6502C43.97 38.6502 43.99 38.6502 43.97 38.6802C43.78 38.9502 43.62 39.1302 43.46 39.3102C43.44 39.3302 43.42 39.3502 43.42 39.3702C43.42 39.3902 43.44 39.4102 43.46 39.4102C43.48 39.4102 43.5 39.4102 43.53 39.3802C43.76 39.2202 44.01 38.9902 44.19 38.8202C44.23 38.7902 44.25 38.7802 44.3 38.7702C44.37 38.7702 44.4 38.7302 44.4 38.6802C44.4 38.6302 44.37 38.5902 44.27 38.5202C44.14 38.4302 44.09 38.4102 44.05 38.4102C44.01 38.4102 43.99 38.4202 43.95 38.4602C43.92 38.4902 43.89 38.5202 43.84 38.5302H43.86L43.85 38.5102Z" fill="white"/>
<path d="M41.5602 40.962C41.5602 40.962 41.4902 40.962 41.4702 40.962C41.4502 40.962 41.4302 40.982 41.4302 41.002C41.4302 41.022 41.4402 41.042 41.4702 41.052C41.5702 41.112 41.6802 41.202 41.7702 41.312C41.8602 41.412 41.9002 41.502 41.9502 41.582C42.0102 41.682 42.0402 41.722 42.1302 41.722C42.2202 41.722 42.2902 41.652 42.2902 41.542C42.2902 41.392 42.2302 41.282 42.0402 41.172C41.9202 41.092 41.7502 41.022 41.5802 40.982L41.5602 40.962ZM44.2302 41.112C44.2302 41.112 44.1902 41.052 44.1702 41.052C44.1602 41.052 44.1302 41.062 44.1102 41.092C43.8502 41.422 43.4902 41.752 43.1102 42.072C42.7502 42.372 42.3602 42.652 42.0002 42.852C41.9102 42.912 41.8402 42.922 41.8102 42.922C41.7402 42.922 41.7002 42.882 41.6102 42.782C41.5802 42.742 41.5702 42.742 41.5502 42.742C41.5202 42.742 41.5102 42.782 41.5102 42.842C41.5102 42.932 41.5602 43.032 41.6902 43.172C41.7802 43.262 41.8602 43.332 41.9602 43.332C42.0202 43.332 42.0602 43.302 42.0902 43.242C42.1102 43.222 42.1502 43.182 42.1902 43.152C42.5802 42.862 42.9402 42.592 43.2802 42.272C43.6402 41.932 43.9702 41.572 44.2102 41.182C44.2302 41.152 44.2402 41.122 44.2402 41.112H44.2302Z" fill="white"/>
<path d="M41.92 44.4623C42.02 44.5323 42.06 44.5723 42.06 44.6223C42.06 44.6823 42.02 44.7323 41.95 44.8323C41.84 44.9723 41.69 45.1223 41.54 45.2723C41.34 45.4523 41.11 45.6223 40.85 45.7823C40.81 45.8023 40.79 45.8223 40.79 45.8423C40.79 45.8823 40.81 45.9023 40.85 45.9023C40.87 45.9023 40.91 45.9023 40.95 45.8623C41.21 45.7623 41.46 45.6023 41.7 45.4423C41.91 45.2923 42.09 45.1323 42.26 44.9623C42.31 44.9223 42.34 44.8923 42.37 44.8723C42.44 44.8523 42.47 44.8123 42.47 44.7523C42.47 44.6523 42.36 44.5423 42.23 44.4523C42.13 44.3823 42.04 44.3523 41.99 44.3523C41.94 44.3523 41.89 44.3723 41.89 44.4023C41.89 44.4023 41.9067 44.4223 41.94 44.4623H41.92ZM44.04 45.5123C44.17 45.5123 44.22 45.4423 44.22 45.3023C44.22 45.1423 44.03 44.8923 43.84 44.7323C43.63 44.5523 43.4 44.4223 43.17 44.3223C43.11 44.3023 43.08 44.2823 43.06 44.2823C43.04 44.2823 43.01 44.2923 43.01 44.3323C43.01 44.3523 43.03 44.3723 43.08 44.4123C43.24 44.5223 43.38 44.6523 43.51 44.7923C43.65 44.9523 43.75 45.1223 43.87 45.3623C43.92 45.4623 43.97 45.5223 44.06 45.5223L44.04 45.5123ZM44.02 43.4823C43.81 43.4823 43.64 43.6423 43.64 43.8423C43.64 44.0423 43.81 44.2023 44.02 44.2023C44.23 44.2023 44.4 44.0423 44.4 43.8423C44.4 43.6423 44.23 43.4823 44.02 43.4823ZM44.02 43.6123C44.16 43.6123 44.26 43.7123 44.26 43.8523C44.26 43.9923 44.15 44.0923 44.02 44.0923C43.89 44.0923 43.78 43.9823 43.78 43.8523C43.78 43.7223 43.89 43.6123 44.02 43.6123Z" fill="white"/>
<path d="M43.86 48.6105C43.61 48.3805 43.25 48.2005 42.87 48.0405C43.08 47.7905 43.29 47.5005 43.41 47.3305C43.46 47.2505 43.52 47.2005 43.59 47.1805C43.68 47.1405 43.69 47.1305 43.69 47.0905C43.69 47.0405 43.66 46.9905 43.54 46.9005C43.45 46.8205 43.41 46.8005 43.35 46.8005C43.31 46.8005 43.28 46.8205 43.25 46.8405C43.21 46.8705 43.18 46.9005 43.11 46.9005C42.8 46.9405 42.45 46.9705 42.13 47.0005C42.01 47.0005 41.87 47.0205 41.8 47.0205C41.71 47.0205 41.64 46.9605 41.52 46.8605C41.5 46.8405 41.46 46.8105 41.45 46.8105C41.43 46.8105 41.41 46.8505 41.41 46.9005C41.41 46.9705 41.45 47.0305 41.52 47.1305C41.61 47.2405 41.71 47.3205 41.78 47.3205C41.84 47.3205 41.87 47.3005 41.9 47.2805C41.94 47.2605 41.99 47.2405 42.07 47.2205C42.49 47.1305 42.97 47.0805 43.16 47.0605C43.18 47.0605 43.2 47.0605 43.2 47.0605C43.2 47.0605 43.2 47.0805 43.18 47.1005C42.93 47.5105 42.7 47.8205 42.39 48.1305C41.98 48.5605 41.53 48.8505 41.04 49.1205C41.02 49.1305 41 49.1605 41 49.1805C41 49.2005 41.02 49.2305 41.04 49.2305C41.07 49.2305 41.11 49.2305 41.15 49.2005C41.39 49.1105 41.69 48.9705 41.96 48.7905C42.25 48.6005 42.52 48.3805 42.77 48.1005C43.18 48.3405 43.48 48.6105 43.76 49.0005C43.82 49.0905 43.88 49.1305 43.94 49.1305C44.04 49.1305 44.11 49.0705 44.11 48.9605C44.11 48.8505 44 48.7205 43.85 48.5805L43.86 48.6105Z" fill="white"/>
</g>
<defs>
<clipPath id="clip0_1648_27">
<rect width="50" height="85.41" fill="white" transform="matrix(1 0 0 -1 0 85.4102)"/>
</clipPath>
</defs>
</svg>
