<svg width="27" height="120" viewBox="0 0 27 120" fill="none" xmlns="http://www.w3.org/2000/svg">
<path d="M6.00991 4.77375L5.89991 4.71375C5.89991 4.59375 5.99991 4.42375 6.17991 4.19375C6.35991 3.97375 6.59991 3.73375 6.84991 3.46375C7.09991 3.19375 7.40991 2.92375 7.73991 2.64375C8.06991 2.36375 8.34991 2.12375 8.62991 1.87375C8.90991 1.64375 9.11991 1.43375 9.28991 1.26375C9.45991 1.09375 9.54991 0.983749 9.54991 0.943749C9.54991 0.883749 9.34991 0.783747 8.95991 0.683747C8.56991 0.583747 8.12991 0.46375 7.63991 0.37375C7.14991 0.28375 6.66991 0.193748 6.20991 0.113748C5.74991 0.0437475 5.43991 -0.00624759 5.26991 -0.00624759C5.22991 -0.00624759 5.20991 0.00375333 5.16991 0.0337533C5.12991 0.0337533 5.10991 0.0337466 5.06991 0.0737466C5.00991 0.0837466 4.94991 0.173748 4.88991 0.293748C4.81991 0.413748 4.74991 0.553754 4.66991 0.713754C4.59991 0.873754 4.52991 1.02375 4.46991 1.15375C4.40991 1.29375 4.35991 1.39375 4.34991 1.44375C3.86991 2.33375 3.39991 3.20375 2.90991 4.07375C2.41991 4.94375 1.84991 5.79375 1.18991 6.63375C1.12991 6.69375 1.04991 6.79375 0.959912 6.91375C0.869912 7.03375 0.739912 7.15375 0.639912 7.29375C0.519912 7.43375 0.419912 7.55375 0.329912 7.67375C0.229912 7.79375 0.169912 7.87375 0.159912 7.91375L0.269912 7.96375C0.409912 7.92375 0.639912 7.84375 0.939912 7.68375C1.23991 7.52375 1.54991 7.37375 1.87991 7.22375C2.19991 7.06375 2.47991 6.91375 2.73991 6.79375C2.99991 6.67375 3.13991 6.61375 3.16991 6.61375H3.28991C3.32991 6.67375 3.33991 6.75375 3.33991 6.85375C3.33991 6.95375 3.29991 7.07375 3.27991 7.19375C3.25991 7.31375 3.21991 7.42375 3.20991 7.54375C3.16991 7.65375 3.15991 7.76375 3.15991 7.83375L3.15991 14.6837C3.15991 14.7937 3.25991 14.8438 3.43991 14.8438C3.57991 14.8438 3.83991 14.8437 4.20991 14.8037C4.57991 14.7637 4.93991 14.7437 5.32991 14.6937C5.71991 14.6437 6.04991 14.5837 6.33991 14.5137C6.62991 14.4437 6.77991 14.3437 6.77991 14.2237L6.77991 5.41375C6.77991 5.41375 6.82991 5.29375 6.93991 5.24375C7.03991 5.20375 7.09991 5.14375 7.09991 5.06375C7.09991 5.01375 7.04991 4.99375 6.97991 4.94375C6.90991 4.90375 6.79991 4.88375 6.66991 4.84375C6.53991 4.80375 6.42991 4.79375 6.29991 4.77375C6.16991 4.75375 6.09991 4.73375 6.03991 4.72375L5.98991 4.78375H6.00991V4.77375ZM8.41991 4.34375L8.23991 4.39375C8.23991 4.39375 8.17991 4.44375 8.17991 4.45375C8.17991 4.52375 8.24991 4.57375 8.39991 4.57375H9.70991C10.1899 4.57375 10.7199 4.57375 11.3499 4.56375C11.9699 4.56375 12.6299 4.55375 13.3299 4.52375C14.0299 4.51375 14.6599 4.48375 15.2499 4.47375C15.8399 4.47375 16.3399 4.46375 16.7399 4.43375C17.1399 4.43375 17.3499 4.42375 17.3999 4.39375L17.3399 4.34375C17.3399 4.34375 17.2899 4.34375 17.2399 4.33375C17.1899 4.33375 17.1699 4.32375 17.1399 4.32375H8.41991V4.34375ZM9.88991 6.33375C10.1199 6.70375 10.3499 7.05375 10.5599 7.42375C10.7699 7.79375 11.0199 8.14375 11.2899 8.49375C11.3899 8.63375 11.5099 8.78375 11.6399 8.97375C11.7799 9.15375 11.9599 9.32375 12.1799 9.47375C12.3999 9.63375 12.6099 9.76375 12.8499 9.89375C13.0899 10.0038 13.3899 10.0638 13.7099 10.0638C14.2699 10.0638 14.6899 9.95375 14.9699 9.75375C15.2499 9.55375 15.3899 9.31375 15.3899 8.98375C15.3899 8.65375 15.2199 8.33375 14.8899 8.01375C14.5599 7.69375 14.1299 7.39375 13.6299 7.12375C13.1299 6.85375 12.5599 6.64375 11.9399 6.47375C11.3199 6.30375 10.7399 6.23375 10.2099 6.23375H10.0999C10.0399 6.23375 9.99991 6.23375 9.95991 6.24375C9.91991 6.24375 9.89991 6.25375 9.88991 6.28375C9.87991 6.29375 9.88991 6.32375 9.92991 6.34375H9.88991V6.33375ZM17.9599 0.413751V12.0437C17.9599 12.0437 17.8599 12.1638 17.7799 12.2738C17.6999 12.3838 17.5999 12.4337 17.4899 12.4337H14.5599C14.5599 12.4337 14.4399 12.4337 14.3199 12.4737C14.1999 12.4837 14.1399 12.5237 14.1399 12.5737C14.1399 12.6237 14.1799 12.6437 14.2399 12.6837C14.2999 12.7237 14.3599 12.7437 14.4199 12.7537C14.8999 12.9537 15.2999 13.1737 15.6399 13.3637C15.9799 13.5637 16.2399 13.8437 16.4099 14.1837C16.4199 14.2337 16.4599 14.2837 16.4699 14.3637C16.4799 14.4437 16.5299 14.5238 16.5699 14.5938C16.6099 14.6638 16.6399 14.7338 16.7099 14.7738C16.7699 14.8238 16.8299 14.8437 16.9299 14.8437C17.4099 14.8437 17.9099 14.8037 18.4799 14.7337C19.0399 14.6737 19.5699 14.5637 20.0799 14.4137C20.5899 14.2637 20.9999 14.0738 21.3399 13.8538C21.6799 13.6238 21.8399 13.3538 21.8399 13.0238V4.70375C21.8399 4.59375 21.9399 4.53375 22.1199 4.53375H26.2399C26.3499 4.53375 26.4099 4.49375 26.4099 4.43375L26.2999 4.32375C26.1999 4.27375 26.0199 4.16375 25.7599 4.00375C25.4799 3.83375 25.1999 3.66375 24.8799 3.50375C24.5599 3.34375 24.2799 3.18375 24.0199 3.04375C23.7599 2.90375 23.5999 2.82375 23.5799 2.82375C23.4399 2.82375 23.3199 2.89375 23.2299 3.00375C23.1399 3.11375 23.0499 3.23375 22.9399 3.37375C22.8299 3.51375 22.7199 3.63375 22.5999 3.74375C22.4799 3.85375 22.3199 3.91375 22.1199 3.91375C22.0599 3.91375 22.0199 3.90375 21.9999 3.85375C21.9599 3.80375 21.9499 3.78375 21.9499 3.75375V1.05375C21.9499 1.05375 22.0199 0.913753 22.1899 0.853753C22.3599 0.793753 22.4299 0.733748 22.4299 0.653748C22.4299 0.603748 22.3899 0.58375 22.3199 0.55375C22.2499 0.55375 22.1999 0.553749 22.1499 0.513749C21.5299 0.443749 20.8699 0.373749 20.2099 0.333749C19.5499 0.283749 18.8999 0.263749 18.2699 0.263749C18.0999 0.263749 18.0299 0.313753 18.0299 0.423753H17.9699L17.9599 0.413751Z" fill="white"/>
<path d="M0.979951 18.3223C0.979951 18.3223 1.09995 18.4923 1.26995 18.6323C1.44995 18.7723 1.64995 18.9223 1.87995 19.1123C2.10995 19.2923 2.30995 19.4923 2.47995 19.7123C2.64995 19.9323 2.73995 20.1523 2.73995 20.3823L2.73995 24.9023C2.73995 25.2723 2.84995 25.6323 3.07995 26.0023C3.30995 26.3823 3.59995 26.7323 3.96995 27.0923C4.33995 27.4523 4.75995 27.7523 5.24995 28.0323C5.73995 28.3223 6.25995 28.5323 6.79995 28.7323C7.16995 28.8723 7.55995 28.9623 7.95995 29.0423C8.35995 29.1223 8.79995 29.1523 9.22995 29.1523C9.84995 29.1523 10.29 29.0523 10.51 28.8923C10.73 28.7323 10.86 28.5123 10.89 28.2723C10.92 28.0323 10.89 27.7723 10.79 27.4923C10.69 27.2123 10.65 26.9723 10.65 26.7323C10.65 26.4923 10.69 26.2523 10.76 26.0223C10.83 25.7923 10.93 25.5423 11.04 25.3023C11.15 25.0623 11.24 24.8123 11.32 24.5823C11.39 24.3423 11.43 24.1023 11.43 23.8623V23.7523C11.43 23.7523 11.38 23.6823 11.31 23.6823C11.13 23.6823 10.97 23.7423 10.83 23.8823C10.69 24.0223 10.55 24.1723 10.4 24.3723C10.25 24.5723 10.08 24.7923 9.87995 24.9923C9.69995 25.2223 9.47995 25.4323 9.25995 25.6123C9.02995 25.8123 8.76995 25.9823 8.47995 26.1023C8.18995 26.2223 7.85995 26.3023 7.43995 26.3023C7.01995 26.3023 6.66995 26.2323 6.37995 26.0723C6.08995 25.9123 5.85995 25.7323 5.66995 25.5123C5.48995 25.2923 5.35995 25.0523 5.26995 24.8123C5.19995 24.5723 5.14995 24.3523 5.14995 24.1523C5.14995 23.8423 5.21995 23.5423 5.38995 23.2523C5.55995 22.9623 5.72995 22.6523 5.90995 22.3723C6.08995 22.0823 6.25995 21.7823 6.42995 21.4923C6.59995 21.2023 6.66995 20.8923 6.66995 20.5723C6.66995 20.2023 6.49995 19.8723 6.17995 19.6023C5.85995 19.3123 5.41995 19.0623 4.91995 18.8723C4.41995 18.6823 3.84995 18.5223 3.22995 18.4123C2.61995 18.3023 2.02995 18.2423 1.44995 18.2423H1.18995C1.11995 18.2423 1.02995 18.2823 0.959951 18.3123H0.949951L0.989951 18.2923L0.979951 18.3223ZM22.6399 26.1823C23.0999 26.1823 23.4599 26.1323 23.7099 26.0223C23.9599 25.9123 24.1699 25.7823 24.3199 25.6023C24.4699 25.4223 24.5599 25.2523 24.6099 25.0423C24.6599 24.8423 24.6699 24.6223 24.6699 24.4423C24.6699 23.9223 24.5299 23.4323 24.2399 22.9523C23.9499 22.4723 23.5399 22.0523 23.04 21.6723C22.54 21.2923 21.9199 20.9523 21.1999 20.6623C20.4799 20.3723 19.6999 20.1423 18.8499 19.9623C18.5399 19.9023 18.23 19.8523 17.87 19.8023C17.53 19.7523 17.1699 19.7423 16.8099 19.7423H16.61C16.54 19.7423 16.49 19.7823 16.49 19.8423C16.49 19.8423 16.5599 19.9123 16.7199 20.0223C16.8799 20.1323 17.0699 20.2823 17.3199 20.4523C17.5599 20.6223 17.82 20.8223 18.1099 21.0123C18.3999 21.2123 18.6699 21.4123 18.9299 21.6123C19.1899 21.8123 19.4099 21.9823 19.5999 22.1323C19.7999 22.2923 19.9199 22.3923 19.9799 22.4723C20.1799 22.7123 20.2999 22.9923 20.3499 23.2923C20.3999 23.5923 20.4499 23.8823 20.4899 24.1723C20.5299 24.4623 20.5999 24.7623 20.6699 25.0123C20.7399 25.2923 20.8999 25.5323 21.1599 25.7423C21.3599 25.9023 21.5799 26.0023 21.8099 26.0623C22.0399 26.1223 22.3099 26.1623 22.6399 26.1623H22.6299V26.1823H22.6399Z" fill="white"/>
<path d="M14.68 35.2612C14.97 35.2612 15.95 35.2612 17.62 35.3212C19.29 35.3812 20.3199 35.3913 20.6699 35.3913H22.6499C23.0299 35.3913 23.3499 35.3312 23.5499 35.1912C23.7799 35.0712 23.8899 34.8813 23.8899 34.6713C23.8899 34.4113 23.7699 34.2112 23.5099 34.0512C23.2499 33.8912 22.9499 33.7712 22.5599 33.6812C22.1799 33.6112 21.7799 33.5412 21.3499 33.5012C20.9199 33.4612 20.5299 33.4412 20.1699 33.4412C18.7199 33.4412 17.3 33.5512 15.93 33.7512C14.55 33.9512 13.17 34.1712 11.79 34.4112C10.41 34.6512 9.01995 34.8712 7.64995 35.0712C6.26995 35.2712 4.84995 35.3812 3.40995 35.3812C3.17995 35.3812 2.96995 35.3412 2.75995 35.3112C2.57995 35.2612 2.37995 35.2012 2.19995 35.1312C2.01995 35.0712 1.81995 34.9912 1.60995 34.9312C1.39995 34.8712 1.18995 34.8312 0.989951 34.8212L0.879951 34.8913C0.769951 35.0013 0.709951 35.1212 0.699951 35.2312V35.5812C0.699951 35.8112 0.799951 36.0612 0.979951 36.2912C1.15995 36.5212 1.39995 36.7312 1.69995 36.9412C1.99995 37.1512 2.34995 37.2912 2.73995 37.4212C3.13995 37.5412 3.55995 37.6013 3.95995 37.6013C4.65995 37.6013 5.39995 37.4812 6.23995 37.2312C7.06995 36.9912 7.95995 36.7312 8.87995 36.4412C9.79995 36.1512 10.75 35.8812 11.74 35.6512C12.72 35.4112 13.71 35.2813 14.67 35.2813H14.68V35.2612ZM15.82 36.0912C15.96 36.0212 15.96 35.9112 15.82 35.7712C15.66 35.6312 15.09 35.7212 14.09 36.0512C13.08 36.3712 12.12 36.9912 11.19 37.9212C10.26 38.8512 9.80995 39.8612 9.80995 40.9712C9.80995 41.7912 10.07 42.4712 10.58 43.0612C11.09 43.6512 11.76 44.1012 12.62 44.4812C13.48 44.8512 14.48 45.1012 15.63 45.2712C16.78 45.4412 17.99 45.5312 19.2799 45.5312C19.5599 45.5312 19.8199 45.5212 20.0699 45.4712C20.3299 45.4312 20.57 45.3712 20.79 45.2912C21.01 45.2212 21.1899 45.1112 21.3299 44.9812C21.4699 44.8512 21.5299 44.7012 21.5299 44.5212C21.5299 44.1512 21.31 43.9012 20.87 43.7412C20.43 43.5812 19.8699 43.4613 19.2299 43.3913C18.5899 43.3213 17.8599 43.2312 17.0899 43.1612C16.3199 43.1012 15.6 42.9612 14.94 42.7612C14.28 42.5612 13.73 42.2712 13.28 41.8712C12.84 41.4712 12.62 40.9012 12.62 40.1812C12.62 39.5612 12.73 38.9813 12.93 38.4613C13.15 37.9413 13.48 37.4812 13.96 37.0812C14.44 36.6812 15.06 36.3512 15.84 36.0812H15.8L15.82 36.0912Z" fill="white"/>
<path d="M0.05 51.7206L0 51.8206C0 51.8206 0.1 51.8806 0.18 51.9206C0.28 51.9606 0.34 51.9706 0.36 51.9706H6.2C6.3 51.9706 6.38 52.0106 6.51 52.0706C6.64 52.1306 6.74 52.1706 6.85 52.1706C6.95 52.1706 7.01 52.1206 7.07 52.0506C7.12 51.9806 7.19 51.9306 7.29 51.9306H13.31C13.31 51.9306 13.38 51.9306 13.47 51.8906C13.56 51.8506 13.57 51.8306 13.57 51.7806C13.57 51.7206 13.45 51.5806 13.2 51.3506C12.96 51.1306 12.68 50.9106 12.37 50.6806C12.06 50.4506 11.77 50.2406 11.48 50.0306C11.2 49.8306 11 49.7206 10.89 49.6906L10.73 49.7606C10.61 49.9406 10.49 50.1306 10.35 50.3506C10.21 50.5706 10.07 50.7506 9.91 50.9406C9.74 51.1206 9.56 51.2606 9.35 51.3806C9.14 51.5006 8.89 51.5606 8.62 51.5606C8.55 51.5606 8.48 51.5606 8.4 51.5206C8.32 51.4806 8.29 51.4206 8.29 51.3406L8.29 49.6206L8.36 49.4506C8.36 49.4506 8.47 49.3806 8.54 49.2906C8.61 49.2306 8.65 49.1706 8.65 49.0906C8.6 49.0406 8.41 48.9906 8.09 48.9306C7.77 48.8806 7.38 48.8306 6.97 48.7906C6.56 48.7506 6.14 48.7206 5.76 48.6806C5.38 48.6406 5.14 48.6306 5.04 48.6306C4.92 48.6306 4.86 48.6906 4.86 48.8006V51.3806C4.86 51.5606 4.76 51.6406 4.6 51.6406H0.24L0.06 51.7106H0.05V51.7206ZM4.26 67.1606L4.4 67.2306C4.68 67.2306 4.96 67.1306 5.26 66.9706C5.55 66.7906 5.82 66.6006 6.09 66.4106C6.36 66.2206 6.61 66.0106 6.85 65.8506C7.09 65.6906 7.33 65.5906 7.56 65.5906H7.93C8.1 65.5906 8.19 65.6506 8.19 65.7506C8.19 65.9106 8.19 66.0906 8.15 66.3406C8.14 66.5806 8.2 66.7406 8.33 66.8306C8.4 66.8706 8.51 66.8906 8.68 66.9006C8.85 66.9106 9.02 66.9506 9.2 66.9706C9.37 67.0106 9.54 67.0406 9.68 67.1106C9.82 67.1806 9.9 67.2506 9.9 67.3406V67.9406C9.9 68.2206 9.9 68.3806 9.84 68.4906C9.73 68.6606 9.6 68.7506 9.44 68.8006C9.28 68.8506 9.13 68.8606 8.98 68.8606H8.56C8.44 68.8606 8.38 68.9106 8.38 69.0206C8.38 69.0906 8.39 69.1606 8.43 69.2006C8.47 69.2406 8.5 69.3006 8.54 69.3406C8.76 69.5706 8.91 69.8206 9.03 70.1006C9.14 70.3806 9.25 70.6506 9.34 70.9306C9.38 71.0306 9.41 71.1606 9.46 71.3506C9.51 71.5306 9.6 71.6106 9.74 71.6106C10.05 71.6106 10.36 71.5606 10.71 71.4706C11.05 71.3706 11.37 71.2506 11.66 71.0706C11.95 70.8906 12.2 70.6706 12.38 70.4206C12.58 70.1806 12.67 69.9006 12.67 69.6006L12.67 62.7606C12.67 62.6206 12.77 62.5006 12.95 62.4406C13.13 62.3706 13.23 62.2706 13.23 62.1306C13.23 62.0906 13.12 61.9906 12.89 61.8106C12.67 61.6306 12.41 61.4306 12.16 61.2506C11.88 61.0506 11.64 60.8706 11.39 60.7006C11.14 60.5306 11.01 60.4406 10.96 60.4406C10.82 60.4406 10.65 60.5506 10.46 60.7506C10.27 60.9506 10.12 61.0906 10.03 61.1806C9.89 61.3506 9.79 61.4606 9.72 61.5306C9.65 61.6006 9.5 61.6506 9.26 61.6906C9.16 61.7006 9.04 61.7306 8.86 61.7306C8.68 61.7306 8.51 61.7706 8.32 61.7806C8.13 61.7906 7.97 61.8406 7.83 61.8906C7.69 61.9406 7.61 62.0006 7.59 62.0606C7.63 62.1006 7.75 62.1106 7.94 62.1206H9.81C9.98 62.1206 10.07 62.1906 10.07 62.3606V64.1806C10.07 64.2506 10.02 64.3006 9.93 64.3406C9.83 64.3506 9.76 64.3806 9.67 64.3806C9.47 64.3806 9.3 64.3306 9.13 64.2206C8.96 64.1106 8.81 64.0006 8.65 63.8706C8.49 63.7506 8.33 63.6306 8.17 63.5206C8.01 63.4106 7.85 63.3606 7.67 63.3606C7.56 63.3606 7.51 63.4106 7.51 63.4806C7.51 63.6606 7.57 63.8306 7.69 64.0006C7.81 64.1706 7.87 64.3806 7.87 64.6506C7.87 64.7506 7.77 64.8206 7.59 64.8806C7.41 64.9406 7.21 64.9806 6.98 65.0006C6.76 65.0406 6.54 65.0406 6.31 65.0406H5.87C5.77 65.0406 5.73 64.9906 5.71 64.9006C5.69 64.8106 5.67 64.7306 5.67 64.6706C5.67 64.6306 5.73 64.4906 5.84 64.2106C5.96 63.9306 6.1 63.6006 6.27 63.2106C6.44 62.8306 6.64 62.4206 6.83 61.9606C7.03 61.5306 7.23 61.1206 7.42 60.7406C7.61 60.3606 7.76 60.0306 7.9 59.7706C8.04 59.5106 8.12 59.3506 8.14 59.3306C8.25 59.2306 8.45 59.1906 8.76 59.2106C9.07 59.2206 9.3 59.2506 9.47 59.2506C9.59 59.2506 9.7 59.3006 9.79 59.4106C9.88 59.5206 9.96 59.6306 10.03 59.7606C10.1 59.8806 10.19 60.0006 10.27 60.1106C10.35 60.2206 10.51 60.2706 10.7 60.2706C10.93 60.2706 11.13 60.2206 11.32 60.1106C11.51 60.0006 11.67 59.8706 11.84 59.6906C12.01 59.5106 12.12 59.3406 12.21 59.1406C12.31 58.9406 12.35 58.7606 12.35 58.5506V53.3506C12.35 53.2806 12.25 53.1906 12.07 53.1506C11.89 53.0906 11.67 53.0406 11.45 53.0106C11.23 52.9806 10.99 52.9606 10.78 52.9506H10.35C10.21 52.9506 10.13 52.9906 10.13 53.0606V53.2906C10.13 53.3606 10.09 53.4606 10.02 53.5306C9.95 53.6006 9.78 53.6506 9.48 53.6506C9.24 53.6506 9 53.6006 8.81 53.4906C8.61 53.3906 8.41 53.2906 8.2 53.1706C8 53.0606 7.78 52.9506 7.58 52.8606C7.38 52.7706 7.12 52.7206 6.86 52.7206C6.76 52.7706 6.7 52.8606 6.68 52.9806C6.64 53.1006 6.61 53.2206 6.57 53.3606C6.53 53.4806 6.5 53.6206 6.46 53.7606C6.42 53.9006 6.36 54.0006 6.3 54.0806C6.23 54.1806 6.12 54.2406 5.95 54.2406H4.92C4.78 54.2406 4.7 54.3006 4.7 54.4006C4.7 54.4506 4.74 54.5106 4.8 54.5806C4.86 54.6506 4.94 54.7406 5.02 54.8006C5.09 54.8706 5.18 54.9406 5.26 55.0006C5.33 55.0606 5.4 55.1106 5.43 55.1606L5.5 55.3306V55.5506C5.26 55.8906 5.01 56.2206 4.77 56.5606C4.53 56.9006 4.34 57.2606 4.23 57.6206L4.3 57.6906C4.48 57.6206 4.65 57.5106 4.84 57.3806C5.03 57.2506 5.21 57.1406 5.39 57.0106C5.57 56.8806 5.76 56.7806 5.95 56.6906C6.15 56.5906 6.35 56.5306 6.57 56.5306C6.68 56.5306 6.75 56.5906 6.81 56.7006C6.86 56.8106 6.92 56.9306 6.99 57.0706C7.06 57.1906 7.16 57.3106 7.27 57.4206C7.38 57.5306 7.55 57.5806 7.76 57.5806C8.04 57.5806 8.28 57.4706 8.47 57.2706C8.66 57.0706 8.75 56.8406 8.75 56.5706C8.75 56.4306 8.71 56.2906 8.64 56.1506C8.57 56.0306 8.5 55.8906 8.42 55.7506C8.35 55.6106 8.28 55.4906 8.22 55.3706C8.16 55.2506 8.12 55.1306 8.12 54.9906C8.12 54.7006 8.28 54.4706 8.56 54.2806C8.87 54.1006 9.15 54.0206 9.4 54.0206C9.57 54.0206 9.68 54.0606 9.72 54.1206C9.76 54.1806 9.77 54.2806 9.77 54.4006V58.7006C9.77 58.8206 9.67 58.9006 9.49 58.9006H9.07C8.41 58.9006 7.76 58.9006 7.09 58.8606C6.43 58.8506 5.78 58.8106 5.15 58.7906C4.93 58.7506 4.66 58.7406 4.32 58.7406C3.98 58.7406 3.72 58.7306 3.54 58.6906C3.34 58.6506 3.25 58.5706 3.25 58.4306C3.25 57.6706 3.25 56.9406 3.3 56.2106C3.35 55.4806 3.35 54.7306 3.35 53.9906C3.35 53.8906 3.35 53.7906 3.39 53.6706C3.4 53.5606 3.39 53.4506 3.35 53.3506C3.31 53.2306 3.17 53.1106 2.92 53.0306C2.66 52.9306 2.38 52.8906 2.09 52.8606C1.78 52.8206 1.53 52.8606 1.27 52.9006C1.01 52.9406 0.92 53.0206 0.92 53.1406C0.92 54.3006 0.96 55.4706 1.02 56.6206C1.08 57.7706 1.12 58.9406 1.12 60.1006C1.12 60.1406 1.13 60.1706 1.17 60.2606C1.21 60.3206 1.24 60.3606 1.31 60.3606C1.53 60.3606 1.74 60.3006 1.98 60.1806C2.22 60.0606 2.47 59.9206 2.71 59.7806C2.97 59.6406 3.23 59.5006 3.53 59.3806C3.81 59.2606 4.13 59.2006 4.48 59.2006C4.55 59.2006 4.64 59.2006 4.74 59.2406C4.84 59.2806 4.9 59.3106 4.9 59.4106L4.9 61.4506C4.9 61.6206 4.79 61.7106 4.56 61.7306C4.34 61.7706 4.18 61.7706 4.07 61.7706C3.73 61.7706 3.41 61.7106 3.1 61.5706C2.79 61.4506 2.5 61.2906 2.21 61.1406C1.93 60.9806 1.66 60.8306 1.38 60.7106C1.12 60.5706 0.88 60.5106 0.65 60.5106C0.45 60.5106 0.36 60.5806 0.36 60.7306C0.36 62.5506 0.4 64.3706 0.46 66.1806C0.52 67.9906 0.56 69.7806 0.56 71.6306C0.56 71.7506 0.62 71.8306 0.73 71.8506C0.85 71.8606 0.96 71.8906 1.07 71.8906C1.18 71.8906 1.35 71.8906 1.56 71.8506C1.78 71.8106 1.99 71.7906 2.21 71.7406C2.43 71.6906 2.61 71.6306 2.77 71.5406C2.94 71.4706 3.01 71.3406 3.01 71.2006L3.01 66.2206C3.01 66.0206 3.11 65.9306 3.3 65.9306C3.37 65.9306 3.46 65.9906 3.54 66.1106C3.64 66.2306 3.72 66.3706 3.8 66.5306C3.87 66.6906 3.96 66.8406 4.02 67.0106C4.08 67.1806 4.13 67.2906 4.14 67.3506L4.24 67.2906V67.3106L4.26 67.1606ZM3.13 64.6406L3.06 64.4706L3.06 62.3306C3.06 62.1606 3.16 62.0906 3.32 62.0906H4.77C4.94 62.0906 5.03 62.1606 5.03 62.3306C5.03 62.7306 4.99 63.1506 4.96 63.5406C4.91 63.9406 4.86 64.3306 4.82 64.7406L4.75 64.8106L4.57 64.9106H3.51L3.33 64.8106L3.15 64.6406H3.13ZM12.95 58.0106L13.02 58.0806C13.19 58.0106 13.36 57.8806 13.51 57.7006C13.67 57.5306 13.83 57.4406 14.03 57.4406C14.23 57.4406 14.32 57.5106 14.32 57.6806L14.32 71.5006C14.32 71.6706 14.39 71.7406 14.56 71.7406H14.98C15.57 71.7406 15.99 71.6406 16.29 71.4806C16.58 71.3106 16.79 71.1306 16.95 70.9306C17.11 70.7306 17.21 70.5506 17.29 70.3806C17.37 70.2106 17.49 70.1206 17.64 70.1206H25.12C25.22 70.1206 25.26 70.0706 25.26 69.9806C25.26 69.8906 25.25 69.8206 25.21 69.7806C25.2 69.7306 25.09 69.6106 24.9 69.4406C24.72 69.2606 24.5 69.0606 24.28 68.8406C24.06 68.6206 23.85 68.4206 23.67 68.2806C23.49 68.1106 23.39 68.0406 23.38 68.0406C23.22 68.0406 23.1 68.1006 23.03 68.2406C22.96 68.3806 22.86 68.5306 22.79 68.6806C22.69 68.8506 22.61 69.0006 22.48 69.1406C22.36 69.3006 22.2 69.3606 22.02 69.3606C21.9 69.3106 21.84 69.2406 21.84 69.1206V64.5506C21.84 64.3706 22 64.2706 22.32 64.2706C22.64 64.2706 22.99 64.2706 23.38 64.3106C23.77 64.3506 24.11 64.3606 24.44 64.3706C24.76 64.3706 24.92 64.3106 24.92 64.1706L24.85 64.0006C24.59 63.7406 24.35 63.4606 24.12 63.1806C23.89 62.9006 23.63 62.6406 23.35 62.4106L23.21 62.3706L23.1 62.4406C22.99 62.6106 22.87 62.8106 22.72 63.0506C22.57 63.2906 22.38 63.4506 22.16 63.4906L21.98 63.4406L21.91 63.2806V59.4406C21.91 59.2706 22.07 59.2006 22.37 59.1806C22.67 59.1606 23.02 59.1706 23.38 59.1806C23.74 59.1906 24.09 59.2206 24.39 59.2206C24.69 59.2206 24.85 59.1606 24.85 59.0206C24.85 58.9806 24.78 58.9006 24.61 58.7406C24.45 58.5806 24.27 58.4206 24.09 58.2506C23.91 58.0706 23.72 57.9006 23.54 57.7506C23.36 57.5806 23.23 57.4906 23.19 57.4306L23.05 57.3806L22.91 57.4506C22.91 57.4506 22.85 57.5606 22.77 57.6706C22.69 57.7806 22.61 57.8906 22.54 57.9906C22.47 58.1006 22.37 58.1906 22.3 58.2706C22.2 58.3406 22.16 58.3906 22.14 58.3906C22.07 58.3806 22 58.3306 21.94 58.2306C21.88 58.1306 21.84 58.0606 21.84 58.0006L21.84 54.5806C21.84 54.4606 21.91 54.3606 22.08 54.3206C22.25 54.2806 22.45 54.2606 22.68 54.2706C22.91 54.2706 23.17 54.3106 23.46 54.3206C23.75 54.3606 24.01 54.3706 24.25 54.3706C24.49 54.3706 24.68 54.3706 24.85 54.3306C25.01 54.2906 25.09 54.2306 25.09 54.1506L25.02 53.9806C24.92 53.9206 24.79 53.8006 24.6 53.6306C24.42 53.4606 24.22 53.2906 24.01 53.1406C23.81 52.9706 23.61 52.8306 23.41 52.7006C23.21 52.5706 23.09 52.4706 23.01 52.4206L22.85 52.4906C22.63 52.7106 22.45 52.9306 22.29 53.2006C22.13 53.4706 21.92 53.6906 21.69 53.8706H17.5C17.39 53.8706 17.28 53.8206 17.16 53.7106C17.04 53.6006 16.98 53.5106 16.98 53.4206C16.98 53.3806 17.04 53.2206 17.18 52.9206C17.32 52.6206 17.47 52.2606 17.66 51.8606C17.84 51.4606 18.01 51.0906 18.15 50.7706C18.29 50.4306 18.38 50.2706 18.41 50.2206C18.51 50.1006 18.65 49.9806 18.85 49.8506C19.07 49.7406 19.19 49.6306 19.22 49.5606C19.15 49.5006 18.94 49.4006 18.6 49.2806C18.26 49.1606 17.88 49.0506 17.46 48.9406C17.04 48.8306 16.64 48.7406 16.28 48.6806C15.92 48.6206 15.67 48.5706 15.55 48.5706C15.41 48.5706 15.33 48.6206 15.31 48.7306C15.21 48.9606 15.17 49.2106 15.17 49.4606C15.17 49.7106 15.16 49.9606 15.12 50.1906C15.02 50.7106 14.94 51.2306 14.83 51.7406C14.72 52.2506 14.6 52.7506 14.46 53.2406C14.3 53.7806 14.14 54.3106 13.97 54.8506C13.8 55.3906 13.63 55.9206 13.45 56.4506C13.35 56.6906 13.27 56.9406 13.17 57.1806C13.07 57.4206 13 57.6706 12.97 57.9106V58.0206L12.95 58.0106ZM17.29 54.7006C17.29 54.5206 17.39 54.4406 17.55 54.4406H18.86C19.03 54.4406 19.12 54.5406 19.12 54.7006L19.12 58.6806C19.12 58.8506 19.02 58.9206 18.86 58.9206H17.55C17.38 58.9206 17.29 58.8506 17.29 58.6806L17.29 54.7006ZM17.54 59.2706H18.63L18.85 59.3406L19.03 59.5106L19.1 59.6806V63.6906C19.1 63.8606 19 63.9706 18.81 64.0306C18.62 64.0906 18.41 64.1306 18.19 64.1306C17.97 64.1306 17.76 64.0906 17.57 64.0306C17.38 63.9706 17.28 63.8906 17.28 63.7706V59.4906C17.28 59.3206 17.38 59.2506 17.54 59.2506V59.2906V59.2706ZM17.54 64.4006H18.85C19.02 64.4006 19.11 64.4706 19.11 64.6406V69.5506C19.11 69.7306 19 69.8306 18.8 69.8606C18.6 69.8906 18.43 69.9006 18.28 69.9006H18.04C17.93 69.9006 17.82 69.9006 17.7 69.8606C17.58 69.8206 17.47 69.8106 17.39 69.7906C17.31 69.7706 17.27 69.6906 17.27 69.6206V64.6406C17.27 64.4706 17.37 64.4006 17.53 64.4006H17.54ZM20.46 48.9806L20.32 49.0506C20.21 49.2906 20.1 49.6006 19.98 50.0006C19.86 50.3806 19.74 50.7906 19.64 51.2106C19.53 51.6306 19.44 52.0406 19.38 52.4206C19.31 52.8006 19.27 53.1306 19.27 53.3706L19.38 53.4406C19.58 53.4406 19.73 53.3806 19.86 53.2706L23.1 50.3106C23.2 50.2406 23.28 50.1706 23.38 50.1306C23.48 50.0906 23.55 50.0206 23.58 49.9306L23.53 49.8306C23.31 49.7806 23.09 49.7106 22.81 49.6306C22.55 49.5306 22.27 49.4506 21.98 49.3506C21.69 49.2506 21.42 49.1706 21.15 49.1106C20.88 49.0506 20.66 49.0006 20.49 48.9906L20.45 48.9506V48.9706L20.46 48.9806Z" fill="white"/>
<path d="M4.69997 91.0806C4.41997 90.9206 4.21997 90.9106 4.10997 91.0206C3.99997 91.1306 3.98997 91.2606 4.05997 91.4506C4.12997 91.6406 4.22997 91.9906 4.34997 92.5106C4.46997 93.0306 4.62997 93.5406 4.80997 94.0306C4.98997 94.5206 5.22997 94.9506 5.51997 95.3406C5.79997 95.7106 6.13997 95.8906 6.61997 95.8906C7.09997 95.8906 7.47997 95.7906 7.73997 95.6006C7.99997 95.4106 8.21997 95.1606 8.34997 94.8306C8.47997 94.5006 8.56997 94.1706 8.58997 93.8206C8.62997 93.4506 8.63997 93.1006 8.63997 92.7606C8.63997 92.2806 8.59997 91.8206 8.56997 91.3306C8.51997 90.8506 8.45997 90.3806 8.40997 89.9006C8.30997 89.0706 8.26997 88.2606 8.24997 87.4606C8.22997 86.6606 8.20997 85.8506 8.20997 85.0406C8.20997 84.5006 8.25997 84.0706 8.34997 83.7306C8.43997 83.3906 8.65997 83.0106 9.00997 82.5906C9.31997 82.1906 9.70997 81.7706 10.21 81.3806C10.65 81.0306 10.93 80.7806 11.07 80.6706C11.21 80.5606 11.24 80.4506 11.18 80.3506C11.12 80.2506 11.04 80.2106 10.94 80.2406C10.84 80.2706 10.76 80.2806 10.7 80.2806C10.32 80.2806 10.04 80.1706 9.86997 79.9606C9.70997 79.7406 9.62997 79.4706 9.62997 79.1206C9.62997 78.9206 9.67997 78.7406 9.76997 78.5306C9.85997 78.3206 9.94997 78.1506 10.05 77.9806C10.15 77.8006 10.23 77.6106 10.31 77.4206C10.38 77.2206 10.43 77.0006 10.43 76.8106C10.43 76.4406 10.32 76.0906 10.11 75.7806C9.89997 75.4706 9.61997 75.1806 9.27997 74.9406C8.93997 74.7006 8.55997 74.5106 8.17997 74.3806C7.79997 74.2506 7.39997 74.1806 6.99997 74.1806C6.88997 74.1806 6.71997 74.1806 6.50997 74.2206C6.29997 74.2606 6.07997 74.2806 5.85997 74.3206C5.63997 74.3706 5.45997 74.4306 5.26997 74.5006C5.08997 74.5706 4.98997 74.6806 4.97997 74.7906L5.04997 74.8906C5.27997 74.9606 5.50997 75.0606 5.74997 75.1506C5.98997 75.2406 6.18997 75.3706 6.36997 75.5006C6.56997 75.6406 6.71997 75.8106 6.82997 75.9906C6.93997 76.1706 6.99997 76.4106 6.99997 76.6606C6.99997 78.2406 6.62997 79.4006 5.89997 80.1206C5.16997 80.8306 3.91997 81.1906 2.16997 81.1906C1.90997 81.1906 1.67997 81.1506 1.49997 81.0906C1.31997 81.0306 1.14997 80.9506 1.00997 80.8706C0.869971 80.7906 0.749971 80.7106 0.639971 80.6506C0.529971 80.5906 0.459971 80.5506 0.419971 80.5506C0.319971 80.5506 0.279971 80.6106 0.259971 80.7206C0.249971 80.8306 0.219971 80.9206 0.219971 80.9606C0.219971 81.3306 0.319971 81.7206 0.479971 82.1006C0.649971 82.4806 0.879971 82.8306 1.14997 83.1406C1.42997 83.4606 1.74997 83.7006 2.12997 83.9106C2.50997 84.1206 2.90997 84.2006 3.33997 84.2006C3.49997 84.2006 3.64997 84.1606 3.76997 84.1006C3.83997 84.0506 3.90997 83.9906 3.94997 83.9406C3.99997 83.8806 4.05997 83.8206 4.12997 83.7606C4.23997 83.6606 4.35997 83.5406 4.50997 83.4106C4.65997 83.2806 4.81997 83.1506 4.99997 83.0306C5.17997 82.9206 5.34997 82.8106 5.53997 82.7406C5.70997 82.6706 5.87997 82.6206 6.03997 82.6206C6.19997 82.6206 6.29997 82.6906 6.29997 82.8406C6.29997 83.3906 6.13997 83.9006 5.86997 84.3906C5.59997 84.8806 5.20997 85.3406 4.74997 85.7806C4.28997 86.2406 3.79997 86.6806 3.26997 87.1506C2.74997 87.6106 2.25997 88.0706 1.81997 88.5406C1.37997 89.0106 0.989971 89.4906 0.699971 89.9906C0.389971 90.4906 0.259971 91.0306 0.259971 91.6106C0.259971 91.7906 0.269971 91.9606 0.309971 92.1306C0.349971 92.3006 0.409971 92.4506 0.479971 92.6106C0.549971 92.7706 0.679971 92.8906 0.819971 92.9906C0.979971 93.1006 1.15997 93.1506 1.35997 93.1506C1.69997 93.1506 1.94997 93.0506 2.11997 92.8606C2.28997 92.6606 2.43997 92.4406 2.57997 92.2106C2.71997 91.9806 3.06997 91.4306 3.61997 90.5906C4.16997 89.7506 4.53997 89.1606 4.71997 88.8406C4.89997 88.5206 5.09997 88.2406 5.31997 88.0006C5.53997 87.7606 5.71997 87.6306 5.86997 87.6306C5.97997 87.6306 6.02997 87.7006 6.02997 87.8506V90.7706C6.02997 90.8906 5.97997 91.0506 5.88997 91.2006C5.78997 91.3706 5.68997 91.4406 5.54997 91.4406C5.44997 91.4406 5.32997 91.4006 5.14997 91.3406C4.96997 91.2806 4.80997 91.1806 4.64997 91.1006H4.65997L4.69997 91.0806ZM11.94 79.7606C11.8 79.8606 11.77 79.9406 11.84 80.0406C11.91 80.1406 12.08 80.1006 12.32 79.9706C12.56 79.8306 12.98 79.6606 13.59 79.4506C14.2 79.2406 14.77 79.1306 15.29 79.1306C15.73 79.1306 16.08 79.2006 16.35 79.3706C16.62 79.5406 16.81 79.7406 16.96 79.9806C17.1 80.2206 17.19 80.5006 17.24 80.8206C17.29 81.1406 17.3 81.4406 17.3 81.7906C17.3 82.4506 17.25 83.1106 17.16 83.7706C17.07 84.4306 16.98 85.0906 16.85 85.7506C16.72 86.4106 16.63 87.0706 16.53 87.7206C16.43 88.3706 16.37 89.0306 16.37 89.6906C16.37 90.2306 16.42 90.7306 16.53 91.2406C16.64 91.7506 16.81 92.1606 17.05 92.5506C17.29 92.9206 17.61 93.2206 18.06 93.4406C18.49 93.6606 19.06 93.7606 19.75 93.7606C20.25 93.7606 20.84 93.6606 21.5 93.4806C22.16 93.3006 22.77 93.0406 23.36 92.7006C23.95 92.3606 24.43 91.9406 24.84 91.4906C25.24 91.0106 25.44 90.5206 25.44 90.0006V89.8806L25.33 89.8406C24.71 90.1606 24.07 90.4406 23.46 90.6606C22.85 90.8806 22.18 90.9806 21.43 90.9806C20.99 90.9806 20.65 90.9306 20.42 90.8206C20.19 90.7106 20 90.5806 19.88 90.3906C19.74 90.2106 19.66 89.9706 19.64 89.7206C19.62 89.4706 19.59 89.1606 19.59 88.8306C19.59 88.2706 19.64 87.7106 19.71 87.1606C19.78 86.6106 19.88 86.0606 19.97 85.5006C20.06 84.9406 20.15 84.4006 20.23 83.8406C20.31 83.2806 20.35 82.7506 20.35 82.1706C20.35 81.5906 20.3 81.0506 20.19 80.5706C20.08 80.0806 19.9 79.6706 19.63 79.3106C19.36 78.9506 18.98 78.6906 18.53 78.4706C18.08 78.2506 17.49 78.1606 16.75 78.1606C16.25 78.1606 15.74 78.2206 15.25 78.3306C14.76 78.4406 14.28 78.5906 13.81 78.7606C13.61 78.8306 13.41 78.9306 13.21 79.0206C13.01 79.1106 12.79 79.2206 12.56 79.3606C12.33 79.5006 12.12 79.6406 11.9 79.7906H11.94V79.7406V79.7606Z" fill="white"/>
<path d="M14.27 103.862C14.55 103.852 15.52 103.862 17.14 103.962C18.76 104.032 19.77 104.072 20.12 104.072H22.05C22.42 104.072 22.71 103.962 22.94 103.762C23.17 103.562 23.28 103.282 23.28 102.942C23.28 102.542 23.16 102.212 22.91 101.962C22.67 101.722 22.36 101.522 21.99 101.402C21.62 101.282 21.22 101.182 20.81 101.122C20.39 101.062 20.02 101.022 19.66 101.022C18.24 101.022 16.86 101.182 15.53 101.502C14.2 101.822 12.84 102.162 11.5 102.532C10.16 102.902 8.79997 103.252 7.46997 103.562C6.13997 103.882 4.75997 104.042 3.33997 104.042C3.10997 104.042 2.90997 103.992 2.71997 103.922C2.53997 103.852 2.34997 103.752 2.16997 103.642C1.98997 103.532 1.79997 103.442 1.60997 103.332C1.41997 103.222 1.20997 103.172 0.999971 103.162L0.889971 103.282C0.779971 103.462 0.719971 103.632 0.719971 103.822L0.719971 104.372C0.719971 104.742 0.819971 105.132 0.979971 105.492C1.14997 105.862 1.39997 106.202 1.68997 106.502C1.97997 106.802 2.30997 107.052 2.69997 107.232C3.07997 107.432 3.47997 107.522 3.89997 107.522C4.56997 107.522 5.31997 107.342 6.11997 106.962C6.93997 106.582 7.78997 106.172 8.67997 105.702C9.57997 105.242 10.5 104.812 11.45 104.442C12.4 104.062 13.36 103.882 14.31 103.882H14.3L14.27 103.862ZM15.37 105.162C15.51 105.042 15.51 104.852 15.37 104.662C15.21 104.442 14.65 104.602 13.68 105.092C12.7 105.592 11.76 106.582 10.86 108.032C9.95997 109.482 9.51997 111.082 9.51997 112.822C9.51997 114.092 9.75997 115.202 10.25 116.112C10.74 117.012 11.4 117.752 12.23 118.332C13.06 118.922 14.04 119.332 15.16 119.592C16.28 119.852 17.46 119.992 18.72 119.992C18.98 119.992 19.24 119.952 19.5 119.892C19.76 119.832 19.99 119.732 20.21 119.612C20.43 119.492 20.59 119.322 20.73 119.132C20.87 118.942 20.93 118.702 20.93 118.412C20.93 117.822 20.71 117.412 20.28 117.162C19.85 116.912 19.31 116.732 18.68 116.612C18.05 116.492 17.35 116.372 16.6 116.262C15.85 116.152 15.16 115.952 14.51 115.652C13.86 115.352 13.33 114.872 12.9 114.232C12.47 113.612 12.25 112.712 12.25 111.582C12.25 110.602 12.36 109.702 12.56 108.872C12.76 108.052 13.1 107.332 13.57 106.712C14.05 106.092 14.64 105.562 15.41 105.152H15.35H15.36L15.37 105.162Z" fill="white"/>
</svg>
