<?xml version="1.0" encoding="UTF-8" standalone="no"?>
<svg
   id="Layer_2"
   viewBox="0 0 50 85.41"
   version="1.1"
   sodipodi:docname="DateAndVenue.svg"
   inkscape:version="1.3.2 (091e20e, 2023-11-25)"
   xmlns:inkscape="http://www.inkscape.org/namespaces/inkscape"
   xmlns:sodipodi="http://sodipodi.sourceforge.net/DTD/sodipodi-0.dtd"
   xmlns="http://www.w3.org/2000/svg"
   xmlns:svg="http://www.w3.org/2000/svg">
  <sodipodi:namedview
     id="namedview60"
     pagecolor="#ffffff"
     bordercolor="#000000"
     borderopacity="0.25"
     inkscape:showpageshadow="2"
     inkscape:pageopacity="0.0"
     inkscape:pagecheckerboard="0"
     inkscape:deskcolor="#d1d1d1"
     inkscape:zoom="8.6641553"
     inkscape:cx="21.294632"
     inkscape:cy="49.97602"
     inkscape:window-width="1488"
     inkscape:window-height="1127"
     inkscape:window-x="1214"
     inkscape:window-y="2675"
     inkscape:window-maximized="0"
     inkscape:current-layer="Layer_2" />
  <defs
     id="defs1">
    <style
       id="style1">
      .cls-1 {
        fill: none;
        stroke: #c9cac9;
        stroke-miterlimit: 10;
        stroke-width: .37px;
      }

      .cls-2 {
        fill: #f0efef;
      }
    </style>
  </defs>
  <g
     id="g60"
     data-name="Layer_2"
     transform="matrix(1,0,0,-1,0,85.43)">
    <g
       id="Layer_2-2">
      <g
         id="Layer_2-2-2"
         data-name="Layer_2-2">
        <g
           id="Layer_1-2">
          <g
             id="_图层_1-2">
            <g
               id="g41">
              <g
                 id="g2">
                <path
                   class="cls-2"
                   d="m 4.77,73.05 c 0,0 0.06,0.04 0.06,0.11 0,0.07 -0.02,0.12 -0.06,0.16 -0.06,0.04 -0.16,0.07 -0.28,0.09 -0.12,0.02 -0.25,0.03 -0.38,0.06 -0.13,0.03 -0.24,0.08 -0.34,0.15 -0.1,0.07 -0.14,0.19 -0.14,0.34 V 85.3 c 0,0.06 0,0.09 -0.04,0.11 -0.02,0.02 -0.04,0.02 -0.07,0.02 -0.1,0 -0.21,0 -0.33,-0.04 C 3.07,85.35 2.97,85.33 2.85,85.29 2.61,85.19 2.36,85.1 2.12,85.01 1.88,84.92 1.64,84.82 1.4,84.68 1.39,84.68 1.36,84.66 1.33,84.64 1.29,84.62 1.26,84.6 1.22,84.58 1.18,84.56 1.16,84.53 1.13,84.49 1.1,84.45 1.09,84.43 1.09,84.39 c 0,-0.06 0,-0.11 0,-0.15 0,-0.04 0.02,-0.06 0.06,-0.09 0.11,0 0.2,0.02 0.27,0.04 0.07,0.02 0.14,0.02 0.21,0.04 0.07,0 0.11,0.01 0.13,0.01 0.09,0.02 0.17,0.03 0.24,0.02 0.07,-0.01 0.12,-0.12 0.15,-0.33 0.01,-0.13 0.02,-0.26 0.01,-0.38 v -3.44 c 0,-1.05 0,-2.11 0,-3.16 0,-1.06 -0.02,-2.11 -0.09,-3.16 0,-0.1 -0.06,-0.17 -0.16,-0.22 C 1.81,73.52 1.69,73.48 1.55,73.46 1.41,73.44 1.28,73.41 1.14,73.4 1,73.39 0.92,73.36 0.87,73.33 0.83,73.29 0.81,73.24 0.81,73.18 0.81,73.1 0.83,73.07 0.87,73.07 H 4.7 c 0,0 0.02,0 0.02,0 z"
                   id="path1" />
                <path
                   class="cls-2"
                   d="m 10.49,73.05 c 0,0 0.06,0.04 0.06,0.11 0,0.07 -0.02,0.12 -0.06,0.16 -0.06,0.04 -0.16,0.07 -0.28,0.09 -0.12,0.02 -0.25,0.03 -0.38,0.06 -0.13,0.03 -0.24,0.08 -0.34,0.15 -0.1,0.07 -0.14,0.19 -0.14,0.34 V 85.3 c 0,0.06 0,0.09 -0.04,0.11 -0.02,0.02 -0.04,0.02 -0.07,0.02 -0.1,0 -0.21,0 -0.33,-0.04 C 8.79,85.35 8.69,85.33 8.57,85.29 8.33,85.19 8.08,85.1 7.84,85.01 7.6,84.92 7.36,84.82 7.12,84.68 7.11,84.68 7.08,84.66 7.05,84.64 7.01,84.62 6.98,84.6 6.94,84.58 6.9,84.56 6.88,84.53 6.85,84.49 6.82,84.45 6.81,84.43 6.81,84.39 c 0,-0.06 0,-0.11 0,-0.15 0,-0.04 0.02,-0.06 0.06,-0.09 0.11,0 0.2,0.02 0.27,0.04 0.07,0.02 0.14,0.02 0.21,0.04 0.07,0 0.11,0.01 0.13,0.01 0.09,0.02 0.17,0.03 0.24,0.02 0.07,-0.01 0.12,-0.12 0.15,-0.33 0.01,-0.13 0.02,-0.26 0.01,-0.38 v -3.44 c 0,-1.05 0,-2.11 0,-3.16 0,-1.06 -0.02,-2.11 -0.09,-3.16 0,-0.1 -0.06,-0.17 -0.16,-0.22 C 7.53,73.52 7.41,73.48 7.27,73.46 7.13,73.44 7,73.41 6.86,73.4 6.72,73.39 6.64,73.36 6.59,73.33 6.55,73.29 6.53,73.24 6.53,73.18 c 0,-0.08 0.02,-0.11 0.06,-0.11 h 3.83 c 0,0 0.02,0 0.02,0 z"
                   id="path2" />
              </g>
              <g
                 id="g4">
                <path
                   class="cls-2"
                   d="m 15.64,57.67 v 0 0.34 c -0.11,0.06 -0.21,0.15 -0.31,0.28 -0.13,0.23 -0.24,0.51 -0.34,0.86 -0.1,0.35 -0.16,0.74 -0.19,1.16 -0.04,0.44 -0.07,0.86 -0.1,1.28 -0.02,0.42 -0.04,0.81 -0.04,1.16 v 1.73 c 0,0.36 0,0.76 0.04,1.18 0.02,0.41 0.06,0.84 0.1,1.28 0.04,0.44 0.11,0.82 0.19,1.16 0.09,0.34 0.2,0.62 0.34,0.84 0.09,0.14 0.19,0.24 0.31,0.29 v 0.37 h -0.35 c -0.26,0 -0.49,-0.11 -0.69,-0.31 -0.2,-0.2 -0.36,-0.49 -0.51,-0.83 -0.15,-0.34 -0.27,-0.73 -0.36,-1.15 -0.1,-0.43 -0.18,-0.86 -0.24,-1.31 -0.06,-0.45 -0.1,-0.87 -0.12,-1.29 -0.02,-0.42 -0.04,-0.78 -0.04,-1.09 0,-0.65 0.04,-1.32 0.11,-2.03 0.07,-0.71 0.2,-1.34 0.39,-1.93 0.19,-0.58 0.44,-1.06 0.76,-1.44 0.29,-0.34 0.63,-0.51 1.04,-0.56 v 0 z m 1.65,1.8 v 0 l 0.31,0.31 -3.16,7.67 -0.31,-0.31 3.16,-7.67 z m -0.93,10.14 h -0.41 v -0.34 c 0.16,-0.03 0.3,-0.13 0.41,-0.31 0.14,-0.21 0.25,-0.5 0.34,-0.84 0.09,-0.35 0.15,-0.74 0.19,-1.15 0.04,-0.41 0.06,-0.84 0.08,-1.27 0.01,-0.42 0.02,-0.82 0.01,-1.19 v -1.99 c 0,-0.39 0,-0.77 -0.02,-1.15 -0.02,-0.38 -0.04,-0.76 -0.07,-1.14 -0.04,-0.38 -0.1,-0.73 -0.18,-1.04 -0.07,-0.31 -0.18,-0.59 -0.31,-0.86 -0.1,-0.19 -0.23,-0.3 -0.39,-0.36 v -0.33 h 0.11 c 0.09,-0.02 0.17,-0.01 0.25,0 0.2,0.06 0.38,0.16 0.55,0.31 0.17,0.16 0.33,0.34 0.46,0.55 0.21,0.32 0.37,0.69 0.51,1.09 0.14,0.4 0.24,0.84 0.31,1.29 0.07,0.46 0.12,0.91 0.15,1.38 0.03,0.47 0.04,0.91 0.04,1.35 0,0.31 -0.01,0.67 -0.04,1.09 -0.02,0.41 -0.07,0.84 -0.13,1.29 -0.06,0.45 -0.15,0.88 -0.25,1.31 -0.1,0.43 -0.23,0.81 -0.38,1.16 -0.15,0.35 -0.33,0.63 -0.53,0.83 -0.2,0.2 -0.44,0.31 -0.7,0.31 h -0.01 z"
                   id="path3" />
                <path
                   class="cls-2"
                   d="m 21.83,58.51 v 0 l 2.42,9.81 c 0,0 0,0.08 0,0.17 v 0.86 c 0,0.1 -0.04,0.16 -0.11,0.16 h -4.51 c -0.07,0 -0.11,-0.06 -0.11,-0.16 v -1.49 c 0,-0.1 0.04,-0.16 0.11,-0.16 h 4.04 c 0,0 0.04,-0.04 0.06,-0.09 0.02,-0.05 0.04,-0.1 0.04,-0.12 0.01,-0.07 -0.01,-0.15 -0.09,-0.24 -0.08,-0.09 -0.11,-0.15 -0.14,-0.2 -0.04,-0.09 -0.07,-0.18 -0.1,-0.28 -0.03,-0.1 -0.06,-0.2 -0.09,-0.29 C 23.04,65.59 22.73,64.72 22.41,63.86 22.09,63 21.79,62.12 21.49,61.24 l -0.5,-1.46 C 20.93,59.62 20.88,59.47 20.82,59.32 20.76,59.16 20.7,59.01 20.65,58.84 L 20.4,58.02 c -0.04,-0.09 0,-0.14 0.07,-0.14 h 1.11 c 0,0 0.06,0.02 0.08,0.08 0.02,0.06 0.05,0.11 0.06,0.19 0.01,0.08 0.03,0.15 0.04,0.21 0.01,0.06 0.02,0.12 0.03,0.16 v 0 c 0,0 0,-0.01 0,-0.01 z"
                   id="path4" />
              </g>
              <g
                 id="g6">
                <path
                   class="cls-2"
                   d="m 0.07,23.42 h 4.12 c 0,0 0.07,0.04 0.06,0.1 -0.01,0.06 -0.02,0.11 -0.06,0.15 -0.07,0.04 -0.16,0.07 -0.3,0.08 -0.14,0 -0.27,0.03 -0.41,0.06 -0.13,0.02 -0.26,0.07 -0.36,0.14 -0.1,0.07 -0.15,0.17 -0.15,0.31 v 10.69 c 0,0.06 0,0.09 -0.04,0.1 -0.02,0.01 -0.05,0.02 -0.07,0.02 -0.11,0 -0.23,0 -0.35,-0.03 C 2.39,35.01 2.27,34.98 2.15,34.95 1.89,34.86 1.63,34.77 1.36,34.69 1.1,34.6 0.85,34.5 0.58,34.38 0.57,34.38 0.54,34.36 0.5,34.34 0.46,34.33 0.42,34.3 0.39,34.28 0.35,34.26 0.32,34.23 0.3,34.2 0.28,34.17 0.26,34.14 0.26,34.11 c 0,-0.06 0,-0.11 0,-0.14 0,-0.03 0.03,-0.06 0.07,-0.08 0.11,0 0.21,0.02 0.29,0.03 0.08,0.01 0.15,0.02 0.22,0.03 0.07,0.01 0.11,0.01 0.14,0.01 0.1,0.02 0.19,0.02 0.26,0.01 0.07,-0.01 0.13,-0.11 0.16,-0.31 0.01,-0.12 0.02,-0.24 0.01,-0.36 v -3.24 c 0,-0.99 0,-1.99 0,-2.98 0,-0.99 -0.02,-1.99 -0.09,-2.98 0,-0.09 -0.06,-0.16 -0.18,-0.21 C 1.02,23.84 0.9,23.8 0.75,23.78 0.6,23.76 0.46,23.73 0.31,23.72 0.17,23.71 0.07,23.68 0.02,23.65 c -0.04,-0.03 -0.06,-0.08 -0.06,-0.14 0,-0.07 0.02,-0.11 0.07,-0.11 v 0 z"
                   id="path5" />
                <path
                   class="cls-2"
                   d="m 6.22,23.42 h 4.12 c 0,0 0.07,0.04 0.06,0.1 0,0.07 -0.02,0.11 -0.06,0.15 -0.07,0.04 -0.16,0.07 -0.3,0.08 -0.14,0.01 -0.27,0.03 -0.41,0.06 -0.13,0.02 -0.26,0.07 -0.36,0.14 -0.1,0.07 -0.15,0.17 -0.15,0.31 v 10.69 c 0,0.06 0,0.09 -0.04,0.1 -0.02,0.01 -0.05,0.02 -0.07,0.02 -0.11,0 -0.23,0 -0.35,-0.03 C 8.54,35.01 8.42,34.98 8.3,34.95 8.04,34.86 7.78,34.77 7.51,34.69 7.25,34.6 7,34.5 6.73,34.38 6.72,34.38 6.69,34.36 6.65,34.34 6.61,34.32 6.57,34.3 6.54,34.28 6.51,34.26 6.47,34.23 6.45,34.2 6.43,34.17 6.41,34.14 6.41,34.11 c 0,-0.06 0,-0.11 0,-0.14 0,-0.03 0.03,-0.06 0.07,-0.08 0.11,0 0.21,0.02 0.29,0.03 0.08,0.01 0.15,0.02 0.22,0.03 0.07,0 0.11,0.01 0.14,0.01 0.1,0.02 0.19,0.02 0.26,0.01 0.07,-0.01 0.13,-0.11 0.16,-0.31 0.01,-0.12 0.02,-0.24 0.01,-0.36 v -3.24 c 0,-0.99 0,-1.99 0,-2.98 0,-0.99 -0.02,-1.99 -0.09,-2.98 0,-0.09 -0.06,-0.16 -0.18,-0.21 C 7.17,23.84 7.05,23.8 6.9,23.78 6.75,23.76 6.61,23.73 6.46,23.72 6.31,23.71 6.22,23.68 6.17,23.65 6.13,23.62 6.11,23.57 6.11,23.51 6.11,23.44 6.13,23.4 6.18,23.4 v 0 z"
                   id="path6" />
              </g>
              <g
                 id="g8">
                <path
                   class="cls-2"
                   d="m 12.86,7.42 h 4.12 c 0,0 0.07,0.04 0.06,0.1 0,0.07 -0.02,0.11 -0.06,0.15 -0.07,0.04 -0.16,0.07 -0.3,0.08 -0.14,0 -0.27,0.03 -0.41,0.06 -0.13,0.02 -0.26,0.07 -0.36,0.14 -0.1,0.07 -0.15,0.17 -0.15,0.31 v 10.69 c 0,0.06 0,0.09 -0.04,0.1 -0.02,0.01 -0.05,0.02 -0.07,0.02 -0.11,0 -0.23,0 -0.35,-0.03 -0.12,-0.03 -0.24,-0.06 -0.36,-0.09 -0.26,-0.09 -0.52,-0.18 -0.79,-0.26 -0.26,-0.09 -0.51,-0.19 -0.78,-0.31 -0.01,0 -0.04,-0.02 -0.08,-0.04 -0.04,-0.01 -0.08,-0.04 -0.11,-0.06 -0.03,-0.02 -0.07,-0.05 -0.09,-0.08 -0.02,-0.03 -0.04,-0.06 -0.04,-0.09 0,-0.06 0,-0.11 0,-0.14 0,-0.03 0.03,-0.06 0.07,-0.08 0.11,0 0.21,0.02 0.29,0.03 0.08,0.01 0.15,0.02 0.22,0.03 0.07,0.01 0.11,0.01 0.14,0.01 0.1,0.02 0.19,0.02 0.26,0.01 0.07,-0.01 0.13,-0.11 0.16,-0.31 0.01,-0.12 0.02,-0.24 0.01,-0.36 v -3.24 c 0,-0.99 0,-1.99 0,-2.98 0,-0.99 -0.02,-1.99 -0.09,-2.98 0,-0.09 -0.06,-0.16 -0.18,-0.21 C 13.81,7.84 13.69,7.8 13.54,7.78 13.39,7.76 13.25,7.73 13.1,7.72 12.95,7.71 12.86,7.68 12.81,7.65 12.77,7.62 12.75,7.57 12.75,7.51 12.75,7.44 12.77,7.4 12.82,7.4 v 0 z"
                   id="path7" />
                <path
                   class="cls-2"
                   d="m 19.01,7.42 h 4.12 c 0,0 0.07,0.04 0.06,0.1 -0.01,0.06 -0.02,0.11 -0.06,0.15 -0.07,0.04 -0.16,0.07 -0.3,0.08 -0.14,0 -0.27,0.03 -0.41,0.06 -0.13,0.02 -0.26,0.07 -0.36,0.14 -0.1,0.07 -0.15,0.17 -0.15,0.31 v 10.69 c 0,0.06 0,0.09 -0.04,0.1 -0.02,0.01 -0.05,0.02 -0.07,0.02 -0.11,0 -0.23,0 -0.35,-0.03 -0.12,-0.03 -0.24,-0.06 -0.36,-0.09 -0.26,-0.09 -0.52,-0.18 -0.79,-0.26 -0.26,-0.09 -0.51,-0.19 -0.78,-0.31 -0.01,0 -0.04,-0.02 -0.08,-0.04 C 19.4,18.33 19.36,18.3 19.33,18.28 19.3,18.26 19.26,18.23 19.24,18.2 19.22,18.17 19.2,18.14 19.2,18.11 c 0,-0.06 0,-0.11 0,-0.14 0,-0.03 0.03,-0.06 0.07,-0.08 0.11,0 0.21,0.02 0.29,0.03 0.08,0.01 0.15,0.02 0.22,0.03 0.07,0.01 0.11,0.01 0.14,0.01 0.1,0.02 0.19,0.02 0.26,0.01 0.07,-0.01 0.13,-0.11 0.16,-0.31 0.01,-0.12 0.02,-0.24 0.01,-0.36 v -3.24 c 0,-0.99 0,-1.99 0,-2.98 0,-0.99 -0.02,-1.99 -0.09,-2.98 C 20.26,8.01 20.2,7.94 20.08,7.89 19.96,7.84 19.84,7.8 19.69,7.78 19.54,7.76 19.4,7.73 19.25,7.72 19.1,7.71 19.01,7.68 18.96,7.65 18.92,7.62 18.9,7.57 18.9,7.51 18.9,7.44 18.92,7.4 18.97,7.4 v 0 z"
                   id="path8" />
              </g>
              <line
                 class="cls-1"
                 x1="9.3299999"
                 y1="64.18"
                 x2="14.38"
                 y2="73.82"
                 id="line8" />
              <line
                 class="cls-1"
                 x1="8.9200001"
                 y1="15.29"
                 x2="13.97"
                 y2="24.93"
                 id="line9" />
              <line
                 class="cls-1"
                 x1="11.86"
                 y1="42.400002"
                 x2="11.86"
                 y2="46.580002"
                 id="line10" />
              <g
                 id="g15">
                <path
                   class="cls-2"
                   d="m 19.46,82.95 h 0.46 v 0.04 c -0.31,0.02 -0.31,0.06 -0.31,0.27 v 1.8 c 0,0.21 0,0.24 0.31,0.27 v 0.04 h -0.46 v -2.41 0 z"
                   id="path10" />
                <path
                   class="cls-2"
                   d="m 20.25,83.4 h 0.67 c 0.58,0 1.25,0.22 1.25,0.99 0,0.26 -0.09,0.46 -0.24,0.6 -0.18,0.17 -0.46,0.23 -0.81,0.23 h -0.85 v -0.04 c 0.24,-0.01 0.26,-0.06 0.26,-0.29 v -1.16 c 0,-0.23 -0.02,-0.28 -0.29,-0.29 v -0.04 0 z m 0.43,0.33 v 0 1.36 c 0,0.06 0.01,0.06 0.02,0.06 h 0.26 c 0.29,0 0.47,-0.04 0.6,-0.09 0.27,-0.13 0.41,-0.43 0.41,-0.76 0,-0.39 -0.24,-0.85 -0.95,-0.85 -0.29,0 -0.34,0.04 -0.34,0.27 v 0 z"
                   id="path11" />
                <path
                   class="cls-2"
                   d="m 23.26,83.36 v 0 l 0.25,0.13 -0.02,0.05 c 0,0 -0.08,-0.04 -0.13,-0.04 -0.06,0 -0.1,0.05 -0.1,0.16 v 0.63 c 0,0.26 -0.18,0.35 -0.32,0.35 -0.14,-0.04 -0.34,-0.15 -0.41,-0.2 -0.05,-0.02 -0.09,-0.06 -0.09,-0.1 0,-0.06 0.05,-0.1 0.09,-0.1 0.04,0 0.06,0.03 0.06,0.05 0.05,0.24 0.21,0.24 0.26,0.25 0.26,0 0.26,-0.26 0.26,-0.39 -0.06,-0.04 -0.25,-0.11 -0.4,-0.16 -0.2,-0.06 -0.29,-0.16 -0.29,-0.29 0,-0.18 0.14,-0.34 0.34,-0.34 0.11,0 0.24,0.1 0.35,0.19 0.02,-0.06 0.03,-0.1 0.06,-0.14 0.03,-0.03 0.09,-0.06 0.09,-0.06 h -0.01 z m -0.15,0.28 c -0.06,-0.07 -0.19,-0.15 -0.29,-0.15 -0.1,0 -0.22,0.08 -0.22,0.23 0,0.11 0.08,0.16 0.21,0.21 0.06,0.02 0.25,0.1 0.31,0.13 v -0.42 0 z"
                   id="path12" />
                <path
                   class="cls-2"
                   d="m 24.16,83.4 v 0 l 0.18,0.09 -0.02,0.04 c 0,0 -0.1,-0.06 -0.2,-0.06 -0.1,0 -0.18,0.05 -0.18,0.29 v 0.76 h 0.33 c 0,0 0.03,0.04 0.03,0.06 0,0 0,0.02 0,0.04 h -0.35 v 0.36 h -0.04 l -0.1,-0.2 v -0.16 h -0.14 l -0.08,-0.06 v -0.04 h 0.22 v -0.84 c 0,-0.19 0.08,-0.31 0.24,-0.31 0.04,0 0.06,0 0.11,0.04 v 0 z"
                   id="path13" />
                <path
                   class="cls-2"
                   d="m 25.43,83.62 v 0 l -0.04,0.04 c -0.15,-0.14 -0.26,-0.16 -0.35,-0.16 -0.2,0 -0.46,0.16 -0.46,0.6 0.4,0 0.78,0.04 0.82,0.06 0.04,0.02 0.05,0.02 0.05,0.08 0,0.21 -0.18,0.41 -0.43,0.41 -0.24,0 -0.59,-0.26 -0.59,-0.69 0,-0.31 0.21,-0.58 0.56,-0.58 0.07,0 0.26,0.06 0.44,0.26 v 0 z M 24.6,84.2 v 0 c 0.04,0.24 0.2,0.36 0.34,0.36 0.21,0 0.34,-0.15 0.34,-0.31 0,-0.02 0,-0.05 -0.07,-0.05 -0.13,0 -0.54,0 -0.6,0 v 0 z"
                   id="path14" />
                <path
                   class="cls-2"
                   d="m 26.23,85.36 h -0.46 v -0.04 c 0.31,-0.02 0.31,-0.06 0.31,-0.27 v -1.8 c 0,-0.21 0,-0.24 -0.31,-0.27 v -0.04 h 0.46 v 2.41 0 z"
                   id="path15" />
              </g>
              <g
                 id="g21">
                <path
                   class="cls-2"
                   d="m 4.16,54.13 h 0.46 v 0.04 c -0.31,0.02 -0.31,0.06 -0.31,0.27 v 1.8 c 0,0.21 0,0.24 0.31,0.27 v 0.04 H 4.16 v -2.41 0 z"
                   id="path16" />
                <path
                   class="cls-2"
                   d="m 5.36,54.61 v 0 -0.04 h 0.79 v 0.04 c -0.3,0.01 -0.32,0.06 -0.32,0.29 v 1.43 h 0.26 c 0.25,0 0.36,-0.04 0.43,-0.37 h 0.05 c -0.01,0.19 -0.04,0.36 -0.02,0.5 H 6.5 C 6.46,56.4 6.44,56.39 6.36,56.39 H 5.19 c 0,0 -0.07,0 -0.09,0 -0.02,0 -0.04,0.02 -0.06,0.06 H 4.99 c 0,-0.16 -0.01,-0.34 -0.04,-0.51 H 5 c 0.09,0.31 0.13,0.37 0.51,0.37 h 0.18 v -1.43 c 0,-0.22 -0.02,-0.27 -0.31,-0.29 v 0 z"
                   id="path17" />
                <path
                   class="cls-2"
                   d="m 6.68,54.61 v 0 -0.04 h 0.58 v 0.04 c -0.2,0 -0.23,0.06 -0.23,0.26 v 0.65 c 0.09,0.1 0.21,0.16 0.35,0.17 0.28,0 0.36,-0.15 0.36,-0.42 v -0.4 c 0,-0.2 -0.02,-0.24 -0.22,-0.26 v -0.04 h 0.57 v 0.04 c -0.18,0 -0.21,0.06 -0.21,0.24 v 0.49 c 0,0.34 -0.16,0.48 -0.39,0.48 -0.17,0 -0.34,-0.1 -0.46,-0.22 v 0.99 C 6.95,56.56 6.81,56.52 6.67,56.49 v -0.04 c 0.2,-0.04 0.22,-0.05 0.22,-0.24 v -1.36 c 0,-0.18 -0.03,-0.22 -0.21,-0.24 z"
                   id="path18" />
                <path
                   class="cls-2"
                   d="m 8.56,55.04 v 0 0.38 c 0,0.21 0,0.32 0,0.38 C 8.5,55.79 8.28,55.75 8.21,55.74 V 55.71 L 8.3,55.69 c 0.06,-0.02 0.1,-0.03 0.1,-0.21 v -0.54 c 0,-0.32 0.18,-0.41 0.35,-0.41 0.08,0 0.14,0.01 0.22,0.06 0.1,0.06 0.17,0.11 0.25,0.17 v -0.22 h 0.01 c 0.11,0.02 0.24,0.07 0.36,0.09 v 0.04 H 9.5 C 9.39,54.68 9.35,54.7 9.35,54.85 V 55.8 C 9.28,55.78 9.08,55.75 8.96,55.74 V 55.7 l 0.11,-0.02 c 0.1,-0.02 0.15,-0.03 0.15,-0.21 V 54.83 C 9.1,54.71 8.96,54.65 8.84,54.65 c -0.16,0 -0.3,0.08 -0.3,0.36 v 0 c 0,0 0,0.02 0,0.02 z"
                   id="path19" />
                <path
                   class="cls-2"
                   d="m 9.99,54.53 c 0.08,0 0.13,0.06 0.13,0.13 0,0.07 -0.06,0.13 -0.13,0.13 -0.07,0 -0.13,-0.06 -0.13,-0.13 0,-0.07 0.05,-0.13 0.13,-0.13 z"
                   id="path20" />
                <path
                   class="cls-2"
                   d="m 11.03,56.53 h -0.46 v -0.04 c 0.31,-0.02 0.31,-0.06 0.31,-0.27 v -1.8 c 0,-0.21 0,-0.24 -0.31,-0.27 v -0.04 h 0.46 v 2.41 0 z"
                   id="path21" />
              </g>
              <g
                 id="g27">
                <path
                   class="cls-2"
                   d="M 2.51,5.51 H 2.97 V 5.55 C 2.66,5.57 2.66,5.61 2.66,5.82 v 1.8 c 0,0.21 0,0.24 0.31,0.27 V 7.93 H 2.51 v -2.41 0 z"
                   id="path22" />
                <path
                   class="cls-2"
                   d="m 3.36,7.77 v 0 -0.04 C 3.58,7.71 3.63,7.67 3.63,7.46 V 7.27 L 3.59,6.73 C 3.57,6.43 3.55,6.26 3.53,6.17 3.51,6.06 3.44,6.01 3.27,5.99 V 5.95 h 0.7 v 0.04 c -0.27,0.02 -0.3,0.1 -0.3,0.39 0,0.08 0,0.18 0,0.31 l 0.04,0.79 v 0 L 4.43,5.99 h 0.02 l 0.79,1.59 v 0 -1.22 C 5.25,6.06 5.25,6.02 4.99,6 V 5.96 H 5.7 V 6 C 5.43,6.02 5.41,6.06 5.41,6.36 L 5.39,7.4 c 0,0.29 0.01,0.32 0.29,0.35 V 7.79 H 5.26 L 4.49,6.25 3.73,7.79 H 3.35 3.36 Z"
                   id="path23" />
                <path
                   class="cls-2"
                   d="m 7.21,6.58 v 0 C 7.21,6.92 6.93,7.19 6.57,7.19 6.33,7.19 5.93,7 5.93,6.52 c 0,-0.31 0.26,-0.61 0.64,-0.61 0.28,0 0.64,0.22 0.64,0.66 v 0 z M 6.54,7.12 c 0.32,0 0.49,-0.31 0.49,-0.59 0,-0.39 -0.18,-0.55 -0.42,-0.55 -0.31,0 -0.5,0.26 -0.5,0.64 0,0.29 0.16,0.5 0.43,0.5 z"
                   id="path24" />
                <path
                   class="cls-2"
                   d="m 7.42,5.99 v 0 -0.04 H 8.01 V 5.99 C 7.81,6 7.78,6.05 7.78,6.23 v 0.66 c 0.09,0.09 0.24,0.18 0.38,0.18 0.27,0 0.31,-0.19 0.31,-0.35 V 6.24 C 8.47,6.05 8.43,6 8.23,6 V 5.96 H 8.79 V 6 C 8.63,6.01 8.6,6.04 8.6,6.24 V 6.82 C 8.6,7.05 8.46,7.2 8.22,7.2 8.13,7.2 8.06,7.17 7.98,7.11 7.89,7.05 7.82,7 7.76,6.96 V 7.2 C 7.67,7.13 7.55,7.11 7.44,7.08 V 7.04 C 7.6,7 7.62,7 7.62,6.8 V 6.21 C 7.62,6.03 7.57,6 7.41,5.98 v 0 z"
                   id="path25" />
                <path
                   class="cls-2"
                   d="m 9.22,5.91 c 0.08,0 0.13,0.06 0.13,0.13 0,0.07 -0.06,0.13 -0.13,0.13 -0.07,0 -0.13,-0.06 -0.13,-0.13 0,-0.07 0.05,-0.13 0.13,-0.13 z"
                   id="path26" />
                <path
                   class="cls-2"
                   d="M 10.26,7.91 H 9.8 V 7.87 C 10.11,7.85 10.11,7.81 10.11,7.6 V 5.8 c 0,-0.21 0,-0.24 -0.31,-0.27 V 5.49 h 0.46 v 2.41 0 z"
                   id="path27" />
              </g>
              <g
                 id="g34">
                <path
                   class="cls-2"
                   d="m 15.69,49.88 v 0 -0.04 h 0.77 v 0.04 c -0.29,0.02 -0.31,0.06 -0.31,0.26 v 1.48 c -0.1,-0.06 -0.25,-0.11 -0.44,-0.14 v -0.04 h 0.13 C 15.99,51.41 16,51.39 16,51.26 v -1.12 c 0,-0.19 -0.02,-0.22 -0.31,-0.26 z"
                   id="path28" />
                <path
                   class="cls-2"
                   d="m 17.05,49.88 v 0 -0.04 h 0.77 v 0.04 c -0.29,0.02 -0.31,0.06 -0.31,0.26 v 1.48 c -0.1,-0.06 -0.25,-0.11 -0.44,-0.14 v -0.04 h 0.13 c 0.15,-0.03 0.16,-0.05 0.16,-0.18 v -1.12 c 0,-0.19 -0.02,-0.22 -0.31,-0.26 z"
                   id="path29" />
                <path
                   class="cls-2"
                   d="m 18.43,51.03 c -0.08,0 -0.14,-0.06 -0.14,-0.13 0,-0.09 0.06,-0.13 0.14,-0.13 0.08,0 0.14,0.06 0.14,0.13 0,0.06 -0.06,0.13 -0.14,0.13 z m 0,-1.23 c 0.09,0 0.14,0.06 0.14,0.13 0,0.07 -0.06,0.13 -0.14,0.13 -0.08,0 -0.14,-0.06 -0.14,-0.13 0,-0.07 0.05,-0.13 0.14,-0.13 z"
                   id="path30" />
                <path
                   class="cls-2"
                   d="m 19.44,51.61 c -0.43,0 -0.6,-0.49 -0.6,-0.9 0,-0.41 0.18,-0.91 0.6,-0.91 0.42,0 0.59,0.5 0.59,0.91 0,0.41 -0.16,0.9 -0.59,0.9 z m 0,-0.07 c 0.32,0 0.41,-0.44 0.41,-0.84 0,-0.4 -0.07,-0.84 -0.41,-0.84 -0.34,0 -0.42,0.43 -0.42,0.84 0,0.41 0.09,0.84 0.42,0.84 z"
                   id="path31" />
                <path
                   class="cls-2"
                   d="m 20.8,51.61 c -0.43,0 -0.6,-0.49 -0.6,-0.9 0,-0.41 0.18,-0.91 0.6,-0.91 0.42,0 0.59,0.5 0.59,0.91 0,0.41 -0.16,0.9 -0.59,0.9 z m 0.01,-0.07 c 0.32,0 0.41,-0.44 0.41,-0.84 0,-0.4 -0.07,-0.84 -0.41,-0.84 -0.34,0 -0.42,0.43 -0.42,0.84 0,0.41 0.09,0.84 0.42,0.84 z"
                   id="path32" />
                <path
                   class="cls-2"
                   d="m 23.37,49.88 v 0 -0.04 h 0.71 v 0.04 c -0.21,0.03 -0.24,0.06 -0.34,0.28 -0.11,0.28 -0.26,0.64 -0.4,1.01 l -0.21,0.54 h -0.04 c 0,0 -0.67,-1.5 -0.67,-1.5 -0.11,-0.26 -0.16,-0.29 -0.37,-0.33 v -0.04 h 0.71 v 0.04 c -0.18,0.02 -0.26,0.04 -0.26,0.14 0,0.1 0.16,0.49 0.19,0.54 h 0.72 c 0.11,-0.27 0.21,-0.49 0.21,-0.57 0,-0.07 -0.06,-0.09 -0.24,-0.11 z m -0.29,1.55 0.3,-0.78 h -0.66 c 0.1,0.24 0.22,0.52 0.35,0.78 v 0 z"
                   id="path33" />
                <path
                   class="cls-2"
                   d="m 24.23,51.66 v 0 -0.04 c 0.24,-0.02 0.29,-0.06 0.29,-0.27 v -0.19 l -0.04,-0.54 c -0.02,-0.3 -0.05,-0.48 -0.07,-0.56 -0.02,-0.11 -0.09,-0.16 -0.29,-0.18 v -0.04 h 0.75 v 0.04 c -0.29,0.02 -0.32,0.1 -0.32,0.39 0,0.08 0,0.18 0.01,0.31 l 0.04,0.79 v 0 l 0.76,-1.49 h 0.03 l 0.84,1.6 h 0.01 v -1.23 c 0.01,-0.3 0.01,-0.34 -0.26,-0.36 v -0.04 h 0.76 v 0.04 c -0.29,0.02 -0.3,0.06 -0.31,0.36 l -0.02,1.04 c -0.01,0.29 0.01,0.32 0.3,0.35 v 0.04 h -0.45 l -0.83,-1.55 -0.83,1.55 h -0.4 0.03 z"
                   id="path34" />
              </g>
              <g
                 id="g40">
                <path
                   class="cls-2"
                   d="m 16.82,1.41 h 0.05 c 0.07,0.2 0.09,0.22 0.3,0.22 h 0.66 C 17.58,1.09 17.29,0.55 16.93,0.03 l 0.02,-0.02 0.19,0.02 c 0.27,0.57 0.54,1.15 0.84,1.71 L 17.96,1.78 H 16.85 C 16.84,1.66 16.83,1.54 16.81,1.42 v 0 z"
                   id="path35" />
                <path
                   class="cls-2"
                   d="m 18.39,1.23 c -0.08,0 -0.14,-0.06 -0.14,-0.13 0,-0.09 0.06,-0.13 0.14,-0.13 0.08,0 0.14,0.06 0.14,0.13 0,0.06 -0.06,0.13 -0.14,0.13 z m 0,-1.23 c 0.09,0 0.14,0.06 0.14,0.13 0,0.07 -0.06,0.13 -0.14,0.13 C 18.31,0.26 18.25,0.2 18.25,0.13 18.25,0.06 18.3,0 18.39,0 Z"
                   id="path36" />
                <path
                   class="cls-2"
                   d="M 19.4,1.81 C 18.97,1.81 18.8,1.32 18.8,0.91 18.8,0.5 18.98,0 19.4,0 c 0.42,0 0.59,0.5 0.59,0.91 0,0.41 -0.16,0.9 -0.59,0.9 z m 0,-0.07 c 0.32,0 0.41,-0.44 0.41,-0.84 0,-0.4 -0.07,-0.84 -0.41,-0.84 -0.34,0 -0.42,0.43 -0.42,0.84 0,0.41 0.09,0.84 0.42,0.84 z"
                   id="path37" />
                <path
                   class="cls-2"
                   d="m 20.76,1.81 c -0.43,0 -0.6,-0.49 -0.6,-0.9 0,-0.41 0.18,-0.91 0.6,-0.91 0.42,0 0.59,0.5 0.59,0.91 0,0.41 -0.16,0.9 -0.59,0.9 z m 0,-0.07 c 0.32,0 0.41,-0.44 0.41,-0.84 0,-0.4 -0.07,-0.84 -0.41,-0.84 -0.34,0 -0.42,0.43 -0.42,0.84 0,0.41 0.09,0.84 0.42,0.84 z"
                   id="path38" />
                <path
                   class="cls-2"
                   d="m 22.08,0.04 h 0.8 V 0.08 C 22.57,0.1 22.54,0.14 22.54,0.37 V 0.86 L 22.79,0.8 c 0.29,-0.03 0.73,0.15 0.73,0.57 0,0.49 -0.49,0.51 -0.68,0.51 H 22.1 V 1.84 C 22.37,1.83 22.37,1.78 22.37,1.55 V 0.36 c 0,-0.23 -0.02,-0.29 -0.29,-0.29 v -0.04 0 z m 0.47,0.87 v 0 0.81 c 0,0.06 0,0.07 0.03,0.07 h 0.16 c 0.38,0 0.58,-0.15 0.58,-0.46 0,-0.34 -0.23,-0.47 -0.5,-0.47 -0.15,0 -0.23,0.03 -0.26,0.04 v 0 z"
                   id="path39" />
                <path
                   class="cls-2"
                   d="m 23.76,1.86 v 0 -0.04 C 24,1.8 24.05,1.76 24.05,1.55 V 1.36 L 24.01,0.82 C 23.99,0.52 23.96,0.34 23.94,0.26 23.92,0.15 23.85,0.1 23.65,0.08 V 0.04 h 0.75 v 0.04 c -0.29,0.02 -0.32,0.1 -0.32,0.39 0,0.08 0,0.18 0.01,0.31 l 0.04,0.79 v 0 l 0.76,-1.49 h 0.03 l 0.84,1.6 h 0.01 V 0.45 C 25.78,0.15 25.78,0.11 25.51,0.09 V 0.05 h 0.76 v 0.04 c -0.29,0.02 -0.3,0.06 -0.31,0.36 l -0.02,1.04 c -0.01,0.29 0.01,0.32 0.3,0.35 V 1.88 H 25.79 L 24.96,0.33 24.13,1.88 h -0.4 0.03 z"
                   id="path40" />
              </g>
            </g>
          </g>
          <g
             id="_图层_1-2-2">
            <g
               id="g59">
              <path
                 class="cls-2"
                 d="m 49.02,78.13 h -0.9 v 0.43 h 1.74 c 0,0 0.06,0.01 0.06,0.04 0,0.03 -0.02,0.05 -0.11,0.11 -0.2,0.16 -0.23,0.17 -0.26,0.17 -0.02,0 -0.06,-0.02 -0.24,-0.22 h -1.19 v 0.3 c 0.11,0.04 0.13,0.07 0.13,0.1 0,0.06 -0.04,0.07 -0.46,0.12 0.02,-0.11 0.03,-0.2 0.03,-0.49 v -0.04 h -1.34 c -0.12,0 -0.22,0 -0.36,0.04 l 0.04,-0.16 c 0.11,0.01 0.21,0.02 0.31,0.02 h 1.34 V 78.12 H 47 c -0.14,0.07 -0.2,0.1 -0.35,0.16 0.03,-0.19 0.03,-0.37 0.03,-0.67 0,-0.59 -0.02,-0.76 -0.02,-0.86 0,-0.07 0.04,-0.1 0.13,-0.1 0.13,0 0.18,0.04 0.18,0.13 v 0.06 h 0.66 c -0.39,-0.53 -0.96,-0.94 -1.59,-1.21 -0.02,0 0,-0.07 0.02,-0.06 0.76,0.22 1.29,0.51 1.77,1.06 -0.02,-0.47 -0.04,-0.98 -0.04,-1.1 0,-0.08 0.04,-0.11 0.14,-0.11 0.13,0 0.2,0.04 0.2,0.13 0,0.13 -0.02,0.76 -0.04,1.25 0.22,-0.34 0.46,-0.58 0.69,-0.75 0.21,-0.16 0.46,-0.29 0.69,-0.39 0.09,-0.04 0.17,-0.06 0.21,-0.06 0.03,0 0.06,0.02 0.09,0.1 0.04,0.1 0.1,0.16 0.21,0.19 0.02,0 0.02,0.04 0,0.04 -0.31,0.02 -0.64,0.11 -0.96,0.26 -0.34,0.16 -0.63,0.36 -0.86,0.66 h 0.87 v -0.07 c 0,-0.09 0.03,-0.11 0.13,-0.11 0.13,0 0.19,0.04 0.19,0.13 0,0.08 -0.02,0.32 -0.02,0.84 v 0.3 c 0.09,0.06 0.1,0.07 0.1,0.1 0,0.02 0,0.06 -0.07,0.1 -0.12,0.1 -0.15,0.11 -0.19,0.11 -0.04,0 -0.05,-0.02 -0.17,-0.13 h 0.01 z m -1.2,-0.11 v -0.47 h -0.86 v 0.47 z m 0,-0.58 v -0.5 h -0.86 v 0.5 z m 0.3,0.58 h 0.93 v -0.47 h -0.93 z m 0,-0.57 h 0.93 v -0.5 h -0.93 z"
                 id="path41" />
              <path
                 class="cls-2"
                 d="m 46.14,71.74 v 0 c 0,0 0.01,-0.07 0.04,-0.06 0.51,0.22 0.79,0.45 1.09,0.81 0.14,0 0.18,0.02 0.18,0.06 0,0.04 -0.1,0.1 -0.39,0.23 -0.04,-0.09 -0.07,-0.17 -0.13,-0.26 -0.18,-0.26 -0.47,-0.57 -0.79,-0.79 v 0 z m 3.15,2.86 h -1.14 v 0.36 c 0.11,0.05 0.14,0.08 0.14,0.1 0,0.05 -0.06,0.09 -0.48,0.13 0.02,-0.15 0.02,-0.21 0.02,-0.29 v -0.31 h -1.34 c -0.11,0 -0.21,0 -0.34,0.03 l 0.04,-0.16 c 0.11,0.01 0.19,0.02 0.3,0.02 h 3.36 c 0,0 0.06,0.01 0.06,0.04 0,0.03 -0.02,0.05 -0.11,0.12 -0.2,0.16 -0.23,0.18 -0.26,0.18 -0.02,0 -0.06,-0.02 -0.26,-0.24 v 0 z m -1.13,-2.02 v 0 0.53 h 0.74 v -0.09 c 0,-0.09 0.03,-0.13 0.13,-0.13 0.11,0 0.18,0.04 0.18,0.13 0,0.06 -0.01,0.24 -0.01,0.64 v 0.19 c 0.1,0.06 0.11,0.08 0.11,0.11 0,0.02 -0.02,0.05 -0.09,0.1 -0.14,0.11 -0.16,0.13 -0.19,0.13 -0.02,0 -0.04,-0.01 -0.18,-0.15 h -1.74 c -0.14,0.09 -0.21,0.11 -0.36,0.16 0.02,-0.16 0.02,-0.28 0.02,-0.5 0,-0.47 -0.02,-0.59 -0.02,-0.68 0,-0.09 0.04,-0.11 0.14,-0.11 0.13,0 0.18,0.04 0.18,0.15 v 0.04 h 0.75 v -1.21 c 0,0 -0.02,-0.06 -0.06,-0.06 -0.14,0 -0.31,0 -0.56,0.04 -0.02,0 -0.02,-0.05 0,-0.06 0.33,-0.07 0.44,-0.13 0.46,-0.26 0,-0.08 0.02,-0.09 0.08,-0.09 0.07,0 0.17,0.03 0.24,0.06 0.11,0.06 0.16,0.12 0.16,0.28 0,0.1 0,0.25 0,0.76 h 0.03 z m 0.75,0.63 h -1.8 v 0.74 h 1.8 z m 0.29,-1.19 v 0 c 0.13,-0.26 0.16,-0.29 0.25,-0.29 0.09,0 0.16,0.08 0.16,0.19 0,0.26 -0.37,0.59 -0.96,0.84 -0.02,0 -0.06,-0.04 -0.04,-0.06 0.28,-0.22 0.46,-0.44 0.59,-0.69 v 0 z"
                 id="path42" />
              <path
                 class="cls-2"
                 d="m 48.12,69.98 h 1.72 c 0,0 0.06,0.01 0.06,0.04 0,0.03 -0.02,0.06 -0.11,0.13 -0.21,0.16 -0.25,0.19 -0.28,0.19 -0.02,0 -0.06,-0.02 -0.26,-0.26 h -1.19 c 0.01,0.13 0.02,0.26 0.03,0.4 0.01,0.14 0.01,0.29 0.01,0.45 0.11,0.05 0.14,0.07 0.14,0.11 0,0.06 -0.07,0.09 -0.49,0.14 0.01,-0.12 0.02,-0.19 0.02,-0.29 0,-0.3 -0.01,-0.57 -0.04,-0.81 h -1.19 c -0.13,0 -0.24,0 -0.39,0.03 l 0.04,-0.16 c 0.14,0.01 0.22,0.02 0.35,0.02 h 1.19 c -0.06,-0.46 -0.16,-0.8 -0.31,-1.09 -0.28,-0.51 -0.68,-0.92 -1.32,-1.25 -0.02,0 0,-0.07 0.03,-0.06 0.64,0.21 1.06,0.51 1.39,0.93 0.28,0.35 0.44,0.76 0.54,1.39 0.11,-0.62 0.31,-1.1 0.59,-1.46 0.19,-0.25 0.49,-0.54 0.79,-0.72 0.11,-0.07 0.18,-0.11 0.22,-0.11 0.02,0 0.05,0.02 0.06,0.06 0.06,0.13 0.1,0.19 0.22,0.22 0.02,0 0.03,0.04 0,0.04 -0.38,0.14 -0.76,0.34 -1.06,0.64 -0.38,0.36 -0.62,0.79 -0.76,1.39 h -0.01 z"
                 id="path43" />
              <path
                 class="cls-2"
                 d="m 48.61,65.92 h -1.4 c -0.12,0 -0.19,0.01 -0.32,0.04 l 0.04,-0.16 c 0.1,0.02 0.18,0.03 0.29,0.03 h 1.39 c -0.14,-0.17 -0.27,-0.3 -0.48,-0.47 -0.07,0.01 -0.16,0.03 -0.31,0.05 0.01,-0.12 0.01,-0.16 0.01,-0.37 h -1.37 c -0.11,0 -0.19,0 -0.31,0.03 l 0.04,-0.16 c 0.11,0.02 0.19,0.02 0.28,0.02 h 1.36 v -0.9 c 0,0 -0.02,-0.07 -0.07,-0.07 -0.12,0 -0.3,0.01 -0.58,0.04 -0.02,0 -0.03,-0.05 0,-0.06 0.37,-0.08 0.46,-0.14 0.48,-0.26 0.01,-0.07 0.02,-0.09 0.09,-0.09 0.13,0 0.23,0.04 0.3,0.1 0.07,0.06 0.11,0.13 0.11,0.26 0,0.13 0,0.23 -0.01,0.64 v 0.33 h 1.71 c 0,0 0.06,0.01 0.06,0.04 0,0.03 -0.02,0.05 -0.11,0.13 -0.21,0.16 -0.24,0.18 -0.26,0.18 -0.02,0 -0.06,-0.02 -0.25,-0.25 h -1.14 v 0.15 c 0.11,0.04 0.13,0.07 0.13,0.1 0,0.02 0,0.04 -0.02,0.04 0.24,0.12 0.41,0.23 0.66,0.42 0.14,0.01 0.19,0.03 0.19,0.07 0,0.02 -0.02,0.05 -0.08,0.11 -0.16,0.13 -0.18,0.15 -0.21,0.15 -0.02,0 -0.05,-0.01 -0.19,-0.14 h -0.01 z m -1.93,0.42 h 2.74 c -0.04,-0.16 -0.09,-0.27 -0.16,-0.4 0,-0.01 0.02,-0.04 0.04,-0.03 0.14,0.09 0.26,0.18 0.34,0.27 0.03,0.03 0.04,0.04 0.09,0.04 0.13,0 0.16,0.02 0.16,0.09 0,0.02 -0.02,0.06 -0.1,0.13 -0.17,0.16 -0.19,0.18 -0.22,0.18 -0.03,0 -0.06,-0.02 -0.19,-0.16 h -0.69 c 0.19,0.15 0.38,0.33 0.54,0.51 0.14,0 0.18,0.02 0.18,0.07 0,0.04 -0.07,0.1 -0.41,0.24 -0.03,-0.1 -0.07,-0.21 -0.13,-0.34 -0.09,-0.16 -0.19,-0.33 -0.29,-0.48 h -1.91 c 0,0.06 -0.01,0.11 -0.02,0.18 0,0.02 -0.04,0.02 -0.04,0 -0.03,-0.26 -0.1,-0.39 -0.3,-0.49 -0.1,-0.06 -0.13,-0.1 -0.13,-0.17 0,-0.09 0.07,-0.16 0.17,-0.16 0.19,0 0.34,0.21 0.34,0.55 h -0.01 z m 0.37,0.38 v 0 c 0.04,-0.16 0.07,-0.19 0.16,-0.19 0.1,0 0.17,0.09 0.17,0.18 0,0.19 -0.19,0.38 -0.54,0.49 -0.02,0 -0.04,-0.02 -0.02,-0.04 0.1,-0.11 0.18,-0.27 0.22,-0.44 v 0 z m 0.88,0.05 v 0 c 0.03,-0.16 0.06,-0.19 0.15,-0.19 0.1,0 0.18,0.08 0.18,0.19 0,0.19 -0.19,0.39 -0.54,0.51 -0.02,0 -0.04,-0.02 -0.03,-0.04 0.11,-0.13 0.2,-0.3 0.24,-0.47 z"
                 id="path44" />
              <path
                 class="cls-2"
                 d="m 47.9,61.39 v 0 h -0.48 v 0.49 h 1.04 c 0,0 0.06,0.01 0.06,0.04 0,0.03 -0.02,0.06 -0.1,0.11 -0.19,0.15 -0.21,0.17 -0.24,0.17 -0.02,0 -0.06,-0.02 -0.22,-0.22 h -0.54 v 0.55 h 0.86 c 0,0 0.06,0 0.06,0.04 0,0.04 -0.02,0.06 -0.1,0.11 -0.16,0.14 -0.19,0.16 -0.22,0.16 -0.03,0 -0.06,-0.02 -0.21,-0.21 h -0.38 v 0.49 c 0.11,0.04 0.14,0.07 0.14,0.1 0,0.06 -0.06,0.08 -0.45,0.12 0.01,-0.12 0.02,-0.27 0.02,-0.71 H 46.7 c 0.06,0.09 0.1,0.19 0.14,0.29 0.11,0.03 0.15,0.05 0.15,0.09 0,0.04 -0.04,0.06 -0.4,0.15 -0.01,-0.11 -0.04,-0.26 -0.09,-0.39 -0.07,-0.23 -0.19,-0.47 -0.33,-0.65 -0.01,-0.02 0.02,-0.06 0.04,-0.04 0.18,0.14 0.31,0.28 0.42,0.44 h 0.5 v -0.55 h -0.74 c -0.11,0 -0.19,0 -0.3,0.03 l 0.04,-0.15 c 0.1,0.01 0.17,0.02 0.26,0.02 h 0.74 v -0.49 h -0.47 c -0.13,0.08 -0.19,0.11 -0.33,0.16 0.01,-0.15 0.01,-0.29 0.01,-0.59 0,-0.52 -0.01,-0.69 -0.01,-0.81 0,-0.07 0.03,-0.1 0.12,-0.1 0.12,0 0.18,0.04 0.18,0.13 v 1.11 h 0.51 c 0,-0.98 -0.02,-1.39 -0.02,-1.54 0,-0.09 0.04,-0.13 0.14,-0.13 0.12,0 0.18,0.05 0.18,0.14 0,0.16 0,0.59 0,1.52 h 0.51 v -0.86 c 0,0 -0.02,-0.06 -0.06,-0.06 -0.06,0 -0.15,0 -0.31,0.02 -0.02,0 -0.02,-0.04 0,-0.05 0.23,-0.06 0.26,-0.09 0.28,-0.21 0,-0.04 0.02,-0.06 0.07,-0.06 0.08,0 0.17,0.04 0.22,0.09 0.06,0.04 0.09,0.1 0.09,0.21 0,0.09 0,0.19 0,0.63 v 0.21 c 0.09,0.06 0.11,0.09 0.11,0.11 0,0.02 -0.02,0.05 -0.07,0.1 -0.13,0.1 -0.15,0.11 -0.18,0.11 -0.02,0 -0.04,0 -0.17,-0.13 h -0.02 z m 1.05,0.84 v 0 0.56 c 0.11,0.04 0.13,0.07 0.13,0.1 0,0.06 -0.06,0.08 -0.44,0.11 0.02,-0.22 0.02,-0.4 0.02,-1.09 0,-0.83 -0.02,-1.14 -0.02,-1.23 0,-0.09 0.04,-0.11 0.13,-0.11 0.13,0 0.19,0.04 0.19,0.13 0,0.13 -0.02,0.58 -0.02,1.51 h 0.02 z m 0.76,-0.58 v 1.41 c 0.1,0.04 0.13,0.07 0.13,0.11 0,0.06 -0.04,0.07 -0.45,0.11 0.02,-0.15 0.03,-0.22 0.03,-0.69 v -2.51 c 0,0 -0.02,-0.07 -0.07,-0.07 -0.13,0 -0.33,0.01 -0.56,0.04 -0.02,0 -0.03,-0.05 0,-0.06 0.36,-0.07 0.45,-0.13 0.47,-0.25 0.02,-0.07 0.04,-0.09 0.1,-0.09 0.08,0 0.18,0.03 0.24,0.07 0.1,0.06 0.14,0.12 0.14,0.29 0,0.17 -0.02,0.48 -0.02,1.63 v 0 z"
                 id="path45" />
              <path
                 class="cls-2"
                 d="m 46.93,55.82 v 0 2.12 c 0.1,0.04 0.12,0.07 0.12,0.1 0,0.04 -0.04,0.06 -0.24,0.09 0.21,0.29 0.37,0.61 0.51,0.99 0.11,0.02 0.16,0.04 0.16,0.09 0,0.05 -0.15,0.11 -0.46,0.2 -0.01,-0.13 -0.04,-0.26 -0.09,-0.39 -0.16,-0.53 -0.51,-1.15 -0.89,-1.57 -0.02,-0.02 0.02,-0.06 0.05,-0.04 0.21,0.16 0.39,0.34 0.54,0.51 v -0.79 c 0,-0.95 -0.02,-1.24 -0.02,-1.32 0,-0.08 0.06,-0.11 0.14,-0.11 0.11,0 0.18,0.05 0.18,0.14 v 0 z m 2.36,2.84 h -1.23 c 0.07,0.15 0.14,0.3 0.2,0.47 0.12,0.01 0.18,0.04 0.18,0.09 0,0.05 -0.13,0.1 -0.47,0.19 -0.01,-0.1 -0.04,-0.2 -0.06,-0.3 -0.14,-0.54 -0.44,-1.13 -0.77,-1.54 -0.02,-0.02 0.03,-0.06 0.06,-0.04 0.36,0.3 0.61,0.63 0.83,1.03 h 0.18 v -1.74 c 0,-0.66 -0.02,-0.92 -0.02,-1 0,-0.09 0.04,-0.13 0.14,-0.13 0.14,0 0.2,0.04 0.2,0.15 0,0.14 0,0.54 -0.01,1.07 h 1.2 c 0,0 0.06,0.01 0.06,0.04 0,0.03 -0.02,0.06 -0.09,0.11 -0.17,0.14 -0.2,0.16 -0.23,0.16 -0.02,0 -0.06,-0.02 -0.22,-0.21 h -0.71 v 0.75 h 1.19 c 0,0 0.06,0.01 0.06,0.04 0,0.03 -0.02,0.06 -0.1,0.11 -0.16,0.13 -0.2,0.15 -0.22,0.15 -0.02,0 -0.06,-0.02 -0.22,-0.21 h -0.7 v 0.69 h 1.32 c 0,0 0.06,0.01 0.06,0.04 0,0.02 -0.02,0.05 -0.1,0.12 -0.19,0.15 -0.21,0.16 -0.24,0.16 -0.02,0 -0.06,-0.02 -0.24,-0.23 h -0.02 z"
                 id="path46" />
              <path
                 class="cls-2"
                 d="m 48.16,53.11 h 1.64 c 0,0 0.06,0.01 0.06,0.04 0,0.03 -0.02,0.06 -0.1,0.11 -0.19,0.16 -0.21,0.18 -0.24,0.18 -0.02,0 -0.06,-0.02 -0.24,-0.22 h -0.54 v 0.61 h 0.83 c 0,0 0.06,0.01 0.06,0.04 0,0.03 -0.02,0.06 -0.09,0.11 -0.17,0.14 -0.19,0.16 -0.22,0.16 -0.02,0 -0.06,-0.02 -0.22,-0.21 h -0.36 v 0.21 c 0.11,0.04 0.13,0.08 0.13,0.1 0,0.04 -0.04,0.07 -0.44,0.11 0.02,-0.14 0.02,-0.24 0.02,-0.38 v -0.06 h -0.67 v 0.22 c 0.1,0.04 0.13,0.08 0.13,0.1 0,0.04 -0.04,0.07 -0.44,0.11 0.01,-0.14 0.02,-0.25 0.02,-0.38 V 53.9 h -0.31 c -0.11,0 -0.19,0 -0.31,0.02 l 0.04,-0.16 c 0.11,0.02 0.18,0.03 0.27,0.03 h 0.31 V 53.18 H 46.7 c 0.06,0.42 0.09,0.85 0.09,1.27 h 2.46 v -0.02 c 0,-0.1 0.02,-0.13 0.12,-0.13 0.11,0 0.19,0.04 0.19,0.11 0,0.08 0,0.17 0,0.46 V 55 c 0.1,0.06 0.11,0.09 0.11,0.12 0,0.02 -0.02,0.04 -0.09,0.1 -0.13,0.11 -0.16,0.13 -0.19,0.13 -0.02,0 -0.04,-0.01 -0.18,-0.16 h -2.39 c -0.1,0.06 -0.21,0.1 -0.39,0.18 0.02,-0.21 0.02,-0.34 0.02,-0.83 0,-0.69 -0.02,-1.14 -0.07,-1.53 -0.07,-0.49 -0.18,-0.84 -0.36,-1.24 -0.01,-0.02 0.04,-0.06 0.06,-0.03 0.3,0.38 0.45,0.72 0.55,1.16 0.01,0.06 0.02,0.11 0.04,0.18 h 0.58 v -0.96 c -0.11,0 -0.23,-0.01 -0.35,-0.02 h -0.19 c 0.1,-0.41 0.1,-0.42 0.15,-0.42 0.04,0 0.07,0.04 0.1,0.13 0.64,0.13 0.96,0.23 1.47,0.44 0.02,0 0,0.06 -0.02,0.06 -0.29,-0.06 -0.58,-0.11 -0.87,-0.15 v 0.94 h 0.49 c 0.19,-0.42 0.4,-0.7 0.64,-0.9 0.21,-0.18 0.48,-0.34 0.76,-0.42 0.1,-0.03 0.16,-0.04 0.2,-0.04 0.04,0 0.06,0.02 0.08,0.09 0.04,0.13 0.08,0.16 0.19,0.19 0.02,0 0.02,0.04 0,0.04 -0.4,0.04 -0.78,0.14 -1.07,0.31 -0.07,0.04 -0.14,0.09 -0.2,0.13 0.21,0.07 0.36,0.14 0.56,0.26 0.14,-0.02 0.19,0 0.19,0.04 0,0.04 -0.1,0.11 -0.33,0.25 -0.02,-0.06 -0.06,-0.11 -0.13,-0.18 -0.09,-0.1 -0.21,-0.21 -0.36,-0.31 -0.18,0.15 -0.31,0.34 -0.42,0.54 v 0 0.03 h 0.04 z m 1.12,1.47 h -2.46 v 0.54 h 2.46 z M 48.47,53.82 V 53.21 H 47.8 v 0.61 z"
                 id="path47" />
              <path
                 class="cls-2"
                 d="M 48.09,48.55 H 47.4 c 0.13,0.2 0.26,0.38 0.69,0.79 0.39,0.38 0.74,0.57 0.74,1.08 0,0.39 -0.3,0.71 -0.81,0.71 -0.51,0 -0.84,-0.42 -0.84,-0.68 0,-0.11 0.07,-0.15 0.16,-0.15 0.14,0 0.29,0.07 0.29,0.18 0,0.13 0.01,0.23 0.04,0.29 0.06,0.12 0.16,0.22 0.36,0.22 0.26,0 0.4,-0.24 0.4,-0.56 0,-0.37 -0.19,-0.59 -0.54,-1.01 C 47.54,49 47.4,48.78 47.15,48.4 c -0.02,-0.04 -0.03,-0.04 -0.03,-0.1 0,-0.06 0,-0.07 0.05,-0.07 0.27,0.01 0.51,0.01 0.78,0.01 0.27,0 0.5,0 0.77,-0.01 0.07,0.21 0.16,0.5 0.21,0.71 0,0.02 0,0.04 -0.04,0.05 -0.04,0.01 -0.06,0 -0.06,-0.02 -0.06,-0.13 -0.12,-0.23 -0.22,-0.31 -0.08,-0.06 -0.16,-0.09 -0.5,-0.09 H 48.1 Z"
                 id="path48" />
              <path
                 class="cls-2"
                 d="m 48.03,47.18 c -0.54,0 -0.86,-0.59 -0.86,-1.51 0,-0.92 0.33,-1.47 0.86,-1.47 0.53,0 0.86,0.58 0.86,1.49 0,0.91 -0.32,1.48 -0.86,1.48 v 0 z m 0,-0.13 c 0.36,0 0.44,-0.54 0.44,-1.36 0,-0.82 -0.09,-1.36 -0.44,-1.36 -0.35,0 -0.46,0.53 -0.46,1.36 0,0.83 0.1,1.36 0.46,1.36 z"
                 id="path49" />
              <path
                 class="cls-2"
                 d="M 48.09,40.65 H 47.4 c 0.13,0.2 0.26,0.38 0.69,0.79 0.39,0.38 0.74,0.57 0.74,1.08 0,0.39 -0.3,0.71 -0.81,0.71 -0.51,0 -0.84,-0.42 -0.84,-0.68 0,-0.11 0.07,-0.15 0.16,-0.15 0.14,0 0.29,0.07 0.29,0.18 0,0.13 0.01,0.23 0.04,0.29 0.06,0.12 0.16,0.22 0.36,0.22 0.26,0 0.4,-0.24 0.4,-0.56 0,-0.37 -0.19,-0.59 -0.54,-1.01 -0.35,-0.42 -0.49,-0.64 -0.74,-1.02 -0.02,-0.04 -0.03,-0.04 -0.03,-0.1 0,-0.06 0,-0.07 0.05,-0.07 0.27,0.01 0.51,0.01 0.78,0.01 0.27,0 0.5,0 0.77,-0.01 0.07,0.21 0.16,0.5 0.21,0.71 0,0.02 0,0.04 -0.04,0.05 -0.04,0.01 -0.06,0 -0.06,-0.02 -0.06,-0.13 -0.12,-0.23 -0.22,-0.31 -0.08,-0.06 -0.16,-0.09 -0.5,-0.09 H 48.1 Z"
                 id="path50" />
              <path
                 class="cls-2"
                 d="m 48.53,36.97 v 0 0.18 c 0.12,0 0.26,0 0.39,0 0.02,0 0.04,0 0.04,0.02 L 49,37.3 c 0,0 0,0.03 -0.02,0.03 -0.15,0 -0.29,-0.02 -0.43,-0.02 v 0.94 c 0.02,0.37 0.02,0.7 0.03,1.02 0,0.04 -0.01,0.04 -0.03,0.04 l -0.28,-0.07 c -0.41,-0.65 -0.73,-1.15 -1.13,-1.81 -0.03,-0.05 -0.04,-0.1 -0.04,-0.16 0,-0.09 0,-0.1 0.05,-0.1 h 1.04 v -0.18 c 0,-0.21 0,-0.32 -0.06,-0.41 -0.03,-0.06 -0.17,-0.07 -0.28,-0.09 -0.03,0 -0.04,0 -0.04,-0.06 0,-0.06 0,-0.06 0.04,-0.06 0.15,0 0.36,0.02 0.51,0.02 0.15,0 0.35,0 0.5,-0.02 0.02,0 0.04,0 0.04,0.06 0,0.06 -0.01,0.06 -0.04,0.06 -0.14,0.01 -0.27,0.02 -0.31,0.1 -0.04,0.1 -0.04,0.14 -0.04,0.4 h 0.01 z m -0.35,1.19 v 0 -0.86 h -0.89 c -0.06,0 -0.06,0.02 -0.04,0.06 0.29,0.51 0.62,1.04 0.94,1.54 -0.01,-0.27 -0.02,-0.44 -0.02,-0.74 v 0 z"
                 id="path51" />
              <path
                 class="cls-2"
                 d="M 43.57,62.12 H 43.24 L 43.2,62.01 c -0.04,0.12 -0.15,0.16 -0.26,0.16 -0.56,0 -1.06,-0.71 -1.06,-1.24 0,-0.31 0.15,-0.44 0.44,-0.44 0.18,0 0.34,0.09 0.49,0.31 -0.06,-0.26 0.14,-0.31 0.36,-0.31 0.69,0 1.06,0.63 1.06,1.07 0,0.76 -0.58,1.27 -1.44,1.27 -0.86,0 -1.69,-0.64 -1.69,-1.62 0,-0.86 0.59,-1.41 1.52,-1.41 0.5,0 0.79,0.14 1.11,0.37 0.02,0 0.02,0.03 0,0.06 -0.03,0.03 -0.06,0.02 -0.08,0.01 -0.28,-0.19 -0.61,-0.3 -1.01,-0.3 -0.68,0 -1.27,0.42 -1.27,1.28 0,0.86 0.61,1.49 1.41,1.49 0.8,0 1.19,-0.53 1.19,-1.15 0,-0.56 -0.38,-0.95 -0.74,-0.95 -0.11,0 -0.16,0.04 -0.16,0.12 0,0.08 0.04,0.2 0.1,0.35 0.07,0.26 0.29,0.83 0.37,1.06 h 0.01 z m -1.33,-1.27 v 0 c 0,0.41 0.31,1.21 0.74,1.21 0.09,0 0.13,-0.05 0.13,-0.18 0,-0.11 -0.04,-0.27 -0.12,-0.52 -0.22,-0.67 -0.48,-0.76 -0.59,-0.76 -0.11,0 -0.16,0.09 -0.16,0.26 v 0 z"
                 id="path52" />
              <path
                 class="cls-2"
                 d="m 42.48,56.48 h -0.56 c -0.11,0 -0.19,0 -0.32,0.03 l 0.04,-0.16 c 0.12,0.01 0.2,0.02 0.3,0.02 h 0.54 c 0,-0.49 -0.02,-0.75 -0.02,-0.81 0,-0.09 0.04,-0.11 0.14,-0.11 0.13,0 0.21,0.04 0.21,0.14 0,0.1 0,0.33 -0.01,0.79 h 0.83 c 0,0 0.06,0 0.06,0.04 0,0.04 -0.02,0.06 -0.1,0.11 -0.18,0.14 -0.2,0.16 -0.23,0.16 -0.03,0 -0.06,-0.02 -0.21,-0.21 H 42.8 c 0,0.54 -0.02,1.09 -0.03,1.62 0.19,-0.48 0.38,-0.79 0.59,-1.06 0.23,-0.29 0.54,-0.56 0.84,-0.75 0.09,-0.06 0.15,-0.08 0.18,-0.08 0.03,0 0.04,0.02 0.06,0.06 0.06,0.15 0.11,0.2 0.23,0.22 0.02,0 0.02,0.04 0,0.04 -0.39,0.13 -0.82,0.36 -1.14,0.66 -0.26,0.24 -0.5,0.55 -0.7,0.98 h 1.63 c 0,0 0.06,0.01 0.06,0.04 0,0.03 -0.02,0.05 -0.11,0.12 -0.2,0.16 -0.24,0.18 -0.26,0.18 -0.02,0 -0.06,-0.02 -0.24,-0.24 h -1.12 v 0.67 c 0.11,0.06 0.14,0.09 0.14,0.11 0,0.06 -0.08,0.09 -0.47,0.11 0.02,-0.15 0.02,-0.29 0.02,-0.75 v -0.15 h -1.24 c -0.13,0 -0.21,0 -0.36,0.03 l 0.04,-0.16 c 0.13,0.01 0.21,0.02 0.33,0.02 h 1.07 c -0.3,-0.74 -0.91,-1.5 -1.59,-1.96 -0.02,-0.02 0.02,-0.06 0.04,-0.06 0.71,0.34 1.32,0.95 1.74,1.68 0,-0.46 -0.01,-0.91 -0.02,-1.36 v 0 0.02 h 0.01 z"
                 id="path53" />
              <path
                 class="cls-2"
                 d="m 41.61,53.1 v 0 c -0.16,-0.02 -0.34,-0.06 -0.5,-0.07 0.3,0.31 0.51,0.63 0.74,1.03 0.12,0 0.15,0.03 0.15,0.06 0,0.03 -0.1,0.11 -0.38,0.22 -0.02,-0.09 -0.07,-0.22 -0.13,-0.36 -0.13,-0.31 -0.34,-0.67 -0.53,-0.96 -0.04,0 -0.08,0 -0.11,0 H 40.7 c 0.07,-0.3 0.11,-0.39 0.16,-0.39 0.04,0 0.06,0.03 0.08,0.13 0.27,0.09 0.47,0.15 0.64,0.24 -0.15,-0.54 -0.44,-0.99 -0.88,-1.37 -0.02,-0.02 0.01,-0.07 0.04,-0.06 0.69,0.41 1.01,0.89 1.2,1.64 0.1,0.02 0.11,0.04 0.11,0.09 0,0.05 -0.02,0.06 -0.39,0.17 0,-0.11 -0.02,-0.24 -0.06,-0.36 h 0.01 z m -0.3,0.82 v 0 c 0,0.1 -0.06,0.21 -0.16,0.3 0.2,0.21 0.35,0.43 0.5,0.7 0.12,0 0.16,0.03 0.16,0.07 0,0.04 -0.1,0.1 -0.41,0.19 0,-0.07 -0.03,-0.18 -0.07,-0.31 -0.06,-0.17 -0.14,-0.37 -0.26,-0.59 -0.08,0.06 -0.18,0.11 -0.3,0.16 -0.02,0 -0.04,-0.02 -0.02,-0.04 0.14,-0.14 0.23,-0.29 0.28,-0.49 0.04,-0.16 0.06,-0.19 0.14,-0.19 0.08,0 0.15,0.08 0.15,0.18 h -0.01 z m 1.04,-1.69 v 0 1.09 h 0.54 v -0.07 c 0,-0.09 0.03,-0.11 0.11,-0.11 0.12,0 0.17,0.04 0.17,0.13 0,0.09 -0.02,0.38 -0.02,1.05 v 0.44 c 0.09,0.06 0.1,0.07 0.1,0.1 0,0.03 -0.01,0.06 -0.07,0.1 -0.11,0.09 -0.13,0.1 -0.16,0.1 -0.03,0 -0.05,-0.01 -0.16,-0.12 h -0.5 c -0.12,0.07 -0.18,0.1 -0.33,0.16 0.02,-0.36 0.02,-0.76 0.02,-1.29 v -1.63 c 0,0 -0.08,0 -0.11,-0.02 -0.08,0 -0.15,-0.01 -0.24,-0.02 0.11,-0.38 0.13,-0.4 0.16,-0.4 0.04,0 0.06,0.04 0.09,0.14 0.36,0.13 0.66,0.27 0.95,0.44 0,-0.02 0,-0.04 0.01,-0.07 0.04,-0.21 0.07,-0.26 0.16,-0.26 0.09,0 0.15,0.08 0.15,0.19 0,0.26 -0.22,0.57 -0.54,0.79 -0.02,0.01 -0.06,-0.01 -0.04,-0.04 0.1,-0.15 0.19,-0.32 0.24,-0.54 -0.18,-0.06 -0.36,-0.11 -0.56,-0.16 h 0.02 z m 0.54,1.96 h -0.54 v 0.64 h 0.54 z m -0.54,-0.1 h 0.54 v -0.67 h -0.54 z m 1.36,-1.56 v 0 2.31 H 44.2 C 44.11,54.38 44.02,54 43.89,53.69 c 0.27,-0.3 0.38,-0.63 0.38,-0.96 0,-0.15 -0.01,-0.23 -0.06,-0.26 -0.02,-0.02 -0.06,-0.04 -0.1,-0.04 -0.09,0 -0.18,0 -0.33,0.02 -0.02,0 -0.02,-0.05 0,-0.06 0.23,-0.06 0.27,-0.11 0.29,-0.23 0,-0.06 0.03,-0.07 0.06,-0.07 0.11,0 0.21,0.06 0.28,0.13 0.09,0.09 0.13,0.24 0.13,0.44 0,0.39 -0.16,0.72 -0.56,1.04 0.19,0.3 0.39,0.67 0.51,1.04 0.09,0.02 0.11,0.04 0.11,0.08 0,0.03 -0.02,0.06 -0.08,0.13 -0.11,0.11 -0.15,0.14 -0.19,0.14 -0.02,0 -0.04,-0.02 -0.16,-0.15 h -0.44 c -0.13,0.07 -0.19,0.1 -0.33,0.16 0.02,-0.15 0.02,-0.72 0.02,-1.65 0,-0.93 -0.01,-1.61 -0.01,-1.85 0,-0.07 0.04,-0.11 0.12,-0.11 0.11,0 0.18,0.04 0.18,0.13 0,0.09 0,0.31 0,0.91 z"
                 id="path54" />
              <path
                 class="cls-2"
                 d="m 43.49,49.65 v 0 c -0.21,-0.04 -0.39,-0.09 -0.66,-0.14 -0.04,0.21 -0.07,0.39 -0.11,0.59 0.29,0.06 0.51,0.11 0.73,0.16 0.1,0.02 0.17,0.04 0.24,0.04 0.05,0 0.07,0.04 0.07,0.09 0,0.04 -0.04,0.09 -0.1,0.1 -0.06,0.02 -0.15,0.03 -0.22,0.03 -0.05,0 -0.11,-0.02 -0.16,-0.06 -0.04,-0.04 -0.07,-0.05 -0.1,-0.06 -0.16,-0.04 -0.33,-0.09 -0.51,-0.13 -0.04,0.19 -0.06,0.33 -0.06,0.43 0,0.06 0.01,0.09 0.03,0.11 0.02,0.02 0.04,0.06 0.04,0.09 0,0.06 -0.05,0.1 -0.15,0.14 -0.11,0.04 -0.21,0.06 -0.32,0.06 -0.06,0 -0.12,-0.02 -0.16,-0.05 -0.02,-0.01 -0.06,-0.04 -0.06,-0.07 0,-0.02 0.01,-0.04 0.04,-0.04 0.1,0 0.18,-0.01 0.21,-0.04 0.03,-0.03 0.05,-0.06 0.06,-0.11 0.04,-0.15 0.07,-0.31 0.13,-0.59 -0.18,-0.04 -0.36,-0.09 -0.51,-0.11 -0.1,-0.02 -0.18,-0.04 -0.24,-0.04 -0.11,0 -0.19,0.04 -0.28,0.09 -0.02,0.01 -0.04,0.02 -0.06,0.02 -0.02,0 -0.04,-0.02 -0.04,-0.06 0,-0.04 0.04,-0.1 0.15,-0.19 0.09,-0.09 0.18,-0.13 0.24,-0.13 0.04,0 0.07,0 0.1,0.04 0.04,0.03 0.13,0.04 0.22,0.06 0.13,0.04 0.27,0.07 0.44,0.11 0.04,-0.2 0.07,-0.39 0.11,-0.59 -0.3,-0.07 -0.59,-0.14 -0.84,-0.2 -0.11,-0.03 -0.21,-0.05 -0.27,-0.05 -0.06,0 -0.13,0.02 -0.24,0.08 -0.02,0 -0.05,0.03 -0.06,0.03 -0.02,0 -0.03,-0.02 -0.03,-0.05 0,-0.04 0.02,-0.08 0.05,-0.11 0.11,-0.12 0.29,-0.22 0.38,-0.22 0.06,0 0.09,0.01 0.13,0.06 0.02,0.02 0.07,0.05 0.19,0.09 0.21,0.07 0.44,0.13 0.71,0.19 0.06,-0.35 0.14,-0.82 0.19,-1.15 0.02,-0.12 0.06,-0.18 0.15,-0.17 0.09,0 0.16,0.06 0.16,0.13 0,0.06 -0.02,0.14 -0.04,0.21 -0.06,0.29 -0.14,0.67 -0.21,1.04 0.4,0.09 0.61,0.11 0.81,0.14 0.11,0.01 0.22,0.01 0.29,0.01 0.11,0 0.16,0.04 0.16,0.11 0,0.05 -0.04,0.09 -0.1,0.12 -0.06,0.03 -0.15,0.04 -0.24,0.05 -0.07,0 -0.12,0 -0.16,-0.04 -0.03,-0.02 -0.07,-0.05 -0.13,-0.06 v 0 l 0.02,0.03 z"
                 id="path55" />
              <path
                 class="cls-2"
                 d="m 43.85,46.9 v 0 c -0.22,-0.06 -0.5,-0.14 -0.81,-0.23 -0.02,0.13 -0.05,0.22 -0.06,0.33 0,0.04 0,0.07 0,0.09 0,0.02 0,0.04 0.02,0.06 0.02,0.02 0.02,0.04 0.02,0.07 0,0.04 -0.02,0.07 -0.15,0.13 -0.08,0.04 -0.16,0.07 -0.24,0.07 -0.06,0 -0.09,-0.01 -0.14,-0.05 -0.05,-0.04 -0.07,-0.06 -0.07,-0.09 0,-0.03 0.01,-0.03 0.04,-0.03 h 0.1 c 0,0 0.07,-0.01 0.09,-0.04 0.02,-0.04 0.04,-0.09 0.06,-0.16 0.04,-0.12 0.07,-0.26 0.11,-0.44 -0.21,-0.06 -0.41,-0.11 -0.59,-0.16 -0.1,-0.02 -0.16,-0.03 -0.21,-0.03 -0.06,0 -0.11,0.04 -0.19,0.1 -0.02,0.02 -0.03,0.03 -0.04,0.03 -0.01,0 -0.03,-0.03 -0.03,-0.06 0,-0.09 0.04,-0.15 0.14,-0.24 0.1,-0.1 0.14,-0.11 0.19,-0.11 0.04,0 0.07,0.02 0.09,0.04 0.02,0.02 0.06,0.04 0.12,0.07 0.15,0.06 0.33,0.11 0.56,0.19 0.02,-0.09 0.04,-0.19 0.07,-0.31 0.07,-0.31 0.15,-0.67 0.23,-1.03 0.01,-0.09 0.07,-0.1 0.15,-0.1 0.06,0 0.11,0.06 0.11,0.11 0,0.05 -0.02,0.11 -0.04,0.19 -0.07,0.28 -0.15,0.56 -0.23,0.86 -0.03,0.13 -0.06,0.23 -0.09,0.34 0.29,0.09 0.66,0.19 0.89,0.26 0.02,0 0.04,0 0.02,-0.03 -0.19,-0.27 -0.35,-0.45 -0.51,-0.63 -0.02,-0.02 -0.04,-0.04 -0.04,-0.06 0,-0.02 0.02,-0.04 0.04,-0.04 0.02,0 0.04,0 0.07,0.03 0.23,0.16 0.48,0.39 0.66,0.56 0.04,0.03 0.06,0.04 0.11,0.05 0.07,0 0.1,0.04 0.1,0.09 0,0.05 -0.03,0.09 -0.13,0.16 -0.13,0.09 -0.18,0.11 -0.22,0.11 -0.04,0 -0.06,-0.01 -0.1,-0.05 -0.03,-0.03 -0.06,-0.06 -0.11,-0.07 h 0.02 v 0 z"
                 id="path56" />
              <path
                 class="cls-2"
                 d="m 41.56,44.45 v 0 c 0,0 -0.07,0 -0.09,0 -0.02,0 -0.04,-0.02 -0.04,-0.04 0,-0.02 0.01,-0.04 0.04,-0.05 0.1,-0.06 0.21,-0.15 0.3,-0.26 0.09,-0.1 0.13,-0.19 0.18,-0.27 0.06,-0.1 0.09,-0.14 0.18,-0.14 0.09,0 0.16,0.07 0.16,0.18 0,0.15 -0.06,0.26 -0.25,0.37 -0.12,0.08 -0.29,0.15 -0.46,0.19 v 0 z m 2.67,-0.15 v 0 c 0,0 -0.04,0.06 -0.06,0.06 -0.01,0 -0.04,-0.01 -0.06,-0.04 -0.26,-0.33 -0.62,-0.66 -1,-0.98 -0.36,-0.3 -0.75,-0.58 -1.11,-0.78 -0.09,-0.06 -0.16,-0.07 -0.19,-0.07 -0.07,0 -0.11,0.04 -0.2,0.14 -0.03,0.04 -0.04,0.04 -0.06,0.04 -0.03,0 -0.04,-0.04 -0.04,-0.1 0,-0.09 0.05,-0.19 0.18,-0.33 0.09,-0.09 0.17,-0.16 0.27,-0.16 0.06,0 0.1,0.03 0.13,0.09 0.02,0.02 0.06,0.06 0.1,0.09 0.39,0.29 0.75,0.56 1.09,0.88 0.36,0.34 0.69,0.7 0.93,1.09 0.02,0.03 0.03,0.06 0.03,0.07 v 0 z"
                 id="path57" />
              <path
                 class="cls-2"
                 d="m 41.92,40.95 v 0 c 0.1,-0.07 0.14,-0.11 0.14,-0.16 0,-0.06 -0.04,-0.11 -0.11,-0.21 -0.11,-0.14 -0.26,-0.29 -0.41,-0.44 -0.2,-0.18 -0.43,-0.35 -0.69,-0.51 -0.04,-0.02 -0.06,-0.04 -0.06,-0.06 0,-0.04 0.02,-0.06 0.06,-0.06 0.02,0 0.06,0 0.1,0.04 0.26,0.1 0.51,0.26 0.75,0.42 0.21,0.15 0.39,0.31 0.56,0.48 0.05,0.04 0.08,0.07 0.11,0.09 0.07,0.02 0.1,0.06 0.1,0.12 0,0.1 -0.11,0.21 -0.24,0.3 -0.1,0.07 -0.19,0.1 -0.24,0.1 -0.05,0 -0.1,-0.02 -0.1,-0.05 q 0,0 0.05,-0.06 v 0 z m 2.12,-1.05 c 0.13,0 0.18,0.07 0.18,0.21 0,0.16 -0.19,0.41 -0.38,0.57 -0.21,0.18 -0.44,0.31 -0.67,0.41 -0.06,0.02 -0.09,0.04 -0.11,0.04 -0.02,0 -0.05,-0.01 -0.05,-0.05 0,-0.02 0.02,-0.04 0.07,-0.08 0.16,-0.11 0.3,-0.24 0.43,-0.38 0.14,-0.16 0.24,-0.33 0.36,-0.57 0.05,-0.1 0.1,-0.16 0.19,-0.16 v 0 z m -0.02,2.03 c -0.21,0 -0.38,-0.16 -0.38,-0.36 0,-0.2 0.17,-0.36 0.38,-0.36 0.21,0 0.38,0.16 0.38,0.36 0,0.2 -0.17,0.36 -0.38,0.36 z m 0,-0.13 c 0.14,0 0.24,-0.1 0.24,-0.24 0,-0.14 -0.11,-0.24 -0.24,-0.24 -0.13,0 -0.24,0.11 -0.24,0.24 0,0.13 0.11,0.24 0.24,0.24 z"
                 id="path58" />
              <path
                 class="cls-2"
                 d="m 43.86,36.8 v 0 c -0.25,0.23 -0.61,0.41 -0.99,0.57 0.21,0.25 0.42,0.54 0.54,0.71 0.05,0.08 0.11,0.13 0.18,0.15 0.09,0.04 0.1,0.05 0.1,0.09 0,0.05 -0.03,0.1 -0.15,0.19 -0.09,0.08 -0.13,0.1 -0.19,0.1 -0.04,0 -0.07,-0.02 -0.1,-0.04 -0.04,-0.03 -0.07,-0.06 -0.14,-0.06 -0.31,-0.04 -0.66,-0.07 -0.98,-0.1 -0.12,0 -0.26,-0.02 -0.33,-0.02 -0.09,0 -0.16,0.06 -0.28,0.16 -0.02,0.02 -0.06,0.05 -0.07,0.05 -0.02,0 -0.04,-0.04 -0.04,-0.09 0,-0.07 0.04,-0.13 0.11,-0.23 0.09,-0.11 0.19,-0.19 0.26,-0.19 0.06,0 0.09,0.02 0.12,0.04 0.04,0.02 0.09,0.04 0.17,0.06 0.42,0.09 0.9,0.14 1.09,0.16 0.02,0 0.04,0 0.04,0 0,0 0,-0.02 -0.02,-0.04 C 42.93,37.9 42.7,37.59 42.39,37.28 41.98,36.85 41.53,36.56 41.04,36.29 41.02,36.28 41,36.25 41,36.23 c 0,-0.02 0.02,-0.05 0.04,-0.05 0.03,0 0.07,0 0.11,0.03 0.24,0.09 0.54,0.23 0.81,0.41 0.29,0.19 0.56,0.41 0.81,0.69 0.41,-0.24 0.71,-0.51 0.99,-0.9 0.06,-0.09 0.12,-0.13 0.18,-0.13 0.1,0 0.17,0.06 0.17,0.17 0,0.11 -0.11,0.24 -0.26,0.38 v 0 z"
                 id="path59" />
            </g>
          </g>
        </g>
      </g>
    </g>
  </g>
</svg>
