<?xml version="1.0" encoding="UTF-8" standalone="no"?>
<svg
   id="Layer_2"
   viewBox="0 0 50 85.41"
   version="1.1"
   sodipodi:docname="DateAndVenue.svg"
   inkscape:version="1.3.2 (091e20e, 2023-11-25)"
   xmlns:inkscape="http://www.inkscape.org/namespaces/inkscape"
   xmlns:sodipodi="http://sodipodi.sourceforge.net/DTD/sodipodi-0.dtd"
   xmlns="http://www.w3.org/2000/svg"
   xmlns:svg="http://www.w3.org/2000/svg">
  <sodipodi:namedview
     id="namedview60"
     pagecolor="#ffffff"
     bordercolor="#000000"
     borderopacity="0.25"
     inkscape:showpageshadow="2"
     inkscape:pageopacity="0.0"
     inkscape:pagecheckerboard="0"
     inkscape:deskcolor="#d1d1d1"
     inkscape:zoom="6.0526174"
     inkscape:cx="41.387054"
     inkscape:cy="66.913201"
     inkscape:window-width="1392"
     inkscape:window-height="1257"
     inkscape:window-x="664"
     inkscape:window-y="44"
     inkscape:window-maximized="0"
     inkscape:current-layer="Layer_2-2-2" />
  <defs
     id="defs1">
    <style
       id="style1">
      .cls-1 {
        fill: none;
        stroke: #c9cac9;
        stroke-miterlimit: 10;
        stroke-width: .37px;
      }

      .cls-2 {
        fill: #f0efef;
      }
    </style>
  </defs>
  <g
     id="g60"
     data-name="Layer_2">
    <g
       id="Layer_2-2">
      <g
         id="Layer_2-2-2"
         data-name="Layer_2-2">
        <g
           id="Layer_1-2"
           transform="matrix(1,0,0,-1,0,85.397077)">
          <g
             id="_图层_1-2-2">
            <g
               id="g59">
              <path
                 class="cls-2"
                 d="m 49.02,78.13 h -0.9 v 0.43 h 1.74 c 0,0 0.06,0.01 0.06,0.04 0,0.03 -0.02,0.05 -0.11,0.11 -0.2,0.16 -0.23,0.17 -0.26,0.17 -0.02,0 -0.06,-0.02 -0.24,-0.22 h -1.19 v 0.3 c 0.11,0.04 0.13,0.07 0.13,0.1 0,0.06 -0.04,0.07 -0.46,0.12 0.02,-0.11 0.03,-0.2 0.03,-0.49 v -0.04 h -1.34 c -0.12,0 -0.22,0 -0.36,0.04 l 0.04,-0.16 c 0.11,0.01 0.21,0.02 0.31,0.02 h 1.34 V 78.12 H 47 c -0.14,0.07 -0.2,0.1 -0.35,0.16 0.03,-0.19 0.03,-0.37 0.03,-0.67 0,-0.59 -0.02,-0.76 -0.02,-0.86 0,-0.07 0.04,-0.1 0.13,-0.1 0.13,0 0.18,0.04 0.18,0.13 v 0.06 h 0.66 c -0.39,-0.53 -0.96,-0.94 -1.59,-1.21 -0.02,0 0,-0.07 0.02,-0.06 0.76,0.22 1.29,0.51 1.77,1.06 -0.02,-0.47 -0.04,-0.98 -0.04,-1.1 0,-0.08 0.04,-0.11 0.14,-0.11 0.13,0 0.2,0.04 0.2,0.13 0,0.13 -0.02,0.76 -0.04,1.25 0.22,-0.34 0.46,-0.58 0.69,-0.75 0.21,-0.16 0.46,-0.29 0.69,-0.39 0.09,-0.04 0.17,-0.06 0.21,-0.06 0.03,0 0.06,0.02 0.09,0.1 0.04,0.1 0.1,0.16 0.21,0.19 0.02,0 0.02,0.04 0,0.04 -0.31,0.02 -0.64,0.11 -0.96,0.26 -0.34,0.16 -0.63,0.36 -0.86,0.66 h 0.87 v -0.07 c 0,-0.09 0.03,-0.11 0.13,-0.11 0.13,0 0.19,0.04 0.19,0.13 0,0.08 -0.02,0.32 -0.02,0.84 v 0.3 c 0.09,0.06 0.1,0.07 0.1,0.1 0,0.02 0,0.06 -0.07,0.1 -0.12,0.1 -0.15,0.11 -0.19,0.11 -0.04,0 -0.05,-0.02 -0.17,-0.13 h 0.01 z m -1.2,-0.11 v -0.47 h -0.86 v 0.47 z m 0,-0.58 v -0.5 h -0.86 v 0.5 z m 0.3,0.58 h 0.93 v -0.47 h -0.93 z m 0,-0.57 h 0.93 v -0.5 h -0.93 z"
                 id="path41" />
              <path
                 class="cls-2"
                 d="m 46.14,71.74 v 0 c 0,0 0.01,-0.07 0.04,-0.06 0.51,0.22 0.79,0.45 1.09,0.81 0.14,0 0.18,0.02 0.18,0.06 0,0.04 -0.1,0.1 -0.39,0.23 -0.04,-0.09 -0.07,-0.17 -0.13,-0.26 -0.18,-0.26 -0.47,-0.57 -0.79,-0.79 v 0 z m 3.15,2.86 h -1.14 v 0.36 c 0.11,0.05 0.14,0.08 0.14,0.1 0,0.05 -0.06,0.09 -0.48,0.13 0.02,-0.15 0.02,-0.21 0.02,-0.29 v -0.31 h -1.34 c -0.11,0 -0.21,0 -0.34,0.03 l 0.04,-0.16 c 0.11,0.01 0.19,0.02 0.3,0.02 h 3.36 c 0,0 0.06,0.01 0.06,0.04 0,0.03 -0.02,0.05 -0.11,0.12 -0.2,0.16 -0.23,0.18 -0.26,0.18 -0.02,0 -0.06,-0.02 -0.26,-0.24 v 0 z m -1.13,-2.02 v 0 0.53 h 0.74 v -0.09 c 0,-0.09 0.03,-0.13 0.13,-0.13 0.11,0 0.18,0.04 0.18,0.13 0,0.06 -0.01,0.24 -0.01,0.64 v 0.19 c 0.1,0.06 0.11,0.08 0.11,0.11 0,0.02 -0.02,0.05 -0.09,0.1 -0.14,0.11 -0.16,0.13 -0.19,0.13 -0.02,0 -0.04,-0.01 -0.18,-0.15 h -1.74 c -0.14,0.09 -0.21,0.11 -0.36,0.16 0.02,-0.16 0.02,-0.28 0.02,-0.5 0,-0.47 -0.02,-0.59 -0.02,-0.68 0,-0.09 0.04,-0.11 0.14,-0.11 0.13,0 0.18,0.04 0.18,0.15 v 0.04 h 0.75 v -1.21 c 0,0 -0.02,-0.06 -0.06,-0.06 -0.14,0 -0.31,0 -0.56,0.04 -0.02,0 -0.02,-0.05 0,-0.06 0.33,-0.07 0.44,-0.13 0.46,-0.26 0,-0.08 0.02,-0.09 0.08,-0.09 0.07,0 0.17,0.03 0.24,0.06 0.11,0.06 0.16,0.12 0.16,0.28 0,0.1 0,0.25 0,0.76 h 0.03 z m 0.75,0.63 h -1.8 v 0.74 h 1.8 z m 0.29,-1.19 v 0 c 0.13,-0.26 0.16,-0.29 0.25,-0.29 0.09,0 0.16,0.08 0.16,0.19 0,0.26 -0.37,0.59 -0.96,0.84 -0.02,0 -0.06,-0.04 -0.04,-0.06 0.28,-0.22 0.46,-0.44 0.59,-0.69 v 0 z"
                 id="path42" />
              <path
                 class="cls-2"
                 d="m 48.12,69.98 h 1.72 c 0,0 0.06,0.01 0.06,0.04 0,0.03 -0.02,0.06 -0.11,0.13 -0.21,0.16 -0.25,0.19 -0.28,0.19 -0.02,0 -0.06,-0.02 -0.26,-0.26 h -1.19 c 0.01,0.13 0.02,0.26 0.03,0.4 0.01,0.14 0.01,0.29 0.01,0.45 0.11,0.05 0.14,0.07 0.14,0.11 0,0.06 -0.07,0.09 -0.49,0.14 0.01,-0.12 0.02,-0.19 0.02,-0.29 0,-0.3 -0.01,-0.57 -0.04,-0.81 h -1.19 c -0.13,0 -0.24,0 -0.39,0.03 l 0.04,-0.16 c 0.14,0.01 0.22,0.02 0.35,0.02 h 1.19 c -0.06,-0.46 -0.16,-0.8 -0.31,-1.09 -0.28,-0.51 -0.68,-0.92 -1.32,-1.25 -0.02,0 0,-0.07 0.03,-0.06 0.64,0.21 1.06,0.51 1.39,0.93 0.28,0.35 0.44,0.76 0.54,1.39 0.11,-0.62 0.31,-1.1 0.59,-1.46 0.19,-0.25 0.49,-0.54 0.79,-0.72 0.11,-0.07 0.18,-0.11 0.22,-0.11 0.02,0 0.05,0.02 0.06,0.06 0.06,0.13 0.1,0.19 0.22,0.22 0.02,0 0.03,0.04 0,0.04 -0.38,0.14 -0.76,0.34 -1.06,0.64 -0.38,0.36 -0.62,0.79 -0.76,1.39 h -0.01 z"
                 id="path43" />
              <path
                 class="cls-2"
                 d="m 48.61,65.92 h -1.4 c -0.12,0 -0.19,0.01 -0.32,0.04 l 0.04,-0.16 c 0.1,0.02 0.18,0.03 0.29,0.03 h 1.39 c -0.14,-0.17 -0.27,-0.3 -0.48,-0.47 -0.07,0.01 -0.16,0.03 -0.31,0.05 0.01,-0.12 0.01,-0.16 0.01,-0.37 h -1.37 c -0.11,0 -0.19,0 -0.31,0.03 l 0.04,-0.16 c 0.11,0.02 0.19,0.02 0.28,0.02 h 1.36 v -0.9 c 0,0 -0.02,-0.07 -0.07,-0.07 -0.12,0 -0.3,0.01 -0.58,0.04 -0.02,0 -0.03,-0.05 0,-0.06 0.37,-0.08 0.46,-0.14 0.48,-0.26 0.01,-0.07 0.02,-0.09 0.09,-0.09 0.13,0 0.23,0.04 0.3,0.1 0.07,0.06 0.11,0.13 0.11,0.26 0,0.13 0,0.23 -0.01,0.64 v 0.33 h 1.71 c 0,0 0.06,0.01 0.06,0.04 0,0.03 -0.02,0.05 -0.11,0.13 -0.21,0.16 -0.24,0.18 -0.26,0.18 -0.02,0 -0.06,-0.02 -0.25,-0.25 h -1.14 v 0.15 c 0.11,0.04 0.13,0.07 0.13,0.1 0,0.02 0,0.04 -0.02,0.04 0.24,0.12 0.41,0.23 0.66,0.42 0.14,0.01 0.19,0.03 0.19,0.07 0,0.02 -0.02,0.05 -0.08,0.11 -0.16,0.13 -0.18,0.15 -0.21,0.15 -0.02,0 -0.05,-0.01 -0.19,-0.14 h -0.01 z m -1.93,0.42 h 2.74 c -0.04,-0.16 -0.09,-0.27 -0.16,-0.4 0,-0.01 0.02,-0.04 0.04,-0.03 0.14,0.09 0.26,0.18 0.34,0.27 0.03,0.03 0.04,0.04 0.09,0.04 0.13,0 0.16,0.02 0.16,0.09 0,0.02 -0.02,0.06 -0.1,0.13 -0.17,0.16 -0.19,0.18 -0.22,0.18 -0.03,0 -0.06,-0.02 -0.19,-0.16 h -0.69 c 0.19,0.15 0.38,0.33 0.54,0.51 0.14,0 0.18,0.02 0.18,0.07 0,0.04 -0.07,0.1 -0.41,0.24 -0.03,-0.1 -0.07,-0.21 -0.13,-0.34 -0.09,-0.16 -0.19,-0.33 -0.29,-0.48 h -1.91 c 0,0.06 -0.01,0.11 -0.02,0.18 0,0.02 -0.04,0.02 -0.04,0 -0.03,-0.26 -0.1,-0.39 -0.3,-0.49 -0.1,-0.06 -0.13,-0.1 -0.13,-0.17 0,-0.09 0.07,-0.16 0.17,-0.16 0.19,0 0.34,0.21 0.34,0.55 h -0.01 z m 0.37,0.38 v 0 c 0.04,-0.16 0.07,-0.19 0.16,-0.19 0.1,0 0.17,0.09 0.17,0.18 0,0.19 -0.19,0.38 -0.54,0.49 -0.02,0 -0.04,-0.02 -0.02,-0.04 0.1,-0.11 0.18,-0.27 0.22,-0.44 v 0 z m 0.88,0.05 v 0 c 0.03,-0.16 0.06,-0.19 0.15,-0.19 0.1,0 0.18,0.08 0.18,0.19 0,0.19 -0.19,0.39 -0.54,0.51 -0.02,0 -0.04,-0.02 -0.03,-0.04 0.11,-0.13 0.2,-0.3 0.24,-0.47 z"
                 id="path44" />
              <path
                 class="cls-2"
                 d="m 47.9,61.39 v 0 h -0.48 v 0.49 h 1.04 c 0,0 0.06,0.01 0.06,0.04 0,0.03 -0.02,0.06 -0.1,0.11 -0.19,0.15 -0.21,0.17 -0.24,0.17 -0.02,0 -0.06,-0.02 -0.22,-0.22 h -0.54 v 0.55 h 0.86 c 0,0 0.06,0 0.06,0.04 0,0.04 -0.02,0.06 -0.1,0.11 -0.16,0.14 -0.19,0.16 -0.22,0.16 -0.03,0 -0.06,-0.02 -0.21,-0.21 h -0.38 v 0.49 c 0.11,0.04 0.14,0.07 0.14,0.1 0,0.06 -0.06,0.08 -0.45,0.12 0.01,-0.12 0.02,-0.27 0.02,-0.71 H 46.7 c 0.06,0.09 0.1,0.19 0.14,0.29 0.11,0.03 0.15,0.05 0.15,0.09 0,0.04 -0.04,0.06 -0.4,0.15 -0.01,-0.11 -0.04,-0.26 -0.09,-0.39 -0.07,-0.23 -0.19,-0.47 -0.33,-0.65 -0.01,-0.02 0.02,-0.06 0.04,-0.04 0.18,0.14 0.31,0.28 0.42,0.44 h 0.5 v -0.55 h -0.74 c -0.11,0 -0.19,0 -0.3,0.03 l 0.04,-0.15 c 0.1,0.01 0.17,0.02 0.26,0.02 h 0.74 v -0.49 h -0.47 c -0.13,0.08 -0.19,0.11 -0.33,0.16 0.01,-0.15 0.01,-0.29 0.01,-0.59 0,-0.52 -0.01,-0.69 -0.01,-0.81 0,-0.07 0.03,-0.1 0.12,-0.1 0.12,0 0.18,0.04 0.18,0.13 v 1.11 h 0.51 c 0,-0.98 -0.02,-1.39 -0.02,-1.54 0,-0.09 0.04,-0.13 0.14,-0.13 0.12,0 0.18,0.05 0.18,0.14 0,0.16 0,0.59 0,1.52 h 0.51 v -0.86 c 0,0 -0.02,-0.06 -0.06,-0.06 -0.06,0 -0.15,0 -0.31,0.02 -0.02,0 -0.02,-0.04 0,-0.05 0.23,-0.06 0.26,-0.09 0.28,-0.21 0,-0.04 0.02,-0.06 0.07,-0.06 0.08,0 0.17,0.04 0.22,0.09 0.06,0.04 0.09,0.1 0.09,0.21 0,0.09 0,0.19 0,0.63 v 0.21 c 0.09,0.06 0.11,0.09 0.11,0.11 0,0.02 -0.02,0.05 -0.07,0.1 -0.13,0.1 -0.15,0.11 -0.18,0.11 -0.02,0 -0.04,0 -0.17,-0.13 h -0.02 z m 1.05,0.84 v 0 0.56 c 0.11,0.04 0.13,0.07 0.13,0.1 0,0.06 -0.06,0.08 -0.44,0.11 0.02,-0.22 0.02,-0.4 0.02,-1.09 0,-0.83 -0.02,-1.14 -0.02,-1.23 0,-0.09 0.04,-0.11 0.13,-0.11 0.13,0 0.19,0.04 0.19,0.13 0,0.13 -0.02,0.58 -0.02,1.51 h 0.02 z m 0.76,-0.58 v 1.41 c 0.1,0.04 0.13,0.07 0.13,0.11 0,0.06 -0.04,0.07 -0.45,0.11 0.02,-0.15 0.03,-0.22 0.03,-0.69 v -2.51 c 0,0 -0.02,-0.07 -0.07,-0.07 -0.13,0 -0.33,0.01 -0.56,0.04 -0.02,0 -0.03,-0.05 0,-0.06 0.36,-0.07 0.45,-0.13 0.47,-0.25 0.02,-0.07 0.04,-0.09 0.1,-0.09 0.08,0 0.18,0.03 0.24,0.07 0.1,0.06 0.14,0.12 0.14,0.29 0,0.17 -0.02,0.48 -0.02,1.63 v 0 z"
                 id="path45" />
              <path
                 class="cls-2"
                 d="m 46.93,55.82 v 0 2.12 c 0.1,0.04 0.12,0.07 0.12,0.1 0,0.04 -0.04,0.06 -0.24,0.09 0.21,0.29 0.37,0.61 0.51,0.99 0.11,0.02 0.16,0.04 0.16,0.09 0,0.05 -0.15,0.11 -0.46,0.2 -0.01,-0.13 -0.04,-0.26 -0.09,-0.39 -0.16,-0.53 -0.51,-1.15 -0.89,-1.57 -0.02,-0.02 0.02,-0.06 0.05,-0.04 0.21,0.16 0.39,0.34 0.54,0.51 v -0.79 c 0,-0.95 -0.02,-1.24 -0.02,-1.32 0,-0.08 0.06,-0.11 0.14,-0.11 0.11,0 0.18,0.05 0.18,0.14 v 0 z m 2.36,2.84 h -1.23 c 0.07,0.15 0.14,0.3 0.2,0.47 0.12,0.01 0.18,0.04 0.18,0.09 0,0.05 -0.13,0.1 -0.47,0.19 -0.01,-0.1 -0.04,-0.2 -0.06,-0.3 -0.14,-0.54 -0.44,-1.13 -0.77,-1.54 -0.02,-0.02 0.03,-0.06 0.06,-0.04 0.36,0.3 0.61,0.63 0.83,1.03 h 0.18 v -1.74 c 0,-0.66 -0.02,-0.92 -0.02,-1 0,-0.09 0.04,-0.13 0.14,-0.13 0.14,0 0.2,0.04 0.2,0.15 0,0.14 0,0.54 -0.01,1.07 h 1.2 c 0,0 0.06,0.01 0.06,0.04 0,0.03 -0.02,0.06 -0.09,0.11 -0.17,0.14 -0.2,0.16 -0.23,0.16 -0.02,0 -0.06,-0.02 -0.22,-0.21 h -0.71 v 0.75 h 1.19 c 0,0 0.06,0.01 0.06,0.04 0,0.03 -0.02,0.06 -0.1,0.11 -0.16,0.13 -0.2,0.15 -0.22,0.15 -0.02,0 -0.06,-0.02 -0.22,-0.21 h -0.7 v 0.69 h 1.32 c 0,0 0.06,0.01 0.06,0.04 0,0.02 -0.02,0.05 -0.1,0.12 -0.19,0.15 -0.21,0.16 -0.24,0.16 -0.02,0 -0.06,-0.02 -0.24,-0.23 h -0.02 z"
                 id="path46" />
              <path
                 class="cls-2"
                 d="m 48.16,53.11 h 1.64 c 0,0 0.06,0.01 0.06,0.04 0,0.03 -0.02,0.06 -0.1,0.11 -0.19,0.16 -0.21,0.18 -0.24,0.18 -0.02,0 -0.06,-0.02 -0.24,-0.22 h -0.54 v 0.61 h 0.83 c 0,0 0.06,0.01 0.06,0.04 0,0.03 -0.02,0.06 -0.09,0.11 -0.17,0.14 -0.19,0.16 -0.22,0.16 -0.02,0 -0.06,-0.02 -0.22,-0.21 h -0.36 v 0.21 c 0.11,0.04 0.13,0.08 0.13,0.1 0,0.04 -0.04,0.07 -0.44,0.11 0.02,-0.14 0.02,-0.24 0.02,-0.38 v -0.06 h -0.67 v 0.22 c 0.1,0.04 0.13,0.08 0.13,0.1 0,0.04 -0.04,0.07 -0.44,0.11 0.01,-0.14 0.02,-0.25 0.02,-0.38 V 53.9 h -0.31 c -0.11,0 -0.19,0 -0.31,0.02 l 0.04,-0.16 c 0.11,0.02 0.18,0.03 0.27,0.03 h 0.31 V 53.18 H 46.7 c 0.06,0.42 0.09,0.85 0.09,1.27 h 2.46 v -0.02 c 0,-0.1 0.02,-0.13 0.12,-0.13 0.11,0 0.19,0.04 0.19,0.11 0,0.08 0,0.17 0,0.46 V 55 c 0.1,0.06 0.11,0.09 0.11,0.12 0,0.02 -0.02,0.04 -0.09,0.1 -0.13,0.11 -0.16,0.13 -0.19,0.13 -0.02,0 -0.04,-0.01 -0.18,-0.16 h -2.39 c -0.1,0.06 -0.21,0.1 -0.39,0.18 0.02,-0.21 0.02,-0.34 0.02,-0.83 0,-0.69 -0.02,-1.14 -0.07,-1.53 -0.07,-0.49 -0.18,-0.84 -0.36,-1.24 -0.01,-0.02 0.04,-0.06 0.06,-0.03 0.3,0.38 0.45,0.72 0.55,1.16 0.01,0.06 0.02,0.11 0.04,0.18 h 0.58 v -0.96 c -0.11,0 -0.23,-0.01 -0.35,-0.02 h -0.19 c 0.1,-0.41 0.1,-0.42 0.15,-0.42 0.04,0 0.07,0.04 0.1,0.13 0.64,0.13 0.96,0.23 1.47,0.44 0.02,0 0,0.06 -0.02,0.06 -0.29,-0.06 -0.58,-0.11 -0.87,-0.15 v 0.94 h 0.49 c 0.19,-0.42 0.4,-0.7 0.64,-0.9 0.21,-0.18 0.48,-0.34 0.76,-0.42 0.1,-0.03 0.16,-0.04 0.2,-0.04 0.04,0 0.06,0.02 0.08,0.09 0.04,0.13 0.08,0.16 0.19,0.19 0.02,0 0.02,0.04 0,0.04 -0.4,0.04 -0.78,0.14 -1.07,0.31 -0.07,0.04 -0.14,0.09 -0.2,0.13 0.21,0.07 0.36,0.14 0.56,0.26 0.14,-0.02 0.19,0 0.19,0.04 0,0.04 -0.1,0.11 -0.33,0.25 -0.02,-0.06 -0.06,-0.11 -0.13,-0.18 -0.09,-0.1 -0.21,-0.21 -0.36,-0.31 -0.18,0.15 -0.31,0.34 -0.42,0.54 v 0 0.03 h 0.04 z m 1.12,1.47 h -2.46 v 0.54 h 2.46 z M 48.47,53.82 V 53.21 H 47.8 v 0.61 z"
                 id="path47" />
              <path
                 class="cls-2"
                 d="M 48.09,48.55 H 47.4 c 0.13,0.2 0.26,0.38 0.69,0.79 0.39,0.38 0.74,0.57 0.74,1.08 0,0.39 -0.3,0.71 -0.81,0.71 -0.51,0 -0.84,-0.42 -0.84,-0.68 0,-0.11 0.07,-0.15 0.16,-0.15 0.14,0 0.29,0.07 0.29,0.18 0,0.13 0.01,0.23 0.04,0.29 0.06,0.12 0.16,0.22 0.36,0.22 0.26,0 0.4,-0.24 0.4,-0.56 0,-0.37 -0.19,-0.59 -0.54,-1.01 C 47.54,49 47.4,48.78 47.15,48.4 c -0.02,-0.04 -0.03,-0.04 -0.03,-0.1 0,-0.06 0,-0.07 0.05,-0.07 0.27,0.01 0.51,0.01 0.78,0.01 0.27,0 0.5,0 0.77,-0.01 0.07,0.21 0.16,0.5 0.21,0.71 0,0.02 0,0.04 -0.04,0.05 -0.04,0.01 -0.06,0 -0.06,-0.02 -0.06,-0.13 -0.12,-0.23 -0.22,-0.31 -0.08,-0.06 -0.16,-0.09 -0.5,-0.09 H 48.1 Z"
                 id="path48" />
              <path
                 class="cls-2"
                 d="m 48.03,47.18 c -0.54,0 -0.86,-0.59 -0.86,-1.51 0,-0.92 0.33,-1.47 0.86,-1.47 0.53,0 0.86,0.58 0.86,1.49 0,0.91 -0.32,1.48 -0.86,1.48 v 0 z m 0,-0.13 c 0.36,0 0.44,-0.54 0.44,-1.36 0,-0.82 -0.09,-1.36 -0.44,-1.36 -0.35,0 -0.46,0.53 -0.46,1.36 0,0.83 0.1,1.36 0.46,1.36 z"
                 id="path49" />
              <path
                 class="cls-2"
                 d="M 48.09,40.65 H 47.4 c 0.13,0.2 0.26,0.38 0.69,0.79 0.39,0.38 0.74,0.57 0.74,1.08 0,0.39 -0.3,0.71 -0.81,0.71 -0.51,0 -0.84,-0.42 -0.84,-0.68 0,-0.11 0.07,-0.15 0.16,-0.15 0.14,0 0.29,0.07 0.29,0.18 0,0.13 0.01,0.23 0.04,0.29 0.06,0.12 0.16,0.22 0.36,0.22 0.26,0 0.4,-0.24 0.4,-0.56 0,-0.37 -0.19,-0.59 -0.54,-1.01 -0.35,-0.42 -0.49,-0.64 -0.74,-1.02 -0.02,-0.04 -0.03,-0.04 -0.03,-0.1 0,-0.06 0,-0.07 0.05,-0.07 0.27,0.01 0.51,0.01 0.78,0.01 0.27,0 0.5,0 0.77,-0.01 0.07,0.21 0.16,0.5 0.21,0.71 0,0.02 0,0.04 -0.04,0.05 -0.04,0.01 -0.06,0 -0.06,-0.02 -0.06,-0.13 -0.12,-0.23 -0.22,-0.31 -0.08,-0.06 -0.16,-0.09 -0.5,-0.09 H 48.1 Z"
                 id="path50" />
              <path
                 class="cls-2"
                 d="m 48.53,36.97 v 0 0.18 c 0.12,0 0.26,0 0.39,0 0.02,0 0.04,0 0.04,0.02 L 49,37.3 c 0,0 0,0.03 -0.02,0.03 -0.15,0 -0.29,-0.02 -0.43,-0.02 v 0.94 c 0.02,0.37 0.02,0.7 0.03,1.02 0,0.04 -0.01,0.04 -0.03,0.04 l -0.28,-0.07 c -0.41,-0.65 -0.73,-1.15 -1.13,-1.81 -0.03,-0.05 -0.04,-0.1 -0.04,-0.16 0,-0.09 0,-0.1 0.05,-0.1 h 1.04 v -0.18 c 0,-0.21 0,-0.32 -0.06,-0.41 -0.03,-0.06 -0.17,-0.07 -0.28,-0.09 -0.03,0 -0.04,0 -0.04,-0.06 0,-0.06 0,-0.06 0.04,-0.06 0.15,0 0.36,0.02 0.51,0.02 0.15,0 0.35,0 0.5,-0.02 0.02,0 0.04,0 0.04,0.06 0,0.06 -0.01,0.06 -0.04,0.06 -0.14,0.01 -0.27,0.02 -0.31,0.1 -0.04,0.1 -0.04,0.14 -0.04,0.4 h 0.01 z m -0.35,1.19 v 0 -0.86 h -0.89 c -0.06,0 -0.06,0.02 -0.04,0.06 0.29,0.51 0.62,1.04 0.94,1.54 -0.01,-0.27 -0.02,-0.44 -0.02,-0.74 v 0 z"
                 id="path51" />
              <path
                 class="cls-2"
                 d="M 43.57,62.12 H 43.24 L 43.2,62.01 c -0.04,0.12 -0.15,0.16 -0.26,0.16 -0.56,0 -1.06,-0.71 -1.06,-1.24 0,-0.31 0.15,-0.44 0.44,-0.44 0.18,0 0.34,0.09 0.49,0.31 -0.06,-0.26 0.14,-0.31 0.36,-0.31 0.69,0 1.06,0.63 1.06,1.07 0,0.76 -0.58,1.27 -1.44,1.27 -0.86,0 -1.69,-0.64 -1.69,-1.62 0,-0.86 0.59,-1.41 1.52,-1.41 0.5,0 0.79,0.14 1.11,0.37 0.02,0 0.02,0.03 0,0.06 -0.03,0.03 -0.06,0.02 -0.08,0.01 -0.28,-0.19 -0.61,-0.3 -1.01,-0.3 -0.68,0 -1.27,0.42 -1.27,1.28 0,0.86 0.61,1.49 1.41,1.49 0.8,0 1.19,-0.53 1.19,-1.15 0,-0.56 -0.38,-0.95 -0.74,-0.95 -0.11,0 -0.16,0.04 -0.16,0.12 0,0.08 0.04,0.2 0.1,0.35 0.07,0.26 0.29,0.83 0.37,1.06 h 0.01 z m -1.33,-1.27 v 0 c 0,0.41 0.31,1.21 0.74,1.21 0.09,0 0.13,-0.05 0.13,-0.18 0,-0.11 -0.04,-0.27 -0.12,-0.52 -0.22,-0.67 -0.48,-0.76 -0.59,-0.76 -0.11,0 -0.16,0.09 -0.16,0.26 v 0 z"
                 id="path52" />
              <path
                 class="cls-2"
                 d="m 42.48,56.48 h -0.56 c -0.11,0 -0.19,0 -0.32,0.03 l 0.04,-0.16 c 0.12,0.01 0.2,0.02 0.3,0.02 h 0.54 c 0,-0.49 -0.02,-0.75 -0.02,-0.81 0,-0.09 0.04,-0.11 0.14,-0.11 0.13,0 0.21,0.04 0.21,0.14 0,0.1 0,0.33 -0.01,0.79 h 0.83 c 0,0 0.06,0 0.06,0.04 0,0.04 -0.02,0.06 -0.1,0.11 -0.18,0.14 -0.2,0.16 -0.23,0.16 -0.03,0 -0.06,-0.02 -0.21,-0.21 H 42.8 c 0,0.54 -0.02,1.09 -0.03,1.62 0.19,-0.48 0.38,-0.79 0.59,-1.06 0.23,-0.29 0.54,-0.56 0.84,-0.75 0.09,-0.06 0.15,-0.08 0.18,-0.08 0.03,0 0.04,0.02 0.06,0.06 0.06,0.15 0.11,0.2 0.23,0.22 0.02,0 0.02,0.04 0,0.04 -0.39,0.13 -0.82,0.36 -1.14,0.66 -0.26,0.24 -0.5,0.55 -0.7,0.98 h 1.63 c 0,0 0.06,0.01 0.06,0.04 0,0.03 -0.02,0.05 -0.11,0.12 -0.2,0.16 -0.24,0.18 -0.26,0.18 -0.02,0 -0.06,-0.02 -0.24,-0.24 h -1.12 v 0.67 c 0.11,0.06 0.14,0.09 0.14,0.11 0,0.06 -0.08,0.09 -0.47,0.11 0.02,-0.15 0.02,-0.29 0.02,-0.75 v -0.15 h -1.24 c -0.13,0 -0.21,0 -0.36,0.03 l 0.04,-0.16 c 0.13,0.01 0.21,0.02 0.33,0.02 h 1.07 c -0.3,-0.74 -0.91,-1.5 -1.59,-1.96 -0.02,-0.02 0.02,-0.06 0.04,-0.06 0.71,0.34 1.32,0.95 1.74,1.68 0,-0.46 -0.01,-0.91 -0.02,-1.36 v 0 0.02 h 0.01 z"
                 id="path53" />
              <path
                 class="cls-2"
                 d="m 41.61,53.1 v 0 c -0.16,-0.02 -0.34,-0.06 -0.5,-0.07 0.3,0.31 0.51,0.63 0.74,1.03 0.12,0 0.15,0.03 0.15,0.06 0,0.03 -0.1,0.11 -0.38,0.22 -0.02,-0.09 -0.07,-0.22 -0.13,-0.36 -0.13,-0.31 -0.34,-0.67 -0.53,-0.96 -0.04,0 -0.08,0 -0.11,0 H 40.7 c 0.07,-0.3 0.11,-0.39 0.16,-0.39 0.04,0 0.06,0.03 0.08,0.13 0.27,0.09 0.47,0.15 0.64,0.24 -0.15,-0.54 -0.44,-0.99 -0.88,-1.37 -0.02,-0.02 0.01,-0.07 0.04,-0.06 0.69,0.41 1.01,0.89 1.2,1.64 0.1,0.02 0.11,0.04 0.11,0.09 0,0.05 -0.02,0.06 -0.39,0.17 0,-0.11 -0.02,-0.24 -0.06,-0.36 h 0.01 z m -0.3,0.82 v 0 c 0,0.1 -0.06,0.21 -0.16,0.3 0.2,0.21 0.35,0.43 0.5,0.7 0.12,0 0.16,0.03 0.16,0.07 0,0.04 -0.1,0.1 -0.41,0.19 0,-0.07 -0.03,-0.18 -0.07,-0.31 -0.06,-0.17 -0.14,-0.37 -0.26,-0.59 -0.08,0.06 -0.18,0.11 -0.3,0.16 -0.02,0 -0.04,-0.02 -0.02,-0.04 0.14,-0.14 0.23,-0.29 0.28,-0.49 0.04,-0.16 0.06,-0.19 0.14,-0.19 0.08,0 0.15,0.08 0.15,0.18 h -0.01 z m 1.04,-1.69 v 0 1.09 h 0.54 v -0.07 c 0,-0.09 0.03,-0.11 0.11,-0.11 0.12,0 0.17,0.04 0.17,0.13 0,0.09 -0.02,0.38 -0.02,1.05 v 0.44 c 0.09,0.06 0.1,0.07 0.1,0.1 0,0.03 -0.01,0.06 -0.07,0.1 -0.11,0.09 -0.13,0.1 -0.16,0.1 -0.03,0 -0.05,-0.01 -0.16,-0.12 h -0.5 c -0.12,0.07 -0.18,0.1 -0.33,0.16 0.02,-0.36 0.02,-0.76 0.02,-1.29 v -1.63 c 0,0 -0.08,0 -0.11,-0.02 -0.08,0 -0.15,-0.01 -0.24,-0.02 0.11,-0.38 0.13,-0.4 0.16,-0.4 0.04,0 0.06,0.04 0.09,0.14 0.36,0.13 0.66,0.27 0.95,0.44 0,-0.02 0,-0.04 0.01,-0.07 0.04,-0.21 0.07,-0.26 0.16,-0.26 0.09,0 0.15,0.08 0.15,0.19 0,0.26 -0.22,0.57 -0.54,0.79 -0.02,0.01 -0.06,-0.01 -0.04,-0.04 0.1,-0.15 0.19,-0.32 0.24,-0.54 -0.18,-0.06 -0.36,-0.11 -0.56,-0.16 h 0.02 z m 0.54,1.96 h -0.54 v 0.64 h 0.54 z m -0.54,-0.1 h 0.54 v -0.67 h -0.54 z m 1.36,-1.56 v 0 2.31 H 44.2 C 44.11,54.38 44.02,54 43.89,53.69 c 0.27,-0.3 0.38,-0.63 0.38,-0.96 0,-0.15 -0.01,-0.23 -0.06,-0.26 -0.02,-0.02 -0.06,-0.04 -0.1,-0.04 -0.09,0 -0.18,0 -0.33,0.02 -0.02,0 -0.02,-0.05 0,-0.06 0.23,-0.06 0.27,-0.11 0.29,-0.23 0,-0.06 0.03,-0.07 0.06,-0.07 0.11,0 0.21,0.06 0.28,0.13 0.09,0.09 0.13,0.24 0.13,0.44 0,0.39 -0.16,0.72 -0.56,1.04 0.19,0.3 0.39,0.67 0.51,1.04 0.09,0.02 0.11,0.04 0.11,0.08 0,0.03 -0.02,0.06 -0.08,0.13 -0.11,0.11 -0.15,0.14 -0.19,0.14 -0.02,0 -0.04,-0.02 -0.16,-0.15 h -0.44 c -0.13,0.07 -0.19,0.1 -0.33,0.16 0.02,-0.15 0.02,-0.72 0.02,-1.65 0,-0.93 -0.01,-1.61 -0.01,-1.85 0,-0.07 0.04,-0.11 0.12,-0.11 0.11,0 0.18,0.04 0.18,0.13 0,0.09 0,0.31 0,0.91 z"
                 id="path54" />
              <path
                 class="cls-2"
                 d="m 43.49,49.65 v 0 c -0.21,-0.04 -0.39,-0.09 -0.66,-0.14 -0.04,0.21 -0.07,0.39 -0.11,0.59 0.29,0.06 0.51,0.11 0.73,0.16 0.1,0.02 0.17,0.04 0.24,0.04 0.05,0 0.07,0.04 0.07,0.09 0,0.04 -0.04,0.09 -0.1,0.1 -0.06,0.02 -0.15,0.03 -0.22,0.03 -0.05,0 -0.11,-0.02 -0.16,-0.06 -0.04,-0.04 -0.07,-0.05 -0.1,-0.06 -0.16,-0.04 -0.33,-0.09 -0.51,-0.13 -0.04,0.19 -0.06,0.33 -0.06,0.43 0,0.06 0.01,0.09 0.03,0.11 0.02,0.02 0.04,0.06 0.04,0.09 0,0.06 -0.05,0.1 -0.15,0.14 -0.11,0.04 -0.21,0.06 -0.32,0.06 -0.06,0 -0.12,-0.02 -0.16,-0.05 -0.02,-0.01 -0.06,-0.04 -0.06,-0.07 0,-0.02 0.01,-0.04 0.04,-0.04 0.1,0 0.18,-0.01 0.21,-0.04 0.03,-0.03 0.05,-0.06 0.06,-0.11 0.04,-0.15 0.07,-0.31 0.13,-0.59 -0.18,-0.04 -0.36,-0.09 -0.51,-0.11 -0.1,-0.02 -0.18,-0.04 -0.24,-0.04 -0.11,0 -0.19,0.04 -0.28,0.09 -0.02,0.01 -0.04,0.02 -0.06,0.02 -0.02,0 -0.04,-0.02 -0.04,-0.06 0,-0.04 0.04,-0.1 0.15,-0.19 0.09,-0.09 0.18,-0.13 0.24,-0.13 0.04,0 0.07,0 0.1,0.04 0.04,0.03 0.13,0.04 0.22,0.06 0.13,0.04 0.27,0.07 0.44,0.11 0.04,-0.2 0.07,-0.39 0.11,-0.59 -0.3,-0.07 -0.59,-0.14 -0.84,-0.2 -0.11,-0.03 -0.21,-0.05 -0.27,-0.05 -0.06,0 -0.13,0.02 -0.24,0.08 -0.02,0 -0.05,0.03 -0.06,0.03 -0.02,0 -0.03,-0.02 -0.03,-0.05 0,-0.04 0.02,-0.08 0.05,-0.11 0.11,-0.12 0.29,-0.22 0.38,-0.22 0.06,0 0.09,0.01 0.13,0.06 0.02,0.02 0.07,0.05 0.19,0.09 0.21,0.07 0.44,0.13 0.71,0.19 0.06,-0.35 0.14,-0.82 0.19,-1.15 0.02,-0.12 0.06,-0.18 0.15,-0.17 0.09,0 0.16,0.06 0.16,0.13 0,0.06 -0.02,0.14 -0.04,0.21 -0.06,0.29 -0.14,0.67 -0.21,1.04 0.4,0.09 0.61,0.11 0.81,0.14 0.11,0.01 0.22,0.01 0.29,0.01 0.11,0 0.16,0.04 0.16,0.11 0,0.05 -0.04,0.09 -0.1,0.12 -0.06,0.03 -0.15,0.04 -0.24,0.05 -0.07,0 -0.12,0 -0.16,-0.04 -0.03,-0.02 -0.07,-0.05 -0.13,-0.06 v 0 l 0.02,0.03 z"
                 id="path55" />
              <path
                 class="cls-2"
                 d="m 43.85,46.9 v 0 c -0.22,-0.06 -0.5,-0.14 -0.81,-0.23 -0.02,0.13 -0.05,0.22 -0.06,0.33 0,0.04 0,0.07 0,0.09 0,0.02 0,0.04 0.02,0.06 0.02,0.02 0.02,0.04 0.02,0.07 0,0.04 -0.02,0.07 -0.15,0.13 -0.08,0.04 -0.16,0.07 -0.24,0.07 -0.06,0 -0.09,-0.01 -0.14,-0.05 -0.05,-0.04 -0.07,-0.06 -0.07,-0.09 0,-0.03 0.01,-0.03 0.04,-0.03 h 0.1 c 0,0 0.07,-0.01 0.09,-0.04 0.02,-0.04 0.04,-0.09 0.06,-0.16 0.04,-0.12 0.07,-0.26 0.11,-0.44 -0.21,-0.06 -0.41,-0.11 -0.59,-0.16 -0.1,-0.02 -0.16,-0.03 -0.21,-0.03 -0.06,0 -0.11,0.04 -0.19,0.1 -0.02,0.02 -0.03,0.03 -0.04,0.03 -0.01,0 -0.03,-0.03 -0.03,-0.06 0,-0.09 0.04,-0.15 0.14,-0.24 0.1,-0.1 0.14,-0.11 0.19,-0.11 0.04,0 0.07,0.02 0.09,0.04 0.02,0.02 0.06,0.04 0.12,0.07 0.15,0.06 0.33,0.11 0.56,0.19 0.02,-0.09 0.04,-0.19 0.07,-0.31 0.07,-0.31 0.15,-0.67 0.23,-1.03 0.01,-0.09 0.07,-0.1 0.15,-0.1 0.06,0 0.11,0.06 0.11,0.11 0,0.05 -0.02,0.11 -0.04,0.19 -0.07,0.28 -0.15,0.56 -0.23,0.86 -0.03,0.13 -0.06,0.23 -0.09,0.34 0.29,0.09 0.66,0.19 0.89,0.26 0.02,0 0.04,0 0.02,-0.03 -0.19,-0.27 -0.35,-0.45 -0.51,-0.63 -0.02,-0.02 -0.04,-0.04 -0.04,-0.06 0,-0.02 0.02,-0.04 0.04,-0.04 0.02,0 0.04,0 0.07,0.03 0.23,0.16 0.48,0.39 0.66,0.56 0.04,0.03 0.06,0.04 0.11,0.05 0.07,0 0.1,0.04 0.1,0.09 0,0.05 -0.03,0.09 -0.13,0.16 -0.13,0.09 -0.18,0.11 -0.22,0.11 -0.04,0 -0.06,-0.01 -0.1,-0.05 -0.03,-0.03 -0.06,-0.06 -0.11,-0.07 h 0.02 v 0 z"
                 id="path56" />
              <path
                 class="cls-2"
                 d="m 41.56,44.45 v 0 c 0,0 -0.07,0 -0.09,0 -0.02,0 -0.04,-0.02 -0.04,-0.04 0,-0.02 0.01,-0.04 0.04,-0.05 0.1,-0.06 0.21,-0.15 0.3,-0.26 0.09,-0.1 0.13,-0.19 0.18,-0.27 0.06,-0.1 0.09,-0.14 0.18,-0.14 0.09,0 0.16,0.07 0.16,0.18 0,0.15 -0.06,0.26 -0.25,0.37 -0.12,0.08 -0.29,0.15 -0.46,0.19 v 0 z m 2.67,-0.15 v 0 c 0,0 -0.04,0.06 -0.06,0.06 -0.01,0 -0.04,-0.01 -0.06,-0.04 -0.26,-0.33 -0.62,-0.66 -1,-0.98 -0.36,-0.3 -0.75,-0.58 -1.11,-0.78 -0.09,-0.06 -0.16,-0.07 -0.19,-0.07 -0.07,0 -0.11,0.04 -0.2,0.14 -0.03,0.04 -0.04,0.04 -0.06,0.04 -0.03,0 -0.04,-0.04 -0.04,-0.1 0,-0.09 0.05,-0.19 0.18,-0.33 0.09,-0.09 0.17,-0.16 0.27,-0.16 0.06,0 0.1,0.03 0.13,0.09 0.02,0.02 0.06,0.06 0.1,0.09 0.39,0.29 0.75,0.56 1.09,0.88 0.36,0.34 0.69,0.7 0.93,1.09 0.02,0.03 0.03,0.06 0.03,0.07 v 0 z"
                 id="path57" />
              <path
                 class="cls-2"
                 d="m 41.92,40.95 v 0 c 0.1,-0.07 0.14,-0.11 0.14,-0.16 0,-0.06 -0.04,-0.11 -0.11,-0.21 -0.11,-0.14 -0.26,-0.29 -0.41,-0.44 -0.2,-0.18 -0.43,-0.35 -0.69,-0.51 -0.04,-0.02 -0.06,-0.04 -0.06,-0.06 0,-0.04 0.02,-0.06 0.06,-0.06 0.02,0 0.06,0 0.1,0.04 0.26,0.1 0.51,0.26 0.75,0.42 0.21,0.15 0.39,0.31 0.56,0.48 0.05,0.04 0.08,0.07 0.11,0.09 0.07,0.02 0.1,0.06 0.1,0.12 0,0.1 -0.11,0.21 -0.24,0.3 -0.1,0.07 -0.19,0.1 -0.24,0.1 -0.05,0 -0.1,-0.02 -0.1,-0.05 q 0,0 0.05,-0.06 v 0 z m 2.12,-1.05 c 0.13,0 0.18,0.07 0.18,0.21 0,0.16 -0.19,0.41 -0.38,0.57 -0.21,0.18 -0.44,0.31 -0.67,0.41 -0.06,0.02 -0.09,0.04 -0.11,0.04 -0.02,0 -0.05,-0.01 -0.05,-0.05 0,-0.02 0.02,-0.04 0.07,-0.08 0.16,-0.11 0.3,-0.24 0.43,-0.38 0.14,-0.16 0.24,-0.33 0.36,-0.57 0.05,-0.1 0.1,-0.16 0.19,-0.16 v 0 z m -0.02,2.03 c -0.21,0 -0.38,-0.16 -0.38,-0.36 0,-0.2 0.17,-0.36 0.38,-0.36 0.21,0 0.38,0.16 0.38,0.36 0,0.2 -0.17,0.36 -0.38,0.36 z m 0,-0.13 c 0.14,0 0.24,-0.1 0.24,-0.24 0,-0.14 -0.11,-0.24 -0.24,-0.24 -0.13,0 -0.24,0.11 -0.24,0.24 0,0.13 0.11,0.24 0.24,0.24 z"
                 id="path58" />
              <path
                 class="cls-2"
                 d="m 43.86,36.8 v 0 c -0.25,0.23 -0.61,0.41 -0.99,0.57 0.21,0.25 0.42,0.54 0.54,0.71 0.05,0.08 0.11,0.13 0.18,0.15 0.09,0.04 0.1,0.05 0.1,0.09 0,0.05 -0.03,0.1 -0.15,0.19 -0.09,0.08 -0.13,0.1 -0.19,0.1 -0.04,0 -0.07,-0.02 -0.1,-0.04 -0.04,-0.03 -0.07,-0.06 -0.14,-0.06 -0.31,-0.04 -0.66,-0.07 -0.98,-0.1 -0.12,0 -0.26,-0.02 -0.33,-0.02 -0.09,0 -0.16,0.06 -0.28,0.16 -0.02,0.02 -0.06,0.05 -0.07,0.05 -0.02,0 -0.04,-0.04 -0.04,-0.09 0,-0.07 0.04,-0.13 0.11,-0.23 0.09,-0.11 0.19,-0.19 0.26,-0.19 0.06,0 0.09,0.02 0.12,0.04 0.04,0.02 0.09,0.04 0.17,0.06 0.42,0.09 0.9,0.14 1.09,0.16 0.02,0 0.04,0 0.04,0 0,0 0,-0.02 -0.02,-0.04 C 42.93,37.9 42.7,37.59 42.39,37.28 41.98,36.85 41.53,36.56 41.04,36.29 41.02,36.28 41,36.25 41,36.23 c 0,-0.02 0.02,-0.05 0.04,-0.05 0.03,0 0.07,0 0.11,0.03 0.24,0.09 0.54,0.23 0.81,0.41 0.29,0.19 0.56,0.41 0.81,0.69 0.41,-0.24 0.71,-0.51 0.99,-0.9 0.06,-0.09 0.12,-0.13 0.18,-0.13 0.1,0 0.17,0.06 0.17,0.17 0,0.11 -0.11,0.24 -0.26,0.38 v 0 z"
                 id="path59" />
            </g>
          </g>
          <g
             id="g51"
             transform="matrix(0.10673918,0,0,-0.10673918,0.01974675,85.396543)">
            <g
               id="g2">
              <path
                 class="cls-1"
                 d="m 0.6,120.35 c -0.4,0 -0.6,-0.32 -0.6,-0.95 0,-0.54 0.17,-0.95 0.51,-1.22 0.46,-0.27 1.3,-0.48 2.53,-0.61 1.23,-0.14 2.48,-0.32 3.77,-0.54 1.28,-0.23 2.41,-0.54 3.38,-0.95 0.97,-0.41 1.48,-1.02 1.54,-1.84 0.57,-8.7 0.83,-17.43 0.77,-26.18 C 12.44,79.31 12.41,70.58 12.41,61.88 V 36.45 c 0,-1 0.01,-1.99 0.04,-2.99 0.03,-1 -0.01,-2.04 -0.13,-3.13 -0.29,-1.72 -0.76,-2.63 -1.41,-2.72 -0.66,-0.09 -1.41,-0.04 -2.27,0.14 -0.17,0 -0.57,0.05 -1.2,0.14 -0.63,0.09 -1.27,0.18 -1.93,0.27 -0.66,0.09 -1.5,0.18 -2.53,0.27 C 2.64,28.25 2.44,28.02 2.38,27.75 2.32,27.48 2.3,27.07 2.3,26.53 c 0,-0.27 0.11,-0.54 0.34,-0.82 0.23,-0.27 0.5,-0.5 0.81,-0.68 0.31,-0.18 0.64,-0.34 0.98,-0.48 0.34,-0.14 0.57,-0.25 0.68,-0.34 2.23,-1.09 4.46,-1.99 6.72,-2.72 2.25,-0.73 4.52,-1.5 6.8,-2.31 1.03,-0.27 2.07,-0.54 3.12,-0.82 1.06,-0.27 2.07,-0.36 3.04,-0.27 0.23,0 0.44,0.07 0.64,0.2 0.2,0.14 0.3,0.43 0.3,0.88 v 93.85 c 0,1.27 0.44,2.2 1.33,2.79 0.88,0.59 1.91,1 3.08,1.22 1.17,0.23 2.34,0.39 3.51,0.48 1.17,0.09 2.04,0.32 2.61,0.68 0.34,0.27 0.53,0.7 0.56,1.29 0.03,0.59 -0.16,0.88 -0.56,0.88 H 0.6 Z"
                 id="path1"
                 style="fill:#efefef" />
              <path
                 class="cls-1"
                 d="m 53.92,120.35 c -0.4,0 -0.6,-0.32 -0.6,-0.95 0,-0.54 0.17,-0.95 0.51,-1.22 0.46,-0.27 1.3,-0.48 2.53,-0.61 1.23,-0.14 2.48,-0.32 3.77,-0.54 1.28,-0.23 2.41,-0.54 3.38,-0.95 0.97,-0.41 1.48,-1.02 1.54,-1.84 0.57,-8.7 0.83,-17.43 0.77,-26.18 C 65.76,79.31 65.73,70.58 65.73,61.88 V 36.45 c 0,-1 0.01,-1.99 0.04,-2.99 0.03,-1 -0.01,-2.04 -0.13,-3.13 -0.29,-1.72 -0.76,-2.63 -1.41,-2.72 -0.66,-0.09 -1.41,-0.04 -2.27,0.14 -0.17,0 -0.57,0.05 -1.2,0.14 -0.63,0.09 -1.27,0.18 -1.93,0.27 -0.66,0.09 -1.5,0.18 -2.53,0.27 -0.34,-0.18 -0.54,-0.41 -0.6,-0.68 -0.06,-0.27 -0.08,-0.68 -0.08,-1.22 0,-0.27 0.11,-0.54 0.34,-0.82 0.23,-0.27 0.5,-0.5 0.81,-0.68 0.31,-0.18 0.64,-0.34 0.98,-0.48 0.34,-0.14 0.57,-0.25 0.68,-0.34 2.23,-1.09 4.46,-1.99 6.72,-2.72 2.25,-0.73 4.52,-1.5 6.8,-2.31 1.03,-0.27 2.07,-0.54 3.12,-0.82 1.06,-0.27 2.07,-0.36 3.04,-0.27 0.23,0 0.44,0.07 0.64,0.2 0.2,0.14 0.3,0.43 0.3,0.88 v 93.85 c 0,1.27 0.44,2.2 1.33,2.79 0.88,0.59 1.91,1 3.08,1.22 1.17,0.23 2.34,0.39 3.51,0.48 1.17,0.09 2.04,0.32 2.61,0.68 0.34,0.27 0.53,0.7 0.56,1.29 0.03,0.59 -0.16,0.88 -0.56,0.88 H 53.89 Z"
                 id="path2"
                 style="fill:#efefef" />
            </g>
            <g
               id="g4">
              <path
                 class="cls-1"
                 d="m 137.57,247.56 c -3.86,-0.34 -7.11,-1.88 -9.75,-4.61 -3,-3.16 -5.38,-7.16 -7.12,-11.98 -1.75,-4.83 -2.96,-10.15 -3.63,-15.96 -0.67,-5.81 -1.01,-11.41 -1.01,-16.79 0,-2.56 0.11,-5.55 0.32,-8.97 0.21,-3.42 0.6,-6.96 1.15,-10.64 0.55,-3.67 1.29,-7.28 2.21,-10.83 0.92,-3.54 2.05,-6.73 3.4,-9.55 1.35,-2.82 2.94,-5.1 4.78,-6.86 1.84,-1.75 3.98,-2.63 6.44,-2.63 h 3.22 v 3.08 c -1.04,0.43 -1.99,1.24 -2.85,2.44 -1.29,1.79 -2.33,4.1 -3.13,6.92 -0.8,2.82 -1.39,6.02 -1.79,9.61 -0.4,3.59 -0.71,7.11 -0.92,10.57 -0.22,3.46 -0.32,6.71 -0.32,9.74 v 14.29 c 0,2.99 0.11,6.22 0.32,9.68 0.21,3.46 0.52,6.99 0.92,10.57 0.4,3.59 1.01,6.81 1.84,9.68 0.83,2.86 1.85,5.24 3.08,7.11 0.86,1.11 1.81,1.88 2.85,2.31 v 2.82 z m 15.35,-14.87 -29.42,-63.45 2.85,-2.56 29.42,63.45 z m -8.64,-83.95 c 2.45,0 4.63,0.86 6.53,2.56 1.9,1.71 3.54,4 4.92,6.86 1.38,2.86 2.56,6.07 3.54,9.61 0.98,3.55 1.76,7.16 2.34,10.83 0.58,3.67 1,7.22 1.24,10.64 0.24,3.42 0.37,6.41 0.37,8.97 0,3.59 -0.14,7.31 -0.41,11.15 -0.27,3.84 -0.75,7.65 -1.42,11.41 -0.68,3.76 -1.64,7.33 -2.9,10.7 -1.26,3.38 -2.84,6.39 -4.73,9.04 -1.29,1.71 -2.73,3.23 -4.32,4.55 -1.59,1.33 -3.31,2.2 -5.15,2.63 -0.74,0.17 -1.5,0.21 -2.3,0.13 l -1.1,-0.13 V 245 c 1.53,-0.43 2.76,-1.41 3.68,-2.95 1.29,-2.14 2.27,-4.49 2.94,-7.05 0.8,-2.65 1.36,-5.53 1.7,-8.65 0.34,-3.12 0.57,-6.26 0.69,-9.42 0.12,-3.16 0.18,-6.34 0.18,-9.55 v -9.16 c 0,-1.79 0.01,-4.21 0.05,-7.24 0.03,-3.03 -0.02,-6.3 -0.14,-9.81 -0.12,-3.5 -0.37,-7.01 -0.74,-10.51 -0.37,-3.5 -0.95,-6.69 -1.75,-9.55 -0.8,-2.86 -1.84,-5.19 -3.13,-6.99 -1.04,-1.45 -2.33,-2.31 -3.86,-2.56 v -2.82 z"
                 id="path3"
                 style="fill:#efefef" />
              <path
                 class="cls-1"
                 d="m 195.4,240.64 c -0.06,0.26 -0.15,0.69 -0.28,1.28 -0.12,0.6 -0.26,1.2 -0.41,1.79 -0.15,0.6 -0.35,1.11 -0.6,1.54 -0.25,0.43 -0.49,0.64 -0.74,0.64 h -10.39 c -0.74,0 -0.95,-0.38 -0.64,-1.15 l 2.3,-6.79 c 0.49,-1.37 1.03,-2.69 1.61,-3.97 0.58,-1.28 1.12,-2.56 1.61,-3.85 l 4.69,-12.05 c 2.82,-7.35 5.68,-14.59 8.6,-21.73 2.91,-7.13 5.81,-14.38 8.69,-21.73 0.31,-0.77 0.58,-1.58 0.83,-2.44 0.24,-0.85 0.55,-1.62 0.92,-2.31 0.24,-0.43 0.69,-0.98 1.33,-1.67 0.64,-0.68 0.9,-1.32 0.78,-1.92 -0.06,-0.17 -0.2,-0.51 -0.41,-1.03 -0.21,-0.51 -0.41,-0.77 -0.6,-0.77 H 175 c -0.67,0 -1.01,-0.43 -1.01,-1.28 v -12.3 c 0,-0.85 0.34,-1.28 1.01,-1.28 h 42.02 c 0.67,0 1.01,0.43 1.01,1.28 v 7.18 c 0,0.77 -0.03,1.24 -0.09,1.41 l -22.53,81.13 z"
                 id="path4"
                 style="fill:#efefef" />
            </g>
            <g
               id="g6">
              <path
                 class="cls-1"
                 d="m 9.38,510.95 c -0.43,0 -0.64,-0.3 -0.64,-0.9 0,-0.51 0.18,-0.9 0.55,-1.15 0.49,-0.26 1.39,-0.45 2.71,-0.58 1.32,-0.13 2.67,-0.3 4.04,-0.51 1.38,-0.21 2.59,-0.51 3.63,-0.9 1.04,-0.38 1.59,-0.96 1.65,-1.73 0.61,-8.2 0.89,-16.43 0.83,-24.67 -0.06,-8.25 -0.09,-16.47 -0.09,-24.67 v -23.97 c 0,-0.94 0.01,-1.88 0.05,-2.82 0.03,-0.94 -0.02,-1.92 -0.14,-2.95 -0.31,-1.62 -0.81,-2.48 -1.52,-2.56 -0.71,-0.08 -1.52,-0.04 -2.44,0.13 -0.18,0 -0.61,0.04 -1.29,0.13 -0.67,0.09 -1.36,0.17 -2.07,0.26 -0.71,0.09 -1.61,0.17 -2.71,0.26 -0.37,-0.17 -0.58,-0.38 -0.64,-0.64 -0.06,-0.26 -0.09,-0.64 -0.09,-1.15 0,-0.26 0.12,-0.51 0.37,-0.77 0.24,-0.26 0.54,-0.47 0.87,-0.64 0.34,-0.17 0.69,-0.32 1.06,-0.45 0.37,-0.13 0.61,-0.23 0.74,-0.32 2.39,-1.03 4.8,-1.88 7.22,-2.56 2.42,-0.68 4.86,-1.41 7.31,-2.18 1.1,-0.26 2.22,-0.51 3.36,-0.77 1.13,-0.26 2.22,-0.34 3.26,-0.26 0.24,0 0.47,0.06 0.69,0.19 0.21,0.13 0.32,0.41 0.32,0.83 v 88.44 c 0,1.2 0.47,2.07 1.42,2.63 0.95,0.56 2.05,0.94 3.31,1.15 1.26,0.21 2.51,0.36 3.77,0.45 1.26,0.09 2.19,0.3 2.8,0.64 0.37,0.26 0.57,0.66 0.6,1.22 0.03,0.56 -0.17,0.83 -0.6,0.83 H 9.38 Z"
                 id="path5"
                 style="fill:#efefef" />
              <path
                 class="cls-1"
                 d="m 66.66,510.95 c -0.43,0 -0.64,-0.3 -0.64,-0.9 0,-0.51 0.18,-0.9 0.55,-1.15 0.49,-0.26 1.39,-0.45 2.71,-0.58 1.32,-0.13 2.67,-0.3 4.04,-0.51 1.38,-0.21 2.59,-0.51 3.63,-0.9 1.04,-0.38 1.59,-0.96 1.65,-1.73 0.61,-8.2 0.89,-16.43 0.83,-24.67 -0.06,-8.25 -0.09,-16.47 -0.09,-24.67 v -23.97 c 0,-0.94 0.01,-1.88 0.05,-2.82 0.03,-0.94 -0.02,-1.92 -0.14,-2.95 -0.31,-1.62 -0.81,-2.48 -1.52,-2.56 -0.71,-0.08 -1.52,-0.04 -2.44,0.13 -0.18,0 -0.61,0.04 -1.29,0.13 -0.67,0.09 -1.36,0.17 -2.07,0.26 -0.71,0.09 -1.61,0.17 -2.71,0.26 -0.37,-0.17 -0.58,-0.38 -0.64,-0.64 -0.06,-0.26 -0.09,-0.64 -0.09,-1.15 0,-0.26 0.12,-0.51 0.37,-0.77 0.24,-0.26 0.54,-0.47 0.87,-0.64 0.34,-0.17 0.69,-0.32 1.06,-0.45 0.37,-0.13 0.61,-0.23 0.74,-0.32 2.39,-1.03 4.8,-1.88 7.22,-2.56 2.42,-0.68 4.86,-1.41 7.31,-2.18 1.1,-0.26 2.22,-0.51 3.36,-0.77 1.13,-0.26 2.22,-0.34 3.26,-0.26 0.24,0 0.47,0.06 0.69,0.19 0.21,0.13 0.32,0.41 0.32,0.83 v 88.44 c 0,1.2 0.47,2.07 1.42,2.63 0.95,0.56 2.05,0.94 3.31,1.15 1.26,0.21 2.51,0.36 3.77,0.45 1.26,0.09 2.19,0.3 2.8,0.64 0.37,0.26 0.57,0.66 0.6,1.22 0.03,0.56 -0.17,0.83 -0.6,0.83 H 66.65 Z"
                 id="path6"
                 style="fill:#efefef" />
            </g>
            <g
               id="g8">
              <path
                 class="cls-1"
                 d="m 125.44,643.33 c -0.43,0 -0.64,-0.3 -0.64,-0.9 0,-0.51 0.18,-0.9 0.55,-1.15 0.49,-0.26 1.39,-0.45 2.71,-0.58 1.32,-0.13 2.67,-0.3 4.04,-0.51 1.38,-0.21 2.59,-0.51 3.63,-0.9 1.04,-0.38 1.59,-0.96 1.65,-1.73 0.61,-8.2 0.89,-16.43 0.83,-24.67 -0.06,-8.25 -0.09,-16.47 -0.09,-24.67 v -23.97 c 0,-0.94 0.01,-1.88 0.05,-2.82 0.03,-0.94 -0.02,-1.92 -0.14,-2.95 -0.31,-1.62 -0.81,-2.48 -1.52,-2.56 -0.71,-0.08 -1.52,-0.04 -2.44,0.13 -0.18,0 -0.61,0.04 -1.29,0.13 -0.67,0.09 -1.36,0.17 -2.07,0.26 -0.71,0.09 -1.61,0.17 -2.71,0.26 -0.37,-0.17 -0.58,-0.38 -0.64,-0.64 -0.06,-0.26 -0.09,-0.64 -0.09,-1.15 0,-0.26 0.12,-0.51 0.37,-0.77 0.24,-0.26 0.54,-0.47 0.87,-0.64 0.34,-0.17 0.69,-0.32 1.06,-0.45 0.37,-0.13 0.61,-0.23 0.74,-0.32 2.39,-1.03 4.8,-1.88 7.22,-2.56 2.42,-0.68 4.86,-1.41 7.31,-2.18 1.1,-0.26 2.22,-0.51 3.36,-0.77 1.13,-0.26 2.22,-0.34 3.26,-0.26 0.24,0 0.47,0.06 0.69,0.19 0.21,0.13 0.32,0.41 0.32,0.83 v 88.44 c 0,1.2 0.47,2.07 1.42,2.63 0.95,0.56 2.05,0.94 3.31,1.15 1.26,0.21 2.51,0.36 3.77,0.45 1.26,0.09 2.19,0.3 2.8,0.64 0.37,0.26 0.57,0.66 0.6,1.22 0.03,0.56 -0.17,0.83 -0.6,0.83 h -38.34 z"
                 id="path7"
                 style="fill:#efefef" />
              <path
                 class="cls-1"
                 d="m 182.71,643.33 c -0.43,0 -0.64,-0.3 -0.64,-0.9 0,-0.51 0.18,-0.9 0.55,-1.15 0.49,-0.26 1.39,-0.45 2.71,-0.58 1.32,-0.13 2.67,-0.3 4.04,-0.51 1.38,-0.21 2.59,-0.51 3.63,-0.9 1.04,-0.38 1.59,-0.96 1.65,-1.73 0.61,-8.2 0.89,-16.43 0.83,-24.67 -0.06,-8.25 -0.09,-16.47 -0.09,-24.67 v -23.97 c 0,-0.94 0.01,-1.88 0.05,-2.82 0.03,-0.94 -0.02,-1.92 -0.14,-2.95 -0.31,-1.62 -0.81,-2.48 -1.52,-2.56 -0.71,-0.08 -1.52,-0.04 -2.44,0.13 -0.18,0 -0.61,0.04 -1.29,0.13 -0.67,0.09 -1.36,0.17 -2.07,0.26 -0.71,0.09 -1.61,0.17 -2.71,0.26 -0.37,-0.17 -0.58,-0.38 -0.64,-0.64 -0.06,-0.26 -0.09,-0.64 -0.09,-1.15 0,-0.26 0.12,-0.51 0.37,-0.77 0.24,-0.26 0.54,-0.47 0.87,-0.64 0.34,-0.17 0.69,-0.32 1.06,-0.45 0.37,-0.13 0.61,-0.23 0.74,-0.32 2.39,-1.03 4.8,-1.88 7.22,-2.56 2.42,-0.68 4.86,-1.41 7.31,-2.18 1.1,-0.26 2.22,-0.51 3.36,-0.77 1.13,-0.26 2.22,-0.34 3.26,-0.26 0.24,0 0.47,0.06 0.69,0.19 0.21,0.13 0.32,0.41 0.32,0.83 v 88.44 c 0,1.2 0.47,2.07 1.42,2.63 0.95,0.56 2.05,0.94 3.31,1.15 1.26,0.21 2.51,0.36 3.77,0.45 1.26,0.09 2.19,0.3 2.8,0.64 0.37,0.26 0.57,0.66 0.6,1.22 0.03,0.56 -0.17,0.83 -0.6,0.83 H 182.7 Z"
                 id="path8"
                 style="fill:#efefef" />
            </g>
            <line
               class="cls-2"
               x1="125.9"
               y1="113.97"
               x2="78.830002"
               y2="193.69"
               id="line8"
               style="fill:#efefef;stroke:#c9caca;stroke-width:2px;stroke-miterlimit:10" />
            <line
               class="cls-2"
               x1="138.92"
               y1="498.48999"
               x2="91.849998"
               y2="578.21002"
               id="line9"
               style="fill:#efefef;stroke:#c9caca;stroke-width:2px;stroke-miterlimit:10" />
            <line
               class="cls-2"
               x1="102.36"
               y1="339.28"
               x2="102.36"
               y2="373.92999"
               id="line10"
               style="fill:#efefef;stroke:#c9caca;stroke-width:2px;stroke-miterlimit:10" />
            <g
               id="g15">
              <path
                 class="cls-3"
                 d="M 158.36,22.08 V 0.12 h 4.69 v 0.32 c -3.16,0.24 -3.25,0.5 -3.25,2.46 v 16.37 c 0,1.99 0.09,2.25 3.25,2.49 v 0.32 z"
                 id="path10"
                 style="fill:#efefef;stroke:#ededed;stroke-width:0.25px;stroke-miterlimit:10" />
              <path
                 class="cls-3"
                 d="m 166.48,17.66 c 2.72,-0.11 2.96,-0.56 2.96,-2.65 V 4.47 c 0,-2.07 -0.24,-2.52 -2.69,-2.62 v -0.4 h 8.69 c 3.61,0 6.51,0.53 8.33,2.09 1.58,1.32 2.42,3.18 2.42,5.48 0,7.02 -6.86,9.01 -12.83,9.01 h -6.86 v -0.37 z m 4.51,-2.73 c 0,2.04 0.48,2.46 3.46,2.46 7.31,0 9.76,-4.21 9.76,-7.73 0,-3.02 -1.37,-5.75 -4.18,-6.91 -1.34,-0.45 -3.25,-0.77 -6.15,-0.77 -1.52,0 -2.36,0.03 -2.63,0.05 -0.15,0 -0.27,0.03 -0.27,0.5 v 12.4 z"
                 id="path11"
                 style="fill:#efefef;stroke:#ededed;stroke-width:0.25px;stroke-miterlimit:10" />
              <path
                 class="cls-3"
                 d="m 197.37,18.32 c -0.06,0 -0.66,-0.21 -0.96,-0.48 -0.36,-0.34 -0.48,-0.66 -0.66,-1.25 -1.16,0.79 -2.51,1.72 -3.61,1.72 -2.06,0 -3.46,-1.38 -3.46,-3.02 0,-1.19 0.92,-2.04 2.98,-2.6 1.52,-0.4 3.4,-1.03 4.09,-1.4 0,-1.3 -0.03,-3.6 -2.72,-3.6 -0.48,0.03 -2.09,0.13 -2.6,2.25 -0.06,0.19 -0.24,0.45 -0.66,0.45 -0.42,0 -0.9,-0.37 -0.9,-0.9 0,-0.4 0.36,-0.72 0.84,-0.95 0.75,-0.45 2.75,-1.54 4.21,-1.83 1.46,0 3.31,0.85 3.31,3.18 v 5.7 c 0,1.09 0.45,1.51 1.08,1.51 0.51,0 0.98,-0.16 1.31,-0.34 l 0.27,0.45 -2.54,1.11 z m -1.61,-6.35 c -0.63,0.32 -2.51,0.95 -3.16,1.19 -1.34,0.45 -2.15,0.95 -2.15,1.93 0,1.38 1.25,2.09 2.33,2.09 1.01,0 2.36,-0.66 2.98,-1.35 v -3.87 z"
                 id="path12"
                 style="fill:#efefef;stroke:#ededed;stroke-width:0.25px;stroke-miterlimit:10" />
              <path
                 class="cls-3"
                 d="m 206.53,18.03 c -0.54,0.26 -0.87,0.29 -1.22,0.29 -1.67,0 -2.48,-1.06 -2.48,-2.86 v -7.6 h -2.15 l -0.09,-0.29 0.81,-0.56 h 1.43 V 5.55 l 1.01,-1.8 0.42,-0.03 V 7 h 3.58 c 0.06,0.11 0.09,0.21 0.09,0.32 0,0.19 -0.09,0.37 -0.3,0.53 h -3.37 v 6.89 c 0,2.15 0.81,2.6 1.79,2.6 0.98,0 1.73,-0.37 2.06,-0.53 l 0.24,0.4 z"
                 id="path13"
                 style="fill:#efefef;stroke:#ededed;stroke-width:0.25px;stroke-miterlimit:10" />
              <path
                 class="cls-3"
                 d="m 219.58,16.02 c -1.76,1.8 -3.79,2.3 -4.48,2.3 -3.52,0 -5.7,-2.49 -5.7,-5.3 0,-3.89 3.58,-6.3 6,-6.3 2.57,0 4.42,1.85 4.42,3.73 0,0.53 -0.03,0.61 -0.51,0.69 -0.48,0.08 -4.3,0.37 -8.42,0.48 -0.03,4.03 2.69,5.46 4.75,5.46 1.02,0 2.09,-0.19 3.61,-1.46 z m -8.51,-5.25 c 0.69,0 4.9,-0.05 6.18,-0.08 0.75,0 0.75,-0.27 0.75,-0.42 0,-1.48 -1.25,-2.81 -3.4,-2.81 -1.49,0 -3.07,1.17 -3.52,3.31 z"
                 id="path14"
                 style="fill:#efefef;stroke:#ededed;stroke-width:0.25px;stroke-miterlimit:10" />
              <path
                 class="cls-3"
                 d="m 227.72,0.12 v 21.96 h -4.69 v -0.32 c 3.16,-0.24 3.25,-0.5 3.25,-2.46 V 2.93 c 0,-1.99 -0.09,-2.25 -3.25,-2.49 V 0.12 Z"
                 id="path15"
                 style="fill:#efefef;stroke:#ededed;stroke-width:0.25px;stroke-miterlimit:10" />
            </g>
            <g
               id="g21">
              <path
                 class="cls-3"
                 d="m 30.65,276.9 v -19.97 h 4.26 v 0.29 c -2.88,0.22 -2.96,0.46 -2.96,2.24 v 14.89 c 0,1.81 0.08,2.05 2.96,2.26 v 0.29 z"
                 id="path16"
                 style="fill:#efefef;stroke:#ededed;stroke-width:0.25px;stroke-miterlimit:10" />
              <path
                 class="cls-3"
                 d="m 41.76,272.87 c 2.72,-0.12 2.91,-0.53 2.91,-2.36 V 258.7 h -1.68 c -3.56,0 -3.91,0.53 -4.73,3.06 h -0.43 c 0.16,-1.42 0.24,-2.87 0.3,-4.22 h 0.43 c 0.19,0.29 0.38,0.43 0.6,0.51 0.22,0.07 0.49,0.07 0.87,0.07 h 10.95 c 0.71,0 0.9,-0.12 1.28,-0.58 l 0.46,0.02 c -0.05,1.13 0.11,2.65 0.25,4.1 l -0.46,0.1 c -0.65,-2.72 -1.68,-3.06 -3.99,-3.06 H 46.1 v 11.81 c 0,1.83 0.19,2.24 3.01,2.36 v 0.34 h -7.33 v -0.34 z"
                 id="path17"
                 style="fill:#efefef;stroke:#ededed;stroke-width:0.25px;stroke-miterlimit:10" />
              <path
                 class="cls-3"
                 d="m 54.08,272.87 c 1.66,-0.1 1.96,-0.46 1.96,-1.95 V 259.6 c 0,-1.52 -0.16,-1.61 -2.04,-1.93 v -0.27 c 1.22,-0.19 2.61,-0.55 3.34,-0.82 v 8.19 c 1.09,-1.01 2.63,-1.86 4.24,-1.86 2.09,0 3.64,1.2 3.64,3.98 v 4.02 c 0,1.52 0.3,1.86 1.96,1.95 v 0.34 h -5.32 v -0.34 c 1.82,-0.1 2.06,-0.46 2.06,-2.1 v -3.3 c 0,-2.26 -0.76,-3.47 -3.34,-3.47 -1.28,0.07 -2.47,0.55 -3.23,1.4 v 5.37 c 0,1.64 0.27,2 2.15,2.1 v 0.34 h -5.38 l -0.03,-0.34 z"
                 id="path18"
                 style="fill:#efefef;stroke:#ededed;stroke-width:0.25px;stroke-miterlimit:10" />
              <path
                 class="cls-3"
                 d="m 71.6,269.33 c 0,2.41 1.3,3.04 2.82,3.04 1.09,0 2.39,-0.48 3.53,-1.49 v -5.3 c 0,-1.42 -0.38,-1.52 -1.36,-1.69 l -1.03,-0.14 v -0.27 c 1.17,-0.02 3.02,-0.27 3.69,-0.43 v 7.85 c 0,1.2 0.3,1.33 1.36,1.4 l 0.81,0.05 v 0.34 c -1.11,0.12 -2.28,0.48 -3.34,0.82 l -0.14,-0.12 v -1.85 c -0.71,0.46 -1.39,0.99 -2.34,1.42 -0.79,0.41 -1.36,0.53 -2.06,0.53 -1.63,0 -3.26,-0.75 -3.26,-3.42 v -4.46 c 0,-1.42 -0.41,-1.54 -0.98,-1.69 l -0.87,-0.17 v -0.24 c 0.62,-0.05 2.63,-0.34 3.23,-0.46 -0.08,0.48 -0.08,1.33 -0.08,3.13 v 3.16 z"
                 id="path19"
                 style="fill:#efefef;stroke:#ededed;stroke-width:0.25px;stroke-miterlimit:10" />
              <path
                 class="cls-3"
                 d="m 83.76,272.39 c 0,-0.6 0.52,-1.11 1.2,-1.11 0.68,0 1.22,0.51 1.22,1.11 0,0.65 -0.52,1.08 -1.22,1.08 -0.76,-0.02 -1.2,-0.48 -1.2,-1.08 z"
                 id="path20"
                 style="fill:#efefef;stroke:#ededed;stroke-width:0.25px;stroke-miterlimit:10" />
              <path
                 class="cls-3"
                 d="m 94.63,256.92 v 19.97 h -4.26 v -0.29 c 2.88,-0.22 2.96,-0.46 2.96,-2.24 v -14.89 c 0,-1.81 -0.08,-2.05 -2.96,-2.26 v -0.29 z"
                 id="path21"
                 style="fill:#efefef;stroke:#ededed;stroke-width:0.25px;stroke-miterlimit:10" />
            </g>
            <g
               id="g27">
              <path
                 class="cls-3"
                 d="M 34.34,677.68 V 657.71 H 38.6 V 658 c -2.88,0.22 -2.96,0.46 -2.96,2.24 v 14.89 c 0,1.81 0.08,2.05 2.96,2.26 v 0.29 z"
                 id="path22"
                 style="fill:#efefef;stroke:#ededed;stroke-width:0.25px;stroke-miterlimit:10" />
              <path
                 class="cls-3"
                 d="m 42.33,658.91 h 3.45 l 7.17,12.77 7.2,-12.77 h 3.91 v 0.34 c -2.53,0.22 -2.77,0.46 -2.66,2.87 l 0.19,8.55 c 0.08,2.48 0.19,2.79 2.74,2.99 V 674 h -6.65 v -0.34 c 2.39,-0.17 2.47,-0.48 2.44,-2.99 L 60.01,660.55 H 59.9 l -7.36,13.18 H 52.3 l -6.68,-12.36 h -0.05 l -0.35,6.51 c -0.08,1.13 -0.11,1.95 -0.11,2.6 0,2.31 0.27,2.96 2.8,3.18 V 674 h -6.55 v -0.34 c 1.68,-0.12 2.25,-0.53 2.47,-1.49 0.19,-0.72 0.41,-2.17 0.6,-4.65 l 0.38,-4.41 c 0.03,-0.65 0.05,-1.18 0.05,-1.61 0,-1.71 -0.46,-2.02 -2.53,-2.24 v -0.34 z"
                 id="path23"
                 style="fill:#efefef;stroke:#ededed;stroke-width:0.25px;stroke-miterlimit:10" />
              <path
                 class="cls-3"
                 d="m 78.23,668.79 c 0,3.64 -3.37,5.47 -5.98,5.47 -3.58,0 -6.03,-2.41 -6.03,-5.04 0,-3.9 3.69,-5.52 5.98,-5.52 3.42,0 6.03,2.29 6.03,5.08 z m -10.3,-0.36 c 0,3.08 1.82,5.28 4.7,5.28 2.28,0 3.94,-1.3 3.94,-4.55 0,-2.34 -1.6,-4.87 -4.62,-4.87 -2.5,0 -4.02,1.73 -4.02,4.14 z"
                 id="path24"
                 style="fill:#efefef;stroke:#ededed;stroke-width:0.25px;stroke-miterlimit:10" />
              <path
                 class="cls-3"
                 d="m 80.15,673.65 c 1.58,-0.1 2.01,-0.46 2.01,-1.9 v -4.84 c 0,-1.61 -0.19,-1.71 -1.71,-1.98 v -0.31 c 1.09,-0.24 2.17,-0.46 3.02,-1.01 v 2 c 0.54,-0.29 1.22,-0.72 2.06,-1.23 0.76,-0.41 1.44,-0.67 2.2,-0.67 2.25,0 3.53,1.23 3.53,3.13 v 4.79 c 0,1.69 0.24,1.93 1.77,2.02 v 0.34 h -5.24 v -0.34 c 1.85,-0.1 2.17,-0.43 2.17,-2.02 v -3.95 c 0,-1.37 -0.43,-2.92 -2.93,-2.92 -1.33,0 -2.72,0.72 -3.56,1.47 v 5.42 c 0,1.54 0.27,1.9 2.15,2 v 0.34 h -5.46 v -0.34 z"
                 id="path25"
                 style="fill:#efefef;stroke:#ededed;stroke-width:0.25px;stroke-miterlimit:10" />
              <path
                 class="cls-3"
                 d="m 95.74,673.17 c 0,-0.6 0.52,-1.11 1.2,-1.11 0.68,0 1.22,0.51 1.22,1.11 0,0.65 -0.52,1.08 -1.22,1.08 -0.76,-0.02 -1.2,-0.48 -1.2,-1.08 z"
                 id="path26"
                 style="fill:#efefef;stroke:#ededed;stroke-width:0.25px;stroke-miterlimit:10" />
              <path
                 class="cls-3"
                 d="m 106.6,657.71 v 19.97 h -4.26 v -0.29 c 2.88,-0.22 2.96,-0.46 2.96,-2.24 v -14.89 c 0,-1.81 -0.08,-2.05 -2.96,-2.26 v -0.29 z"
                 id="path27"
                 style="fill:#efefef;stroke:#ededed;stroke-width:0.25px;stroke-miterlimit:10" />
            </g>
            <g
               id="g38">
              <path
                 class="cls-1"
                 d="m 25.75,766.23 c -0.16,0 -0.24,-0.08 -0.24,-0.24 0,-0.14 0.07,-0.24 0.2,-0.3 0.18,-0.07 0.51,-0.12 1,-0.15 0.48,-0.03 0.98,-0.08 1.49,-0.14 0.51,-0.06 0.95,-0.14 1.33,-0.24 0.38,-0.1 0.58,-0.25 0.61,-0.46 0.22,-2.16 0.33,-4.33 0.3,-6.5 -0.02,-2.17 -0.03,-4.34 -0.03,-6.5 v -6.31 c 0,-0.25 0,-0.49 0.02,-0.74 0.01,-0.25 0,-0.51 -0.05,-0.78 -0.11,-0.43 -0.3,-0.65 -0.56,-0.68 -0.26,-0.03 -0.56,-0.01 -0.89,0.03 -0.07,0 -0.23,0.01 -0.47,0.03 -0.25,0.02 -0.5,0.05 -0.76,0.07 -0.26,0.02 -0.59,0.05 -1,0.07 -0.13,-0.04 -0.21,-0.1 -0.24,-0.17 -0.03,-0.07 -0.03,-0.17 -0.03,-0.3 0,-0.07 0.04,-0.14 0.13,-0.2 0.09,-0.07 0.2,-0.12 0.32,-0.17 0.12,-0.04 0.25,-0.08 0.39,-0.12 0.14,-0.04 0.22,-0.06 0.27,-0.08 0.88,-0.27 1.76,-0.49 2.65,-0.68 0.89,-0.18 1.78,-0.37 2.68,-0.57 0.41,-0.07 0.82,-0.14 1.23,-0.2 0.42,-0.07 0.82,-0.09 1.2,-0.07 0.09,0 0.17,0.02 0.25,0.05 0.08,0.03 0.12,0.11 0.12,0.22 v 23.3 c 0,0.32 0.17,0.55 0.52,0.69 0.35,0.14 0.75,0.25 1.22,0.3 0.46,0.06 0.92,0.1 1.38,0.12 0.46,0.02 0.8,0.08 1.03,0.17 0.13,0.07 0.21,0.17 0.22,0.32 0.01,0.15 -0.06,0.22 -0.22,0.22 H 25.74 Z"
                 id="path28"
                 style="fill:#efefef" />
              <path
                 class="cls-1"
                 d="m 46.79,766.23 c -0.16,0 -0.24,-0.08 -0.24,-0.24 0,-0.14 0.07,-0.24 0.2,-0.3 0.18,-0.07 0.51,-0.12 1,-0.15 0.48,-0.03 0.98,-0.08 1.49,-0.14 0.51,-0.06 0.95,-0.14 1.33,-0.24 0.38,-0.1 0.58,-0.25 0.61,-0.46 0.22,-2.16 0.33,-4.33 0.3,-6.5 -0.02,-2.17 -0.03,-4.34 -0.03,-6.5 v -6.31 c 0,-0.25 0,-0.49 0.02,-0.74 0.01,-0.25 0,-0.51 -0.05,-0.78 -0.11,-0.43 -0.3,-0.65 -0.56,-0.68 -0.26,-0.03 -0.56,-0.01 -0.89,0.03 -0.07,0 -0.23,0.01 -0.47,0.03 -0.25,0.02 -0.5,0.05 -0.76,0.07 -0.26,0.02 -0.59,0.05 -1,0.07 -0.13,-0.04 -0.21,-0.1 -0.24,-0.17 -0.03,-0.07 -0.03,-0.17 -0.03,-0.3 0,-0.07 0.04,-0.14 0.13,-0.2 0.09,-0.07 0.2,-0.12 0.32,-0.17 0.12,-0.04 0.25,-0.08 0.39,-0.12 0.14,-0.04 0.22,-0.06 0.27,-0.08 0.88,-0.27 1.76,-0.49 2.65,-0.68 0.89,-0.18 1.78,-0.37 2.68,-0.57 0.41,-0.07 0.82,-0.14 1.23,-0.2 0.42,-0.07 0.82,-0.09 1.2,-0.07 0.09,0 0.17,0.02 0.25,0.05 0.08,0.03 0.12,0.11 0.12,0.22 v 23.3 c 0,0.32 0.17,0.55 0.52,0.69 0.35,0.14 0.75,0.25 1.22,0.3 0.46,0.06 0.92,0.1 1.38,0.12 0.46,0.02 0.8,0.08 1.03,0.17 0.13,0.07 0.21,0.17 0.22,0.32 0.01,0.15 -0.06,0.22 -0.22,0.22 H 46.78 Z"
                 id="path29"
                 style="fill:#efefef" />
              <path
                 class="cls-1"
                 d="m 67.35,750.23 c 0,-0.97 0.29,-1.69 0.86,-2.18 0.57,-0.48 1.22,-0.73 1.92,-0.74 0.71,-0.01 1.35,0.23 1.92,0.71 0.57,0.48 0.86,1.22 0.86,2.21 0,0.61 -0.14,1.11 -0.42,1.52 -0.28,0.41 -0.63,0.71 -1.05,0.91 -0.42,0.2 -0.86,0.29 -1.32,0.27 -0.46,-0.02 -0.9,-0.14 -1.32,-0.35 -0.42,-0.21 -0.77,-0.52 -1.05,-0.91 -0.28,-0.39 -0.42,-0.87 -0.42,-1.43 z m 0,13.8 c 0,-0.63 0.14,-1.16 0.42,-1.59 0.28,-0.43 0.63,-0.75 1.05,-0.98 0.42,-0.23 0.87,-0.34 1.35,-0.34 0.48,0 0.93,0.11 1.33,0.34 0.4,0.23 0.75,0.55 1.03,0.98 0.28,0.43 0.42,0.96 0.42,1.59 0,0.4 -0.05,0.78 -0.15,1.11 -0.1,0.34 -0.31,0.64 -0.62,0.91 -0.25,0.23 -0.56,0.39 -0.93,0.51 -0.37,0.11 -0.74,0.17 -1.11,0.17 -0.37,0 -0.74,-0.06 -1.1,-0.17 -0.36,-0.11 -0.66,-0.28 -0.91,-0.51 -0.32,-0.27 -0.52,-0.57 -0.62,-0.91 -0.1,-0.34 -0.15,-0.71 -0.15,-1.11 z"
                 id="path30"
                 style="fill:#efefef" />
              <path
                 class="cls-1"
                 d="m 85.85,766.67 c -1.42,-0.09 -2.61,-0.5 -3.58,-1.22 -1.1,-0.83 -1.97,-1.89 -2.62,-3.16 -0.65,-1.27 -1.09,-2.67 -1.33,-4.2 -0.25,-1.53 -0.37,-3 -0.37,-4.42 0,-0.67 0.04,-1.46 0.12,-2.36 0.08,-0.9 0.22,-1.83 0.42,-2.8 0.2,-0.97 0.47,-1.92 0.81,-2.85 0.34,-0.93 0.75,-1.77 1.25,-2.52 0.5,-0.74 1.08,-1.34 1.76,-1.81 0.67,-0.46 1.46,-0.69 2.36,-0.69 h 1.18 v 0.81 c -0.38,0.11 -0.73,0.33 -1.05,0.64 -0.47,0.47 -0.86,1.08 -1.15,1.82 -0.29,0.74 -0.51,1.59 -0.66,2.53 -0.15,0.94 -0.26,1.87 -0.34,2.79 -0.08,0.91 -0.12,1.77 -0.12,2.57 v 3.76 c 0,0.79 0.04,1.64 0.12,2.55 0.08,0.91 0.19,1.84 0.34,2.79 0.15,0.95 0.37,1.8 0.68,2.55 0.3,0.75 0.68,1.38 1.13,1.87 0.31,0.29 0.66,0.5 1.05,0.61 z m 5.64,-3.92 -10.8,-16.71 1.05,-0.68 10.8,16.71 z m -3.18,-22.11 c 0.9,0 1.7,0.23 2.4,0.68 0.7,0.45 1.3,1.05 1.81,1.81 0.51,0.75 0.94,1.6 1.3,2.53 0.36,0.93 0.65,1.89 0.86,2.85 0.21,0.97 0.37,1.9 0.46,2.8 0.09,0.9 0.13,1.69 0.13,2.36 0,0.95 -0.05,1.92 -0.15,2.94 -0.1,1.01 -0.28,2.01 -0.52,3 -0.25,0.99 -0.6,1.93 -1.06,2.82 -0.46,0.89 -1.04,1.68 -1.74,2.38 -0.47,0.45 -1,0.85 -1.59,1.2 -0.59,0.35 -1.22,0.58 -1.89,0.69 -0.27,0.04 -0.55,0.06 -0.84,0.03 l -0.41,-0.03 v -0.71 c 0.56,-0.11 1.01,-0.37 1.35,-0.78 0.47,-0.56 0.83,-1.18 1.08,-1.86 0.29,-0.7 0.5,-1.46 0.62,-2.28 0.12,-0.82 0.21,-1.65 0.25,-2.48 0.04,-0.83 0.07,-1.67 0.07,-2.52 v -2.41 c 0,-0.47 0,-1.11 0.02,-1.91 0.01,-0.8 0,-1.66 -0.05,-2.58 -0.04,-0.92 -0.13,-1.85 -0.27,-2.77 -0.13,-0.92 -0.35,-1.76 -0.64,-2.52 -0.29,-0.75 -0.68,-1.37 -1.15,-1.84 -0.38,-0.38 -0.86,-0.61 -1.42,-0.68 v -0.74 h 1.38 z"
                 id="path31"
                 style="fill:#efefef" />
              <path
                 class="cls-1"
                 d="m 106.88,766.67 c -1.42,-0.09 -2.61,-0.5 -3.58,-1.22 -1.1,-0.83 -1.97,-1.89 -2.62,-3.16 -0.65,-1.27 -1.09,-2.67 -1.33,-4.2 -0.25,-1.53 -0.37,-3 -0.37,-4.42 0,-0.67 0.04,-1.46 0.12,-2.36 0.08,-0.9 0.22,-1.83 0.42,-2.8 0.2,-0.97 0.47,-1.92 0.81,-2.85 0.34,-0.93 0.75,-1.77 1.25,-2.52 0.5,-0.74 1.08,-1.34 1.76,-1.81 0.67,-0.46 1.46,-0.69 2.36,-0.69 h 1.18 v 0.81 c -0.38,0.11 -0.73,0.33 -1.05,0.64 -0.47,0.47 -0.86,1.08 -1.15,1.82 -0.29,0.74 -0.51,1.59 -0.66,2.53 -0.15,0.94 -0.26,1.87 -0.34,2.79 -0.08,0.91 -0.12,1.77 -0.12,2.57 v 3.76 c 0,0.79 0.04,1.64 0.12,2.55 0.08,0.91 0.19,1.84 0.34,2.79 0.15,0.95 0.37,1.8 0.68,2.55 0.3,0.75 0.68,1.38 1.13,1.87 0.31,0.29 0.66,0.5 1.05,0.61 z m 5.64,-3.92 -10.8,-16.71 1.05,-0.68 10.8,16.71 z m -3.17,-22.11 c 0.9,0 1.7,0.23 2.4,0.68 0.7,0.45 1.3,1.05 1.81,1.81 0.51,0.75 0.94,1.6 1.3,2.53 0.36,0.93 0.65,1.89 0.86,2.85 0.21,0.97 0.37,1.9 0.46,2.8 0.09,0.9 0.13,1.69 0.13,2.36 0,0.95 -0.05,1.92 -0.15,2.94 -0.1,1.01 -0.28,2.01 -0.52,3 -0.25,0.99 -0.6,1.93 -1.06,2.82 -0.46,0.89 -1.04,1.68 -1.74,2.38 -0.47,0.45 -1,0.85 -1.59,1.2 -0.59,0.35 -1.22,0.58 -1.89,0.69 -0.27,0.04 -0.55,0.06 -0.84,0.03 l -0.41,-0.03 v -0.71 c 0.56,-0.11 1.01,-0.37 1.35,-0.78 0.47,-0.56 0.83,-1.18 1.08,-1.86 0.29,-0.7 0.5,-1.46 0.62,-2.28 0.12,-0.82 0.21,-1.65 0.25,-2.48 0.04,-0.83 0.07,-1.67 0.07,-2.52 v -2.41 c 0,-0.47 0,-1.11 0.02,-1.91 0.01,-0.8 0,-1.66 -0.05,-2.58 -0.04,-0.92 -0.13,-1.85 -0.27,-2.77 -0.13,-0.92 -0.35,-1.76 -0.64,-2.52 -0.29,-0.75 -0.68,-1.37 -1.15,-1.84 -0.38,-0.38 -0.86,-0.61 -1.42,-0.68 v -0.74 h 1.38 z"
                 id="path32"
                 style="fill:#efefef" />
              <path
                 class="cls-1"
                 d="m 120.02,756.2 c 0,-0.22 0.12,-0.34 0.37,-0.34 h 8.51 c 0.25,0 0.37,0.11 0.37,0.34 v 0.95 c 0,0.23 -0.12,0.34 -0.37,0.34 h -8.51 c -0.25,0 -0.37,-0.11 -0.37,-0.34 z"
                 id="path33"
                 style="fill:#efefef" />
              <path
                 class="cls-1"
                 d="m 134.84,766.23 c -0.16,0 -0.24,-0.08 -0.24,-0.24 0,-0.14 0.07,-0.24 0.2,-0.3 0.18,-0.07 0.51,-0.12 1,-0.15 0.48,-0.03 0.98,-0.08 1.49,-0.14 0.51,-0.06 0.95,-0.14 1.33,-0.24 0.38,-0.1 0.58,-0.25 0.61,-0.46 0.22,-2.16 0.33,-4.33 0.3,-6.5 -0.02,-2.17 -0.03,-4.34 -0.03,-6.5 v -6.31 c 0,-0.25 0,-0.49 0.02,-0.74 0.01,-0.25 0,-0.51 -0.05,-0.78 -0.11,-0.43 -0.3,-0.65 -0.56,-0.68 -0.26,-0.03 -0.56,-0.01 -0.89,0.03 -0.07,0 -0.23,0.01 -0.47,0.03 -0.25,0.02 -0.5,0.05 -0.76,0.07 -0.26,0.02 -0.59,0.05 -1,0.07 -0.13,-0.04 -0.21,-0.1 -0.24,-0.17 -0.03,-0.07 -0.03,-0.17 -0.03,-0.3 0,-0.07 0.04,-0.14 0.13,-0.2 0.09,-0.07 0.2,-0.12 0.32,-0.17 0.12,-0.04 0.25,-0.08 0.39,-0.12 0.14,-0.04 0.22,-0.06 0.27,-0.08 0.88,-0.27 1.76,-0.49 2.65,-0.68 0.89,-0.18 1.78,-0.37 2.68,-0.57 0.41,-0.07 0.82,-0.14 1.23,-0.2 0.42,-0.07 0.82,-0.09 1.2,-0.07 0.09,0 0.17,0.02 0.25,0.05 0.08,0.03 0.12,0.11 0.12,0.22 v 23.3 c 0,0.32 0.17,0.55 0.52,0.69 0.35,0.14 0.75,0.25 1.22,0.3 0.46,0.06 0.92,0.1 1.38,0.12 0.46,0.02 0.8,0.08 1.03,0.17 0.13,0.07 0.21,0.17 0.22,0.32 0.01,0.15 -0.06,0.22 -0.22,0.22 h -14.08 z"
                 id="path34"
                 style="fill:#efefef" />
              <path
                 class="cls-1"
                 d="m 165.96,756.81 c 0.07,-0.07 0.15,-0.16 0.24,-0.27 0.09,-0.11 0.17,-0.24 0.24,-0.37 0.07,-0.14 0.13,-0.27 0.19,-0.41 0.06,-0.13 0.08,-0.25 0.08,-0.34 0.04,-0.36 0.02,-0.68 -0.07,-0.96 -0.09,-0.28 -0.13,-0.58 -0.13,-0.89 0,-0.16 0.01,-0.27 0.03,-0.34 v -0.34 c 0.02,-0.34 0.02,-0.66 0,-0.96 -0.02,-0.3 -0.03,-0.62 -0.03,-0.96 0,-0.65 0,-1.37 0.02,-2.14 0.01,-0.78 -0.02,-1.56 -0.1,-2.35 -0.08,-0.79 -0.23,-1.54 -0.46,-2.25 -0.23,-0.71 -0.55,-1.34 -0.98,-1.91 -0.34,-0.38 -0.69,-0.64 -1.06,-0.78 -0.37,-0.14 -0.81,-0.2 -1.3,-0.2 -0.79,0 -1.45,0.27 -1.99,0.81 -0.54,0.54 -0.95,1.22 -1.23,2.04 -0.28,0.82 -0.46,1.75 -0.52,2.79 -0.07,1.04 -0.01,2.04 0.17,3.02 0.18,0.98 0.46,1.87 0.84,2.67 0.38,0.8 0.87,1.41 1.45,1.84 0.38,0.25 0.76,0.38 1.15,0.41 0.39,0.03 0.79,0.03 1.22,0.03 0.47,0 0.96,-0.07 1.45,-0.2 0.07,-0.02 0.12,-0.04 0.17,-0.07 0.04,-0.02 0.1,-0.03 0.17,-0.03 0.2,-0.02 0.34,-0.02 0.42,0.02 0.08,0.03 0.11,0.08 0.1,0.15 -0.01,0.07 -0.06,0.14 -0.15,0.22 -0.09,0.08 -0.18,0.14 -0.27,0.19 -0.07,0.05 -0.32,0.11 -0.76,0.2 -0.44,0.09 -0.92,0.19 -1.43,0.3 -0.52,0.11 -1.01,0.21 -1.47,0.29 -0.46,0.08 -0.75,0.12 -0.86,0.12 -2.25,0 -3.99,-0.66 -5.22,-1.99 -1.23,-1.33 -1.84,-3.09 -1.84,-5.3 0,-1.33 0.21,-2.5 0.64,-3.53 0.43,-1.02 1.02,-1.88 1.79,-2.57 0.76,-0.69 1.68,-1.21 2.73,-1.57 1.06,-0.36 2.23,-0.54 3.51,-0.54 1.55,0 2.9,0.27 4.03,0.81 1.14,0.54 2.08,1.28 2.84,2.23 0.76,0.95 1.31,2.05 1.67,3.31 0.36,1.26 0.54,2.6 0.54,4.02 0,1.76 -0.26,3.37 -0.78,4.84 -0.52,1.47 -1.24,2.81 -2.18,4.02 -0.93,1.2 -2.05,2.27 -3.34,3.21 -1.29,0.93 -2.72,1.72 -4.27,2.35 -0.72,0.32 -1.46,0.6 -2.21,0.86 -0.75,0.26 -1.51,0.46 -2.28,0.59 -0.07,0.02 -0.15,0 -0.24,-0.05 -0.09,-0.06 -0.14,-0.13 -0.14,-0.22 0,-0.07 0.03,-0.12 0.1,-0.17 1.24,-0.61 2.32,-1.21 3.26,-1.81 0.93,-0.6 1.77,-1.26 2.52,-1.99 0.74,-0.73 1.42,-1.56 2.03,-2.5 0.61,-0.93 1.18,-2.04 1.72,-3.33 z"
                 id="path35"
                 style="fill:#efefef" />
              <path
                 class="cls-1"
                 d="m 176.43,750.23 c 0,-0.97 0.29,-1.69 0.86,-2.18 0.57,-0.48 1.22,-0.73 1.92,-0.74 0.71,-0.01 1.35,0.23 1.92,0.71 0.57,0.48 0.86,1.22 0.86,2.21 0,0.61 -0.14,1.11 -0.42,1.52 -0.28,0.41 -0.63,0.71 -1.05,0.91 -0.42,0.2 -0.86,0.29 -1.32,0.27 -0.46,-0.02 -0.9,-0.14 -1.32,-0.35 -0.42,-0.21 -0.77,-0.52 -1.05,-0.91 -0.28,-0.39 -0.42,-0.87 -0.42,-1.43 z m 0,13.8 c 0,-0.63 0.14,-1.16 0.42,-1.59 0.28,-0.43 0.63,-0.75 1.05,-0.98 0.42,-0.23 0.87,-0.34 1.35,-0.34 0.48,0 0.93,0.11 1.33,0.34 0.4,0.23 0.75,0.55 1.03,0.98 0.28,0.43 0.42,0.96 0.42,1.59 0,0.4 -0.05,0.78 -0.15,1.11 -0.1,0.34 -0.31,0.64 -0.62,0.91 -0.25,0.23 -0.56,0.39 -0.93,0.51 -0.37,0.11 -0.74,0.17 -1.11,0.17 -0.37,0 -0.74,-0.06 -1.1,-0.17 -0.36,-0.11 -0.66,-0.28 -0.91,-0.51 -0.32,-0.27 -0.52,-0.57 -0.62,-0.91 -0.1,-0.34 -0.15,-0.71 -0.15,-1.11 z"
                 id="path36"
                 style="fill:#efefef" />
              <path
                 class="cls-1"
                 d="m 194.93,766.67 c -1.42,-0.09 -2.61,-0.5 -3.58,-1.22 -1.1,-0.83 -1.97,-1.89 -2.62,-3.16 -0.65,-1.27 -1.09,-2.67 -1.33,-4.2 -0.25,-1.53 -0.37,-3 -0.37,-4.42 0,-0.67 0.04,-1.46 0.12,-2.36 0.08,-0.9 0.22,-1.83 0.42,-2.8 0.2,-0.97 0.47,-1.92 0.81,-2.85 0.34,-0.93 0.75,-1.77 1.25,-2.52 0.5,-0.74 1.08,-1.34 1.76,-1.81 0.67,-0.46 1.46,-0.69 2.36,-0.69 h 1.18 v 0.81 c -0.38,0.11 -0.73,0.33 -1.05,0.64 -0.47,0.47 -0.86,1.08 -1.15,1.82 -0.29,0.74 -0.51,1.59 -0.66,2.53 -0.15,0.94 -0.26,1.87 -0.34,2.79 -0.08,0.91 -0.12,1.77 -0.12,2.57 v 3.76 c 0,0.79 0.04,1.64 0.12,2.55 0.08,0.91 0.19,1.84 0.34,2.79 0.15,0.95 0.37,1.8 0.68,2.55 0.3,0.75 0.68,1.38 1.13,1.87 0.31,0.29 0.66,0.5 1.05,0.61 z m 5.64,-3.92 -10.8,-16.71 1.05,-0.68 10.8,16.71 z m -3.17,-22.11 c 0.9,0 1.7,0.23 2.4,0.68 0.7,0.45 1.3,1.05 1.81,1.81 0.51,0.75 0.94,1.6 1.3,2.53 0.36,0.93 0.65,1.89 0.86,2.85 0.21,0.97 0.37,1.9 0.46,2.8 0.09,0.9 0.13,1.69 0.13,2.36 0,0.95 -0.05,1.92 -0.15,2.94 -0.1,1.01 -0.28,2.01 -0.52,3 -0.25,0.99 -0.6,1.93 -1.06,2.82 -0.46,0.89 -1.04,1.68 -1.74,2.38 -0.47,0.45 -1,0.85 -1.59,1.2 -0.59,0.35 -1.22,0.58 -1.89,0.69 -0.27,0.04 -0.55,0.06 -0.84,0.03 l -0.41,-0.03 v -0.71 c 0.56,-0.11 1.01,-0.37 1.35,-0.78 0.47,-0.56 0.83,-1.18 1.08,-1.86 0.29,-0.7 0.5,-1.46 0.62,-2.28 0.12,-0.82 0.21,-1.65 0.25,-2.48 0.04,-0.83 0.07,-1.67 0.07,-2.52 v -2.41 c 0,-0.47 0,-1.11 0.02,-1.91 0.01,-0.8 0,-1.66 -0.05,-2.58 -0.04,-0.92 -0.13,-1.85 -0.27,-2.77 -0.13,-0.92 -0.35,-1.76 -0.64,-2.52 -0.29,-0.75 -0.68,-1.37 -1.15,-1.84 -0.38,-0.38 -0.86,-0.61 -1.42,-0.68 v -0.74 h 1.38 z"
                 id="path37"
                 style="fill:#efefef" />
              <path
                 class="cls-1"
                 d="m 215.97,766.67 c -1.42,-0.09 -2.61,-0.5 -3.58,-1.22 -1.1,-0.83 -1.97,-1.89 -2.62,-3.16 -0.65,-1.27 -1.09,-2.67 -1.33,-4.2 -0.25,-1.53 -0.37,-3 -0.37,-4.42 0,-0.67 0.04,-1.46 0.12,-2.36 0.08,-0.9 0.22,-1.83 0.42,-2.8 0.2,-0.97 0.47,-1.92 0.81,-2.85 0.34,-0.93 0.75,-1.77 1.25,-2.52 0.5,-0.74 1.08,-1.34 1.76,-1.81 0.67,-0.46 1.46,-0.69 2.36,-0.69 h 1.18 v 0.81 c -0.38,0.11 -0.73,0.33 -1.05,0.64 -0.47,0.47 -0.86,1.08 -1.15,1.82 -0.29,0.74 -0.51,1.59 -0.66,2.53 -0.15,0.94 -0.26,1.87 -0.34,2.79 -0.08,0.91 -0.12,1.77 -0.12,2.57 v 3.76 c 0,0.79 0.04,1.64 0.12,2.55 0.08,0.91 0.19,1.84 0.34,2.79 0.15,0.95 0.37,1.8 0.68,2.55 0.3,0.75 0.68,1.38 1.13,1.87 0.31,0.29 0.66,0.5 1.05,0.61 z m 5.63,-3.92 -10.8,-16.71 1.05,-0.68 10.8,16.71 z m -3.17,-22.11 c 0.9,0 1.7,0.23 2.4,0.68 0.7,0.45 1.3,1.05 1.81,1.81 0.51,0.75 0.94,1.6 1.3,2.53 0.36,0.93 0.65,1.89 0.86,2.85 0.21,0.97 0.37,1.9 0.46,2.8 0.09,0.9 0.13,1.69 0.13,2.36 0,0.95 -0.05,1.92 -0.15,2.94 -0.1,1.01 -0.28,2.01 -0.52,3 -0.25,0.99 -0.6,1.93 -1.06,2.82 -0.46,0.89 -1.04,1.68 -1.74,2.38 -0.47,0.45 -1,0.85 -1.59,1.2 -0.59,0.35 -1.22,0.58 -1.89,0.69 -0.27,0.04 -0.55,0.06 -0.84,0.03 l -0.41,-0.03 v -0.71 c 0.56,-0.11 1.01,-0.37 1.35,-0.78 0.47,-0.56 0.83,-1.18 1.08,-1.86 0.29,-0.7 0.5,-1.46 0.62,-2.28 0.12,-0.82 0.21,-1.65 0.25,-2.48 0.04,-0.83 0.07,-1.67 0.07,-2.52 v -2.41 c 0,-0.47 0,-1.11 0.02,-1.91 0.01,-0.8 0,-1.66 -0.05,-2.58 -0.04,-0.92 -0.13,-1.85 -0.27,-2.77 -0.13,-0.92 -0.35,-1.76 -0.64,-2.52 -0.29,-0.75 -0.68,-1.37 -1.15,-1.84 -0.38,-0.38 -0.86,-0.61 -1.42,-0.68 v -0.74 h 1.38 z"
                 id="path38"
                 style="fill:#efefef" />
            </g>
            <g
               id="g50">
              <path
                 class="cls-1"
                 d="m 102.91,799.64 c -3.04,-2.67 -3.83,-4.53 -3.83,-7.28 0,-2.2 1.12,-4.66 3.79,-6.75 l 0.23,0.2 c -1.94,1.69 -3,4.35 -3,6.56 0,2.75 0.79,4.9 3,7.03 l -0.19,0.23 z"
                 id="path39"
                 style="fill:#efefef" />
              <path
                 class="cls-1"
                 d="m 119.38,789.95 c 0.09,0.09 0.14,0.17 0.14,0.22 0,0.06 -0.06,0.08 -0.17,0.08 h -7.01 v 4.86 l 1.69,-0.28 v 0.22 l -1.69,0.4 v 0.96 c 0,0.78 0.02,1.13 0.03,1.46 v 0.09 c 0,0.19 -0.06,0.23 -0.33,0.34 -0.14,0.06 -0.25,0.09 -0.31,0.09 -0.09,0 -0.11,-0.06 -0.11,-0.2 0,-0.26 0.02,-1.54 0.02,-1.82 v -0.76 l -3.77,0.88 c -0.57,0.14 -1.15,0.36 -1.41,0.59 -0.03,0.03 -0.06,0.06 -0.09,0.06 -0.03,0 -0.06,-0.03 -0.09,-0.08 l -0.61,-0.88 2.16,-0.36 v -5.59 h -0.81 c -0.33,0 -0.78,0.06 -1.04,0.17 l -0.43,-0.57 c 0.39,0.03 0.78,0.06 1.13,0.06 h 11.38 l 0.56,-0.76 0.78,0.81 z m -2.03,-5.04 c 0.09,0.05 0.14,0.09 0.14,0.14 0,0.03 -0.05,0.08 -0.16,0.14 l -0.48,0.28 v 1.49 c 0,0.56 0.02,0.9 0.08,1.44 0,0.06 0.02,0.11 0.02,0.16 0,0.19 -0.08,0.25 -0.39,0.37 -0.16,0.06 -0.25,0.09 -0.31,0.09 -0.11,0 -0.11,-0.06 -0.11,-0.34 h -6.86 c 0,0.31 0,0.33 -0.34,0.45 -0.12,0.05 -0.23,0.08 -0.29,0.08 -0.09,0 -0.14,-0.08 -0.14,-0.25 0,-0.2 0.06,-1.21 0.06,-1.3 v -1.82 c 0,-0.37 -0.02,-1.12 -0.05,-1.6 l 0.9,0.65 h 6.52 l 0.43,-0.61 0.98,0.62 z m -5.71,6.75 v -1.41 h -3.12 v 1.41 z m 0,1.83 V 792 h -3.12 v 1.49 z m 0,1.74 v -1.4 h -3.12 v 1.89 l 3.12,-0.5 z m 4.5,-8.66 v -1.33 h -6.86 v 1.33 z m 0,1.77 v -1.43 h -6.86 v 1.43 z m 2.12,3.32 c 0.09,0.06 0.14,0.12 0.14,0.16 0,0.05 -0.05,0.08 -0.16,0.12 -0.19,0.08 -0.33,0.23 -0.46,0.59 -0.47,1.18 -0.92,2.08 -1.51,2.86 0.92,0.81 2.13,1.38 3.72,1.68 l -0.02,0.17 c -0.7,0 -0.99,0.14 -1.32,0.47 -0.03,0.03 -0.06,0.05 -0.09,0.05 -0.11,0 -1.78,-0.96 -2.72,-1.89 -0.7,0.75 -1.63,1.38 -3,2.1 l -0.12,-0.16 c 1.12,-0.79 2.02,-1.52 2.73,-2.37 -0.79,-0.93 -1.16,-1.99 -1.5,-3.48 -0.29,0.03 -0.54,0.08 -0.76,0.17 l -0.43,-0.57 c 0.39,0.03 0.78,0.06 1.13,0.06 h 3.12 l 0.43,-0.54 0.81,0.6 z m -4.05,0.28 c 0.34,1.18 0.87,2.19 1.61,3.01 0.59,-0.82 1.02,-1.77 1.35,-3.01 z"
                 id="path40"
                 style="fill:#efefef" />
              <path
                 class="cls-1"
                 d="m 122.58,793.51 c 0.09,0.5 0.12,0.95 0.12,1.35 0,1.35 -0.46,2.58 -1.26,2.58 -0.28,0 -0.42,-0.2 -0.42,-0.36 0,-0.12 0.08,-0.26 0.2,-0.42 0.5,-0.64 1.1,-1.55 1.1,-3.15 h 0.25 z m 2.65,-3.45 c 1.16,0.92 1.52,1.47 1.52,1.96 0,0.37 -0.25,0.67 -0.48,0.67 -0.19,0 -0.2,-0.06 -0.29,-0.56 -2.41,0.26 -3.13,0.5 -3.55,0.84 -0.05,0.03 -0.08,0.06 -0.12,0.06 -0.04,0 -0.08,-0.05 -0.14,-0.12 l -0.53,-0.79 c 0.7,-0.22 0.85,-0.29 1.15,-0.71 0.4,-0.57 1.18,-1.75 1.66,-2.51 -1.21,0.16 -2.31,0.33 -2.67,0.53 -0.03,0.02 -0.06,0.03 -0.09,0.03 -0.05,0 -0.09,-0.05 -0.14,-0.14 l -0.36,-0.81 c 0.73,-0.11 0.93,-0.29 1.26,-0.84 0.68,-1.15 1.33,-2.47 1.75,-3.65 l 0.92,0.5 c 0.11,0.06 0.15,0.11 0.15,0.14 0,0.05 -0.06,0.08 -0.15,0.12 -0.23,0.09 -0.51,0.37 -0.71,0.68 -0.76,1.19 -1.82,2.64 -2.19,3.1 l 2.41,0.05 c 0.51,-0.85 0.9,-1.55 1.21,-2.19 l 0.84,0.62 c 0.08,0.06 0.12,0.09 0.12,0.14 0,0.03 -0.06,0.06 -0.17,0.11 -0.36,0.12 -0.45,0.22 -0.61,0.43 -0.87,1.21 -2.14,2.86 -3.26,4.27 l 3.17,-0.14 c -0.17,-0.65 -0.4,-1.12 -0.82,-1.61 l 0.14,-0.17 z m -1.36,3.26 c 0.75,1.18 1.02,2.05 1.02,2.53 0,0.61 -0.36,0.79 -0.59,0.79 -0.2,0 -0.33,-0.09 -0.33,-0.42 0,-0.12 0.03,-0.75 0.03,-0.88 0,-0.59 -0.06,-1.24 -0.33,-1.91 l 0.19,-0.11 z m 1.49,-0.15 c 1.21,1.04 1.77,1.72 1.77,2.2 0,0.51 -0.36,0.79 -0.57,0.79 -0.19,0 -0.25,-0.08 -0.28,-0.4 -0.06,-0.75 -0.45,-1.54 -1.05,-2.45 l 0.14,-0.14 z m 10.31,-0.36 c -0.88,0.25 -1.18,0.39 -1.33,0.67 -0.01,0.05 -0.05,0.08 -0.11,0.08 -0.05,0 -2.23,-0.87 -3.63,-2.5 -1.2,1.19 -2.5,1.96 -4.25,2.68 l -0.12,-0.2 c 1.5,-0.82 2.84,-1.78 3.97,-3.01 -0.61,-0.9 -0.99,-1.96 -1.35,-3.58 -0.7,1.16 -1.46,2.27 -2.08,2.96 l -0.2,-0.14 c 1.23,-1.88 2.28,-3.99 2.9,-5.85 l 0.85,0.62 c 0.06,0.05 0.09,0.08 0.09,0.09 0,0.03 -0.05,0.05 -0.11,0.08 -0.17,0.05 -0.34,0.19 -0.43,0.39 -0.22,0.43 -0.47,0.88 -0.71,1.32 h 3.17 l 0.46,-0.59 0.99,0.71 c 0.06,0.05 0.09,0.08 0.09,0.12 0,0.03 -0.03,0.06 -0.12,0.09 -0.22,0.09 -0.5,0.29 -0.59,0.5 -0.56,1.16 -1.24,2.33 -2.11,3.32 1.29,1.38 2.64,1.94 4.62,2.03 v 0.2 z m -7.27,2.72 c 2.58,0.62 4.04,1.32 4.21,1.91 0.03,0.12 0.05,0.25 0.05,0.36 0,0.31 -0.14,0.51 -0.34,0.51 -0.2,0 -0.26,-0.03 -0.47,-0.26 -0.62,-0.74 -1.8,-1.58 -3.51,-2.27 z m 0.68,-8.79 c 0.48,1.44 0.96,2.5 1.52,3.29 0.88,-1.07 1.44,-2.16 1.85,-3.29 z m 0.4,6.01 c 2.17,0.7 2.47,1.24 2.47,1.69 0,0.33 -0.17,0.59 -0.39,0.59 -0.14,0 -0.26,-0.08 -0.39,-0.34 -0.25,-0.53 -0.81,-1.13 -1.8,-1.77 z"
                 id="path41-3"
                 style="fill:#efefef" />
              <path
                 class="cls-1"
                 d="m 148.76,785.67 c 0.08,0.06 0.12,0.11 0.12,0.16 0,0.06 -0.06,0.12 -0.2,0.2 l -0.51,0.28 v 7.84 c 0,1.18 0.03,2.14 0.08,2.84 v 0.09 c 0,0.23 -0.06,0.28 -0.43,0.43 -0.16,0.06 -0.25,0.09 -0.31,0.09 -0.09,0 -0.11,-0.08 -0.11,-0.2 v -1.44 h -7.14 v 1.41 c 0,0.2 -0.02,0.25 -0.34,0.39 -0.14,0.06 -0.25,0.09 -0.31,0.09 -0.11,0 -0.14,-0.09 -0.14,-0.33 v -0.17 c 0.03,-0.92 0.05,-2.31 0.05,-3.2 v -7.82 c 0,-0.57 -0.01,-1.12 -0.05,-1.6 l 1.07,0.82 h 6.64 l 0.45,-0.7 1.13,0.81 z m -1.37,4.58 v -4.35 h -7.14 v 4.35 z m 0,5.37 v -5.03 h -7.14 v 5.03 z"
                 id="path42-8"
                 style="fill:#efefef" />
              <path
                 class="cls-1"
                 d="m 153.32,797 c 1.44,-0.14 1.54,-0.31 1.54,-1.35 v -5.94 c 0,-0.67 -0.06,-0.78 -0.79,-0.85 l -0.67,-0.08 v -0.23 c 0.96,-0.17 1.74,-0.45 2.22,-0.76 v 7.87 c 0,1.04 0.11,1.21 1.55,1.35 v 0.22 h -3.85 v -0.22 z"
                 id="path43-0"
                 style="fill:#efefef" />
              <path
                 class="cls-1"
                 d="m 159.53,789.88 c 0.09,-0.62 0.16,-1.29 0.22,-1.92 h 5.49 l 0.11,0.19 c -1.5,2.98 -2.84,6.08 -4.19,9.12 l -0.93,0.12 -0.11,-0.14 c 1.77,-2.79 3.21,-5.65 4.47,-8.54 h -3.31 c -1.06,0 -1.13,0.11 -1.51,1.16 h -0.25 z"
                 id="path44-2"
                 style="fill:#efefef" />
              <path
                 class="cls-1"
                 d="m 168.44,791.54 c 0,0.43 -0.29,0.71 -0.7,0.71 -0.41,0 -0.68,-0.28 -0.68,-0.71 0,-0.39 0.29,-0.7 0.68,-0.7 0.43,0 0.7,0.36 0.7,0.7 z m -1.36,5.15 c 0,-0.39 0.29,-0.71 0.68,-0.71 0.39,0 0.7,0.33 0.7,0.71 0,0.42 -0.29,0.7 -0.7,0.7 -0.43,-0.02 -0.68,-0.31 -0.68,-0.7 z"
                 id="path45-4"
                 style="fill:#efefef" />
              <path
                 class="cls-1"
                 d="m 176.11,792.58 c 0,2.17 -0.82,4.81 -2.93,4.81 -2.11,0 -3,-2.64 -3,-4.81 0,-2.17 0.85,-4.79 3,-4.79 2.15,0 2.93,2.73 2.93,4.79 z m -2.94,-4.44 c -1.66,0 -2.1,2.3 -2.1,4.45 0,2.15 0.43,4.45 2.11,4.45 1.68,0 2.05,-2.34 2.05,-4.45 0,-2.11 -0.45,-4.45 -2.05,-4.45 h -0.02 z"
                 id="path46-8"
                 style="fill:#efefef" />
              <path
                 class="cls-1"
                 d="m 183.28,792.58 c 0,2.17 -0.82,4.81 -2.93,4.81 -2.11,0 -3,-2.64 -3,-4.81 0,-2.17 0.85,-4.79 3,-4.79 2.15,0 2.93,2.73 2.93,4.79 z m -2.94,-4.44 c -1.66,0 -2.1,2.3 -2.1,4.45 0,2.15 0.43,4.45 2.11,4.45 1.68,0 2.05,-2.34 2.05,-4.45 0,-2.11 -0.45,-4.45 -2.05,-4.45 h -0.02 z"
                 id="path47-3"
                 style="fill:#efefef" />
              <path
                 class="cls-1"
                 d="m 191.05,785.16 c 0.08,0.06 0.12,0.11 0.12,0.16 0,0.05 -0.05,0.09 -0.12,0.14 l -0.45,0.26 v 2.36 c 0,0.22 0.05,1.19 0.05,1.37 0,0.23 -0.06,0.29 -0.36,0.42 -0.16,0.06 -0.25,0.09 -0.31,0.09 -0.09,0 -0.09,-0.06 -0.09,-0.65 h -3.55 v 5.56 c 0,1.18 0.02,2.34 0.06,3.04 v 0.11 c 0,0.22 -0.06,0.28 -0.39,0.42 -0.14,0.06 -0.25,0.09 -0.31,0.09 -0.11,0 -0.14,-0.09 -0.14,-0.33 v -0.17 c 0.03,-0.92 0.05,-1.99 0.05,-3.2 v -8.41 c 0,-0.64 -0.03,-1.69 -0.06,-2.27 l 1.04,0.99 h 3.12 l 0.4,-0.64 0.95,0.65 z m -1.16,1.75 v -1.43 h -3.55 v 1.43 z m 0,2.05 v -1.71 h -3.55 v 1.71 z m 5.97,2.61 c 0.08,0.09 0.12,0.17 0.12,0.22 0,0.06 -0.08,0.09 -0.23,0.09 h -2.84 v 4.19 c 0,0.79 -0.06,0.9 -0.87,1.29 -0.08,0.03 -0.12,0.05 -0.16,0.05 -0.06,0 -0.08,-0.03 -0.09,-0.11 -0.08,-0.56 -0.42,-0.85 -1.74,-1.16 l 0.05,-0.25 c 0.88,0.16 1.4,0.23 1.69,0.23 0.37,0 0.4,-0.11 0.4,-0.33 v -3.91 h -0.14 c -1.44,2.11 -3.04,3.65 -4.89,4.73 l -0.12,-0.19 c 1.63,-1.24 3.2,-3.06 4.11,-4.55 h -2.7 c -0.33,0 -0.78,0.06 -1.04,0.17 l -0.43,-0.57 c 0.39,0.03 0.78,0.06 1.13,0.06 h 4.08 c 0,-0.68 -0.03,-1.24 -0.06,-1.75 l 0.95,0.42 c 0.09,0.05 0.14,0.08 0.14,0.11 0,0.05 -0.03,0.08 -0.31,0.29 v 0.93 h 1.55 l 0.65,-0.82 0.75,0.85 z m 2.24,-6.46 c 0.12,0.08 0.17,0.14 0.17,0.2 0,0.05 -0.05,0.09 -0.17,0.16 l -0.42,0.23 v 11.73 c 0,0.56 -0.09,0.7 -0.99,1.21 -0.05,0.03 -0.08,0.05 -0.11,0.05 -0.06,0 -0.11,-0.05 -0.12,-0.16 -0.11,-0.57 -0.47,-0.84 -2.11,-1.26 l 0.05,-0.25 c 0.99,0.19 1.6,0.28 1.99,0.28 0.53,0 0.57,-0.19 0.57,-0.57 v -7.43 h -3.6 c 0,0.23 -0.03,0.29 -0.31,0.39 -0.14,0.05 -0.23,0.08 -0.29,0.08 -0.11,0 -0.14,-0.08 -0.14,-0.25 0,-0.17 0.03,-0.99 0.03,-1.18 v -2.65 c 0,-0.39 -0.02,-0.82 -0.05,-1.33 l 0.99,0.82 h 3.1 l 0.5,-0.73 0.92,0.67 z m -1.15,1.85 v -1.44 h -3.6 v 1.44 z m 0,2 v -1.66 h -3.6 v 1.66 z"
                 id="path48-9"
                 style="fill:#efefef" />
              <path
                 class="cls-1"
                 d="m 205.81,788.51 c 0,0 0.08,0.08 0.08,0.11 0,0.03 -0.05,0.05 -0.16,0.05 h -2.72 v 4.93 l 2.16,-0.76 0.06,0.22 -3.21,1.61 c -0.68,0.34 -0.95,0.57 -1.12,0.85 -0.03,0.06 -0.06,0.09 -0.11,0.09 -0.02,0 -0.05,-0.02 -0.08,-0.05 l -0.76,-0.9 2.36,-0.82 v -5.18 h -1.09 c -0.29,0 -0.71,0.06 -0.95,0.15 l -0.39,-0.54 c 0.34,0.03 0.7,0.06 1.02,0.06 h 1.4 v -2.19 c 0,-0.61 -0.03,-1.61 -0.06,-2.16 l 1.24,0.61 c 0.09,0.05 0.14,0.08 0.14,0.12 0,0.03 -0.05,0.08 -0.12,0.12 l -0.5,0.33 v 3.17 h 1.24 l 0.62,-0.76 0.93,0.93 z m 8.63,2.27 c 0,0 0.08,0.08 0.08,0.11 0,0.05 -0.05,0.06 -0.16,0.06 h -6.64 c -0.23,0.47 -0.51,0.95 -0.84,1.4 h 5.6 l 0.47,-0.61 0.96,0.78 c 0.09,0.08 0.14,0.12 0.14,0.16 0,0.05 -0.05,0.08 -0.14,0.12 l -0.57,0.29 c -0.16,1.46 -0.33,2.68 -0.57,3.66 -0.2,0.76 -0.51,1.04 -1.44,1.54 -0.03,0.02 -0.06,0.03 -0.08,0.03 -0.05,0 -0.08,-0.05 -0.09,-0.12 -0.09,-0.5 -0.33,-0.81 -1.77,-1.27 l 0.06,-0.23 c 0.81,0.2 1.35,0.29 1.74,0.29 0.62,0 0.79,-0.25 0.93,-0.73 0.2,-0.71 0.4,-2.25 0.53,-3.58 h -1.46 c -1.01,3.12 -1.89,4.31 -5.97,5.66 l -0.05,-0.22 c 3.79,-1.63 4.64,-3.21 5.18,-5.45 h -1.4 c -0.9,1.99 -2.44,3.46 -5,4.62 l -0.11,-0.22 c 2.58,-1.46 3.82,-3.32 4.25,-4.41 h -1.44 c -0.88,1.24 -2,2.36 -3,3.1 l -0.12,-0.17 c 1.79,-1.83 2.84,-3.45 3.31,-4.66 h -1.41 c -0.29,0 -0.71,0.06 -0.95,0.16 l -0.39,-0.56 c 0.34,0.03 0.7,0.06 1.02,0.06 h 7.71 l 0.62,-0.82 0.99,0.99 z m -1.55,-5.61 c 0.06,0.05 0.09,0.08 0.09,0.11 0,0.03 -0.03,0.06 -0.06,0.08 l -0.64,0.34 v 2.72 c 0,0.17 0.03,1.06 0.03,1.12 0,0.14 -0.05,0.19 -0.33,0.31 -0.14,0.06 -0.23,0.08 -0.29,0.08 -0.09,0 -0.11,-0.06 -0.11,-0.19 v -0.54 h -4.42 v 0.4 c 0,0.25 -0.51,0.39 -0.64,0.39 -0.09,0 -0.11,-0.05 -0.11,-0.16 v -0.08 c 0.03,-0.47 0.05,-0.78 0.05,-1.43 v -2.78 c 0,-0.42 -0.01,-0.82 -0.05,-1.3 l 0.98,0.82 h 3.96 l 0.48,-0.68 1.05,0.79 z m -1.31,1.76 v -1.52 h -4.42 v 1.52 z m 0,1.92 v -1.58 h -4.42 v 1.58 z"
                 id="path49-0"
                 style="fill:#efefef" />
              <path
                 class="cls-1"
                 d="m 216.74,799.5 -0.23,-0.23 c 1.94,-1.83 2.82,-4.35 2.82,-6.77 0,-2.42 -0.85,-4.73 -2.87,-6.61 l 0.19,-0.23 c 2.78,2.14 3.74,4.64 3.74,6.84 0,2.75 -1.29,5.11 -3.65,7 z"
                 id="path50-5"
                 style="fill:#efefef" />
            </g>
          </g>
        </g>
      </g>
    </g>
  </g>
</svg>
