<?xml version="1.0" encoding="UTF-8"?>
<svg id="Layer_2" xmlns="http://www.w3.org/2000/svg" viewBox="0 0 133.75 134.58">
  <defs>
    <style>
      .cls-1 {
        fill: #c9deec;
      }
    </style>
  </defs>
  <g id="Layer_1-2" data-name="Layer_1">
    <path class="cls-1" d="M4.44,90.12c-.36-.87-.48-1.72-.35-2.57.11-.84.44-1.6.99-2.27.53-.67,1.23-1.18,2.1-1.54l.26-.11c.87-.36,1.73-.49,2.59-.41.86.09,1.64.39,2.32.89.67.51,1.19,1.21,1.55,2.07l1.39,3.35,4.51-1.87,1.86,4.49-13.98,5.8-3.25-7.85ZM12.03,90.91l-.77-1.85c-.2-.47-.46-.78-.8-.91-.34-.14-.73-.13-1.15.05l-.16.07c-.43.18-.72.44-.84.78-.15.33-.12.73.07,1.21l.77,1.85,2.89-1.2Z"/>
    <path class="cls-1" d="M4.44,67.3c.92-.11,1.78.03,2.58.43.8.4,1.44,1.05,1.91,1.96l5.87-4.12.68,5.41-5.15,3.35.22,1.79,5.48-.68.6,4.82-15.02,1.88-1.15-9.19c-.13-1.08-.04-2.02.29-2.83.31-.82.8-1.47,1.47-1.93.65-.48,1.39-.77,2.22-.88ZM5.25,72.19c-.39.05-.7.22-.93.52-.23.29-.32.63-.27,1.01l.4,3.17,2.77-.35-.4-3.17c-.05-.38-.22-.68-.51-.91-.31-.23-.66-.32-1.05-.27Z"/>
    <path class="cls-1" d="M0,63.27l1.89-12.95,3.59.52-1.19,8.14,2.07.3,1.02-6.97,3.44.5-1.02,6.97,2.29.33,1.21-8.29,3.59.52-1.91,13.11-14.98-2.18Z"/>
    <path class="cls-1" d="M14.92,46l-3.16-1.45,2.34-5.1,3.16,1.45-2.34,5.1Z"/>
    <path class="cls-1" d="M25.49,19.91c.69.62,1.14,1.36,1.37,2.23.22.87.15,1.78-.23,2.72l6.96,1.73-3.65,4.06-5.9-1.69-1.21,1.34,4.11,3.69-3.25,3.62-11.26-10.12,6.19-6.89c.73-.81,1.5-1.35,2.33-1.64.82-.3,1.63-.36,2.42-.16.79.18,1.49.54,2.12,1.1ZM22.33,23.73c-.29-.26-.63-.39-1-.37-.37.02-.69.17-.94.46l-2.13,2.37,2.08,1.87,2.13-2.37c.25-.28.37-.61.35-.98-.03-.38-.19-.71-.49-.97Z"/>
    <path class="cls-1" d="M25.59,13.95l11.01-7.08,1.96,3.05-6.92,4.45,1.13,1.76,5.92-3.81,1.88,2.92-5.92,3.81,1.25,1.94,7.05-4.53,1.96,3.05-11.14,7.16-8.18-12.73Z"/>
    <path class="cls-1" d="M47.32,2.65c1.39-.42,2.7-.59,3.94-.5,1.24.08,2.3.44,3.2,1.08.91.61,1.54,1.51,1.89,2.69l-4.44,1.35c-.18-.6-.6-1.01-1.24-1.21-.65-.22-1.35-.21-2.11.02-1.1.33-1.83.88-2.22,1.64-.39.75-.42,1.65-.1,2.72l.41,1.35c.32,1.07.86,1.81,1.6,2.23.74.41,1.65.44,2.75.11.76-.23,1.35-.6,1.78-1.11.42-.53.55-1.07.38-1.63l-3.28,1-.89-2.95,7.73-2.34,2.45,8.08-2.4.73-.9-1.29c-.98,1.52-2.54,2.61-4.67,3.25-2.4.73-4.39.65-5.98-.23-1.59-.9-2.76-2.59-3.51-5.07-.74-2.46-.63-4.52.35-6.2.99-1.69,2.75-2.92,5.27-3.69Z"/>
    <path class="cls-1" d="M60.56,15.45l-1.09-15.1,4.85-.35,1.09,15.1-4.85.35Z"/>
    <path class="cls-1" d="M75.19.25c1.92.24,3.45.83,4.59,1.78,1.14.93,1.63,2.16,1.46,3.69l-.03.26-4.52-.57v-.09c.07-.44-.05-.82-.33-1.15-.28-.33-.75-.54-1.41-.62-.64-.08-1.15-.05-1.52.1-.36.15-.56.36-.59.64-.05.39.15.71.59.96.44.25,1.17.54,2.17.87,1.18.4,2.13.79,2.87,1.16.75.36,1.38.88,1.89,1.57.51.68.7,1.55.58,2.6-.22,1.78-.99,3.02-2.31,3.72-1.3.71-2.96.93-4.96.68-2.34-.3-4.12-.92-5.33-1.87-1.2-.95-1.67-2.42-1.42-4.41l4.56.58c-.1.76.04,1.29.4,1.6.36.3.96.5,1.79.6.61.08,1.12.08,1.53,0,.42-.08.66-.32.71-.73.05-.36-.15-.66-.57-.89-.41-.24-1.11-.53-2.09-.86-1.19-.42-2.17-.81-2.93-1.19-.76-.39-1.4-.95-1.92-1.68-.51-.73-.7-1.66-.56-2.78.21-1.64.99-2.77,2.36-3.38,1.38-.62,3.04-.81,4.99-.57Z"/>
    <path class="cls-1" d="M92.38,9.24l-4.18,10.46-4.51-1.8,4.18-10.46-4.62-1.84,1.43-3.6,13.73,5.48-1.44,3.6-4.6-1.84Z"/>
    <path class="cls-1" d="M109.92,21.47c-.56.74-1.26,1.25-2.11,1.54-.85.29-1.76.29-2.73,0l-1.15,7.08-4.34-3.3,1.21-6.02-1.44-1.09-3.34,4.4-3.87-2.94,9.16-12.05,7.37,5.6c.86.66,1.47,1.39,1.82,2.19.37.8.49,1.6.36,2.4-.11.8-.42,1.53-.92,2.2ZM105.86,18.63c.24-.32.33-.66.28-1.03-.05-.37-.23-.67-.53-.9l-2.54-1.93-1.69,2.22,2.54,1.93c.3.23.64.32,1.01.27.38-.06.69-.25.93-.57Z"/>
    <path class="cls-1" d="M109.85,38.14l1.34-1.78-3.15-4.26-2.1.76-2.96-4,15.45-4.56,3.36,4.55-8.89,13.44-3.06-4.14ZM111.36,30.89l1.95,2.64,3.39-4.48-.05-.07-5.29,1.91Z"/>
    <path class="cls-1" d="M126.31,46.31l-10.51,4.05-1.75-4.54,10.51-4.05-1.79-4.64,3.61-1.39,5.31,13.8-3.61,1.39-1.78-4.62Z"/>
    <path class="cls-1" d="M117.15,55.07l14.91-2.6.84,4.79-14.91,2.6-.83-4.79Z"/>
    <path class="cls-1" d="M133.73,69.8c-.14,2.61-.91,4.58-2.32,5.94-1.41,1.35-3.39,1.96-5.93,1.82-2.55-.13-4.45-.95-5.71-2.44-1.26-1.49-1.82-3.54-1.68-6.15.14-2.61.9-4.59,2.3-5.94,1.41-1.33,3.39-1.93,5.96-1.8,2.56.14,4.47.94,5.71,2.42,1.26,1.49,1.82,3.54,1.68,6.15ZM130.1,69.61c.05-1.04-.22-1.85-.82-2.42-.6-.58-1.44-.89-2.51-.95l-1.41-.07c-1.07-.06-1.93.17-2.59.68-.66.51-1.01,1.28-1.07,2.32-.06,1.04.22,1.85.82,2.42.6.59,1.43.91,2.5.97l1.41.07c1.07.06,1.93-.18,2.59-.7.66-.51,1.01-1.28,1.07-2.32Z"/>
    <path class="cls-1" d="M114.22,87.17l9.09-3.43-6.9-2.54,1.54-4.19,14.2,5.23-1.47,3.98-9.2,3.39,7,2.58-1.54,4.19-14.2-5.23,1.47-3.98Z"/>
    <path class="cls-1" d="M27.94,109.6l15.25,9.52-1.23,1.94-15.25-9.52,1.23-1.94ZM32.25,104.56l13.77,8.6-1.22,1.93-13.77-8.6,1.22-1.93ZM39.16,106.28l2.17,1.36-10.05,15.86-2.17-1.36,10.05-15.86ZM41.85,113.17l1.74,1.96c-1.37.77-2.8,1.55-3.83,1.97l-1.4-1.68c1.07-.53,2.53-1.46,3.49-2.25ZM31.74,107.87l2.24.46c.05,1.3-.12,2.92-.43,3.88l-2.43-.46c.34-.92.58-2.56.61-3.88ZM33.64,114.24l1.23,1.69c-3.29,1.67-7.46,2.46-10.95,2.15-.01-.69-.17-1.9-.37-2.59,3.31.53,7.35.06,10.09-1.24ZM36.52,116.09c0,2.99,1.27,6.81,3.17,9.53-.73.11-1.87.48-2.52.81-1.8-2.99-2.8-7.05-2.71-10.7l2.06.37Z"/>
    <path class="cls-1" d="M52.96,121.62l12.43,2.38-.41,1.98-12.43-2.38.41-1.98ZM54.5,124.94l8.07,1.55-.38,1.84-8.07-1.55.38-1.84ZM55.7,122.89l1.92.9c-1.48,2.08-3.65,3.7-5.77,4.55-.25-.46-.89-1.31-1.28-1.71,2.02-.67,3.93-1.99,5.13-3.74ZM62.2,126.42l2.2.42s-.13.52-.23.79c-1.08,3.79-1.72,5.31-2.37,5.8-.46.36-.93.43-1.45.39-.46-.03-1.22-.15-2.02-.32.1-.57.07-1.41-.12-1.96.6.18,1.12.3,1.38.35.28.05.44.04.64-.12.39-.29.96-1.59,1.91-5.03l.07-.31ZM57.47,119.04l-.2.94,5.09.97.2-.94-5.09-.97ZM57.98,116.57l-.2.94,5.09.98.2-.94-5.09-.98ZM56.24,114.55l9.35,1.79-1.39,6.66-9.35-1.79,1.39-6.66ZM48,116.73l6.01,1.15-.47,2.23-6.01-1.15.47-2.23ZM50.79,113.24l2.2.42-2.54,12.18-2.2-.42,2.54-12.18ZM45.75,125.36c1.63-.28,4.24-.82,6.72-1.36l.07,2.11c-2.18.64-4.52,1.29-6.42,1.78l-.37-2.53ZM59.88,126.36l1.41,1.17c-1.24,2.21-3.46,4.61-5.49,5.63-.32-.53-.9-1.19-1.42-1.64,2.15-.81,4.29-3.03,5.49-5.16ZM56.89,125.81l1.36,1.22c-1.4,1.83-3.94,3.7-6.06,4.54-.27-.56-.78-1.25-1.26-1.69,2.15-.61,4.61-2.33,5.96-4.07Z"/>
    <path class="cls-1" d="M74.19,120.85l7.29-1.27.31,1.98-7.29,1.27-.31-1.98ZM71.04,132.64l17.02-2.96.3,1.94-17.02,2.96-.3-1.94ZM69.78,116.95l5.52-.96.3,1.92-5.52.96-.3-1.92ZM74.55,116.12l.39-.07.4-.17,1.66.5c-.86,4.13-3.53,7.49-6.59,9.67-.39-.44-1.15-1.14-1.69-1.47,2.74-1.76,5.26-4.96,5.89-8.07l-.06-.4ZM78.94,114.67c1.86,2.99,5.06,5.37,8.69,6.08-.48.57-1.03,1.58-1.29,2.25-3.88-1.03-7.07-3.72-9.32-7.35l1.91-.98ZM69.39,120.67l1.06-1.52c.96.34,2.17.92,2.77,1.43l-1.1,1.67c-.6-.5-1.8-1.17-2.73-1.57ZM81.99,114.26l1.97.96c-.94,1.12-2.07,2.31-2.96,3.11l-1.59-.86c.84-.84,1.96-2.21,2.58-3.21ZM84.57,116.18l1.92.92c-.97,1.18-2.17,2.45-3.11,3.28l-1.59-.86c.91-.89,2.11-2.3,2.78-3.34ZM75.14,125.82l.27,1.74,6.74-1.17-.27-1.74-6.74,1.17ZM72.54,124.32l11.49-2,.86,5.51-11.49,2-.86-5.51ZM74.58,129.9l2.08-.93c.62.62,1.21,1.56,1.49,2.2l-2.16,1.05c-.24-.65-.84-1.62-1.41-2.31ZM81.53,128.1l2.36.1c-.34,1.05-.66,2.02-.95,2.72l-2.14-.11c.29-.76.61-1.91.73-2.71Z"/>
    <path class="cls-1" d="M106.22,112.73l2.19.04c-.27,1.22-.55,2.5-.85,3.42l-1.79-.11c.22-.94.43-2.39.45-3.35ZM99.19,118.37l.84-1.68c1.07.23,2.35.68,3.06,1.15l-.89,1.82c-.65-.5-1.94-1.01-3-1.3ZM95.15,109.59l7.12-4.19,3.49,6.09-1.91,1.12-2.52-4.39-5.21,3.06-.98-1.7ZM97.03,111.99l5.91-3.48.92,1.6-5.91,3.48-.91-1.6ZM97.25,115.18l9.24-5.43,1.01,1.77-9.24,5.43-1.01-1.77ZM101.32,113.99l1.91-1.12,4.44,7.74c.49.85.67,1.41.29,2.03-.35.6-1.03,1.02-1.98,1.58-.35-.49-1-1.1-1.52-1.49.49-.27,1.01-.57,1.18-.67.17-.1.2-.18.09-.38l-4.41-7.69ZM101.19,123.23c.59-1.02,1.42-2.6,2.22-4.18l1.52,1.2c-.57,1.38-1.22,2.85-1.83,4.09l-1.9-1.11ZM103.88,114.13c1.74,1.74,4.53,3.56,7.59,3.38-.2.61-.36,1.79-.35,2.48-3.1-.13-6.05-2.39-7.74-4.08l.5-1.78ZM90.84,117.11l5.1-3,1,1.74-5.1,3-.99-1.74ZM91.73,120.6l6.29-3.7,1.01,1.77-6.29,3.7-1.01-1.77ZM93.48,123.24l1.12-1.1c.85.8,1.79,1.87,2.35,2.65l-1.19,1.18c-.51-.81-1.47-1.92-2.28-2.74ZM95.39,127.42c1.5-1.21,3.69-3.1,5.78-4.88l1.14,1.63c-1.9,1.72-3.89,3.54-5.44,4.91l-1.48-1.66ZM97.98,119.96l1.69-.51c.26,1.17.61,2.43.77,3.31l-1.44.38c-.22-.91-.66-2.28-1.02-3.18ZM92.77,116.9l1.78-1.04,5.36,9.35-1.6,1.36-5.54-9.67ZM89.81,111.94l1.09-.64.22.38.59-.35.31.54c.08,1.71.06,4.12-.76,6.68-.51-.25-1.48-.57-2.02-.62.73-2.1.81-4.33.57-6ZM90.07,111.79l1.45-.85c1.5.28,3.49.78,4.62,1.3l-.41,2.38c-1.06-.56-3.07-1.33-4.45-1.56l-.36.21-.84-1.48Z"/>
  </g>
</svg>